<?xml version="1.0" encoding="utf-8"?>
<!-- Generator: Adobe Illustrator 26.4.1, SVG Export Plug-In . SVG Version: 6.00 Build 0)  -->
<svg version="1.1" id="Layer_1" xmlns="http://www.w3.org/2000/svg" xmlns:xlink="http://www.w3.org/1999/xlink" x="0px" y="0px"
	 viewBox="0 0 264 91" style="enable-background:new 0 0 264 91;" xml:space="preserve">
<style type="text/css">
	.st0{fill:#B3B3B3;}
	.st1{fill-rule:evenodd;clip-rule:evenodd;fill:#B3B3B3;}
</style>
<g id="logo_00000109741497425865253670000009117975906694158266_">
	<path class="st0" d="M97.73,48.97v7.02c-1.24,1.48-2.48,2.95-3.69,4.45c-3.42,4.25-6.69,8.62-10.38,12.65
		c-0.75,0.83-1.13,1.08-1.9,0.04c-8.73-11.7-17.49-23.39-26.23-35.08c-0.08-0.1-0.1-0.24-0.3-0.77c1.75,0,3.27,0.03,4.79-0.01
		c0.77-0.02,1.21,0.33,1.64,0.92c6.15,8.28,12.37,16.52,18.48,24.83c2.7,3.69,2.57,3.74,5.54,0.22
		C89.69,58.48,93.71,53.72,97.73,48.97z"/>
	<path class="st0" d="M97.73,38.02v6.21c-3.17,3.75-6.34,7.48-9.52,11.22c-1.48,1.74-2.99,3.45-4.43,5.22
		c-0.54,0.66-0.87,0.88-1.48,0.06c-5.59-7.61-11.21-15.2-16.85-22.83c3.95-1.13,5.02-0.56,7.12,2.64c2.15,3.28,4.64,6.32,6.95,9.5
		c0.82,1.13,1.56,2.3,2.33,3.46c0.87,1.29,1.55,1.54,2.71,0.09c3.73-4.66,7.61-9.2,11.43-13.77C96.72,38.94,97.2,38.38,97.73,38.02z
		"/>
	<path class="st0" d="M79.84,32.53c-0.03,1.48-0.69,2.11-1.88,2.1c-1.2-0.02-1.83-0.72-1.82-1.9c0.01-1.13,0.75-1.71,1.78-1.76
		C79.1,30.91,79.69,31.65,79.84,32.53z"/>
	<path class="st0" d="M83.66,34.66c-1.25-0.11-1.94-0.72-1.88-1.93c0.06-1.2,0.81-1.82,1.98-1.76c1.08,0.06,1.71,0.74,1.71,1.83
		C85.47,34,84.78,34.6,83.66,34.66z"/>
	<path class="st0" d="M79.85,38.24c-0.07,1.25-0.65,1.98-1.86,1.96c-1.18-0.02-1.87-0.67-1.86-1.88c0.01-1.12,0.7-1.71,1.76-1.78
		C79.1,36.46,79.71,37.14,79.85,38.24z"/>
	<path class="st0" d="M85.48,43.7c-0.05,1.36-0.68,2.01-1.86,2.1c-1.36,0.11-1.71-1.03-1.76-1.9c-0.05-0.84,0.37-1.81,1.63-1.82
		C84.73,42.08,85.33,42.69,85.48,43.7z"/>
	<path class="st0" d="M85.48,38.35c-0.11,1.27-0.79,1.89-1.96,1.85c-1.09-0.04-1.73-0.68-1.75-1.78c-0.02-1.21,0.68-1.86,1.85-1.88
		C84.86,36.51,85.39,37.27,85.48,38.35z"/>
	<path class="st0" d="M91.12,38.3c-0.09,1.17-0.63,1.91-1.86,1.9c-1.08-0.01-1.78-0.59-1.85-1.68c-0.07-1.17,0.54-1.91,1.74-1.98
		C90.35,36.47,90.96,37.16,91.12,38.3z"/>
	<path class="st0" d="M89.37,34.66c-1.16-0.06-1.93-0.54-1.96-1.77c-0.03-1.21,0.67-1.89,1.8-1.92c1.18-0.03,1.72,0.95,1.84,1.91
		C91.18,33.96,90.42,34.53,89.37,34.66z"/>
	<g>
		<path class="st0" d="M84.52,13.09c5.26-0.12,10.44,0.51,15.53,1.79c3.75,0.94,7.3,2.45,10.5,4.63c2.35,1.6,3.64,3.85,3.53,6.82
			c-0.07,2.01,0.01,4.02,0.08,6.03c0.05,1.34-0.45,1.96-1.85,1.96c-3.15,0-6.3,0.08-9.45,0.14c-1.22,0.03-1.88-0.43-1.88-1.75
			c0-1.74-0.16-3.48-0.11-5.22c0.04-1.16-0.44-1.65-1.5-1.97c-10.49-3.18-20.92-3.31-31.33,0.36c-1.19,0.42-1.4,1.08-1.09,2.07
			c0.51,1.64,0.21,3.32,0.28,4.97c0.05,1.24-0.6,1.7-1.87,1.72c-2.74,0.04-5.48-0.06-8.22,0.27c-2.34,0.28-2.79-0.29-2.86-2.58
			c-0.07-2.33-0.51-4.72-0.17-6.99c0.66-4.36,3.7-6.94,7.62-8.49C69.05,13.98,76.74,13.22,84.52,13.09z"/>
		<g>
			<g>
				<path class="st0" d="M134.93,40.07c-6.73,0-11.49,4.71-11.45,11.33c0.04,6.73,4.68,11.32,11.44,11.33
					c6.91,0,11.55-4.57,11.56-11.39C146.49,44.78,141.66,40.07,134.93,40.07z M140.44,55.55c-1.14,2.41-3.98,3.55-7.01,2.98
					c-2.6-0.49-4.53-2.74-4.83-5.68c-0.05-0.52-0.01-1.05-0.01-1.56c0.03-5.25,3.7-8.33,8.34-6.79c1.3,0.43,2.66,1.54,3.38,2.72
					C141.93,49.86,141.75,52.78,140.44,55.55z"/>
				<path class="st0" d="M120.38,40.37c-1.68-0.2-2.58,0.51-3.07,2.09c-0.66,2.1-1.45,4.15-2.18,6.23
					c-0.92,2.59-1.84,5.17-2.87,8.06c-0.3-0.7-0.49-1.09-0.64-1.49c-1.57-4.36-3.15-8.71-4.68-13.08c-0.44-1.27-1.15-1.91-2.56-1.78
					c-0.97,0.09-1.95,0.02-3.21,0.02c0.26,0.8,0.38,1.24,0.55,1.66c2.54,6.34,5.15,12.66,7.59,19.04c0.63,1.64,1.74,1.37,2.92,1.4
					c1.23,0.04,2.25,0.11,2.86-1.48c2.44-6.38,5.07-12.69,7.62-19.04c0.18-0.46,0.29-0.94,0.48-1.61
					C122.1,40.39,121.23,40.47,120.38,40.37z"/>
				<rect x="149.81" y="40.51" class="st0" width="4.75" height="21.95"/>
				<path class="st0" d="M207.85,40.27c-2.63-0.46-4.04,0.75-4.96,3.15c-0.89,2.34-2.14,4.54-3.37,7.08
					c-1.53-3.11-2.85-5.94-4.31-8.69c-0.33-0.62-1.07-1.33-1.71-1.43c-1.39-0.22-2.84-0.07-4.52-0.07c0.43,0.81,0.69,1.38,1,1.91
					c2.05,3.5,4.15,6.97,6.12,10.52c0.5,0.91,0.76,2.04,0.82,3.09c0.13,2.18,0.04,4.37,0.04,6.61h5.13c0-2.21,0.17-4.3-0.04-6.36
					c-0.25-2.36,1.24-3.9,2.21-5.69c1-1.83,2.1-3.6,3.16-5.4c0.62-1.05,1.24-2.1,1.84-3.15c0.24-0.43,0.43-0.89,0.74-1.55
					C209.11,40.29,208.47,40.38,207.85,40.27z"/>
				<path class="st0" d="M185.21,58.56c-1.13,0.03-1.55-0.34-1.51-1.49c0.07-2.26,0.02-4.53,0.02-6.79v-9.95
					c-1.24,0-2.18,0.09-3.09-0.02c-1.58-0.2-1.95,0.46-1.94,1.96c0.06,6.21,0,12.42,0,18.63c0,0.51,0.08,1.01,0.12,1.55h13.15v-3.92
					C189.6,58.54,187.4,58.49,185.21,58.56z"/>
				<path class="st0" d="M171.19,40.95c-3.95-1.22-8-0.42-12.04-0.61v22.1h4.95c0-2.12,0.05-4.03-0.02-5.94
					c-0.05-1.15,0.41-1.55,1.52-1.53c1.22,0.03,2.45,0.05,3.65-0.1c3.91-0.47,6.25-2.86,6.62-6.65
					C176.19,44.82,174.48,41.97,171.19,40.95z M170.2,49.73c-1.46,2.26-3.79,1.35-6.03,1.51v-7.15c2.08,0.16,4.26-0.69,5.86,1.24
					C171.13,46.67,171.11,48.33,170.2,49.73z"/>
			</g>
		</g>
	</g>
</g>
</svg>
