<?xml version="1.0" encoding="utf-8"?>
<!-- Generator: Adobe Illustrator 26.4.1, SVG Export Plug-In . SVG Version: 6.00 Build 0)  -->
<svg version="1.1" id="Layer_1" xmlns="http://www.w3.org/2000/svg" xmlns:xlink="http://www.w3.org/1999/xlink" x="0px" y="0px"
	 viewBox="0 0 264 91" style="enable-background:new 0 0 264 91;" xml:space="preserve">
<style type="text/css">
	.st0{fill:#B3B3B3;}
</style>
<g>
	<path class="st0" d="M81.2,54.9c-0.1-0.2-0.3-0.2-0.5-0.2c-0.2,0-0.4,0-0.6,0.1c-0.2,0.1-0.4,0.2-0.6,0.3c0.1-0.4,0-0.7,0.2-1.1
		c0.4-0.7,0.4-1.4,0.3-2.1c0-0.1,0-0.2-0.2-0.2c-0.1,0-0.3-0.1-0.4,0c-0.5,0.1-1,0.2-1.3,0.6c-0.1,0.1-0.2,0.2-0.3,0
		c-0.1-0.1-0.2-0.2-0.3-0.1c-0.8,0.2-1.3,0.7-1.5,1.5c-0.1,0.4-0.1,0.8-0.2,1.2c0,0.5,0.1,1,0,1.5c0,0.1,0,0.2-0.1,0.2
		c-0.1,0-0.1-0.1-0.1-0.2c-0.1-0.5-0.3-0.9-0.5-1.3c-0.3-0.4-0.6-0.4-0.9-0.1c-0.4,0.5-0.5,1-0.5,1.6c0.1,0.7,0.3,1.3,0.6,1.9
		c0.1,0.2,0,0.3-0.1,0.5c-0.3,0.3-0.4,0.7-0.5,1.1c0,0.3,0,0.5,0,0.8c0,0.3-0.2,0.6-0.5,0.6c-0.8,0.2-1.7,0.3-2.4,0.8
		c-0.6,0.4-1.3,0.6-2,0.8c-0.7,0.2-1.4,0.3-2.1,0.3c-0.7,0.1-1.4,0.1-2.1,0.1c-0.8-0.1-1.7,0-2.5,0.1c-0.9,0.2-1.9,0.5-2.8,0.8
		c-1.2,0.4-2.1,1.1-3,2c-0.4,0.5-0.8,1-1.2,1.5c-1.2,1.4-2.4,2.6-3.6,3.9c-0.9,1-1.9,1.9-2.8,3c-0.1,0.1-0.1,0.2,0,0.3
		c0.8,1.3,1.5,2.6,2.3,4c0.4,0.6,0.7,1.3,1.1,1.9c0.2,0.3,0.2,0.3,0.4,0c0.2-0.3,0.4-0.5,0.7-0.7c1.2-1.3,2.3-2.6,3.5-3.8
		c0.8-0.8,1.6-1.6,2.4-2.3c0.4-0.4,1-0.7,1.5-0.8c1.1-0.2,2.1-0.4,3.2-0.5c0.9-0.1,1.8-0.3,2.7-0.4c0.9-0.1,1.9-0.2,2.8-0.3
		c1.1-0.1,2.2-0.3,3.3-0.7c0.4-0.2,0.7-0.4,1-0.7c0.4-0.6,0.8-1.2,1.2-1.8c1.1-1.5,2.3-3,3.6-4.4c0.4-0.4,0.7-0.9,0.8-1.4
		c0-0.3,0.2-0.5,0.3-0.8c0.4-0.8,0.7-1.7,0.7-2.7c0-0.2,0-0.4,0.1-0.5c0.2-0.4,0.4-0.8,0.4-1.2c0.1-0.7,0.3-1.3,0.6-2
		c0-0.3,0-0.7,0-1C81.3,55,81.3,55,81.2,54.9z M77.1,62.9c-0.2,0.3-0.5,0.5-0.9,0.7c-0.4,0.1-0.7,0.3-1.1,0.4
		c-0.2,0.1-0.4,0.1-0.6,0.1c-0.5,0-0.7-0.2-0.9-0.6c-0.1-0.3-0.1-0.6-0.2-0.9c0-0.3,0.1-0.4,0.3-0.6c0.5-0.3,1.1-0.4,1.7-0.6
		c0.2-0.1,0.4-0.1,0.7-0.1c0.4,0,0.7,0.2,0.8,0.5C77.3,62.2,77.3,62.6,77.1,62.9z"/>
	<path class="st0" d="M43.6,70.6c-1.1-1.2-2.2-2.3-3.1-3.6c-0.4-0.5-0.9-1-1.4-1.5c-0.7-0.6-1.5-1-2.4-1.3c-0.8-0.3-1.6-0.5-2.5-0.7
		c-0.8-0.2-1.5-0.1-2.3-0.1c-1.3,0-2.5,0-3.8-0.3c-0.8-0.2-1.6-0.4-2.4-0.8c-0.7-0.4-1.5-0.7-2.4-0.8c-0.6-0.1-0.7-0.3-0.7-0.9
		c0-0.7-0.1-1.3-0.5-1.8c-0.1-0.1-0.1-0.3-0.1-0.4c0.2-0.6,0.4-1.2,0.5-1.8c0.1-0.6,0-1.2-0.3-1.8c-0.3-0.4-0.7-0.4-1,0
		c-0.2,0.4-0.4,0.8-0.5,1.2c0,0.1,0,0.2-0.1,0.2c-0.1,0-0.1-0.1-0.1-0.2c-0.1-0.3-0.1-0.6-0.1-0.9c0-0.6,0-1.3-0.1-1.9
		c-0.2-0.7-0.8-1.2-1.5-1.3c-0.1,0-0.2,0-0.3,0.1c-0.1,0.2-0.2,0.1-0.3,0c-0.1-0.2-0.3-0.3-0.5-0.4c-0.4-0.2-0.8-0.3-1.2-0.3
		c-0.1,0-0.3,0-0.3,0.2c0,0.5,0,0.9,0,1.4c0.1,0.6,0.5,1,0.4,1.6c0,0.1,0.1,0.1,0,0.2c-0.1,0-0.1,0-0.2,0c-0.3-0.2-0.6-0.3-1-0.3
		c-0.2,0-0.2,0-0.2,0.2c0,0.6,0,1.2,0,1.8c0,0,0,0.1,0,0.1c0.2,0.2,0.1,0.5,0.2,0.7c0.1,0.5,0.1,1,0.4,1.4c0.2,0.4,0.3,0.8,0.3,1.2
		c0,0.4,0.1,0.9,0.3,1.3c0.2,0.6,0.5,1.1,0.7,1.7c0.1,0.5,0.4,0.9,0.7,1.3c0.6,0.7,1.3,1.4,1.9,2.1c0.9,1.2,1.9,2.4,2.7,3.7
		c0.5,0.8,1.1,1.3,2,1.5c0.8,0.2,1.5,0.4,2.3,0.4c0.8,0.1,1.6,0.2,2.4,0.3c0.9,0.1,1.8,0.2,2.7,0.3c0.6,0.1,1.2,0.2,1.7,0.3
		c0.8,0.1,1.6,0.2,2.4,0.5c0.4,0.1,0.8,0.3,1.1,0.6c0.6,0.6,1.3,1.2,1.9,1.8c0.9,0.9,1.8,1.8,2.6,2.8c0.8,0.9,1.6,1.7,2.4,2.6
		c0.1,0.1,0.2,0.1,0.3,0c0.3-0.6,0.6-1.1,0.9-1.7c0.8-1.4,1.6-2.9,2.5-4.3c0.1-0.1,0-0.2,0-0.3C46.2,73.4,44.9,72,43.6,70.6z
		 M22.6,62.7c-0.1,0.3-0.1,0.5-0.2,0.7c-0.1,0.3-0.3,0.5-0.7,0.4c-0.7-0.2-1.4-0.4-2.1-0.8c-0.5-0.3-0.7-0.9-0.4-1.3
		c0.2-0.2,0.6-0.4,1-0.4c0.7,0,1.3,0.2,1.9,0.5C22.6,62,22.7,62.2,22.6,62.7z"/>
	<path class="st0" d="M52.1,65.2c0.4-0.1,0.8-0.2,1.2-0.2c0.3,0,0.6-0.1,0.9-0.2c0.8-0.2,1.5-0.4,2.3-0.7c0.9-0.3,1.7-0.6,2.5-1
		c0.6-0.3,1.1-0.5,1.7-0.9c0,0,0.1,0,0.1,0c0.8-0.5,1.7-1,2.4-1.6c1-0.7,1.9-1.5,2.8-2.3c1-0.9,1.9-2,2.8-3c1.5-2,2.8-4.1,3.8-6.4
		c0.4-1,0.8-2,1.1-3.1c0.1-0.3,0.2-0.6,0.2-0.9c0.1-0.4,0.1-0.7,0.2-1c0.1-0.3,0.1-0.6,0.2-0.9c0.1-0.3,0.1-0.6,0.1-0.9
		c0.1-0.6,0.1-1.2,0.2-1.8c0-0.4,0-0.8,0.1-1.2c0.1-0.6,0-1.2,0-1.8c0-1-0.1-2.1-0.3-3.1c-0.2-1.5-0.6-3-1-4.5
		c-0.8-2.7-2.1-5.1-3.7-7.4c-1.4-2-3.1-3.8-5-5.4c-2.2-1.8-4.7-3.2-7.3-4.3c-1.3-0.6-2.8-1-4.2-1.3c-1.6-0.4-3.3-0.5-5-0.6
		c-0.9,0-1.9,0-2.8,0.1c-0.7,0.1-1.5,0.1-2.2,0.3c-1.3,0.2-2.6,0.6-3.8,1c-2.1,0.7-4,1.6-5.9,2.8c-2.2,1.4-4.1,3-5.8,4.9
		c-0.9,1-1.7,2-2.4,3.1c-1.2,1.7-2.1,3.6-2.9,5.6c-0.3,0.9-0.7,1.9-0.9,2.9c-0.1,0.2-0.1,0.5-0.2,0.7c-0.2,0.3-0.1,0.7-0.2,1
		c0,0.3-0.1,0.6-0.2,0.9c-0.1,0.9-0.2,1.7-0.3,2.6c0,0.9-0.1,1.7,0,2.6c0,0.7,0.1,1.5,0.2,2.2c0.1,1.1,0.3,2.2,0.6,3.3
		c0.7,2.9,1.8,5.6,3.3,8.1c0.6,1,1.3,2,2,2.9c1,1.3,2.2,2.4,3.4,3.5c0.5,0.4,1,0.8,1.5,1.2c0,0,0,0,0,0c0.5,0.4,1,0.7,1.5,1.1
		c0.4,0.2,0.7,0.5,1.2,0.7c0.1,0.1,0.2,0.1,0.3,0.2c1.5,0.8,3.1,1.5,4.8,2.1c1.6,0.5,3.2,0.9,4.8,1.1c0.5,0.1,1,0.2,1.5,0.2
		c0,0,0.1,0,0.1,0c0,0,0.1,0,0.1,0c1.8,0.1,3.7,0.1,5.5-0.2C51.7,65.3,51.9,65.3,52.1,65.2z M48.4,59.6c0,0,0-0.1,0-0.2
		c0.1-1.1,0.1-2.2,0.2-3.4c0-0.6,0-1.3,0.1-1.9c0-0.7,0.1-1.4,0.1-2.1c0-0.3,0.1-0.4,0.5-0.4c0.4,0,0.7,0,1.1,0c0.4,0,0.9,0,1.3,0
		c0.5,0,0.9,0,1.4,0c0.7,0,1.4-0.1,2.1-0.1c0.7-0.1,1.4-0.1,2-0.3c0.4-0.1,0.9-0.1,1.3-0.2c0.6-0.1,1.3-0.2,1.9-0.5
		c0.1,0,0.3,0,0.4-0.1c0.1-0.1,0.2,0,0.1,0.2c-0.2,0.7-0.4,1.4-0.6,2c-0.3,1-0.6,1.9-1,2.8c-0.2,0.6-0.5,1.2-0.7,1.7
		c-0.1,0.1-0.2,0.2-0.3,0.2c-1.4,0.2-2.7,0.5-4,0.9c-0.8,0.2-1.5,0.6-2.2,0.9c-0.6,0.2-1.1,0.4-1.7,0.5c-0.6,0.1-1.1,0.3-1.7,0.2
		C48.3,59.9,48.4,60,48.4,59.6z M50.7,44.4c0.4,0,0.5,0,0.5,0.4c0,0.4-0.1,0.5-0.5,0.5c-0.3,0-0.5-0.1-0.5-0.3
		C50.2,44.5,50.2,44.5,50.7,44.4z M50.2,43.5c0-0.4,0.4-0.7,0.8-0.5c0,0,0.1,0.1,0.1,0.1c0.1,0.2,0.1,0.5,0,0.7
		C51,44,50.7,44,50.5,44C50.2,43.9,50.2,43.9,50.2,43.5z M50.7,45.8c0.4,0,0.5,0,0.5,0.5c0,0.4-0.1,0.4-0.5,0.5
		c-0.3,0-0.4-0.1-0.4-0.5C50.2,45.9,50.3,45.8,50.7,45.8z M51.7,46.7c0-0.1,0-0.1,0-0.2c0.1,0,0.1,0,0.2,0c0.1,0.1,0.2,0.2,0.4,0.2
		c0.1,0,0.2,0.1,0.1,0.3c0,0.7,0,1.4,0,2c0,0.1-0.1,0.2-0.2,0.2c-0.1,0-0.2,0-0.4,0.1c-0.2,0-0.2-0.1-0.2-0.2c0-0.3,0-0.6,0-1
		C51.7,47.6,51.8,47.1,51.7,46.7z M55,46.1c-0.1,0.9-0.1,1.7-0.1,2.6c0,0.1,0,0.2-0.2,0.2c-0.2,0-0.3,0.1-0.5,0.1
		C54,49,54,48.9,54,48.8c0-0.2,0-0.4,0-0.6c0-0.1,0-0.2,0.1-0.2c0.4-0.3,0.6-0.6,0.6-1.1c0-0.4,0-0.7-0.2-1
		c-0.1-0.2-0.2-0.3-0.4-0.4c-0.1,0-0.2,0-0.2-0.2c0-0.2-0.1-0.5-0.2-0.7c-0.1-0.1,0-0.2,0-0.4c0-0.1,0-0.1,0.1-0.1
		c0.1,0,0.1,0,0.2,0.1c0,0.1,0,0.1,0.1,0.2c0.1,0.2,0.2,0.5,0.5,0.6c0.2,0.1,0.4,0.3,0.6,0.4c0.1,0,0,0.1,0,0.2
		C55,45.6,55,45.9,55,46.1z M53.6,47.9c0.2,0.1,0.1,0.2,0.2,0.4c0,0.2,0,0.4,0,0.6c0,0.1-0.1,0.2-0.2,0.2c-0.2,0-0.4,0-0.6,0.1
		c-0.1,0-0.2,0-0.2-0.2c0-0.3,0-0.6,0-0.9c0,0,0,0,0,0c0-0.4,0-0.8,0-1.2c0-0.1,0.1-0.2,0.2-0.2c0.1,0,0.1,0.1,0.1,0.2
		C53,47.3,53.2,47.7,53.6,47.9z M56.1,48.4c0,0.1,0,0.2-0.2,0.3c-0.6,0.1-0.6,0.1-0.6-0.5c-0.1-1,0-1.9,0-2.9c0-0.3,0.3-0.3,0.4-0.5
		c0,0,0,0,0,0c0.5-0.2,0.5-0.2,0.5,0.3c0,0.5,0,1,0,1.5c0,0,0,0,0,0C56.1,47.3,56.1,47.9,56.1,48.4z M56.7,35.4
		c-0.2,0-0.3-0.1-0.3-0.3c0-0.3,0.1-0.3,0.3-0.3c0.2,0,0.3,0.1,0.2,0.3C57.1,35.3,57,35.4,56.7,35.4z M56.9,40.6
		c-0.2,0-0.1-0.1-0.2-0.2c0-0.1-0.1-0.1-0.1-0.2c0-0.1-0.1-0.1,0-0.2c0.1-0.1,0.2,0,0.3,0c0.1,0.1,0.2,0.2,0.2,0.3
		C57,40.5,57,40.6,56.9,40.6z M57,44.1c-0.1,0.1-0.1,0.2-0.3,0.1c0-0.1,0.1-0.1,0.1-0.2c0-0.1,0.1-0.1,0.2-0.1
		C57.1,43.9,57.1,44,57,44.1z M56.7,36.3c-0.2,0-0.3-0.1-0.3-0.3c0-0.3,0.1-0.4,0.3-0.4c0.2,0,0.3,0.1,0.3,0.3
		C57,36.2,56.9,36.3,56.7,36.3z M56.8,36.5c0.2,0,0.2,0.1,0.2,0.3c0,0.3-0.1,0.3-0.3,0.4c-0.2,0-0.3-0.1-0.3-0.3
		C56.4,36.6,56.5,36.5,56.8,36.5z M56.7,38.9c-0.2,0-0.3-0.1-0.3-0.3c0-0.3,0.1-0.3,0.3-0.3c0.2,0,0.3,0.1,0.3,0.3
		C57,38.8,56.9,38.9,56.7,38.9z M56.8,39.2c0.2,0,0.3,0.1,0.3,0.3c0,0.2-0.1,0.3-0.3,0.3c-0.2,0-0.3-0.1-0.3-0.3
		C56.4,39.3,56.5,39.2,56.8,39.2z M57.5,35.4c-0.2,0-0.3-0.1-0.3-0.3c0-0.3,0.1-0.3,0.3-0.3c0.3,0,0.3,0.1,0.3,0.3
		C57.9,35.3,57.7,35.4,57.5,35.4z M57.5,43.6c0.2,0,0.3,0.1,0.3,0.3c0,0.2-0.1,0.3-0.3,0.3c-0.2,0-0.2-0.1-0.2-0.3
		C57.3,43.7,57.3,43.6,57.5,43.6z M57.6,42.7c0.2,0,0.2,0.1,0.2,0.3c0,0.2-0.1,0.3-0.3,0.3c-0.2,0-0.2-0.2-0.2-0.3
		C57.2,42.7,57.4,42.7,57.6,42.7z M57.5,42.4c-0.2,0-0.3-0.1-0.3-0.3c0-0.3,0.1-0.3,0.3-0.3c0.2,0,0.3,0.1,0.3,0.3
		C57.9,42.4,57.7,42.4,57.5,42.4z M57.5,36.3c-0.2,0-0.3-0.1-0.3-0.3c0-0.3,0.1-0.4,0.3-0.4c0.2,0,0.3,0.1,0.2,0.4
		C57.8,36.2,57.7,36.3,57.5,36.3z M57.6,36.5c0.2,0,0.2,0.1,0.2,0.3c0,0.3,0,0.4-0.3,0.4c-0.2,0-0.3-0.1-0.3-0.3
		C57.2,36.6,57.3,36.5,57.6,36.5z M57.5,38.9c-0.2,0-0.3-0.1-0.3-0.3c0-0.3,0.1-0.4,0.3-0.4c0.2,0,0.2,0.1,0.2,0.3
		C57.8,38.8,57.8,38.9,57.5,38.9z M57.5,39.8c-0.2,0-0.3-0.1-0.3-0.3c0-0.2,0.1-0.3,0.3-0.3c0.3,0,0.3,0.1,0.3,0.3
		C57.8,39.7,57.7,39.8,57.5,39.8z M57.8,40.3c0,0.3-0.1,0.4-0.3,0.3c-0.1,0-0.3-0.1-0.3-0.2c0-0.3,0.1-0.4,0.3-0.4
		C57.8,40,57.8,40.2,57.8,40.3z M58.3,35.4c-0.2,0-0.3-0.1-0.3-0.3c0-0.3,0.1-0.3,0.3-0.3c0.3,0,0.3,0.1,0.2,0.3
		C58.6,35.3,58.5,35.4,58.3,35.4z M58.4,42.7c0.2,0,0.2,0.2,0.2,0.3c0,0.2-0.1,0.3-0.3,0.3c-0.2,0-0.3-0.2-0.3-0.3
		C58,42.7,58.2,42.7,58.4,42.7z M58.3,43.7c0.2,0,0.3,0.1,0.3,0.3c0,0.2-0.2,0.2-0.3,0.3c-0.1,0-0.2-0.1-0.2-0.2
		C58.1,43.8,58.1,43.7,58.3,43.7z M58.3,42.4c-0.2,0-0.3-0.1-0.3-0.3c0-0.2,0.1-0.3,0.3-0.3c0.2,0,0.2,0.2,0.2,0.3
		C58.6,42.3,58.5,42.4,58.3,42.4z M58.3,40.7c-0.2,0-0.3-0.1-0.3-0.3c0-0.3,0.1-0.4,0.3-0.4c0.2,0,0.3,0.1,0.3,0.3
		C58.6,40.6,58.5,40.7,58.3,40.7z M58.3,39.8c-0.2,0-0.3-0.1-0.3-0.2c0-0.3,0.1-0.4,0.4-0.4c0.2,0,0.2,0.1,0.2,0.3
		C58.6,39.7,58.5,39.8,58.3,39.8z M58.4,36.5c0.2,0,0.2,0.1,0.2,0.3c0,0.2-0.1,0.3-0.3,0.3c-0.2,0-0.3,0-0.3-0.3
		C58,36.6,58.1,36.5,58.4,36.5z M58.4,35.7c0.2,0,0.2,0.1,0.2,0.3c0,0.2-0.1,0.3-0.3,0.3c-0.2,0-0.3-0.1-0.3-0.3
		C58,35.7,58.2,35.7,58.4,35.7z M58.4,38.3c0.3,0,0.2,0.2,0.2,0.4c0,0.2-0.1,0.3-0.3,0.3c-0.2,0-0.3-0.1-0.3-0.3
		C58,38.4,58.1,38.3,58.4,38.3z M60.5,44c-0.2,0-0.3-0.1-0.3-0.3c0-0.3,0.2-0.3,0.3-0.3c0.2,0,0.2,0.1,0.2,0.3
		C60.8,44,60.7,44,60.5,44z M60.5,44.9c-0.1,0-0.2-0.1-0.2-0.2c0-0.1,0-0.3,0.2-0.3c0.2,0,0.3,0.1,0.3,0.3
		C60.8,44.9,60.6,44.9,60.5,44.9z M60.6,42.5c0.3,0,0.3,0.2,0.3,0.4c0,0.2-0.1,0.3-0.3,0.3c-0.3,0-0.3-0.1-0.3-0.4
		C60.2,42.5,60.3,42.5,60.6,42.5z M60.2,41.9c0-0.3,0.1-0.4,0.3-0.4c0.2,0,0.3,0.1,0.3,0.3c0,0.2-0.1,0.3-0.3,0.3
		C60.4,42.2,60.2,42.1,60.2,41.9z M53.5,63.6c-0.1,0.1-0.2,0-0.3,0.1c-0.1,0-0.1,0-0.1-0.1c0-0.2,0-0.4,0-0.5c0-0.1,0.1,0,0.1,0
		c0.1,0.1,0.1,0.2,0.2,0.3C53.4,63.5,53.5,63.6,53.5,63.6z M52.3,62.7c0,0.5-0.1,1-0.1,1.4c0,0.1,0,0.3,0,0.4l0,0
		c-0.1,0.1,0,0.3-0.1,0.4c0,0.2-0.2,0.3-0.4,0.2c-0.2-0.1,0.1-0.1,0-0.2c0,0,0-0.1-0.1-0.1c0,0,0.1,0,0.1,0.1
		c0.1-0.2,0.2-0.4,0.2-0.6c0-0.5-0.1-1-0.1-1.5c0-0.2,0.2-0.4,0.4-0.3C52.3,62.5,52.3,62.6,52.3,62.7z M54,64.7
		c-0.3,0-0.5,0.2-0.7,0.2c0,0,0,0,0,0c-0.1,0-0.2,0.1-0.2-0.1c0-0.2,0.1-0.2,0.2-0.2c0.2-0.1,0.3-0.1,0.5-0.1c0.2-0.1,0.3,0,0.4,0.2
		C54.1,64.6,54.1,64.7,54,64.7z M55.2,64.3c-0.1,0-0.1,0-0.2-0.1c-0.5-0.6-1-1.3-1.5-2c-0.1-0.2-0.1-0.2,0.1-0.3
		c0.2-0.1,0.3-0.1,0.6-0.2c0,0,0.1,0,0.1,0.1c0.3,0.7,0.6,1.5,0.9,2.2C55.3,64.2,55.3,64.2,55.2,64.3z M55.5,61.3
		c0.1,0,0.2-0.1,0.3-0.1c0.4-0.2,0.4-0.2,0.5,0.2c0.1,0.2,0.2,0.4,0.2,0.6c0,0.1-0.1,0.1-0.1,0.1c-0.3-0.2-0.6-0.4-0.9-0.7
		C55.4,61.4,55.4,61.3,55.5,61.3z M57,63.8c-0.2,0.1-0.4,0.2-0.6,0.2c-0.1,0-0.2,0-0.2-0.1c-0.1-0.3-0.2-0.5-0.3-0.8
		c0,0-0.1-0.1,0-0.1c0-0.1,0.1,0,0.2,0c0.3,0.2,0.6,0.5,1,0.7C57.1,63.7,57,63.7,57,63.8z M58.2,63.3c-0.1,0-0.2,0-0.2-0.1
		c-0.3-0.8-0.6-1.6-0.9-2.4c0-0.1-0.1-0.2,0.1-0.3c0.2-0.1,0.4-0.1,0.6-0.2c0,0,0.1,0,0.1,0c0,0,0,0.1,0,0.1
		c-0.4,0.7-0.3,1.3,0.2,1.9c0.2,0.3,0.4,0.4,0.8,0.5C58.6,63.1,58.4,63.2,58.2,63.3z M62.3,61c-0.4,0.3-0.8,0.5-1.2,0.8c0,0,0,0,0,0
		c0,0,0,0,0,0C61,61.9,60.8,62,60.8,62c0.1-0.1,0.2-0.1,0.3-0.2c-0.1,0-0.3,0-0.2-0.2c0-0.1,0-0.1-0.1-0.2c-0.1-0.2-0.2-0.4-0.3-0.6
		c-0.2-0.4-0.3-0.4-0.6-0.2c-0.2,0.1-0.4,0.2-0.7,0.3c-0.2,0.1-0.2,0.2-0.1,0.3c0,0.1,0.1,0.1,0.1,0.2c0.1,0.2,0.2,0.2,0.3,0.1
		c0.1-0.1,0.3-0.2,0.3,0c0.1,0.1-0.1,0.3-0.2,0.3c-0.4,0.2-0.6,0.3-0.9-0.1c-0.2-0.2-0.3-0.4-0.3-0.7c0-0.4,0.3-0.7,0.7-0.5
		c0.1,0,0.2,0,0.2,0c0.2-0.1,0.3-0.2,0.5-0.3c0,0,0,0,0-0.1c0-0.4,0.3-0.3,0.4-0.3c0.9,0,1.8,0.1,2.7,0.2c0.1,0,0.2,0.1,0.1,0.2
		C62.9,60.6,62.6,60.8,62.3,61z M70.8,46.2c-0.2,0.6-0.5,1.3-0.8,1.9c-0.3,0.8-0.7,1.6-1.1,2.3c-0.5,0.8-0.9,1.5-1.4,2.3
		c-0.9,1.3-1.9,2.4-3.1,3.5c-0.2,0.2-0.5,0.4-0.7,0.7c-0.2,0.2-0.5,0.3-0.8,0.3c-0.1,0-0.2,0-0.2,0c0,0,0,0,0,0c-0.3,0-0.6,0-0.9,0
		c-0.1,0-0.2-0.1-0.1-0.2c0.4-1,0.7-1.9,1-2.9c0.2-0.8,0.5-1.5,0.6-2.3c0.1-0.3,0.1-0.7,0.2-0.9c0.2-0.4,0.1-0.7,0.2-1.1
		c0-0.1,0-0.2,0.1-0.2c0.4,0,0.6-0.4,1-0.4c0.4-0.1,0.7-0.3,1.1-0.4c0.6-0.3,1.2-0.6,1.9-0.9c1-0.5,2-1.1,3-1.7c0.1,0,0.1-0.1,0.2,0
		C70.9,46.1,70.8,46.1,70.8,46.2z M66.9,26.8c0.4-0.6,0.8-1.3,1-2c0-0.1,0-0.3,0.2-0.3c0.1,0,0.2,0.2,0.2,0.3
		c0.4,0.7,0.8,1.4,1.2,2.1c0.6,1.1,1,2.2,1.4,3.4c0.4,1,0.6,2.1,0.8,3.2c0.1,0.7,0.2,1.5,0.3,2.3c0.1,0.8,0.1,1.6,0.1,2.4
		c0,0.7,0.1,1.4-0.1,2c-0.3,0.8-0.7,1.4-1.2,2.1c-0.5,0.6-1,1.1-1.5,1.5c-0.9,0.7-1.8,1.3-2.8,1.8c-0.4,0.2-0.9,0.4-1.3,0.6
		c-0.3,0.1-0.5,0.2-0.8,0.4c-0.3,0.1-0.3,0-0.3-0.2c0-0.4,0.1-0.7,0.1-1.1c0,0,0-0.1,0-0.1c0-0.9,0.1-1.8,0.1-2.7c0-0.5,0-0.9,0-1.4
		c0-0.4,0-0.8-0.1-1.2c0-0.3,0-0.5-0.1-0.8c0,2.1,0,4.2,0,6.3l0,0c0-2.1,0-4.2,0-6.3c0-0.7-0.1-1.3-0.2-2c-0.1-0.6-0.1-1.1-0.2-1.7
		c-0.2-1.1-0.4-2.2-0.6-3.4c-0.1-0.5-0.2-1-0.4-1.6c-0.1-0.3,0-0.4,0.2-0.4c0.8-0.3,1.5-0.8,2.2-1.3C65.8,28.1,66.5,27.5,66.9,26.8z
		 M61.2,17.7c0-0.2,0.1-0.3,0.3-0.1c0.3,0.2,0.6,0.4,0.9,0.7c1,0.8,1.9,1.6,2.8,2.5c0.5,0.5,0.6,1.1,0.7,1.7c0.1,0.6,0,1.3-0.2,1.9
		c-0.2,0.7-0.6,1.4-1.2,1.9c-0.4,0.4-0.9,0.8-1.3,1.1c-0.2,0.1-0.4,0.2-0.6,0.4c-0.1,0.1-0.2,0-0.2-0.1c0,0.2,0,0.2-0.2,0.2
		c-0.2,0-0.2-0.1-0.2-0.2c-0.1-0.1-0.1-0.2,0.1-0.2c0.1,0,0.1-0.1,0-0.1C62,27.2,62,27.2,62,27.1c0,0,0-0.1-0.1,0
		c-0.1,0.1-0.2,0-0.2-0.1c-0.2-0.7-0.6-1.2-0.8-1.9c-0.3-0.6-0.6-1.2-1-1.8c-0.4-0.6-0.7-1.2-1.2-1.8c-0.3-0.4-0.6-0.8-0.9-1.1
		c-0.1-0.1,0-0.2,0.1-0.3c0.3-0.1,0.6-0.2,0.9-0.3c0.7-0.3,1.3-0.6,1.8-1.1C60.9,18.4,61.1,18.1,61.2,17.7z M52.9,30.3
		C52.9,30.3,52.9,30.3,52.9,30.3L52.9,30.3c-0.1,0-0.1,0-0.1,0c-0.4,0-0.8,0-1.2,0c-0.2,0-0.4,0-0.6,0.1c-0.2,0-0.5,0.2-0.7,0.1
		c-0.2-0.1-0.4-0.1-0.6-0.1c-0.2,0-0.3-0.1-0.5,0c-0.1,0-0.1-0.1-0.1-0.1c0-0.1,0-0.2,0-0.3c0-0.3,0-0.7-0.1-1
		c0-0.9-0.1-1.7-0.1-2.6c0-0.4,0-0.8,0-1.2c-0.1-0.7-0.1-1.4-0.1-2.1c0-0.6,0-1.1-0.1-1.7c0-0.2,0.1-0.3,0.3-0.3c0.6,0,1.2,0,1.9,0
		c0.9-0.1,1.8-0.1,2.7-0.2c0.5-0.1,1-0.1,1.5-0.2c0.4-0.1,0.9-0.1,1.3-0.3c0.1-0.1,0.2,0,0.3,0.1c0.3,0.3,0.4,0.6,0.7,0.9
		c0.6,0.8,1.1,1.7,1.5,2.6c0.5,1.1,1.1,2.3,1.5,3.5c0.1,0.3,0.2,0.5,0.3,0.8c0.1,0.3,0.1,0.4-0.2,0.5c-0.4,0.1-0.9,0.2-1.3,0.4
		c-1,0.4-2.1,0.5-3.1,0.8c-0.5,0.1-1.1,0.2-1.7,0.2c-0.3,0-0.6,0.1-0.9,0.1C53.1,30.2,53,30.3,52.9,30.3
		C52.9,30.3,52.9,30.3,52.9,30.3z M52.5,13.8c0.1-0.1,0.2,0,0.2,0c0.4,0.1,0.7,0.2,1.1,0.3c0.5,0.2,1.1,0.3,1.6,0.5
		c0.4,0.2,0.8,0.3,1.3,0.4c0.1,0,0.8,0.4,1,0.4c0.3,0.1,0.7,0.3,1,0.5c0.4,0.2,0.7,0.7,0.7,1.3c0,0.4-0.3,0.7-0.7,1
		c-0.5,0.4-1.2,0.6-1.8,0.8c-0.1,0-0.2,0-0.3-0.1c-0.5-0.6-1-1-1.6-1.5c-0.7-0.6-1.5-1.2-2.3-1.6c-0.2-0.1-0.2-0.2,0-0.3
		c0.2-0.1,0.3-0.3,0.4-0.5c0.2-0.4,0-0.8-0.5-1c0,0,0,0-0.1,0C52.5,13.9,52.4,13.9,52.5,13.8z M51.2,16.2c0.2-0.1,0.4,0,0.6,0.1
		c1.2,0.6,2.2,1.4,3.1,2.3c0.2,0.2,0.4,0.4,0.5,0.5c0.1,0.1,0.1,0.2-0.1,0.3c-0.8,0.1-1.7,0.2-2.6,0.3c-1.1,0.1-2.2,0.2-3.3,0.2
		c-0.2,0-0.3,0-0.5,0c-0.4,0-0.4,0-0.5-0.4c0-0.7-0.1-1.5-0.1-2.2c0-0.2,0-0.4,0-0.6c0-0.2,0.2-0.2,0.3-0.2c0.4,0,0.9,0,1.3-0.1
		C50.4,16.4,50.8,16.3,51.2,16.2z M48,11.2c0-0.1,0.1-0.2,0.2-0.2c0.5,0,1,0,1.5,0c0.2,0,0.2,0.1,0.2,0.3c0,0.5,0,1,0,1.4
		c0,0.5,0,0.9,0,1.4c0,0.1,0,0.2-0.1,0.2c-0.1,0-0.1,0.2-0.2,0.3c-0.1,0.4-0.5,0.8-0.9,0.7c-0.4,0-0.8-0.4-0.8-0.8
		C48,13.5,48,12.4,48,11.2z M47.8,15.8c0,0.1,0,0.3-0.2,0.3c-0.3,0-0.6,0-0.9,0c-0.3,0-0.5,0-0.8,0c-0.2,0-0.2-0.1-0.2-0.2
		c0.1-0.4,0.3-0.6,0.7-0.8c0.3-0.1,0.5,0,0.7,0.1C47.6,15.2,47.7,15.5,47.8,15.8z M45.6,11.1c0.2,0,0.4-0.1,0.4,0.2
		c0,0.1,0.1,0.2,0.2,0.2c0.5,0,1.1,0.6,1.2,1.1c0.1,0.6-0.1,1.1-0.6,1.5c-0.2,0.1-0.3,0.2-0.8,0.2c-0.6,0-0.6,0-0.6-0.6
		c0-0.8,0-1.6,0-2.4C45.5,11.2,45.5,11.1,45.6,11.1z M43.9,16.2c0.1,0,0.2,0,0.3,0c0.8,0.2,1.6,0.4,2.5,0.4c0.4,0,0.4,0,0.4,0.5
		c0,0.9-0.1,1.8-0.1,2.8c0,0.2-0.1,0.2-0.2,0.2c-0.5,0-1,0-1.6,0c0,0,0,0,0,0c-0.3,0-0.6,0-0.9,0c-0.3-0.1-0.6,0-1-0.1
		c-0.7-0.1-1.5-0.2-2.2-0.3c-0.3,0-0.5-0.1-0.8-0.1c-0.1,0-0.2,0-0.2-0.1c-0.1-0.1,0-0.2,0.1-0.2C41.2,17.9,42.4,16.9,43.9,16.2z
		 M46.7,25.9c0,0.6-0.1,1.2-0.1,1.8c0,0.9-0.1,1.8-0.1,2.7c0,0.3,0,0.3-0.4,0.3c0,0,0,0-0.1,0c-0.7,0-1.4,0-2.2-0.1
		c-0.6-0.1-1.2-0.1-1.9-0.2c-0.6-0.1-1.3-0.2-1.9-0.3c-0.5-0.1-0.9-0.2-1.4-0.3c-0.3-0.1-0.6-0.1-0.9-0.2c-0.3-0.1-0.6-0.1-0.9-0.2
		c-0.2-0.1-0.3-0.1-0.5-0.1c-0.4-0.1-0.8-0.2-1.2-0.3c-0.2,0-0.3-0.1-0.2-0.3c0.3-0.8,0.5-1.5,0.8-2.3c0.2-0.6,0.5-1.2,0.8-1.8
		c0.6-1.3,1.3-2.5,2.2-3.7c0.1-0.2,0.3-0.3,0.6-0.2c0.7,0.2,1.5,0.3,2.2,0.4c0.9,0.1,1.9,0.2,2.8,0.2c0.7,0,1.4,0,2.1,0
		c0.4,0,0.4,0,0.4,0.4c-0.1,1-0.1,2-0.2,2.9C46.7,24.9,46.6,25.4,46.7,25.9z M44.4,20c0,0,0.1,0,0.1,0C44.5,20,44.4,20,44.4,20z
		 M44.6,20c0.1,0,0.1,0,0.2,0C44.7,20.1,44.7,20,44.6,20z M36.8,15.9c1-0.5,2-0.9,3-1.3c0.6-0.2,1.2-0.3,1.8-0.5
		c0.4-0.1,0.7-0.1,1.1-0.3c0.1,0,0.1,0,0.2,0c0,0.1,0,0.1-0.1,0.2c-0.3,0.2-0.5,0.5-0.5,0.9c0,0.3,0.2,0.4,0.3,0.6
		c0.3,0.3,0.3,0.3,0,0.5c-0.7,0.4-1.3,0.9-2,1.4c-0.6,0.5-1.2,1-1.7,1.6c-0.1,0.1-0.2,0.2-0.4,0.1c-0.4-0.2-0.8-0.2-1.1-0.4
		c-0.4-0.2-0.8-0.5-1.1-0.9c-0.1-0.2-0.1-0.4-0.2-0.6C36.1,16.5,36.4,16.1,36.8,15.9z M29.5,23.1c0-0.7,0.1-1.3,0.5-1.9
		c0.3-0.5,0.7-0.8,1.1-1.2c0,0,0.2-0.1,0.2,0c0,0.1,0,0.1,0.1,0.1c0.1,0,0.1-0.1,0.1-0.1c0-0.3,0.2-0.5,0.5-0.7
		c0.5-0.4,1.1-0.9,1.6-1.3c0.2-0.2,0.4-0.3,0.6-0.5c0.1-0.1,0.1-0.1,0.1,0.1c0,0.7,0.4,1.1,0.9,1.5c0.6,0.4,1.3,0.7,1.9,0.9
		c0.1,0,0.2,0.1,0.4,0.1c0.1,0,0.2,0.1,0.1,0.3c-0.5,0.5-0.9,1.1-1.3,1.7c-0.3,0.5-0.7,1-1,1.6c-0.1,0.2-0.2,0.4-0.4,0.5
		c-0.1,0.1,0,0.2-0.1,0.3c-0.3,0.4-0.3,0.9-0.7,1.2c-0.1,0.1,0,0.2,0,0.3c-0.2,0.6-0.4,1.1-0.6,1.6c0,0,0,0.1-0.1,0.1
		c0,0.1,0,0.3-0.2,0.3c-0.2,0-0.4-0.1-0.5-0.3c0-0.1,0-0.2-0.2-0.1c-0.1,0-0.1,0-0.2-0.1c-0.8-0.5-1.5-1.1-2.1-1.8
		c-0.4-0.6-0.7-1.2-0.8-1.9C29.5,23.5,29.5,23.3,29.5,23.1z M23.4,39.9c0-0.1-0.1-0.3-0.1-0.4c0-0.9,0-1.9,0-2.8
		c0.1-1.1,0.2-2.1,0.4-3.2c0.2-1.4,0.6-2.7,1.1-4c0.3-0.8,0.6-1.6,1-2.4c0.4-0.8,0.8-1.5,1.2-2.2c0,0,0.1-0.1,0.1-0.1
		c0.1-0.1,0.1-0.1,0.2-0.1c0.1,0,0.1,0.1,0.1,0.2c0.3,1,0.8,1.9,1.5,2.6c0.5,0.5,1,1,1.6,1.4c0.5,0.3,0.9,0.6,1.4,0.9
		c0.2,0.1,0.4,0.2,0.5,0.3c0.1,0.1,0.2,0.2,0.1,0.3c-0.2,0.6-0.3,1.1-0.4,1.7c-0.1,0.5-0.2,1-0.3,1.5c-0.1,0.6-0.2,1.2-0.3,1.8
		c-0.1,0.6-0.1,1.2-0.3,1.8c0,0,0,0.1,0,0.1c0,0.3,0,0.6-0.1,1c0,0.4,0,0.8,0,1.2c0,1.7,0,3.5,0,5.2c0,0.5,0.1,1.1,0.1,1.6
		c0,0.2-0.1,0.3-0.3,0.2c-0.7-0.3-1.4-0.6-2-0.9c-0.5-0.3-1-0.6-1.5-0.9c-0.6-0.4-1.2-0.8-1.7-1.3c-0.5-0.5-1-1-1.5-1.6
		C24,41.2,23.6,40.6,23.4,39.9z M31.4,56.6c-0.8-0.7-1.5-1.4-2.1-2.2c-0.6-0.7-1.2-1.5-1.7-2.3c-0.6-0.9-1.2-1.9-1.7-2.9
		c-0.5-1-0.9-2-1.3-3c0,0-0.1-0.1,0-0.1c0.1-0.1,0.1,0,0.2,0c0.6,0.4,1.2,0.7,1.8,1.1c0.8,0.5,1.7,0.9,2.6,1.3
		c0.7,0.3,1.4,0.7,2.1,0.9c0.5,0.2,0.6,0.4,0.7,0.8c0.2,1,0.4,1.9,0.7,2.9c0.3,0.9,0.5,1.9,0.9,2.8c0.1,0.2,0.1,0.4,0.2,0.6
		c0.1,0.2,0,0.3-0.2,0.3c-0.5,0-1.1,0.1-1.6,0.1C31.7,56.9,31.6,56.7,31.4,56.6z M34.7,62c-0.3-0.1-0.6-0.3-0.9-0.5
		c-0.6-0.3-1.1-0.7-1.6-1.1c-0.3-0.2-0.3-0.2,0-0.4c0,0,0,0,0,0c0.5-0.1,1-0.1,1.5-0.2c0.2,0,0.5,0,0.7-0.1c0.5-0.1,0.9,0.1,1.2,0.4
		c0.2,0.1,0.1,0.2,0,0.3C35.3,60.9,35.1,61.4,34.7,62C34.8,61.9,34.8,61.9,34.7,62C34.8,61.9,34.7,61.9,34.7,62L34.7,62z M35.6,62.5
		c0-0.1,0-0.1,0.1-0.2c0.3-0.5,0.5-1,0.8-1.4c0-0.1,0.1-0.2,0.3-0.2c0.1,0,0.3,0.1,0.4,0.2c0.2,0.1,0.3,0.2,0.4-0.1
		c0-0.1,0.1-0.2,0.2-0.3c0.1-0.1,0.1-0.1,0.2-0.1c0.1,0,0.3,0.1,0.3,0.2c0,0.1-0.1,0.2-0.2,0.3c-0.6,0.6-1.2,1.2-1.8,1.8
		C36.2,62.7,35.7,62.6,35.6,62.5z M38.2,63.3c0,0.3-0.1,0.3-0.3,0.2c-0.2-0.1-0.4-0.2-0.6-0.2c-0.1,0-0.2-0.1-0.2-0.2
		c0-0.1,0.1-0.3,0.3-0.3c0.3,0,0.5,0.2,0.8,0.3C38.2,63.2,38.2,63.3,38.2,63.3z M38.4,62.3c-0.1,0.1-0.2,0-0.3,0
		c-0.1,0-0.2-0.1,0-0.2c0.1-0.1,0.1-0.2,0.3-0.3c0.1,0,0.1-0.1,0.1,0C38.4,62,38.4,62.2,38.4,62.3z M40.4,62.3
		c-0.2,0.5-0.4,1.1-0.6,1.6c-0.1,0.2-0.2,0.2-0.3,0.1c-0.1,0-0.3,0-0.3-0.2c0-0.1,0-0.1,0-0.2c0-0.4,0.1-0.9,0.2-1.3
		c0-0.3,0.1-0.7,0.1-1c0-0.1,0-0.2,0.1-0.2c0.1,0,0.2,0,0.3,0.1c0.1,0.1,0,0.1,0,0.2c0,0.1,0,0.1-0.1,0.2c-0.1,0.3,0,0.4,0.3,0.5
		c0.1,0,0.2,0.1,0.3,0.1C40.4,62.1,40.4,62.3,40.4,62.3z M41.1,64.6c-0.1,0-0.2-0.1-0.4-0.1c-0.1,0-0.1-0.1-0.1-0.2
		c0.2-0.6,0.4-1.1,0.6-1.7c0-0.1,0.1-0.2,0.2-0.1c0.1,0,0.3,0.1,0.4,0.1c0.3,0.1,0.3,0,0.4-0.2c0.1-0.2,0.1-0.2,0.3-0.1
		c0.2,0.1,0.1,0.1,0,0.2c-0.4,0.6-0.9,1.3-1.3,1.9C41.4,64.5,41.3,64.6,41.1,64.6z M43.4,65c0,0.1-0.1,0.1-0.2,0.1
		c-0.2,0-0.5-0.1-0.7-0.1c-0.1,0-0.2,0-0.2-0.1c0-0.1,0.1-0.2,0.2-0.2c0.3,0,0.6,0.1,0.8,0.2C43.4,64.7,43.4,64.9,43.4,65z M43,63.7
		c0-0.1,0.1-0.3,0.2-0.4c0.2,0,0.1,0.2,0.1,0.3c0,0.1,0,0.3-0.1,0.2C43.1,63.9,43,63.8,43,63.7z M44.3,65.1
		C44.3,65.1,44.3,65.1,44.3,65.1c0,0.1,0,0.1,0,0.1C44.3,65.2,44.3,65.1,44.3,65.1C44.3,65.1,44.3,65.1,44.3,65.1
		C44.3,65,44.3,65,44.3,65.1C44.3,65,44.3,65,44.3,65.1z M46.1,64c0,0.3,0,0.7-0.1,1c0,0.2-0.1,0.3-0.3,0.3c-0.4,0-0.8-0.1-1.2-0.1
		c-0.1,0-0.1-0.1-0.2-0.1c0,0,0-0.1,0-0.1c0,0,0,0,0,0c0,0,0,0,0,0c0-0.5-0.1-0.9-0.1-1.3c0-0.3,0-0.5-0.1-0.8c0-0.1,0-0.2,0.2-0.2
		c0.6,0.1,1.1,0.2,1.7,0.2c0.1,0,0.1,0.1,0.1,0.2C46.2,63.4,46.1,63.7,46.1,64z M46.2,59.6c-0.5-0.2-1-0.3-1.4-0.5
		c-0.3-0.1-0.7-0.3-1-0.4c-0.6-0.2-1.2-0.5-1.8-0.7c-0.3-0.1-0.6-0.3-1-0.4c-0.4-0.1-0.8-0.2-1.3-0.3c-0.4-0.1-0.8-0.2-1.2-0.2
		c-0.3,0-0.5-0.1-0.8-0.2c-0.3-0.1-0.7,0-1-0.1c-0.1,0-0.2-0.1-0.3-0.2c-0.4-0.8-0.7-1.6-0.9-2.4c-0.4-1.1-0.8-2.3-1-3.5
		c-0.1-0.3-0.1-0.3,0.2-0.2c0.5,0.1,1,0.3,1.5,0.4c0.4,0.1,0.7,0.2,1.1,0.2c0.5,0.1,0.9,0.1,1.4,0.2c0.4,0.1,0.8-0.1,1.3,0.1
		c0.5,0.1,1,0,1.6,0.1c0.8,0.1,1.7,0.1,2.5,0.1c0.7,0,1.5,0,2.2,0c0.1,0.1,0.1,0.2,0.1,0.3c0,0.9,0,1.8,0.1,2.6c0,0.2-0.1,0.5,0,0.7
		c0.1,1.2,0.1,2.3,0.2,3.5c0,0.2,0,0.5,0,0.7C46.6,59.6,46.5,59.7,46.2,59.6z M38,38.6c0,0.2,0,0.3-0.2,0.3c-0.4,0-0.2-0.2-0.3-0.4
		c0-0.2,0.1-0.2,0.3-0.2C38.1,38.3,38,38.5,38,38.6z M38,39.8c0,0.2,0,0.3-0.2,0.3c-0.3,0-0.3-0.2-0.3-0.4c0-0.2,0-0.3,0.3-0.3
		C38.1,39.4,38,39.6,38,39.8z M37.8,40.6c0.3,0,0.2,0.2,0.2,0.3c0,0.2,0,0.3-0.2,0.3c-0.3,0-0.2-0.1-0.2-0.3
		C37.5,40.7,37.5,40.6,37.8,40.6z M37.8,42c0.3,0,0.3,0.1,0.2,0.3c0,0.2,0,0.3-0.2,0.3c-0.3,0-0.2-0.2-0.3-0.4
		C37.5,42.1,37.6,42,37.8,42z M37.8,43.8c-0.3,0-0.2-0.2-0.3-0.4c0-0.2,0-0.3,0.3-0.3c0.3,0,0.3,0.2,0.2,0.3
		C38,43.6,38.1,43.8,37.8,43.8z M38,44.5c0,0.1,0.1,0.4-0.2,0.4c-0.3,0-0.2-0.2-0.2-0.3c0-0.2,0.1-0.2,0.2-0.2
		C37.9,44.4,38.1,44.4,38,44.5z M38.6,42.7c-0.3,0-0.3,0-0.3-0.3c0,0,0,0,0,0c0-0.2,0-0.4,0.3-0.4c0.3,0,0.2,0.2,0.2,0.4
		C38.8,42.5,38.9,42.7,38.6,42.7z M38.6,44.9c-0.2,0-0.3-0.1-0.3-0.4c0-0.2,0.1-0.2,0.2-0.2c0.2,0,0.3,0.1,0.2,0.3
		C38.8,44.8,38.8,44.9,38.6,44.9z M38.8,43.6c0,0.1-0.1,0.2-0.2,0.2c-0.2,0-0.3,0-0.2-0.2c0-0.2,0-0.3,0.3-0.3
		C38.9,43.2,38.8,43.4,38.8,43.6z M38.6,39.4c0.3,0,0.3,0.1,0.3,0.3c0,0.2,0,0.3-0.3,0.3c-0.2,0-0.2-0.1-0.2-0.3
		C38.3,39.6,38.3,39.4,38.6,39.4z M38.6,40.6c0.3,0,0.3,0.2,0.3,0.3c0,0.2,0,0.3-0.2,0.3c-0.3,0-0.3-0.2-0.2-0.3
		C38.3,40.7,38.3,40.6,38.6,40.6z M38.8,38.6c0,0.2,0.1,0.3-0.2,0.3c-0.3,0-0.3-0.2-0.3-0.4c0-0.2,0-0.3,0.3-0.3
		C38.9,38.3,38.8,38.5,38.8,38.6z M39.3,38.9c-0.1,0-0.2-0.1-0.2-0.2c0,0,0-0.1,0-0.1c0-0.2-0.1-0.3,0.2-0.3c0.3,0,0.3,0.2,0.3,0.3
		C39.7,38.9,39.6,39,39.3,38.9z M39.4,40.6c0.2,0,0.3,0.1,0.3,0.3c0,0.2,0.1,0.4-0.3,0.4c-0.3,0-0.2-0.2-0.2-0.4
		C39.2,40.8,39.1,40.6,39.4,40.6z M39.6,39.8c0,0.2,0,0.3-0.2,0.3c-0.2,0-0.2-0.1-0.2-0.3c0,0,0,0,0-0.1c0-0.1,0-0.3,0.2-0.3
		c0.2,0,0.3,0.1,0.2,0.3C39.6,39.7,39.6,39.8,39.6,39.8z M39.4,42c0.3,0,0.2,0.2,0.2,0.3c0,0.2,0,0.3-0.2,0.3
		c-0.3,0-0.2-0.2-0.2-0.4C39.1,42.1,39.2,42,39.4,42z M39.2,44.6c0-0.2,0-0.3,0.2-0.3c0.3,0,0.2,0.2,0.2,0.3c0,0.2,0,0.3-0.2,0.3
		C39.1,44.9,39.2,44.7,39.2,44.6z M39.6,43.5c0,0.1,0.1,0.3-0.2,0.3c-0.3,0-0.3-0.2-0.3-0.4c0-0.2,0.1-0.3,0.3-0.3
		C39.7,43.2,39.6,43.3,39.6,43.5z M39.9,45C39.9,45,39.8,45,39.9,45C39.8,45,39.9,45,39.9,45z M40,47.5c0.1,0,0.1,0,0.2,0
		c0.1,0.1,0.2,0.2,0.3,0.2c0.1,0,0.1,0.1,0.1,0.2c0,0.1,0,0.2,0,0.4c0,0.1,0,0.2,0,0.3c0,0.2-0.1,0.3-0.3,0.2
		c-0.4-0.1-0.4-0.1-0.4-0.4c0-0.3,0-0.6,0-0.8C40,47.6,40,47.5,40,47.5z M41.5,47.9c0,0.3,0,0.6,0,0.9c0,0.2,0,0.3-0.3,0.2
		c0,0-0.1,0-0.1,0c-0.4,0-0.4-0.1-0.4-0.4c0-0.2,0-0.4,0-0.6c0-0.1,0-0.2,0.1-0.3c0.2-0.1,0.3-0.2,0.5-0.4c0,0,0.1-0.1,0.1-0.1
		c0.1,0,0.1,0.1,0.1,0.1C41.5,47.5,41.5,47.7,41.5,47.9z M41.8,46.2c0-0.2,0.1-0.4,0.3-0.5c0.1,0,0.2-0.2,0.2-0.3
		c0-0.1,0-0.1,0.1-0.1c0.1,0,0.1,0.1,0.1,0.2c0,0.6,0,1.2,0,1.7c0,0,0,0,0,0c0,0.6,0,1.1,0,1.7c0,0.2-0.1,0.3-0.3,0.2
		c-0.1,0-0.1,0-0.2,0c-0.3,0-0.4-0.1-0.3-0.4C41.8,47.9,41.7,47,41.8,46.2z M46.4,41.3c0.2,0,0.3,0.1,0.3,0.3c0,0.3,0,0.3-0.3,0.4
		c-0.2,0-0.3,0-0.3-0.3C46,41.3,46.1,41.3,46.4,41.3z M46,40.6c0-0.3,0.1-0.4,0.3-0.4c0.2,0,0.3,0.1,0.3,0.3c0,0.3-0.1,0.4-0.4,0.4
		C46,40.9,46,40.7,46,40.6z M46.3,42.2c0.2,0,0.3,0.1,0.3,0.4c0,0.3-0.1,0.3-0.4,0.3c-0.3,0-0.3-0.2-0.3-0.3
		C46,42.3,46.1,42.2,46.3,42.2z M46,45.4c-0.1,0.2-0.3,0.2-0.5,0.2c0,0-0.1,0-0.1,0c-0.5-0.1-0.6-0.2-0.5-0.7c0-0.1,0.1-0.2,0.3-0.2
		c0.1,0,0.2,0,0.3,0C45.9,44.6,46.1,44.9,46,45.4z M45.4,47c-0.6,0-0.6-0.1-0.5-0.6c0-0.2,0.1-0.3,0.3-0.3c0.2,0,0.4,0,0.5,0
		c0.1,0,0.2,0.1,0.2,0.2C46.2,46.8,46,47,45.4,47z M44.4,46.8c0,0.1-0.1,0.2-0.2,0.2c-0.2,0-0.4,0-0.5,0c-0.2,0-0.3-0.2-0.3-0.4
		c0-0.5,0.1-0.6,0.6-0.6C44.4,46.1,44.6,46.4,44.4,46.8z M43.9,45.6c-0.5,0-0.7-0.3-0.6-0.8c0-0.2,0.2-0.2,0.3-0.2
		c0.2,0,0.3,0,0.5,0c0.3,0,0.3,0.1,0.4,0.4c0,0,0,0,0,0C44.4,45.5,44.4,45.6,43.9,45.6z M47,49.1c0,0.1,0,0.1,0,0.2
		c0,0.1-0.1,0.1-0.1,0.1c-0.1,0-0.1-0.1-0.1-0.1c0-0.6,0-1.2,0-1.9c0,0.6,0,1.3,0,1.9c0-0.6,0-1.3,0-1.9c0-1,0-2,0-2.9
		c0-0.1,0-0.2-0.1-0.2c0.2-0.1,0.1-0.3,0.1-0.4c0-0.3,0-0.6,0-0.9c0.1-0.4,0.4-0.7,0.8-0.7c0.2,0,0.3-0.1,0.3-0.3
		c0-0.6,0.1-1.1,0-1.7c-0.1-0.4-0.1-0.4-0.5-0.4c-0.4,0-0.9-0.1-1.3,0c-0.4,0-0.5,0.1-0.5,0.5c0,1.2,0,2.4,0,3.5
		c0,0.2-0.1,0.1-0.2,0.1c-0.1,0-0.2,0.1-0.2-0.1c0.1-0.5,0-1.1,0-1.6c0-0.1-0.1-0.2-0.2-0.2c-0.2,0-0.4-0.1-0.6,0
		c-0.1,0-0.2,0.1-0.2,0.2c0,0.5,0,1,0,1.6c0,0,0,0.1,0,0.1c-0.1,0-0.1,0-0.2,0c-0.1,0,0-0.1,0-0.1c0-0.4,0-0.8,0-1.2
		c0-0.2-0.1-0.3-0.3-0.3c-0.7-0.1-0.7,0-0.7,0.7c0,0.3,0,0.5,0,0.8c0,0.3-0.2,0.2-0.4,0.2c-0.1,0-0.1-0.1-0.1-0.2
		c0-0.4-0.1-0.9-0.2-1.3c-0.1-0.3-0.3-0.5-0.5-0.7c-0.1-0.1-0.6,0-0.7,0.1c-0.3,0.3-0.3,0.7-0.4,1c-0.1,0.6,0,1.2,0.1,1.8
		c0,0.1,0,0.2-0.2,0.2c-0.2,0-0.3,0.1-0.5,0.2c-0.1,0.1-0.1,0.2-0.2,0.1c-0.1-0.1,0-0.2-0.1-0.3c0,0,0-0.1,0-0.1c0,0,0,0,0,0
		c0-1.4,0-2.8,0-4.2c0-0.9,0-1.9,0-2.8c0-0.3-0.1-0.4-0.4-0.4c-0.7,0-1.4,0-2,0c-0.2,0-0.3,0.1-0.3,0.3c0,0.1,0,0.2,0,0.4
		c0,2.1,0,4.1,0,6.2c0,0.1,0,0.2-0.1,0.2c-0.1,0.1-0.2,0-0.3-0.1c-0.4-0.3-0.8-0.2-1.2,0.2c-0.2,0.2-0.4,0.3-0.6,0.4
		c-0.1,0.1-0.2,0.1,0,0.2c0.1,0,0.1,0.1,0.1,0.2c0,0.6,0,1.3,0,1.9c0,0.2,0,0.2-0.2,0.2c-0.1,0-0.2-0.1-0.3-0.1
		c-0.1,0-0.1-0.2,0-0.4c0.3-0.4,0.4-1.1,0.1-1.5c-0.1-0.1-0.2-0.2-0.3-0.2c-0.2,0-0.3,0.1-0.3,0.3c-0.2,0.5-0.2,1,0.2,1.5
		c0,0.1,0.1,0.1,0.1,0.2c0,0.1-0.1,0-0.2,0c-0.4,0-0.5-0.1-0.6-0.6c-0.2-1.1-0.3-2.2-0.4-3.4c-0.1-1.6-0.2-3.1-0.1-4.7
		c0-1,0.1-2,0.2-3.1c0.2-1.7,0.4-3.3,0.9-5c0-0.2,0.1-0.2,0.3-0.2c0.4,0.1,0.8,0.3,1.2,0.4c0.6,0.1,1.1,0.4,1.7,0.5
		c0.2,0,0.3,0.1,0.5,0.1c0.9,0,1.8,0.3,2.8,0.4c0.6,0.1,1.2,0.1,1.7,0.3c0.3,0.1,0.6,0,0.9,0c0.9,0.1,1.8,0.1,2.7,0.1
		c0.5,0,1,0,1.5,0c0.6,0,1.2,0,1.7,0c0.9,0,1.8-0.1,2.7-0.1c0.5,0,1-0.1,1.4-0.1c0.6-0.1,1.1-0.2,1.7-0.3c0.7-0.1,1.3-0.3,2-0.4
		c0.6-0.1,1.2-0.3,1.7-0.4c0.7-0.1,1.3-0.4,2-0.6c0.1,0,0.2,0,0.2,0.1c0.2,0.9,0.4,1.9,0.6,2.8c0.2,0.9,0.3,1.7,0.4,2.6
		c0.1,0.5,0.1,1,0.1,1.5c0.1,1.1,0.1,2.3,0,3.5c-0.1,1.4-0.1,2.7-0.3,4.1c-0.1,0.7-0.2,1.3-0.3,2c0,0.2-0.2,0.2-0.3,0.2
		c-0.2,0-0.1-0.1-0.1-0.2c0-1,0-2,0-3c0-0.9,0-1.9,0-2.8c0-0.1-0.1-0.2-0.2-0.2c-0.4-0.1-0.8-0.2-1.3-0.2c-0.5,0-0.6,0.1-0.6,0.7
		c0,1.2,0,2.4,0,3.6c0,0.2,0.1,0.3,0.3,0.3c0.3,0,0.7-0.1,1,0c0.3,0.1,0.4,0.2,0.5,0.5c0,0.5,0,0.9,0,1.4c0,0.1,0,0.1-0.1,0.2
		c-0.1,0-0.1-0.1-0.1-0.2c0-0.4,0-0.8,0-1.2c0-0.4,0-0.4-0.4-0.5c-0.4-0.1-0.8-0.1-1.1,0c-0.2,0-0.3,0-0.3-0.3c0-2.4,0-4.7,0-7.1
		c0-1.2,0-2.4,0-3.5c0-0.4-0.1-0.5-0.5-0.5c-0.6,0-1.2,0-1.8,0c-0.4,0-0.5,0.1-0.5,0.5c0,1.6,0,3.1,0,4.7c0,0.1,0.1,0.2-0.1,0.3
		c-0.2,0-0.3,0-0.3-0.2c-0.1-0.2-0.2-0.3-0.3-0.4c-0.3-0.3-0.7-0.2-0.9,0.1c0,0,0,0,0,0c-0.2,0.4-0.5,0.7-0.9,1
		c-0.4,0.2-0.5,0.7-0.6,1.1c-0.1,0.7,0,1.3,0.2,1.9c0,0.1,0.1,0.2,0,0.2c-0.1,0-0.2,0-0.3-0.1c0,0,0-0.1-0.1-0.1
		c-0.2-0.3-0.5-0.3-0.8,0c-0.1,0.1-0.1,0.2-0.2,0.3c0,0.1-0.1,0.1-0.2,0.1c-0.1,0,0-0.1,0-0.2c0-0.2,0-0.4,0-0.7
		c-0.1-0.3-0.2-0.4-0.5-0.4c-1.2,0-2.5,0-3.7,0c-0.4,0-0.5,0.1-0.5,0.5C47,45,47,47.1,47,49.1z M47.2,41.2c0.2,0,0.3,0.1,0.3,0.3
		c0,0.3-0.1,0.4-0.4,0.4c-0.2,0-0.3-0.1-0.3-0.3C46.9,41.3,47,41.3,47.2,41.2z M46.9,40.6c0-0.3,0.1-0.3,0.3-0.3
		c0.2,0,0.3,0.1,0.3,0.3c0,0.3-0.1,0.4-0.4,0.4C46.9,40.9,46.9,40.8,46.9,40.6z M39.9,45C39.9,45,39.9,45,39.9,45
		C39.9,45,39.9,45,39.9,45z M59.7,44c-0.2,0-0.2-0.1-0.2-0.3c0-0.2,0.1-0.3,0.3-0.3c0.2,0,0.3,0.1,0.3,0.3C60,44,59.9,44,59.7,44z
		 M59.7,45c-0.2,0-0.2-0.2-0.2-0.3c0-0.2,0.1-0.3,0.3-0.3c0.2,0,0.2,0.2,0.2,0.3C60,44.9,59.8,45,59.7,45z M59.7,42.2
		c-0.3,0-0.2-0.2-0.2-0.4c0-0.2,0.1-0.3,0.3-0.3c0.2,0,0.3,0.1,0.3,0.3C60,42.1,59.9,42.2,59.7,42.2z M59.8,42.5
		c0.2,0,0.3,0.1,0.3,0.3c0,0.2-0.1,0.3-0.2,0.3c-0.2,0-0.3-0.1-0.3-0.4C59.4,42.5,59.6,42.5,59.8,42.5z M49.3,45.4
		c-0.4,0-0.5-0.1-0.5-0.4c0-0.5,0.1-0.5,0.5-0.5c0.4,0,0.5,0,0.5,0.5C49.8,45.3,49.7,45.4,49.3,45.4z M49.8,46.2
		c0,0.4-0.1,0.5-0.5,0.5c-0.4,0-0.5-0.1-0.5-0.4c0-0.4,0.1-0.5,0.5-0.5C49.7,45.8,49.8,45.9,49.8,46.2z M49.3,44
		c-0.4,0-0.5-0.1-0.5-0.5c0-0.4,0.1-0.5,0.6-0.5c0.3,0,0.4,0.1,0.4,0.5C49.9,43.9,49.7,44,49.3,44z M47.9,45.4
		c-0.3,0-0.4-0.1-0.4-0.4c0.1-0.5,0-0.6,0.7-0.6c0.3,0,0.3,0.1,0.3,0.5C48.4,45.4,48.4,45.4,47.9,45.4z M48.4,46.2
		c0,0.5-0.1,0.5-0.5,0.5c-0.4,0-0.5,0-0.5-0.4c0-0.5,0.1-0.5,0.6-0.6C48.4,45.8,48.4,45.8,48.4,46.2z M47.9,44
		c-0.3,0-0.5-0.1-0.5-0.4c0-0.5,0.1-0.6,0.6-0.6c0.4,0,0.4,0,0.5,0.4C48.5,43.9,48.3,44,47.9,44z M47.4,65.4c-0.4,0-0.4,0-0.3-0.4
		c0-0.1,0-0.3,0-0.4c0-0.1,0-0.1,0.1-0.1c0.1,0,0.1,0,0.2,0.1c0.1,0.1,0.2,0.3,0.3,0.5c0,0,0,0.1,0,0.1
		C47.8,65.4,47.8,65.4,47.4,65.4z M47.8,63.5c-0.1,0.2-0.2,0.2-0.4,0.2c-0.3,0-0.4-0.1-0.3-0.4c0-0.1,0.1-0.1,0.1-0.1
		c0.2,0,0.4-0.1,0.5,0.1C47.9,63.4,47.9,63.5,47.8,63.5z M47.9,49.2c0-0.3,0-0.6,0-0.9c0-0.3,0.1-0.4,0.4-0.4c0.5,0,1-0.1,1.5-0.1
		c0.2,0,0.5,0,0.7,0.1c0.2,0.1,0.2,0.2,0.2,0.4c0,0.3,0,0.6,0,0.9c0,0.2-0.1,0.3-0.3,0.3c-0.6,0-1.2,0-1.8,0c0,0,0,0,0,0
		c-0.2,0-0.4,0-0.6,0C47.9,49.4,47.9,49.4,47.9,49.2z M49.4,65.3c-0.1,0.1-0.2,0.1-0.3,0.1c-0.2,0-0.2-0.1-0.3-0.2
		c-0.1-0.3-0.2-0.6-0.5-0.8c-0.1-0.1,0-0.2,0-0.2c0.2-0.1,0.3-0.3,0.4-0.5c0,0,0-0.1,0.1-0.1c0.1,0,0.1,0.1,0.1,0.1
		c0,0.3,0,0.6,0.1,1c0,0.2,0.1,0.3,0.2,0.4C49.3,65.2,49.5,65.2,49.4,65.3z M50.7,64.6c-0.3,0.3-0.7,0-0.7-0.3
		c0-0.4-0.1-0.8-0.1-1.3c0-0.1,0-0.2,0.2-0.2c0.1,0,0.3,0,0.4-0.1c0.2-0.1,0.3,0,0.3,0.2c0,0.3,0.1,0.6,0.1,1
		C50.8,64.2,50.9,64.4,50.7,64.6z"/>
	<path class="st0" d="M31.2,39.6c0,1.2,0,2.4,0,3.6c0,0.3,0,0.5,0,0.8c0,0.2,0,0.4,0.1,0.6c0-1.7,0-3.5,0-5.2c0,0,0,0,0,0
		C31.2,39.5,31.2,39.6,31.2,39.6z"/>
</g>
<g>
	<path class="st0" d="M18.6,42.7c0.2,0,0.4,0,0.6,0c0.2,0.1,0.3,0.2,0.4,0.3s0.2,0.4,0.2,0.6l0.1,0.6l-2.1,0.4L17.8,44
		c0-0.2,0-0.4,0-0.6c0-0.2,0.1-0.3,0.3-0.4C18.2,42.8,18.4,42.8,18.6,42.7z M18.7,43.2c-0.2,0-0.3,0.1-0.4,0.1
		c-0.1,0.1-0.2,0.1-0.2,0.2c0,0.1,0,0.2,0,0.3l0,0.2l1.4-0.3l0-0.2c0-0.2-0.1-0.4-0.3-0.5S18.9,43.1,18.7,43.2z"/>
	<path class="st0" d="M19.6,42.1l-2.1,0.3l-0.1-0.4l2.1-0.3L19.6,42.1z"/>
	<path class="st0" d="M19.4,39.3l0,0.6l-1.5,1l0,0c0.1,0,0.1,0,0.2,0c0.1,0,0.1,0,0.2,0s0.1,0,0.2,0l1-0.1l0,0.4l-2.1,0.2l0-0.6
		l1.5-1l0,0c-0.1,0-0.1,0-0.2,0s-0.1,0-0.2,0c-0.1,0-0.1,0-0.2,0l-1,0.1l0-0.4L19.4,39.3z"/>
	<path class="st0" d="M19.4,37.5l-0.5,0.1l0,0.8l0.5,0.2l0,0.5l-2.1-0.8l0-0.6l2.2-0.7L19.4,37.5z M18.5,37.7L18,37.9
		c0,0-0.1,0-0.1,0c-0.1,0-0.1,0-0.2,0c-0.1,0-0.1,0-0.1,0c0,0,0.1,0,0.1,0s0.1,0,0.2,0.1c0.1,0,0.1,0,0.1,0l0.5,0.2L18.5,37.7z"/>
	<path class="st0" d="M18.9,35.4c0.1,0,0.2,0,0.3,0.1s0.2,0.2,0.2,0.3c0,0.1,0.1,0.3,0,0.4c0,0.1,0,0.1,0,0.2c0,0.1,0,0.1-0.1,0.2
		s-0.1,0.1-0.1,0.2l-0.4,0c0.1-0.1,0.1-0.2,0.1-0.3c0-0.1,0.1-0.2,0.1-0.3c0-0.1,0-0.1,0-0.2c0,0,0-0.1-0.1-0.1c0,0-0.1,0-0.1,0
		c-0.1,0-0.1,0-0.1,0s-0.1,0.1-0.1,0.1c0,0.1-0.1,0.1-0.1,0.2c0,0-0.1,0.1-0.1,0.2c0,0.1-0.1,0.1-0.1,0.2s-0.1,0.1-0.2,0.1
		c-0.1,0-0.2,0-0.3,0c-0.1,0-0.2,0-0.3-0.1s-0.2-0.2-0.2-0.3s-0.1-0.2,0-0.4c0-0.1,0-0.2,0.1-0.3s0.1-0.2,0.1-0.3l0.3,0.2
		c0,0.1-0.1,0.2-0.1,0.3c0,0.1,0,0.2,0,0.2c0,0.1,0,0.1,0,0.1c0,0,0,0.1,0.1,0.1c0,0,0.1,0,0.1,0c0.1,0,0.1,0,0.1,0
		c0,0,0.1-0.1,0.1-0.1c0-0.1,0.1-0.1,0.1-0.2c0.1-0.1,0.1-0.2,0.2-0.3s0.1-0.1,0.2-0.2C18.7,35.4,18.8,35.4,18.9,35.4z"/>
	<path class="st0" d="M17.6,33.4c0-0.3,0.1-0.5,0.3-0.6s0.3-0.1,0.5-0.1c0.1,0,0.2,0,0.3,0.1s0.1,0.1,0.2,0.2
		c0.1,0.1,0.1,0.2,0.1,0.3c0,0.1,0,0.2,0,0.4l0,0.2l0.8,0.1l-0.1,0.4L17.5,34L17.6,33.4z M17.9,33.4l0,0.2l0.6,0.1l0-0.1
		c0-0.1,0-0.2,0-0.2c0-0.1,0-0.1-0.1-0.2s-0.1-0.1-0.2-0.1c-0.1,0-0.2,0-0.2,0.1C18,33.2,18,33.3,17.9,33.4z"/>
	<path class="st0" d="M20.1,31.4l-0.3,1.2l-2.1-0.5l0.3-1.2l0.4,0.1l-0.2,0.8l0.5,0.1l0.2-0.7l0.4,0.1l-0.2,0.7l0.5,0.1l0.2-0.8
		L20.1,31.4z"/>
	<path class="st0" d="M20.7,29.3l-0.1,0.5l-1,0.3l0.1,0.2l0.7,0.2l-0.1,0.4l-2.1-0.6l0.1-0.4l0.9,0.3c0,0-0.1-0.1-0.1-0.1
		c0,0-0.1-0.1-0.1-0.1l-0.5-0.8l0.1-0.5l0.7,1L20.7,29.3z"/>
	<path class="st0" d="M21.2,27.9l-0.4,1.2l-2-0.7l0.4-1.2l0.4,0.1l-0.3,0.7l0.4,0.2l0.2-0.7l0.4,0.1l-0.2,0.7l0.5,0.2l0.3-0.7
		L21.2,27.9z"/>
	<path class="st0" d="M19.6,26.1c0.1-0.2,0.2-0.3,0.3-0.4c0.1-0.1,0.2-0.2,0.3-0.2s0.2,0,0.4,0.1c0.1,0,0.2,0.1,0.2,0.2
		c0.1,0.1,0.1,0.1,0.1,0.2c0,0.1,0,0.2,0,0.2L22,26l-0.2,0.5l-1,0.1l-0.1,0.2l0.8,0.3l-0.2,0.4l-2-0.8L19.6,26.1z M20,26.3l-0.1,0.1
		l0.5,0.2l0.1-0.1c0.1-0.1,0.1-0.2,0.1-0.3c0-0.1-0.1-0.1-0.2-0.2c-0.1,0-0.2,0-0.2,0C20.1,26.1,20,26.2,20,26.3z"/>
	<path class="st0" d="M22.6,26.2c0,0.1-0.1,0.1-0.1,0.1s0,0.1-0.1,0.1l-0.3-0.2c0,0,0-0.1,0.1-0.1s0-0.1,0.1-0.1c0,0,0-0.1,0-0.1
		c0,0,0-0.1-0.1-0.1s-0.1-0.1-0.2-0.1l-1.8-0.9l0.2-0.4l1.8,0.9c0.2,0.1,0.3,0.2,0.4,0.3c0.1,0.1,0.1,0.2,0.1,0.3
		S22.7,26.1,22.6,26.2z"/>
	<path class="st0" d="M23.2,23.7l-0.5-0.1l-0.4,0.7l0.4,0.4l-0.2,0.4l-1.5-1.7l0.3-0.5l2.2,0.4L23.2,23.7z M22.3,23.5l-0.5-0.1
		c0,0-0.1,0-0.1,0c-0.1,0-0.1,0-0.2,0s-0.1,0-0.1,0c0,0,0.1,0.1,0.1,0.1c0,0,0.1,0.1,0.1,0.1c0,0,0.1,0.1,0.1,0.1L22,24L22.3,23.5z"
		/>
	<path class="st0" d="M24.3,22l-0.5-0.1l-0.4,0.7l0.3,0.4l-0.3,0.4l-1.4-1.8l0.3-0.5l2.2,0.5L24.3,22z M23.4,21.8l-0.5-0.1
		c0,0-0.1,0-0.1,0s-0.1,0-0.2,0c-0.1,0-0.1,0-0.1,0c0,0,0.1,0.1,0.1,0.1c0,0,0.1,0.1,0.1,0.1s0.1,0.1,0.1,0.1l0.3,0.4L23.4,21.8z"/>
	<path class="st0" d="M25.9,19.9l-0.4,0.5l-1.9-0.3l0,0c0.1,0,0.1,0.1,0.2,0.1c0.1,0,0.1,0.1,0.2,0.1s0.1,0.1,0.2,0.1l0.8,0.6
		l-0.2,0.3L23,20.1l0.4-0.5l1.8,0.2l0,0c-0.1,0-0.1-0.1-0.2-0.1c-0.1,0-0.1-0.1-0.2-0.1s-0.1-0.1-0.2-0.1L23.9,19l0.2-0.3L25.9,19.9
		z"/>
	<path class="st0" d="M26.3,16.3l1,1c0.1,0.1,0.2,0.2,0.2,0.3c0,0.1,0,0.3,0,0.4c0,0.1-0.1,0.3-0.3,0.4c-0.2,0.2-0.4,0.3-0.6,0.3
		c-0.2,0-0.4-0.1-0.6-0.2l-1-1l0.3-0.3l0.9,0.9c0.1,0.1,0.2,0.2,0.3,0.2s0.2-0.1,0.3-0.2c0.1-0.1,0.1-0.1,0.1-0.2c0-0.1,0-0.1,0-0.2
		c0-0.1-0.1-0.1-0.2-0.2L26,16.6L26.3,16.3z"/>
	<path class="st0" d="M28.9,16.8l-1.5-0.9l0,0c0,0,0.1,0.1,0.1,0.1c0.1,0.1,0.1,0.1,0.2,0.2c0.1,0.1,0.1,0.1,0.2,0.2l0.7,0.8
		l-0.3,0.3l-1.4-1.6l0.5-0.4l1.5,0.9l0,0l-0.7-1.6l0.5-0.4l1.4,1.6l-0.3,0.3L29,15.4c0-0.1-0.1-0.1-0.2-0.2
		c-0.1-0.1-0.1-0.1-0.2-0.2c0-0.1-0.1-0.1-0.1-0.1l0,0l0.7,1.6L28.9,16.8z"/>
	<path class="st0" d="M30.5,12.8l0.8,1.1c0.1,0.1,0.1,0.2,0.2,0.4c0,0.1,0,0.3-0.1,0.4c-0.1,0.1-0.2,0.3-0.3,0.4
		c-0.2,0.2-0.4,0.2-0.7,0.2c-0.2,0-0.4-0.1-0.5-0.3l-0.8-1.1l0.4-0.3l0.8,1.1c0.1,0.1,0.2,0.2,0.3,0.2c0.1,0,0.2,0,0.3-0.1
		c0.1-0.1,0.1-0.1,0.2-0.2c0-0.1,0-0.1,0-0.2c0-0.1-0.1-0.2-0.1-0.2l-0.8-1.1L30.5,12.8z"/>
	<path class="st0" d="M32.9,13.8l-1.3-1.2l0,0c0,0,0.1,0.1,0.1,0.1c0,0.1,0.1,0.1,0.1,0.2s0.1,0.1,0.1,0.2l0.5,0.9l-0.3,0.2L31,12.5
		l0.5-0.3l1.3,1.1l0,0l-0.4-1.7l0.5-0.3l1.1,1.8l-0.4,0.2l-0.5-0.9c0-0.1-0.1-0.1-0.1-0.2c0-0.1-0.1-0.1-0.1-0.2
		c0-0.1-0.1-0.1-0.1-0.2l0,0l0.4,1.7L32.9,13.8z"/>
	<path class="st0" d="M36.4,10.8c0.1,0.2,0.1,0.4,0.1,0.6c0,0.2-0.1,0.4-0.2,0.5c-0.1,0.1-0.3,0.3-0.5,0.4l-0.6,0.3l-0.9-1.9
		l0.6-0.3c0.2-0.1,0.4-0.1,0.6-0.1c0.2,0,0.3,0.1,0.5,0.2S36.3,10.6,36.4,10.8z M35.9,11c-0.1-0.1-0.1-0.3-0.2-0.3
		c-0.1-0.1-0.2-0.1-0.3-0.1c-0.1,0-0.2,0-0.3,0.1l-0.2,0.1l0.6,1.3l0.2-0.1c0.2-0.1,0.3-0.2,0.4-0.4S36,11.2,35.9,11z"/>
	<path class="st0" d="M38.4,11.2l-0.3-0.4L37.4,11l0,0.5l-0.5,0.2l0-2.3l0.5-0.2l1.5,1.8L38.4,11.2z M37.9,10.4L37.6,10
		c0,0,0-0.1-0.1-0.1s-0.1-0.1-0.1-0.1c0,0-0.1-0.1-0.1-0.1c0,0,0,0.1,0,0.2c0,0.1,0,0.1,0,0.2c0,0.1,0,0.1,0,0.1l0,0.5L37.9,10.4z"
		/>
	<path class="st0" d="M40.9,10.4l-0.6,0.2L39,9.3l0,0c0,0.1,0,0.1,0.1,0.2s0,0.1,0.1,0.2s0,0.1,0.1,0.2l0.3,1L39.1,11l-0.6-2.1
		l0.6-0.2l1.3,1.3l0,0c0-0.1,0-0.1-0.1-0.2c0-0.1,0-0.1-0.1-0.2c0-0.1,0-0.1-0.1-0.2l-0.3-1l0.4-0.1L40.9,10.4z"/>
	<path class="st0" d="M42.4,7.9c0.3,0,0.5,0,0.6,0.1c0.1,0.1,0.2,0.2,0.3,0.4c0,0.1,0,0.2,0,0.3c0,0.1,0,0.2-0.1,0.2
		c-0.1,0.1-0.1,0.1-0.2,0.2c-0.1,0.1-0.2,0.1-0.4,0.1l-0.2,0l0.1,0.8l-0.4,0.1l-0.4-2.1L42.4,7.9z M42.5,8.3l-0.2,0L42.4,9l0.1,0
		c0.1,0,0.2,0,0.2-0.1c0.1,0,0.1-0.1,0.1-0.1c0-0.1,0-0.1,0-0.2c0-0.1-0.1-0.2-0.1-0.2C42.7,8.3,42.6,8.3,42.5,8.3z"/>
	<path class="st0" d="M45.2,9.7L44,9.9l-0.2-2.1l1.2-0.1L45,8l-0.8,0.1l0.1,0.5L45,8.4l0,0.4l-0.7,0.1l0.1,0.5l0.8-0.1L45.2,9.7z"/>
	<path class="st0" d="M47.5,9.6l-0.6,0l-1-1.6l0,0c0,0.1,0,0.1,0,0.2c0,0.1,0,0.1,0,0.2c0,0.1,0,0.1,0,0.2l0,1l-0.4,0l-0.1-2.1
		l0.6,0l1,1.6l0,0c0-0.1,0-0.1,0-0.2c0-0.1,0-0.1,0-0.2c0-0.1,0-0.1,0-0.2l0-1l0.4,0L47.5,9.6z"/>
	<path class="st0" d="M49.3,9.6l-0.1-0.5l-0.8,0l-0.2,0.5l-0.5,0l0.8-2.1l0.6,0l0.7,2.2L49.3,9.6z M49.1,8.7l-0.1-0.5
		c0,0,0-0.1,0-0.1c0-0.1,0-0.1,0-0.2c0-0.1,0-0.1,0-0.1c0,0,0,0.1,0,0.1c0,0.1,0,0.1-0.1,0.2c0,0.1,0,0.1,0,0.1l-0.2,0.5L49.1,8.7z"
		/>
	<path class="st0" d="M50.8,9.8l-0.5,0L50.5,8L50,7.9l0-0.4l1.6,0.2l0,0.4L51,8L50.8,9.8z"/>
	<path class="st0" d="M53,10.1l-0.1-0.5l-0.8-0.1l-0.2,0.5l-0.5-0.1l1.1-2l0.5,0.1l0.4,2.2L53,10.1z M52.9,9.2l-0.1-0.5
		c0,0,0-0.1,0-0.1s0-0.1,0-0.2c0-0.1,0-0.1,0-0.1c0,0,0,0.1-0.1,0.1c0,0.1-0.1,0.1-0.1,0.2c0,0,0,0.1-0.1,0.1l-0.2,0.5L52.9,9.2z"/>
	<path class="st0" d="M55,10.5l0-0.5l-0.8-0.2l-0.3,0.5l-0.5-0.1l1.2-1.9l0.5,0.1l0.2,2.3L55,10.5z M54.9,9.6l0-0.5c0,0,0-0.1,0-0.1
		s0-0.1,0-0.2c0-0.1,0-0.1,0-0.1c0,0,0,0.1-0.1,0.1s-0.1,0.1-0.1,0.2c0,0,0,0.1-0.1,0.1l-0.3,0.4L54.9,9.6z"/>
	<path class="st0" d="M57.5,11.3l-0.5-0.2l-0.4-1.8l0,0c0,0.1,0,0.1-0.1,0.2c0,0.1,0,0.1-0.1,0.2s0,0.1-0.1,0.2l-0.3,1l-0.4-0.1
		l0.7-2l0.5,0.2l0.4,1.8l0,0c0-0.1,0-0.1,0.1-0.2c0-0.1,0-0.1,0.1-0.2c0-0.1,0-0.1,0.1-0.2l0.3-1l0.4,0.1L57.5,11.3z"/>
	<path class="st0" d="M60.1,10c0.2,0.1,0.3,0.2,0.4,0.3s0.2,0.2,0.2,0.3c0,0.1,0,0.2-0.1,0.4c0,0.1-0.1,0.2-0.2,0.2
		c-0.1,0.1-0.1,0.1-0.2,0.1c-0.1,0-0.2,0-0.2,0l0.2,1.1l-0.5-0.2l-0.1-1l-0.2-0.1l-0.3,0.8l-0.4-0.2l0.9-2L60.1,10z M59.9,10.3
		l-0.1-0.1l-0.2,0.5l0.1,0.1c0.1,0.1,0.2,0.1,0.3,0.1c0.1,0,0.1-0.1,0.2-0.2c0-0.1,0-0.2,0-0.2C60.1,10.5,60,10.4,59.9,10.3z"/>
	<path class="st0" d="M63,11.4l-0.7,1.2c-0.1,0.1-0.2,0.2-0.3,0.3c-0.1,0.1-0.2,0.1-0.4,0.1s-0.3,0-0.5-0.1
		c-0.2-0.1-0.4-0.3-0.5-0.5c-0.1-0.2,0-0.4,0.1-0.6l0.6-1.2l0.4,0.2L61.2,12c-0.1,0.2-0.1,0.3-0.1,0.4s0.1,0.2,0.2,0.2
		c0.1,0,0.2,0.1,0.2,0.1s0.1,0,0.2-0.1c0.1,0,0.1-0.1,0.2-0.2l0.6-1.2L63,11.4z"/>
	<path class="st0" d="M63.5,14.3l0.1-0.5L63,13.4l-0.4,0.3l-0.4-0.3l1.8-1.4l0.5,0.3l-0.5,2.2L63.5,14.3z M63.7,13.4l0.1-0.5
		c0,0,0-0.1,0-0.1s0-0.1,0-0.2c0-0.1,0-0.1,0-0.1c0,0-0.1,0.1-0.1,0.1c0,0-0.1,0.1-0.1,0.1c0,0-0.1,0.1-0.1,0.1l-0.4,0.3L63.7,13.4z
		"/>
	<path class="st0" d="M65.6,15.8l-0.5-0.3l0.2-1.9l0,0c0,0.1-0.1,0.1-0.1,0.2s-0.1,0.1-0.1,0.2S65,14.1,65,14.1l-0.6,0.8l-0.3-0.2
		l1.3-1.7l0.5,0.3l-0.2,1.8l0,0c0-0.1,0.1-0.1,0.1-0.2s0.1-0.1,0.1-0.2c0-0.1,0.1-0.1,0.1-0.2l0.6-0.8l0.3,0.2L65.6,15.8z"/>
	<path class="st0" d="M67.4,15.8l0.6,0.6l-0.7,0.8c-0.1,0-0.2-0.1-0.3-0.2c-0.1-0.1-0.2-0.1-0.3-0.2c-0.2-0.1-0.3-0.3-0.3-0.5
		c-0.1-0.2-0.1-0.3,0-0.5c0-0.2,0.2-0.4,0.3-0.5c0.1-0.2,0.3-0.3,0.5-0.4c0.2-0.1,0.4-0.1,0.5,0c0.2,0,0.4,0.1,0.5,0.3
		c0.1,0.1,0.2,0.2,0.2,0.2c0.1,0.1,0.1,0.2,0.2,0.3l-0.4,0.2c0-0.1-0.1-0.1-0.1-0.2s-0.1-0.1-0.2-0.2c-0.1-0.1-0.2-0.1-0.3-0.2
		c-0.1,0-0.2,0-0.3,0s-0.2,0.1-0.3,0.2c-0.1,0.1-0.2,0.2-0.2,0.3c0,0.1-0.1,0.2,0,0.3s0.1,0.2,0.2,0.3c0,0,0.1,0.1,0.1,0.1
		s0.1,0,0.1,0.1l0.3-0.3L67.1,16L67.4,15.8z"/>
	<path class="st0" d="M69.3,19.4L68.9,19l0.3-1l-0.2,0l-0.6,0.5l-0.3-0.3l1.6-1.5L70,17l-0.7,0.7c0.1,0,0.1,0,0.2,0s0.1,0,0.2,0
		l0.9-0.1l0.3,0.4L69.7,18L69.3,19.4z"/>
	<path class="st0" d="M70.3,20.5l0.3-0.4l-0.5-0.6l-0.5,0.2l-0.3-0.4l2.1-0.8l0.4,0.4l-1.2,1.9L70.3,20.5z M70.8,19.8l0.3-0.4
		c0,0,0-0.1,0.1-0.1s0.1-0.1,0.1-0.1c0,0,0.1-0.1,0.1-0.1c0,0-0.1,0-0.1,0.1c-0.1,0-0.1,0-0.2,0.1c-0.1,0-0.1,0-0.1,0l-0.5,0.2
		L70.8,19.8z"/>
	<path class="st0" d="M72.4,19.9l0.4,0.5c0.2,0.2,0.3,0.4,0.3,0.6c0,0.2-0.1,0.3-0.2,0.4c-0.1,0-0.1,0.1-0.2,0.1s-0.1,0-0.2,0
		s-0.1,0-0.2-0.1l0,0c0,0.1,0,0.1,0,0.2c0,0.1,0,0.1,0,0.2c0,0.1-0.1,0.1-0.2,0.2c-0.1,0.1-0.2,0.1-0.3,0.1s-0.2,0-0.3-0.1
		c-0.1-0.1-0.2-0.2-0.3-0.3l-0.5-0.7L72.4,19.9z M71.7,20.9l-0.5,0.3l0.2,0.2c0.1,0.1,0.2,0.2,0.2,0.2c0.1,0,0.1,0,0.2-0.1
		c0,0,0.1-0.1,0.1-0.1c0,0,0-0.1,0-0.2c0-0.1,0-0.1-0.1-0.2L71.7,20.9z M72,20.7l0.2,0.2c0.1,0.1,0.1,0.2,0.2,0.2c0.1,0,0.1,0,0.2,0
		c0.1,0,0.1-0.1,0.1-0.2c0-0.1,0-0.2-0.1-0.3l-0.1-0.2L72,20.7z"/>
	<path class="st0" d="M74.6,23.1l-1.2,0.7c-0.1,0.1-0.3,0.1-0.4,0.1s-0.3,0-0.4-0.1c-0.1-0.1-0.2-0.2-0.3-0.4
		c-0.1-0.2-0.2-0.5-0.1-0.7c0-0.2,0.2-0.4,0.4-0.5l1.2-0.7l0.2,0.4l-1.1,0.7c-0.2,0.1-0.2,0.2-0.3,0.3c0,0.1,0,0.2,0.1,0.3
		c0.1,0.1,0.1,0.1,0.2,0.2c0.1,0,0.1,0,0.2,0c0.1,0,0.2,0,0.3-0.1l1.1-0.7L74.6,23.1z"/>
	<path class="st0" d="M75.2,24.3c0.1,0.2,0.2,0.5,0.1,0.6c0,0.2-0.2,0.3-0.4,0.4c-0.1,0-0.2,0.1-0.3,0.1c-0.1,0-0.2,0-0.3,0
		c-0.1,0-0.2-0.1-0.3-0.2c-0.1-0.1-0.2-0.2-0.2-0.3l-0.1-0.2L73.1,25l-0.2-0.4l1.9-1L75.2,24.3z M74.8,24.4l-0.1-0.2l-0.6,0.3
		l0.1,0.1c0,0.1,0.1,0.1,0.1,0.2c0,0,0.1,0.1,0.2,0.1c0.1,0,0.1,0,0.2,0c0.1,0,0.2-0.1,0.2-0.2C74.9,24.6,74.9,24.5,74.8,24.4z"/>
	<path class="st0" d="M74.3,27.5l0.4-0.3l-0.3-0.7l-0.5,0.1L73.7,26l2.3-0.1l0.2,0.5L74.5,28L74.3,27.5z M75,26.9l0.4-0.3
		c0,0,0.1-0.1,0.1-0.1s0.1-0.1,0.1-0.1c0,0,0.1-0.1,0.1-0.1c0,0-0.1,0-0.2,0c-0.1,0-0.1,0-0.2,0s-0.1,0-0.1,0l-0.5,0.1L75,26.9z"/>
	<path class="st0" d="M74.8,29l-0.1-0.4l1.7-0.6l-0.2-0.5l0.4-0.1l0.5,1.5l-0.4,0.1l-0.2-0.5L74.8,29z"/>
	<path class="st0" d="M75.4,31l-0.3-1.2l2.1-0.6l0.3,1.2l-0.4,0.1l-0.2-0.8l-0.5,0.1l0.2,0.7l-0.4,0.1L76.1,30l-0.5,0.2l0.2,0.8
		L75.4,31z"/>
	<path class="st0" d="M75.9,33.2l-0.1-0.6l1.4-1.2l0,0c-0.1,0-0.1,0-0.2,0.1s-0.1,0-0.2,0s-0.1,0-0.2,0.1l-1,0.2l-0.1-0.4l2.1-0.4
		l0.1,0.6l-1.4,1.2l0,0c0.1,0,0.1,0,0.2,0s0.1,0,0.2,0s0.1,0,0.2,0l1-0.2l0.1,0.4L75.9,33.2z"/>
	<path class="st0" d="M78.2,34.3l0.1,0.7c0,0.3,0,0.5-0.1,0.7s-0.2,0.2-0.4,0.3c-0.1,0-0.2,0-0.2,0c-0.1,0-0.1-0.1-0.2-0.1
		c0,0-0.1-0.1-0.1-0.2l0,0c0,0.1,0,0.1-0.1,0.2s-0.1,0.1-0.1,0.2C77.1,36,77,36,76.9,36c-0.1,0-0.2,0-0.3-0.1
		c-0.1-0.1-0.2-0.1-0.2-0.2c-0.1-0.1-0.1-0.2-0.1-0.4l-0.1-0.8L78.2,34.3z M77.1,34.8l-0.6,0.1l0,0.3c0,0.1,0,0.2,0.1,0.3
		c0.1,0,0.1,0.1,0.2,0.1c0.1,0,0.1,0,0.1,0s0.1-0.1,0.1-0.1c0-0.1,0-0.1,0-0.2L77.1,34.8z M77.4,34.8l0,0.3c0,0.1,0,0.2,0.1,0.3
		c0,0,0.1,0.1,0.2,0.1c0.1,0,0.1,0,0.2-0.1c0-0.1,0-0.2,0-0.3l0-0.2L77.4,34.8z"/>
	<path class="st0" d="M76.3,36.4l2.1-0.1l0,0.5l-2.1,0.1L76.3,36.4z"/>
	<path class="st0" d="M76.3,38.3l1.7-0.5v0c0,0-0.1,0-0.2,0s-0.2,0-0.3,0c-0.1,0-0.2,0-0.2,0l-1,0l0-0.4l2.1,0l0,0.6l-1.6,0.5l0,0
		l1.6,0.6l0,0.6l-2.1,0l0-0.4l1,0c0.1,0,0.1,0,0.2,0s0.2,0,0.3,0s0.1,0,0.2,0v0l-1.7-0.6L76.3,38.3z"/>
	<path class="st0" d="M76.1,41.5l0.5-0.1l0.1-0.8l-0.5-0.2l0-0.5l2.1,1l-0.1,0.6L76.1,42L76.1,41.5z M77,41.3l0.5-0.1
		c0,0,0.1,0,0.1,0c0.1,0,0.1,0,0.2,0c0.1,0,0.1,0,0.1,0c0,0-0.1,0-0.1-0.1s-0.1,0-0.2-0.1c-0.1,0-0.1,0-0.1,0l-0.5-0.2L77,41.3z"/>
</g>
<g>
	<path class="st0" d="M106.4,31.8c0,2.2-0.4,4.1-1.3,5.6c-0.9,1.5-2.1,2.6-3.7,3.4c-1.6,0.8-3.6,1.1-5.9,1.1h-5.6V22h6.2
		c2.1,0,3.9,0.4,5.4,1.1s2.7,1.8,3.6,3.3S106.4,29.7,106.4,31.8z M102,31.9c0-1.5-0.2-2.7-0.6-3.6c-0.4-0.9-1.1-1.6-1.9-2.1
		c-0.8-0.5-1.9-0.7-3.1-0.7h-2.2v12.9h1.8c2.1,0,3.6-0.5,4.6-1.6S102,34.1,102,31.9z"/>
	<path class="st0" d="M112.2,20.8c0.6,0,1.1,0.1,1.6,0.4c0.4,0.3,0.7,0.8,0.7,1.6c0,0.8-0.2,1.3-0.7,1.6c-0.4,0.3-1,0.4-1.6,0.4
		c-0.6,0-1.2-0.1-1.6-0.4c-0.4-0.3-0.7-0.8-0.7-1.6c0-0.8,0.2-1.3,0.7-1.6C111.1,20.9,111.6,20.8,112.2,20.8z M114.3,26.7v15.2h-4.1
		V26.7H114.3z"/>
	<path class="st0" d="M127.3,26.4c1.6,0,2.9,0.4,3.9,1.3c1,0.9,1.5,2.3,1.5,4.2v9.9h-4.1V33c0-1.1-0.2-1.9-0.6-2.5s-1-0.8-1.9-0.8
		c-1.3,0-2.1,0.4-2.6,1.3c-0.5,0.9-0.7,2.1-0.7,3.7v7.2h-4.1V26.7h3.2l0.6,1.9h0.2c0.3-0.5,0.7-1,1.2-1.3c0.5-0.3,1-0.6,1.6-0.7
		C126,26.5,126.7,26.4,127.3,26.4z"/>
	<path class="st0" d="M143.2,26.4c2,0,3.6,0.4,4.7,1.3c1.1,0.9,1.6,2.2,1.6,4.1v10.1h-2.9l-0.8-2.1h-0.1c-0.4,0.5-0.9,1-1.3,1.3
		s-1,0.6-1.6,0.8c-0.6,0.2-1.3,0.2-2.1,0.2c-0.9,0-1.7-0.2-2.4-0.5c-0.7-0.3-1.3-0.9-1.7-1.6c-0.4-0.7-0.6-1.6-0.6-2.7
		c0-1.6,0.6-2.8,1.7-3.6c1.1-0.8,2.8-1.2,5.1-1.3l2.6-0.1v-0.7c0-0.8-0.2-1.4-0.6-1.8c-0.4-0.4-1-0.6-1.7-0.6
		c-0.7,0-1.5,0.1-2.2,0.3c-0.7,0.2-1.4,0.5-2.1,0.8l-1.4-2.8c0.8-0.4,1.7-0.8,2.7-1C141.1,26.5,142.1,26.4,143.2,26.4z M145.4,34.9
		l-1.6,0.1c-1.3,0-2.3,0.3-2.8,0.7s-0.8,1-0.8,1.8c0,0.6,0.2,1.1,0.6,1.4s0.9,0.4,1.5,0.4c0.9,0,1.6-0.3,2.3-0.8
		c0.6-0.5,0.9-1.3,0.9-2.2V34.9z"/>
	<path class="st0" d="M164.4,37.4c0,1-0.2,1.9-0.7,2.6c-0.5,0.7-1.2,1.3-2.2,1.6s-2.2,0.6-3.6,0.6c-1.1,0-2-0.1-2.7-0.2
		c-0.8-0.1-1.5-0.4-2.3-0.7v-3.4c0.8,0.4,1.7,0.7,2.7,0.9s1.8,0.4,2.5,0.4c0.8,0,1.4-0.1,1.7-0.4c0.3-0.2,0.5-0.6,0.5-0.9
		c0-0.3-0.1-0.5-0.2-0.7c-0.1-0.2-0.4-0.4-0.9-0.7c-0.5-0.3-1.2-0.6-2.2-1c-1-0.4-1.7-0.8-2.3-1.2c-0.6-0.4-1.1-0.9-1.4-1.4
		s-0.4-1.3-0.4-2.1c0-1.4,0.5-2.5,1.6-3.2c1.1-0.7,2.6-1.1,4.4-1.1c0.9,0,1.8,0.1,2.7,0.3c0.9,0.2,1.7,0.5,2.6,0.9l-1.3,3
		c-0.8-0.3-1.5-0.6-2.1-0.8c-0.7-0.2-1.3-0.3-2-0.3c-0.6,0-1.1,0.1-1.4,0.2c-0.3,0.2-0.5,0.4-0.5,0.7c0,0.2,0.1,0.5,0.2,0.7
		s0.5,0.4,0.9,0.6c0.5,0.2,1.1,0.5,2,0.9c0.9,0.4,1.6,0.7,2.2,1.1c0.6,0.4,1.1,0.9,1.5,1.4C164.2,35.8,164.4,36.5,164.4,37.4z"/>
	<path class="st0" d="M181.5,22c2.6,0,4.4,0.6,5.6,1.7s1.8,2.6,1.8,4.5c0,0.9-0.1,1.7-0.4,2.5c-0.3,0.8-0.7,1.5-1.3,2.1
		c-0.6,0.6-1.4,1.1-2.4,1.5c-1,0.4-2.2,0.5-3.7,0.5h-1.8v7.1h-4.2V22H181.5z M181.3,25.5h-1.9v5.9h1.4c0.8,0,1.5-0.1,2.1-0.3
		c0.6-0.2,1-0.5,1.3-1s0.5-1,0.5-1.7c0-1-0.3-1.7-0.8-2.2C183.3,25.7,182.5,25.5,181.3,25.5z"/>
	<path class="st0" d="M208.9,22v12.9c0,1.4-0.3,2.6-0.9,3.7c-0.6,1.1-1.5,2-2.7,2.6c-1.2,0.6-2.8,1-4.6,1c-2.6,0-4.6-0.7-6-2
		c-1.4-1.3-2.1-3.1-2.1-5.3V22h4.2v12.2c0,1.6,0.3,2.8,1,3.5c0.7,0.7,1.7,1,3,1c0.9,0,1.7-0.2,2.3-0.5c0.6-0.3,1-0.8,1.3-1.5
		c0.3-0.7,0.4-1.5,0.4-2.5V22H208.9z"/>
	<path class="st0" d="M220.1,22c2.6,0,4.4,0.6,5.6,1.7s1.8,2.6,1.8,4.5c0,0.9-0.1,1.7-0.4,2.5c-0.3,0.8-0.7,1.5-1.3,2.1
		c-0.6,0.6-1.4,1.1-2.4,1.5c-1,0.4-2.2,0.5-3.7,0.5H218v7.1h-4.2V22H220.1z M219.9,25.5H218v5.9h1.4c0.8,0,1.5-0.1,2.1-0.3
		c0.6-0.2,1-0.5,1.3-1s0.5-1,0.5-1.7c0-1-0.3-1.7-0.8-2.2C221.9,25.7,221,25.5,219.9,25.5z"/>
	<path class="st0" d="M237,22c1.8,0,3.3,0.2,4.5,0.7c1.2,0.4,2,1.1,2.6,2s0.9,2,0.9,3.3c0,0.9-0.2,1.7-0.5,2.4s-0.8,1.3-1.4,1.7
		c-0.6,0.5-1.2,0.9-1.8,1.2l5.8,8.7h-4.7l-4.7-7.6h-2.2v7.6h-4.2V22H237z M236.7,25.5h-1.3v5.4h1.4c1.4,0,2.4-0.2,3-0.7
		c0.6-0.5,0.9-1.2,0.9-2.1c0-0.9-0.3-1.6-1-2C239.1,25.7,238.1,25.5,236.7,25.5z"/>
</g>
<g>
	<path class="st0" d="M101,64.5h-3.3L94,58.7l-1.2,0.9v4.9h-2.9V50.7h2.9V57c0.2-0.3,0.4-0.5,0.6-0.8c0.2-0.3,0.4-0.5,0.6-0.8
		l3.7-4.7h3.2l-4.8,6.1L101,64.5z"/>
	<path class="st0" d="M106.8,53.7c1.4,0,2.5,0.3,3.3,0.9c0.8,0.6,1.1,1.6,1.1,2.8v7h-2l-0.6-1.4h-0.1c-0.3,0.4-0.6,0.7-0.9,0.9
		c-0.3,0.2-0.7,0.4-1.1,0.5s-0.9,0.2-1.5,0.2c-0.6,0-1.2-0.1-1.7-0.4c-0.5-0.2-0.9-0.6-1.2-1.1c-0.3-0.5-0.4-1.1-0.4-1.9
		c0-1.1,0.4-1.9,1.2-2.5c0.8-0.5,2-0.8,3.5-0.9l1.8-0.1v-0.5c0-0.6-0.1-1-0.4-1.2c-0.3-0.3-0.7-0.4-1.2-0.4c-0.5,0-1,0.1-1.5,0.2
		c-0.5,0.1-1,0.3-1.5,0.5l-1-1.9c0.6-0.3,1.2-0.5,1.9-0.7C105.3,53.8,106,53.7,106.8,53.7z M108.3,59.6l-1.1,0
		c-0.9,0-1.6,0.2-1.9,0.5c-0.4,0.3-0.5,0.7-0.5,1.2c0,0.4,0.1,0.8,0.4,0.9c0.3,0.2,0.6,0.3,1,0.3c0.6,0,1.1-0.2,1.6-0.5
		c0.4-0.4,0.6-0.9,0.6-1.6V59.6z"/>
	<path class="st0" d="M117,49.8v3.4c0,0.4,0,0.8,0,1.2c0,0.4,0,0.7-0.1,0.9h0.1c0.3-0.4,0.7-0.8,1.1-1.1c0.5-0.3,1.1-0.5,1.9-0.5
		c1.2,0,2.1,0.5,2.9,1.4c0.7,0.9,1.1,2.3,1.1,4.1c0,1.2-0.2,2.2-0.5,3c-0.3,0.8-0.8,1.4-1.4,1.8c-0.6,0.4-1.3,0.6-2.1,0.6
		c-0.8,0-1.4-0.1-1.8-0.4c-0.4-0.3-0.8-0.6-1.1-0.9h-0.2l-0.5,1.2h-2.2V49.8H117z M119.1,56c-0.5,0-0.9,0.1-1.2,0.3
		c-0.3,0.2-0.5,0.5-0.6,0.9c-0.1,0.4-0.2,0.9-0.2,1.6v0.3c0,1,0.2,1.8,0.5,2.4s0.9,0.8,1.7,0.8c0.6,0,1.1-0.3,1.4-0.8
		c0.3-0.5,0.5-1.3,0.5-2.4c0-1-0.2-1.8-0.5-2.3C120.2,56.3,119.7,56,119.1,56z"/>
	<path class="st0" d="M136.1,53.9v10.6h-2.2l-0.4-1.4h-0.2c-0.2,0.4-0.5,0.7-0.8,0.9c-0.3,0.2-0.7,0.4-1.1,0.5
		c-0.4,0.1-0.8,0.2-1.3,0.2c-0.8,0-1.4-0.1-2-0.4c-0.6-0.3-1-0.7-1.3-1.3c-0.3-0.6-0.5-1.3-0.5-2.2v-6.9h2.9v6.2
		c0,0.8,0.1,1.3,0.4,1.7c0.3,0.4,0.7,0.6,1.3,0.6c0.6,0,1-0.1,1.4-0.4c0.3-0.3,0.6-0.7,0.7-1.2c0.1-0.5,0.2-1.2,0.2-1.9v-5H136.1z"
		/>
	<path class="st0" d="M145,53.7c1.2,0,2.2,0.5,2.9,1.4c0.7,0.9,1.1,2.3,1.1,4.1c0,1.2-0.2,2.2-0.5,3c-0.3,0.8-0.8,1.4-1.4,1.8
		c-0.6,0.4-1.3,0.6-2.1,0.6c-0.5,0-0.9-0.1-1.3-0.2c-0.4-0.1-0.7-0.3-0.9-0.5c-0.3-0.2-0.5-0.4-0.7-0.7h-0.2c0,0.3,0.1,0.5,0.1,0.8
		c0,0.3,0,0.5,0,0.8v4.3h-2.9V53.9h2.3l0.4,1.4h0.1c0.2-0.3,0.4-0.5,0.7-0.8c0.3-0.2,0.6-0.4,1-0.6C144,53.8,144.4,53.7,145,53.7z
		 M144,56c-0.5,0-0.9,0.1-1.2,0.3c-0.3,0.2-0.5,0.5-0.6,0.9c-0.1,0.4-0.2,0.9-0.2,1.6v0.3c0,0.7,0.1,1.3,0.2,1.7
		c0.1,0.5,0.3,0.8,0.7,1.1c0.3,0.2,0.7,0.4,1.3,0.4c0.4,0,0.8-0.1,1.1-0.4c0.3-0.2,0.5-0.6,0.6-1.1c0.1-0.5,0.2-1.1,0.2-1.7
		c0-1-0.2-1.8-0.5-2.3C145.2,56.3,144.7,56,144,56z"/>
	<path class="st0" d="M155.6,53.7c1.4,0,2.5,0.3,3.3,0.9c0.8,0.6,1.1,1.6,1.1,2.8v7h-2l-0.6-1.4h-0.1c-0.3,0.4-0.6,0.7-0.9,0.9
		c-0.3,0.2-0.7,0.4-1.1,0.5c-0.4,0.1-0.9,0.2-1.5,0.2c-0.6,0-1.2-0.1-1.7-0.4c-0.5-0.2-0.9-0.6-1.2-1.1c-0.3-0.5-0.4-1.1-0.4-1.9
		c0-1.1,0.4-1.9,1.2-2.5c0.8-0.5,2-0.8,3.5-0.9l1.8-0.1v-0.5c0-0.6-0.1-1-0.4-1.2c-0.3-0.3-0.7-0.4-1.2-0.4c-0.5,0-1,0.1-1.5,0.2
		c-0.5,0.1-1,0.3-1.5,0.5l-1-1.9c0.6-0.3,1.2-0.5,1.9-0.7C154.2,53.8,154.9,53.7,155.6,53.7z M157.2,59.6l-1.1,0
		c-0.9,0-1.6,0.2-1.9,0.5c-0.4,0.3-0.5,0.7-0.5,1.2c0,0.4,0.1,0.8,0.4,0.9c0.3,0.2,0.6,0.3,1,0.3c0.6,0,1.1-0.2,1.6-0.5
		c0.4-0.4,0.6-0.9,0.6-1.6V59.6z"/>
	<path class="st0" d="M167.4,62.4c0.3,0,0.6,0,0.9-0.1c0.3-0.1,0.6-0.1,0.9-0.2v2.1c-0.3,0.1-0.7,0.3-1.1,0.3
		c-0.5,0.1-1,0.1-1.5,0.1c-0.6,0-1.2-0.1-1.7-0.3c-0.5-0.2-0.9-0.6-1.2-1.1c-0.3-0.5-0.4-1.2-0.4-2.1v-5.1h-1.4v-1.2l1.6-1l0.8-2.2
		h1.8v2.2h3v2.2h-3v5.1c0,0.4,0.1,0.7,0.3,0.9C166.8,62.3,167.1,62.4,167.4,62.4z"/>
	<path class="st0" d="M175.7,53.7c1,0,1.8,0.2,2.5,0.6c0.7,0.4,1.2,0.9,1.6,1.6c0.4,0.7,0.6,1.6,0.6,2.6v1.4h-6.8
		c0,0.8,0.3,1.4,0.7,1.9c0.5,0.5,1.1,0.7,1.9,0.7c0.7,0,1.3-0.1,1.9-0.2c0.6-0.1,1.1-0.3,1.7-0.6v2.2c-0.5,0.3-1.1,0.4-1.6,0.6
		c-0.6,0.1-1.3,0.2-2.1,0.2c-1.1,0-2-0.2-2.8-0.6c-0.8-0.4-1.5-1-1.9-1.8c-0.5-0.8-0.7-1.8-0.7-3c0-1.2,0.2-2.3,0.6-3.1
		c0.4-0.8,1-1.4,1.8-1.9C173.9,53.9,174.7,53.7,175.7,53.7z M175.8,55.8c-0.6,0-1,0.2-1.4,0.5c-0.4,0.4-0.6,0.9-0.6,1.7h4
		c0-0.4-0.1-0.8-0.2-1.1c-0.1-0.3-0.4-0.6-0.7-0.8C176.6,55.9,176.2,55.8,175.8,55.8z"/>
	<path class="st0" d="M188.8,53.7c1.1,0,2,0.3,2.7,0.9c0.7,0.6,1,1.6,1,3v6.9h-2.9v-6.2c0-0.8-0.1-1.3-0.4-1.7
		c-0.3-0.4-0.7-0.6-1.3-0.6c-0.9,0-1.5,0.3-1.8,0.9c-0.3,0.6-0.5,1.5-0.5,2.6v5h-2.9V53.9h2.2l0.4,1.3h0.2c0.2-0.4,0.5-0.7,0.8-0.9
		c0.3-0.2,0.7-0.4,1.1-0.5C187.9,53.8,188.4,53.7,188.8,53.7z"/>
	<path class="st0" d="M200.8,50.7h4.3c1.8,0,3.2,0.3,4.2,0.8c0.9,0.5,1.4,1.4,1.4,2.7c0,0.5-0.1,1-0.3,1.4c-0.2,0.4-0.4,0.8-0.7,1
		c-0.3,0.3-0.7,0.4-1.2,0.5v0.1c0.5,0.1,0.9,0.3,1.2,0.5c0.4,0.2,0.7,0.6,0.9,1c0.2,0.4,0.3,1,0.3,1.7c0,0.8-0.2,1.6-0.6,2.2
		c-0.4,0.6-1,1.1-1.8,1.4c-0.8,0.3-1.7,0.5-2.7,0.5h-5.2V50.7z M203.7,56.2h1.7c0.8,0,1.4-0.1,1.8-0.4c0.3-0.3,0.5-0.7,0.5-1.2
		c0-0.5-0.2-0.9-0.6-1.1c-0.4-0.2-1-0.3-1.8-0.3h-1.5V56.2z M203.7,58.5v3.6h1.9c0.9,0,1.5-0.2,1.8-0.5c0.3-0.3,0.5-0.8,0.5-1.4
		c0-0.3-0.1-0.6-0.2-0.9c-0.2-0.3-0.4-0.5-0.8-0.6c-0.4-0.1-0.8-0.2-1.5-0.2H203.7z"/>
	<path class="st0" d="M215,49.8c0.4,0,0.8,0.1,1.1,0.3c0.3,0.2,0.5,0.6,0.5,1.1c0,0.5-0.2,0.9-0.5,1.1c-0.3,0.2-0.7,0.3-1.1,0.3
		c-0.4,0-0.8-0.1-1.1-0.3c-0.3-0.2-0.5-0.6-0.5-1.1c0-0.5,0.2-0.9,0.5-1.1C214.2,49.9,214.5,49.8,215,49.8z M216.4,53.9v10.6h-2.9
		V53.9H216.4z"/>
	<path class="st0" d="M231.8,53.7c1.2,0,2.1,0.3,2.7,0.9c0.6,0.6,0.9,1.6,0.9,3v6.9h-2.9v-6.2c0-0.8-0.1-1.3-0.4-1.7
		c-0.3-0.4-0.7-0.6-1.2-0.6c-0.8,0-1.3,0.3-1.6,0.8c-0.3,0.5-0.5,1.3-0.5,2.3v5.3H226v-6.2c0-0.5-0.1-0.9-0.2-1.3s-0.3-0.6-0.5-0.8
		c-0.2-0.2-0.5-0.3-0.9-0.3c-0.5,0-1,0.1-1.3,0.4c-0.3,0.3-0.5,0.7-0.7,1.2c-0.1,0.5-0.2,1.2-0.2,1.9v5h-2.9V53.9h2.2l0.4,1.3h0.2
		c0.2-0.4,0.5-0.7,0.8-0.9c0.3-0.2,0.7-0.4,1.1-0.5c0.4-0.1,0.8-0.2,1.2-0.2c0.8,0,1.4,0.1,2,0.4c0.5,0.3,1,0.6,1.2,1.2h0.3
		c0.3-0.5,0.8-0.9,1.3-1.2C230.6,53.9,231.2,53.7,231.8,53.7z"/>
	<path class="st0" d="M242.7,53.7c1.4,0,2.5,0.3,3.3,0.9s1.1,1.6,1.1,2.8v7h-2l-0.6-1.4h-0.1c-0.3,0.4-0.6,0.7-0.9,0.9
		c-0.3,0.2-0.7,0.4-1.1,0.5c-0.4,0.1-0.9,0.2-1.5,0.2c-0.6,0-1.2-0.1-1.7-0.4c-0.5-0.2-0.9-0.6-1.2-1.1c-0.3-0.5-0.4-1.1-0.4-1.9
		c0-1.1,0.4-1.9,1.2-2.5c0.8-0.5,2-0.8,3.5-0.9l1.8-0.1v-0.5c0-0.6-0.1-1-0.4-1.2c-0.3-0.3-0.7-0.4-1.2-0.4c-0.5,0-1,0.1-1.5,0.2
		c-0.5,0.1-1,0.3-1.5,0.5l-1-1.9c0.6-0.3,1.2-0.5,1.9-0.7C241.3,53.8,242,53.7,242.7,53.7z M244.3,59.6l-1.1,0
		c-0.9,0-1.6,0.2-1.9,0.5c-0.4,0.3-0.5,0.7-0.5,1.2c0,0.4,0.1,0.8,0.4,0.9c0.3,0.2,0.6,0.3,1,0.3c0.6,0,1.1-0.2,1.6-0.5
		c0.4-0.4,0.6-0.9,0.6-1.6V59.6z"/>
</g>
</svg>
