<?xml version="1.0" encoding="utf-8"?>
<!-- Generator: Adobe Illustrator 26.4.1, SVG Export Plug-In . SVG Version: 6.00 Build 0)  -->
<svg version="1.1" id="Layer_1" xmlns="http://www.w3.org/2000/svg" xmlns:xlink="http://www.w3.org/1999/xlink" x="0px" y="0px"
	 viewBox="0 0 264 91" style="enable-background:new 0 0 264 91;" xml:space="preserve">
<style type="text/css">
	.st0{fill:#B3B3B3;}
	.st1{fill-rule:evenodd;clip-rule:evenodd;fill:#B3B3B3;}
</style>
<g>
	<path class="st0" d="M127.55,65.23c-1.46-0.96-2.07-2.19-1.96-3.99c0.16-2.75-0.05-5.53,0.07-8.28c0.16-3.69-1.01-6.57-4.69-8.3
		c4.41-2.51,5.49-6.44,5.39-11.01c-0.1-4.78-2.33-7.94-6.78-9.6c-4.95,0-9.9,0-14.85,0c0.14,0.5,0.59,0.76,0.98,0.96
		c1.92,1,2.37,2.55,2.34,4.65c-0.1,10.11-0.11,20.22,0,30.32c0.03,2.49-0.09,4.68-2.65,5.91c-0.3,0.15-0.69,0.41-0.6,0.79
		c0.13,0.55,0.67,0.35,1.05,0.35c3.12,0.02,6.24,0.03,9.37-0.01c0.61-0.01,1.55,0.37,1.76-0.29c0.23-0.74-0.75-1.08-1.3-1.45
		c-1.01-0.7-1.81-1.4-1.79-2.8c0.05-4.88,0.06-9.76,0-14.63c-0.01-1.16,0.49-1.37,1.48-1.34c2.5,0.08,4.25,1.68,4.28,4.18
		c0.06,4,0.02,7.99,0.02,11.99c0,1.48,0.32,2.81,1.76,3.59c2.47,1.32,5.05,0.59,7.82,0.81C128.74,65.98,128.12,65.6,127.55,65.23z
		 M119.53,40c-0.56,2.27-1.91,3.32-4.08,3.49c-1.13,0.09-1.6-0.22-1.56-1.43c0.08-2.41,0.02-4.82,0.02-7.23c0,0,0,0-0.01,0
		c0-2.35,0.04-4.7-0.02-7.05c-0.03-1.04,0.37-1.31,1.35-1.26c2.66,0.13,4.22,1.38,4.6,4.19C120.24,33.81,120.28,36.94,119.53,40z"/>
	<path class="st0" d="M183.3,63.35c-0.89,0.76-1.86,1.41-3.04,0.85c-1.29-0.61-0.96-1.89-0.96-2.97
		c-0.02-6.76,0.07-13.52-0.07-20.28c-0.05-2.44,0.2-4.54,2.44-5.94c0.05-0.03,0.01-0.21,0.01-0.52c-2.72,0.52-2.52-1.28-2.41-3.07
		c0.06-1.05-0.05-2.12,0.03-3.17c0.09-1.31-0.68-1.4-1.67-1.37c-0.99,0.02-1.79-0.09-1.85,1.39c-0.11,3.09-0.58,6.09-4.72,6.77
		c0.26,0.35,0.52,0.49,0.78,0.62c1.73,0.84,2.03,2.26,2.01,4.07c-0.1,6.88-0.03,13.75-0.05,20.63c0,1.37,0.21,2.69,0.58,3.99
		c0.37,1.3,1.14,2.08,2.49,2.44c2.99,0.8,5.24-0.27,7.09-2.54c0-0.35,0-0.71,0-1.06C183.73,63.25,183.45,63.22,183.3,63.35z"/>
	<path class="st0" d="M101.22,65.86c-1.68-1.04-1.88-2.57-1.84-4.38c0.1-4.87,0.04-9.75,0.04-14.63c0-3.52,0-7.05,0-10.57
		c0-0.63,0.13-1.37-0.88-1.37c-2.33,0-4.66,0-7.37,0c1.21,1.54,3.03,1.85,2.98,3.96c-0.14,6.93-0.06,13.86-0.05,20.79
		c0,1.08-0.17,2.11-0.69,3.05c-0.68,1.23-1.76,1.97-3.18,1.76c-1.47-0.21-2.19-1.28-2.37-2.7c-0.07-0.58-0.05-1.17-0.05-1.76
		c0-7.81-0.03-15.63,0.03-23.44c0.01-1.28-0.29-1.8-1.66-1.71c-1.7,0.12-3.41,0.02-5.12,0.03c-0.33,0-0.78-0.14-0.95,0.23
		c-0.24,0.52,0.28,0.76,0.6,0.91c1.77,0.81,1.83,2.27,1.81,3.95c-0.07,6.93,0.01,13.86-0.04,20.8c-0.03,5,3.17,6.67,7.75,6.09
		c1.45-0.18,2.48-1.22,3.99-1.93c-0.57,1.99,0.43,2.18,1.84,2.1c1.58-0.09,3.18-0.01,4.77-0.03c0.33,0,0.78,0.16,0.96-0.22
		C102.03,66.3,101.52,66.04,101.22,65.86z"/>
	<path class="st0" d="M148.18,42.17c-0.47-4.03-2.86-6.74-6.16-7.2c-4.23-0.58-6.97,1.07-8.79,5.13c-1.01,2.25-1.37,4.62-1.43,7.03
		c-0.13,5.17-0.23,10.37,2.05,15.21c1.82,3.85,5.78,5.55,9.88,4.36c2.45-0.71,4.28-2.83,4.39-5.09c-0.63,0.02-0.85,0.58-1.2,0.93
		c-1.68,1.65-3.64,2.42-5.95,1.7c-2.21-0.69-2.61-2.71-3-4.61c-0.55-2.67-0.28-5.39-0.38-8.09c-0.04-1.14,0.29-1.54,1.48-1.5
		c2.65,0.08,5.3,0,7.95,0.04c1.13,0.02,1.62-0.43,1.54-1.58C148.42,46.39,148.43,44.27,148.18,42.17z M143,47.03
		c-0.42,1.7-2.88,0.38-4.39,0.69c-0.94,0.19-1.01-0.5-0.99-1.21c0.03-0.94,0.01-1.88,0.01-3.01c0.06-1.26-0.17-2.74,0.33-4.16
		c0.4-1.15,1.1-1.92,2.43-1.92c1.25,0,1.99,0.73,2.33,1.8C143.52,41.79,143.61,44.58,143,47.03z"/>
	<path class="st0" d="M166.42,55.7c-1.28-3.09-3.53-5.53-5.39-8.23c-1.5-2.19-2.8-4.51-2.86-7.26c-0.02-1.05,0.07-2.24,1.28-2.67
		c1.2-0.42,2.18,0.18,2.94,1.09c0.37,0.45,0.69,0.95,0.99,1.45c1.01,1.74,1.73,3.59,2.18,5.55c0.09,0.4,0.18,0.96,0.64,0.93
		c0.71-0.03,0.46-0.71,0.46-1.11c0.03-3.05,0.03-6.11,0.01-9.16c0-0.42,0.24-1.02-0.35-1.23c-0.43-0.16-0.8,0.22-1.06,0.5
		c-1.01,1.07-1.87,0.85-3.05,0.11c-2.84-1.78-6.49-0.61-7.96,2.36c-0.75,1.53-0.82,3.14-0.61,4.81c0.53,4.1,2.92,7.21,5.29,10.38
		c1.84,2.46,3.4,5.1,3.62,8.27c0.07,1.05,0.04,2.18-1.15,2.72c-1.13,0.51-2.19,0.25-3.12-0.52c-1.02-0.85-1.59-2.02-2.17-3.18
		c-0.85-1.68-1.14-3.55-1.84-5.47c-0.27,0.29-0.4,0.36-0.4,0.44c-0.03,3.35-0.06,6.69-0.06,10.04c0,0.44-0.22,1.04,0.24,1.3
		c0.49,0.28,0.86-0.25,1.19-0.54c0.87-0.78,1.51-1.02,2.68-0.18c2.18,1.56,4.61,1.18,6.84-0.07c2.06-1.16,3.08-2.98,2.9-5.41
		C167.55,58.89,167.08,57.29,166.42,55.7z"/>
</g>
</svg>
