<?xml version="1.0" encoding="utf-8"?>
<!-- Generator: Adobe Illustrator 26.4.1, SVG Export Plug-In . SVG Version: 6.00 Build 0)  -->
<svg version="1.1" id="Layer_1" xmlns="http://www.w3.org/2000/svg" xmlns:xlink="http://www.w3.org/1999/xlink" x="0px" y="0px"
	 viewBox="0 0 264 91" style="enable-background:new 0 0 264 91;" xml:space="preserve">
<style type="text/css">
	.st0{fill:#B3B3B3;}
	.st1{fill-rule:evenodd;clip-rule:evenodd;fill:#B3B3B3;}
</style>
<g>
	<path class="st0" d="M46.2,22.98c-0.59,0.05-1.17,0.06-1.76,0.14c-2.1,0.28-4.15,0.77-6.13,1.53c-2.18,0.83-4.21,1.93-6.1,3.29
		c-0.07,0.05-0.17,0.08-0.19,0.21c4.65-0.26,9.17,0.37,13.59,1.91c-0.04-0.31,0.04-0.56,0.05-0.82c0.08-1.14,0.23-2.27,0.41-3.4
		c0.16-0.98,0.38-1.95,0.59-2.92c-0.06,0-0.13,0-0.19,0C46.41,23,46.3,22.97,46.2,22.98z"/>
	<path class="st0" d="M45.43,44.95c-0.02-0.39-0.04-0.7-0.06-1.01c-0.07-0.83-0.13-1.66-0.4-2.45c-0.12-0.36-0.13-0.35-0.41-0.1
		c-1.8,1.62-3.51,3.32-5.09,5.14c-1.03,1.18-2.01,2.39-2.94,3.64c-3.69,5-6.53,10.43-8.29,16.41c-0.08,0.29-0.05,0.48,0.16,0.69
		c0.83,0.85,1.68,1.67,2.61,2.42c3.27,2.67,6.97,4.44,11.09,5.36c0.2,0.05,0.29-0.01,0.34-0.23c0.21-0.89,0.38-1.78,0.55-2.67
		c0.47-2.45,0.81-4.92,1.13-7.4c0.2-1.55,0.39-3.11,0.54-4.67c0.14-1.41,0.25-2.82,0.36-4.24c0.1-1.3,0.18-2.6,0.27-3.9
		c0.09-1.32,0.15-2.64,0.14-3.96C45.42,46.95,45.43,45.91,45.43,44.95z"/>
	<path class="st0" d="M41.17,34.47c-1.33-0.81-2.72-1.45-4.09-2.11c-0.88-0.42-1.78-0.78-2.69-1.14c-1.37-0.54-2.76-1-4.17-1.44
		c-0.18-0.06-0.28,0-0.41,0.11c-1.34,1.22-2.52,2.57-3.57,4.04c-2.95,4.14-4.58,8.75-4.88,13.83c-0.17,2.85,0.11,5.66,0.87,8.42
		c0.54,1.96,1.27,3.84,2.26,5.62c0.57,1.11,1.25,2.15,2.01,3.17c0-0.37,0.02-0.7,0-1.03c-0.07-1.13,0.01-2.25,0.08-3.37
		c0.05-0.73,0.13-1.47,0.2-2.2C28.22,48.4,33.05,40.45,41.17,34.47z"/>
	<path class="st0" d="M66.21,63.81c-0.39-1.1-0.84-2.16-1.3-3.23c-0.75-1.7-1.58-3.36-2.52-4.96c-0.29-0.6-0.67-1.15-1.01-1.71
		c-0.76-1.27-1.62-2.47-2.49-3.66c-1.22-1.67-2.56-3.25-3.96-4.78c-0.91-1-1.87-1.96-2.85-2.9c-0.36-0.34-0.73-0.67-1.1-1.01
		c-0.01,0.42,0.05,0.8,0.1,1.18c0.14,1.01,0.28,2.01,0.41,3.02c0.1,0.81,0.19,1.62,0.27,2.44c0.1,0.93,0.2,1.86,0.29,2.78
		c0.07,0.75,0.14,1.51,0.21,2.26c0.08,0.81,0.16,1.61,0.23,2.42c0.07,0.84,0.13,1.68,0.2,2.52c0.08,0.92,0.16,1.84,0.24,2.76
		c0.07,0.86,0.14,1.72,0.21,2.58c0.07,0.89,0.15,1.78,0.23,2.67c0.09,0.94,0.13,1.89,0.26,2.82c0,0.07,0,0.13,0,0.2
		c-0.01,0.09-0.03,0.17,0.04,0.25c0.03,0.42,0.05,0.85,0.1,1.27c0.14,1.27,0.29,2.54,0.41,3.81c0.02,0.25,0.09,0.29,0.32,0.23
		c1.05-0.28,2.06-0.65,3.07-1.04c2.21-0.85,4.2-2.08,6.09-3.47c1.22-0.9,2.32-1.94,3.36-3.03c0.17-0.17,0.19-0.32,0.13-0.55
		C66.88,65.7,66.54,64.75,66.21,63.81z"/>
	<path class="st0" d="M73.89,46.54c-0.18-2.01-0.63-3.97-1.29-5.87c-0.34-0.97-0.68-1.94-1.21-2.82c0.02-0.13-0.05-0.22-0.1-0.32
		c-0.52-1.05-1.14-2.06-1.79-3.04c-1.09-1.64-2.37-3.1-3.8-4.46c-0.18-0.17-0.32-0.31-0.64-0.22c-3.4,1.01-6.65,2.36-9.76,4.03
		c-0.37,0.2-0.73,0.41-1.13,0.63c0.93,0.68,1.8,1.35,2.64,2.07c2.58,2.24,4.8,4.79,6.64,7.67c0.64,1,1.2,2.04,1.76,3.08
		c0.53,1.09,1.02,2.2,1.44,3.33c1.01,2.69,1.68,5.46,2,8.32c0.2,1.84,0.31,3.69,0.19,5.55c-0.01,0.15,0,0.29,0,0.5
		c0.11-0.13,0.17-0.21,0.22-0.28c2.69-3.71,4.26-7.85,4.82-12.38c0.15-1.25,0.22-2.51,0.15-3.77
		C73.99,47.89,73.95,47.22,73.89,46.54z"/>
	<path class="st0" d="M60.13,28.11c1.07-0.03,2.13-0.03,3.2,0.02c-0.01-0.1-0.1-0.13-0.16-0.18c-1.81-1.32-3.77-2.39-5.85-3.22
		c-1.01-0.4-2.05-0.73-3.1-1c-0.75-0.19-1.5-0.39-2.28-0.45c-0.61-0.15-1.24-0.13-1.85-0.25c-0.41-0.08-0.82,0.01-1.22-0.12
		c-0.06,0-0.13,0-0.19,0c0.09,0.37,0.18,0.74,0.25,1.12c0.17,0.86,0.33,1.72,0.49,2.58c0.1,1.1,0.27,2.2,0.32,3.31
		c0,0.1,0.05,0.13,0.14,0.09c0.08-0.03,0.15-0.06,0.23-0.09c2-0.65,4.03-1.15,6.12-1.46C57.53,28.28,58.83,28.15,60.13,28.11z"/>
	<path class="st0" d="M97.33,47.52c-0.88-0.64-1.95-1.25-3.2-1.84c-1.02-0.49-1.88-0.92-2.56-1.29c-0.68-0.37-1.2-0.75-1.54-1.14
		c-0.34-0.4-0.51-0.88-0.51-1.46c0-0.49,0.12-0.92,0.35-1.29c0.23-0.37,0.58-0.66,1.04-0.87c0.46-0.21,1.01-0.31,1.65-0.31
		c0.92,0,1.83,0.12,2.72,0.38c0.89,0.25,1.9,0.6,3.02,1.06l1.67-4.02c-1.26-0.56-2.46-0.98-3.61-1.28c-1.15-0.3-2.36-0.44-3.63-0.44
		c-1.69,0-3.16,0.28-4.4,0.83c-1.24,0.55-2.2,1.34-2.86,2.38c-0.67,1.03-1,2.28-1,3.74c0,1.11,0.19,2.07,0.58,2.86
		c0.38,0.8,0.88,1.47,1.48,2.03s1.24,1.03,1.9,1.41c0.67,0.38,1.28,0.71,1.85,0.98c0.9,0.43,1.71,0.84,2.43,1.22
		c0.72,0.38,1.28,0.78,1.69,1.22c0.41,0.43,0.62,0.96,0.62,1.57c0,0.5-0.12,0.95-0.35,1.34c-0.23,0.39-0.61,0.7-1.13,0.92
		c-0.52,0.22-1.2,0.33-2.04,0.33c-1.22,0-2.46-0.21-3.71-0.62c-1.25-0.41-2.45-0.87-3.61-1.39v4.81c0.67,0.32,1.37,0.59,2.11,0.81
		c0.74,0.22,1.51,0.38,2.32,0.49c0.81,0.11,1.63,0.17,2.48,0.17c1.91,0,3.54-0.29,4.88-0.87c1.34-0.58,2.36-1.4,3.06-2.47
		c0.7-1.07,1.05-2.33,1.05-3.77c0-1.28-0.24-2.35-0.72-3.21C98.9,48.91,98.21,48.16,97.33,47.52z"/>
	<path class="st0" d="M111.76,40.72c-1.31,0-2.58,0.15-3.81,0.45c-1.23,0.3-2.34,0.71-3.33,1.24l1.69,3.44
		c0.87-0.39,1.74-0.71,2.6-0.97c0.87-0.26,1.75-0.38,2.65-0.38c0.91,0,1.62,0.23,2.14,0.68c0.51,0.46,0.77,1.17,0.77,2.15v0.82
		l-3.24,0.1c-2.78,0.1-4.87,0.62-6.26,1.56c-1.39,0.94-2.09,2.4-2.09,4.38c0,1.35,0.25,2.46,0.75,3.33c0.5,0.87,1.19,1.52,2.06,1.94
		c0.87,0.42,1.86,0.63,2.96,0.63c1.03,0,1.91-0.1,2.64-0.3c0.72-0.2,1.36-0.51,1.92-0.93c0.56-0.42,1.1-0.97,1.64-1.64h0.13
		l0.98,2.54h3.56V47.33c0-2.23-0.67-3.88-2-4.97C116.18,41.27,114.26,40.72,111.76,40.72z M114.46,52.66c0,1.19-0.38,2.11-1.13,2.75
		c-0.75,0.65-1.67,0.97-2.76,0.97c-0.73,0-1.33-0.16-1.79-0.49c-0.46-0.33-0.68-0.88-0.68-1.66c0-0.89,0.32-1.61,0.96-2.15
		c0.64-0.55,1.78-0.84,3.43-0.88l1.97-0.07V52.66z"/>
	<path class="st0" d="M143.79,49.37c-0.16,0.58-0.31,1.28-0.46,2.09c-0.15,0.82-0.28,1.6-0.39,2.35c-0.11,0.75-0.19,1.31-0.23,1.69
		h-0.13c-0.01-0.42-0.07-1-0.17-1.74c-0.1-0.74-0.21-1.46-0.34-2.16c-0.13-0.7-0.23-1.21-0.31-1.54l-2.19-8.95h-5.61l-2.3,8.95
		c-0.04,0.17-0.11,0.48-0.19,0.94c-0.08,0.46-0.17,0.98-0.27,1.55c-0.09,0.57-0.18,1.13-0.25,1.66c-0.07,0.53-0.12,0.96-0.14,1.29
		h-0.13c-0.06-0.43-0.14-1.02-0.24-1.76c-0.11-0.74-0.23-1.51-0.36-2.3c-0.13-0.8-0.27-1.48-0.42-2.06l-2.15-8.26h-5.07l5.31,18.66
		h5.47l1.5-6.46c0.09-0.4,0.22-0.99,0.4-1.76c0.18-0.77,0.37-1.6,0.58-2.48c0.21-0.88,0.39-1.69,0.56-2.44
		c0.17-0.75,0.29-1.29,0.37-1.64h0.15c0.08,0.34,0.2,0.89,0.38,1.64c0.17,0.75,0.36,1.56,0.57,2.43c0.21,0.87,0.4,1.69,0.58,2.45
		s0.31,1.34,0.38,1.73l1.44,6.53h5.54l5.38-18.66h-4.99L143.79,49.37z"/>
	<path class="st0" d="M158.53,34.32c-0.55-0.35-1.2-0.53-1.95-0.53c-0.77,0-1.42,0.18-1.96,0.53c-0.54,0.35-0.81,1-0.81,1.96
		c0,0.95,0.27,1.6,0.81,1.96c0.54,0.36,1.19,0.54,1.96,0.54c0.76,0,1.41-0.18,1.95-0.54c0.55-0.36,0.82-1.02,0.82-1.96
		C159.35,35.32,159.08,34.67,158.53,34.32z"/>
	<rect x="154.03" y="41.11" class="st0" width="5.09" height="18.66"/>
	<path class="st0" d="M172.32,56.05c-0.67,0-1.2-0.18-1.61-0.53c-0.41-0.35-0.61-0.88-0.61-1.59v-9h5.22v-3.82h-5.22v-3.97h-3.26
		l-1.47,3.94l-2.8,1.7v2.15h2.44v9c0,1.6,0.25,2.85,0.76,3.75c0.51,0.9,1.2,1.52,2.09,1.89c0.89,0.36,1.88,0.54,3,0.54
		c0.96,0,1.84-0.08,2.65-0.24c0.81-0.16,1.48-0.36,2.03-0.61v-3.79c-0.52,0.17-1.05,0.31-1.58,0.42
		C173.42,55.99,172.88,56.05,172.32,56.05z"/>
	<path class="st0" d="M199.26,35.36h-5.74l-6.61,8.3c-0.34,0.48-0.68,0.96-1.02,1.44c-0.33,0.48-0.67,0.96-1.02,1.44V35.36h-5.17
		v24.4h5.17v-8.71l2.19-1.57l6.39,10.28h5.88l-8.58-13.6L199.26,35.36z"/>
	<path class="st0" d="M206.51,34.32c-0.55-0.35-1.2-0.53-1.95-0.53c-0.77,0-1.42,0.18-1.96,0.53c-0.54,0.35-0.81,1-0.81,1.96
		c0,0.95,0.27,1.6,0.81,1.96c0.54,0.36,1.19,0.54,1.96,0.54c0.76,0,1.41-0.18,1.95-0.54c0.55-0.36,0.82-1.02,0.82-1.96
		C207.33,35.32,207.05,34.67,206.51,34.32z"/>
	<rect x="202" y="41.11" class="st0" width="5.09" height="18.66"/>
	<path class="st0" d="M220.3,56.05c-0.67,0-1.2-0.18-1.61-0.53c-0.41-0.35-0.61-0.88-0.61-1.59v-9h5.22v-3.82h-5.22v-3.97h-3.26
		l-1.47,3.94l-2.8,1.7v2.15h2.44v9c0,1.6,0.25,2.85,0.76,3.75c0.51,0.9,1.2,1.52,2.09,1.89c0.89,0.36,1.88,0.54,3,0.54
		c0.96,0,1.84-0.08,2.65-0.24c0.81-0.16,1.48-0.36,2.03-0.61v-3.79c-0.52,0.17-1.05,0.31-1.58,0.42
		C221.39,55.99,220.85,56.05,220.3,56.05z"/>
	<path class="st0" d="M240.68,42.36c-1.34-1.09-3.25-1.64-5.76-1.64c-1.31,0-2.58,0.15-3.81,0.45c-1.23,0.3-2.34,0.71-3.33,1.24
		l1.69,3.44c0.87-0.39,1.74-0.71,2.6-0.97c0.87-0.26,1.75-0.38,2.65-0.38c0.91,0,1.62,0.23,2.14,0.68c0.51,0.46,0.77,1.17,0.77,2.15
		v0.82l-3.24,0.1c-2.78,0.1-4.87,0.62-6.26,1.56c-1.39,0.94-2.09,2.4-2.09,4.38c0,1.35,0.25,2.46,0.75,3.33
		c0.5,0.87,1.19,1.52,2.06,1.94c0.87,0.42,1.86,0.63,2.96,0.63c1.03,0,1.91-0.1,2.64-0.3c0.72-0.2,1.36-0.51,1.92-0.93
		c0.56-0.42,1.1-0.97,1.64-1.64h0.13l0.98,2.54h3.56V47.33C242.68,45.11,242.01,43.45,240.68,42.36z M237.62,52.66
		c0,1.19-0.38,2.11-1.13,2.75c-0.75,0.65-1.67,0.97-2.76,0.97c-0.73,0-1.33-0.16-1.79-0.49c-0.46-0.33-0.68-0.88-0.68-1.66
		c0-0.89,0.32-1.61,0.96-2.15c0.64-0.55,1.78-0.84,3.43-0.88l1.97-0.07V52.66z"/>
</g>
</svg>
