<?xml version="1.0" encoding="utf-8"?>
<!-- Generator: Adobe Illustrator 26.4.1, SVG Export Plug-In . SVG Version: 6.00 Build 0)  -->
<svg version="1.1" id="Layer_1" xmlns="http://www.w3.org/2000/svg" xmlns:xlink="http://www.w3.org/1999/xlink" x="0px" y="0px"
	 viewBox="0 0 264 91" style="enable-background:new 0 0 264 91;" xml:space="preserve">
<style type="text/css">
	.st0{fill:#B3B3B3;}
	.st1{fill-rule:evenodd;clip-rule:evenodd;fill:#B3B3B3;}
</style>
<g>
	<path class="st0" d="M98.87,48.57c0.69-3.21-0.2-5.03-3.1-6.43c-0.44-0.21-0.57-0.52-0.53-0.96c0.05-0.55,0.09-1.11,0.17-1.66
		c1.29-8.16,4.74-15.23,10.65-21.06c7.38-7.28,16.28-10.91,26.39-11.13c2.57,0.05,4.9,0.25,7.2,0.75
		c9.87,2.15,17.76,7.29,23.51,15.62c2.36,3.42,4.04,7.18,5.14,11.18c0.21,0.75,0.62,1.15,1.41,0.89c0.72-0.24,1.02-0.74,0.78-1.52
		c-2.32-7.52-6.01-14.27-12.05-19.38c-9.3-7.87-20.12-11.14-32.26-9.38c-8.16,1.19-15.27,4.71-21.28,10.34
		c-7.27,6.8-10.72,15.49-11.93,25.19c-0.09,0.76-0.31,1.13-1.09,1.32c-1.41,0.34-2.29,1.35-2.63,2.73c-0.79,3.26,0.04,6.1,2.43,8.47
		c1.35,1.34,2.94,1.33,4.35,0.03C97.54,52.2,98.45,50.51,98.87,48.57z"/>
	<path class="st0" d="M175.01,42.14c0,0-0.01,0-0.01,0c0-1.21,0.02-2.41-0.01-3.62c-0.02-0.68-0.38-1.11-1.11-1.08
		c-0.72,0.03-0.9,0.47-0.89,1.13c0.03,1.64,0,3.28,0.01,4.92c0,0.56-0.23,0.9-0.81,0.9c-0.53,0-0.76-0.34-0.78-0.84
		c-0.01-0.25-0.01-0.5-0.01-0.74c0-1.45-0.01-2.91-0.01-4.36c0-0.7-0.39-1.02-1.05-1c-0.65,0.02-0.89,0.41-0.88,1.05
		c0.02,1.58-0.01,3.16,0.01,4.73c0.01,0.64-0.12,1.14-0.86,1.14c-0.75,0.01-0.78-0.56-0.79-1.11c-0.01-1.55-0.02-3.09,0.01-4.64
		c0.01-0.7-0.21-1.17-0.96-1.18c-0.77-0.01-0.96,0.46-0.96,1.16c0.02,2.41,0.03,4.83,0,7.24c-0.02,1.39,0.48,2.66,1.64,3.21
		c1.51,0.72,1.56,1.69,1.15,2.98c-0.05,0.15-0.07,0.3-0.11,0.45c-1.6,6.92-4.83,12.95-9.81,18.04c-3.88,3.97-8.4,6.95-13.65,8.79
		c-3.25,1.14-6.62,1.68-10.01,2.1c-2.31,0.29-4.63,0.41-6.94,0.15c-3.72-0.43-7.26-1.56-10.69-3.08
		c-7.55-3.35-13.45-8.52-17.51-15.74c-1.13-2.02-2.1-4.1-2.88-6.28c-0.18-0.5-0.48-0.89-1.04-0.93c-0.45-0.03-0.86,0.16-1.11,0.54
		c-0.32,0.49-0.18,0.99,0.01,1.5c3.14,8.66,8.56,15.5,16.39,20.36c6.45,4,13.48,6.19,21.11,6.06c4.81-0.08,9.52-0.93,13.98-2.77
		c13.8-5.69,22.34-15.68,24.86-30.56c0.08-0.47,0.27-0.79,0.73-0.97c2.07-0.82,2.88-2.47,2.94-4.59
		C175.03,44.12,175.01,43.13,175.01,42.14z"/>
	<path class="st0" d="M110.31,68.71c6.36,6,14.01,8.49,22.64,8.35c0.28-0.02,0.56-0.05,0.83-0.06c6.77-0.33,12.8-2.65,18.14-6.8
		c0.97-0.76,1.95-1.53,2.67-2.56c0.39-0.56,0.41-1.17-0.08-1.69c-0.49-0.52-1.07-0.39-1.6-0.06c-0.28,0.18-0.52,0.43-0.77,0.66
		c-6.95,6.62-15.36,8.76-24.65,7.73c-4.5-0.5-8.55-2.45-12.26-5.06c-1.32-0.93-2.53-1.98-3.75-3.03c-0.41-0.35-0.83-0.39-1.28-0.16
		c-0.47,0.24-0.71,0.63-0.72,1.2C109.47,67.91,109.88,68.31,110.31,68.71z"/>
	<path class="st0" d="M119.23,23.86c-2.11-0.35-4.26-0.04-6.38-0.16c-0.9-0.05-1.11,0.35-1.1,1.15c0.03,2.04,0.01,4.08,0.01,6.12
		c0,2.1,0.01,4.2-0.01,6.31c-0.01,0.78,0.28,1.1,1.1,1.08c2.01-0.04,4.02-0.01,6.03-0.01c1.86,0,3.21-0.86,3.96-2.52
		c0.77-1.69,0.56-3.33-0.66-4.74c-0.38-0.44-0.38-0.69-0.1-1.17C123.49,27.47,122.02,24.33,119.23,23.86z M116.45,26.57
		c0.46,0,0.92-0.01,1.38,0.02c0.95,0.06,1.48,0.57,1.49,1.4c0.01,0.73-0.64,1.36-1.51,1.43c-0.4,0.03-0.8,0.01-1.2,0.01
		c-1.56,0-1.57,0-1.56-1.51C115.07,26.41,114.81,26.58,116.45,26.57z M118.4,35.43c-0.49,0.04-0.99,0.01-1.48,0.01
		c-1.86,0.02-1.86,0.02-1.86-1.8c0-1.46,0-1.46,1.46-1.45c0.62,0,1.24-0.03,1.85,0.01c0.88,0.06,1.52,0.8,1.52,1.67
		C119.89,34.73,119.32,35.36,118.4,35.43z"/>
	<path class="st0" d="M143.41,28.58c-0.62-0.03-1.4-0.47-1.83,0.33c-0.26,0.47-0.44,0.33-0.76,0.12c-1.48-0.93-2.99-0.87-4.45,0.02
		c-2.18,1.32-2.95,4.5-1.71,6.88c1.17,2.25,3.65,3.1,6.23,2.04c-0.77,1.35-2.21,1.71-3.57,0.97c-0.88-0.48-1.08-0.41-1.79,0.7
		c-0.43,0.66-0.48,1.22,0.27,1.73c1.25,0.86,2.64,0.98,4.07,0.86c2.26-0.18,4.01-1.96,4.17-4.21c0.19-2.81,0.05-5.62,0.09-8.44
		C144.14,29.07,143.96,28.61,143.41,28.58z M138.93,35.71c-1.03,0-1.84-1.01-1.82-2.26c0.02-1.32,0.82-2.19,2.01-2.18
		c1.23,0.01,2,0.89,1.99,2.28C141.1,34.79,140.17,35.71,138.93,35.71z"/>
	<path class="st0" d="M110.68,56.14c0.63,0.03,0.9-0.18,0.86-0.85c-0.05-0.99,0.01-1.98-0.02-2.96c-0.02-0.5,0.16-0.65,0.64-0.62
		c0.83,0.05,1.66-0.04,2.49-0.18c2.21-0.39,3.68-2.01,3.77-4.16c0.1-2.37-1.13-4.14-3.33-4.69c-1.27-0.32-2.57-0.25-3.87-0.24
		c-0.8,0-1.61,0.03-2.41-0.01c-0.6-0.03-0.81,0.18-0.81,0.79c0.02,4.05,0.02,8.09,0,12.14c0,0.56,0.17,0.79,0.73,0.77
		C109.38,56.11,110.03,56.11,110.68,56.14z M112.18,45.21c1.79-0.08,2.63,0.43,2.7,1.61c0.07,1.28-0.48,1.98-1.65,2.1
		c-1.7,0.17-1.7,0.17-1.7-1.84c0-0.09-0.03-0.2,0.01-0.27C111.82,46.3,110.85,45.27,112.18,45.21z"/>
	<path class="st0" d="M150.1,52.62c2.19-0.08,3.73-1.28,3.89-3.08c0.04-0.52,0.04-0.89,0.68-1.1c0.59-0.19,0.49-0.85,0.48-1.37
		c0-0.33-0.17-0.57-0.5-0.52c-1.84,0.25-3.59-0.57-5.41-0.41c-1.37,0.12-2.53,0.67-3.11,1.98c-0.54,1.23-0.38,2.42,0.63,3.4
		c0.31,0.29,0.26,0.46-0.01,0.75c-0.61,0.65-0.73,1.41-0.32,2.21c0.17,0.32,0.11,0.48-0.15,0.68c-1.14,0.83-0.94,2.46,0.37,3.35
		c1.73,1.17,5.16,1.07,6.86-0.18c1.18-0.87,1.7-2.09,1.38-3.28c-0.3-1.14-1.14-1.63-2.77-1.87c-0.98-0.15-2.02,0.05-2.93-0.54
		C149.5,52.63,149.8,52.64,150.1,52.62z M151.46,55.86c0.16,0.02,0.35,0.13,0.36,0.36c0.02,0.25-0.1,0.39-0.31,0.51
		c-0.46,0.25-0.95,0.19-1.62,0.21c-0.18-0.02-0.55-0.02-0.91-0.11c-0.3-0.07-0.59-0.23-0.53-0.63c0.06-0.35,0.28-0.54,0.63-0.56
		C149.89,55.58,150.67,55.74,151.46,55.86z M148.86,49.41c0-0.75,0.51-0.94,1.1-0.96c0.65-0.03,1.09,0.33,1.07,0.99
		c-0.01,0.61-0.33,1.06-0.97,1C149.29,50.43,148.86,50.17,148.86,49.41z"/>
	<path class="st0" d="M132.64,28.51c-0.55,0.03-1.26-0.34-1.53,0.58c-0.09,0.31-0.35,0.07-0.52-0.04c-1.61-1.03-3.2-0.94-4.74,0.1
		c-1.79,1.22-2.18,3.05-2.04,5.05c0.23,3.27,3.89,5.31,6.73,3.76c0.34-0.19,0.41-0.05,0.65,0.13c0.64,0.5,1.43,0.33,2.12,0.15
		c0.59-0.16,0.45-0.8,0.46-1.28c0.01-1.17,0-2.35,0-3.52c0-1.24-0.02-2.47,0.01-3.71C133.79,28.93,133.45,28.47,132.64,28.51z
		 M128.55,35.71c-1.07-0.05-1.82-1.05-1.78-2.4c0.03-1.18,0.92-2.1,2.02-2.08c1.21,0.02,2.05,0.99,2.04,2.38
		C130.83,34.71,129.68,35.76,128.55,35.71z"/>
	<path class="st0" d="M139.25,46.71c-0.17,0.09-0.4,0.36-0.55,0.13c-0.58-0.89-1.46-0.42-2.21-0.54c-0.53-0.08-0.69,0.18-0.68,0.69
		c0.03,1.36,0.01,2.72,0.01,4.08c0,0.93,0,1.86,0,2.78c0,2.34,0,2.32,2.38,2.28c0.63-0.01,0.86-0.19,0.85-0.85
		c-0.04-1.73-0.02-3.46-0.01-5.2c0-0.89,0.45-1.32,1.35-1.38c0.84-0.06,1.1,0.47,1.12,1.15c0.05,1.33,0.06,2.66,0.07,3.99
		c0.01,2.37,0,2.35,2.37,2.3c0.66-0.01,0.85-0.25,0.84-0.88c-0.03-1.73-0.01-3.46-0.01-5.2C144.76,46.7,142.28,45.19,139.25,46.71z"
		/>
	<path class="st0" d="M128.95,49.17c1.23,0.05,1.23,0.05,1.37-1.21c0.03-0.28,0.07-0.55,0.13-0.82c0.14-0.65-0.2-0.91-0.78-0.99
		c-0.84-0.11-1.6,0.03-2.21,0.68c-0.12,0.12-0.35,0.46-0.47,0.18c-0.49-1.17-1.49-0.55-2.27-0.7c-0.58-0.11-0.74,0.21-0.72,0.76
		c0.03,1.36,0.01,2.72,0.01,4.08c0,0.87,0,1.73,0,2.6c0,2.54,0,2.52,2.57,2.39c0.56-0.03,0.75-0.22,0.74-0.78
		c-0.03-1.55-0.02-3.09-0.01-4.64C127.33,49.67,127.91,49.13,128.95,49.17z"/>
	<path class="st0" d="M131.03,53.76c0,2.47,0,2.45,2.47,2.39c0.61-0.02,0.81-0.23,0.81-0.82c-0.02-2.75-0.01-5.51,0-8.26
		c0-0.53-0.14-0.81-0.73-0.77c-0.62,0.04-1.24,0.04-1.86,0.01c-0.52-0.03-0.71,0.15-0.69,0.68c0.03,1.39,0.01,2.78,0.01,4.18
		C131.03,52.03,131.03,52.89,131.03,53.76z"/>
	<path class="st0" d="M121.69,56.14c0.67,0.02,0.84-0.26,0.82-0.88c-0.04-1.36-0.01-2.72-0.01-4.07c0-0.83,0-1.67,0-2.5
		c0-2.42,0-2.39-2.41-2.4c-0.7,0-0.9,0.22-0.89,0.9c0.03,2.19-0.02,4.38,0.02,6.57C119.26,56.59,118.68,56.07,121.69,56.14z"/>
	<path class="st0" d="M152.01,29.8c0-1.13-0.17-1.29-1.38-1.3c-1.67-0.01-1.71,0-1.71,1.26c-0.01,2.2,0,4.39,0,6.59
		c0,2.06,0,2.03,2.04,2.01c0.76-0.01,1.07-0.32,1.06-1.05c-0.01-1.3,0-2.6,0-3.9C152.01,32.21,152.02,31.01,152.01,29.8z"/>
	<path class="st0" d="M145.31,36.52c0,1.86,0,1.83,1.87,1.85c0.83,0.01,1.16-0.27,1.14-1.13c-0.04-2.22-0.01-4.45-0.01-6.67
		c0-2.1,0-2.07-2.07-2.08c-0.77-0.01-0.95,0.31-0.94,0.99c0.03,1.3,0.01,2.59,0.01,3.89C145.31,34.42,145.31,35.47,145.31,36.52z"/>
	<path class="st0" d="M106.55,59.73c-0.12-0.04-0.24-0.03-0.27-0.03c-1.05-0.03-1.77,0.88-1.36,1.74c0.42,0.88,0.97,1.71,1.51,2.52
		c0.33,0.5,0.88,0.51,1.42,0.38c0.52-0.12,0.73-0.53,0.83-1.01C108.81,62.69,107.17,59.92,106.55,59.73z"/>
	<path class="st0" d="M156.87,60.17c-0.51,0.77-0.99,1.56-1.39,2.38c-0.44,0.9,0.15,1.84,0.98,1.85c0.5,0,0.88-0.09,1.1-0.41
		c0.59-0.86,1.16-1.74,1.56-2.71c0.28-0.67-0.08-1.16-0.62-1.46C157.9,59.49,157.27,59.57,156.87,60.17z"/>
	<path class="st0" d="M120.92,42.06c-1.09-0.03-1.93,0.72-1.96,1.76c-0.04,1.03,0.86,1.96,1.9,1.96c1,0,1.92-0.88,1.95-1.84
		C122.83,42.95,121.96,42.08,120.92,42.06z"/>
	<path class="st0" d="M132.69,42.06c-1.07-0.01-1.93,0.81-1.93,1.83c0,1.01,0.88,1.89,1.9,1.89c1.02,0,1.91-0.87,1.91-1.87
		C134.57,42.84,133.78,42.07,132.69,42.06z"/>
	<path class="st0" d="M150.17,22.93c-0.62,0-1.18,0.25-1.58,0.66c-0.4-0.41-0.96-0.66-1.58-0.66c-1.23,0-2.23,1-2.23,2.23
		c0,1.23,1,2.23,2.23,2.23c0.62,0,1.18-0.25,1.58-0.66c0.4,0.41,0.96,0.66,1.58,0.66c1.23,0,2.23-1,2.23-2.23
		C152.4,23.93,151.4,22.93,150.17,22.93z"/>
</g>
</svg>
