<?xml version="1.0" encoding="utf-8"?>
<!-- Generator: Adobe Illustrator 26.4.1, SVG Export Plug-In . SVG Version: 6.00 Build 0)  -->
<svg version="1.1" id="Layer_1" xmlns="http://www.w3.org/2000/svg" xmlns:xlink="http://www.w3.org/1999/xlink" x="0px" y="0px"
	 viewBox="0 0 264 91" style="enable-background:new 0 0 264 91;" xml:space="preserve">
<style type="text/css">
	.st0{fill:#B3B3B3;}
	.st1{fill-rule:evenodd;clip-rule:evenodd;fill:#B3B3B3;}
</style>
<g>
	<path class="st1" d="M102.65,35.31c-6.87,0-11.86,5.18-11.86,11.51v0.06c0,6.33,4.93,11.45,11.8,11.45
		c6.87,0,11.86-5.18,11.86-11.51v-0.06C114.45,40.43,109.52,35.31,102.65,35.31z M109.33,46.88c0,3.82-2.73,6.93-6.68,6.93
		c-3.94,0-6.74-3.18-6.74-7v-0.06c0-3.82,2.73-6.93,6.68-6.93c3.94,0,6.74,3.18,6.74,7V46.88z"/>
	<path class="st1" d="M80.56,53.82c-3.82,0-6.46-3.18-6.46-7v-0.06c0-3.82,2.7-6.93,6.46-6.93c2.23,0,3.98,0.95,5.69,2.51l3.12-3.59
		c-2.07-2.04-4.58-3.43-8.78-3.43c-6.84,0-11.61,5.18-11.61,11.51v0.06c0,6.39,4.87,11.45,11.42,11.45c4.29,0,6.84-1.53,9.13-3.98
		l-3.12-3.15C84.67,52.8,83.11,53.82,80.56,53.82z"/>
	<path class="st1" d="M235.04,44.63c-3.85-0.99-4.8-1.46-4.8-2.93v-0.06c0-1.08,0.99-1.94,2.86-1.94c1.88,0,3.82,0.83,5.79,2.19
		l2.54-3.69c-2.26-1.81-5.02-2.83-8.27-2.83c-4.55,0-7.79,2.67-7.79,6.71v0.06c0,4.42,2.89,5.66,7.38,6.81
		c3.72,0.95,4.48,1.59,4.48,2.83v0.06c0,1.3-1.21,2.1-3.21,2.1c-2.54,0-4.64-1.05-6.65-2.7l-2.89,3.47
		c2.67,2.39,6.07,3.56,9.44,3.56c4.8,0,8.17-2.48,8.17-6.9V51.3C242.1,47.42,239.55,45.8,235.04,44.63z"/>
	<polygon class="st1" points="169.54,48.92 180.04,48.92 180.04,44.56 169.54,44.56 169.54,40.05 181.47,40.05 181.47,35.69 
		164.68,35.69 164.68,57.95 181.63,57.95 181.63,53.59 169.54,53.59 	"/>
	<path class="st1" d="M203.52,43.1v-0.06c0-4.58-3.15-7.35-8.4-7.35h-10.18v22.26h4.9v-7.12h3.85l4.77,7.12h5.72L198.75,50
		C201.58,48.95,203.52,46.69,203.52,43.1z M198.56,43.35c0,1.88-1.37,3.15-3.75,3.15h-4.96v-6.39h4.87c2.39,0,3.85,1.08,3.85,3.18
		V43.35z"/>
	<polygon class="st1" points="205.32,40.21 212.09,40.21 212.09,57.95 216.99,57.95 216.99,40.21 223.76,40.21 223.76,35.69 
		205.32,35.69 	"/>
	<polygon class="st1" points="151.18,51.37 145.36,35.69 139.95,35.69 148.95,58.11 153.28,58.11 162.28,35.69 157,35.69 	"/>
	<polygon class="st1" points="132.72,49.4 122.29,35.69 117.77,35.69 117.77,57.95 122.6,57.95 122.6,43.8 133.39,57.95 
		137.55,57.95 137.55,35.69 132.72,35.69 	"/>
	<path class="st1" d="M53.9,27.87H27.81c-3.25,0-5.91,2.66-5.91,5.91v26.09c0,3.25,2.66,5.91,5.91,5.91H53.9
		c3.25,0,5.91-2.66,5.91-5.91V33.78C59.81,30.53,57.15,27.87,53.9,27.87z M45.85,37.21l3.37-3.37l0.82,1.86l-4.2,4.2V37.21z
		 M41.77,43.97l-1.37,1.37l0.63,0.64l1.62-1.62l3.2-3.2l4.59-4.59l2.74-2.74l0.84,0.84l-2.74,2.74l2.74,1.21L50.64,42l-3.95,0
		l-3.2,3.2c0.75,1.14,0.63,2.7-0.38,3.7c-1.15,1.15-3.01,1.15-4.16,0c-1.15-1.15-1.15-3.01,0-4.16
		C39.71,43.97,40.79,43.72,41.77,43.97z M50.28,56.01l-0.15,0.15c-5.07,5.07-13.37,5.07-18.45,0c-5.07-5.07-5.07-13.37,0-18.45
		l0.15-0.15c2.52-2.52,5.83-3.79,9.15-3.8V39c-1.99,0.01-3.98,0.77-5.49,2.28l-0.09,0.09c-3.05,3.05-3.05,8.03,0,11.07
		c3.05,3.05,8.03,3.05,11.07,0l0.09-0.09c1.51-1.51,2.27-3.5,2.28-5.49h5.24C54.07,50.18,52.8,53.49,50.28,56.01z"/>
</g>
</svg>
