<?xml version="1.0" encoding="utf-8"?>
<!-- Generator: Adobe Illustrator 26.4.1, SVG Export Plug-In . SVG Version: 6.00 Build 0)  -->
<svg version="1.1" id="Layer_1" xmlns="http://www.w3.org/2000/svg" xmlns:xlink="http://www.w3.org/1999/xlink" x="0px" y="0px"
	 viewBox="0 0 264 91" style="enable-background:new 0 0 264 91;" xml:space="preserve">
<style type="text/css">
	.st0{fill:#B3B3B3;}
	.st1{fill-rule:evenodd;clip-rule:evenodd;fill:#B3B3B3;}
</style>
<g>
	<path class="st1" d="M132,3.1c-23.44,0-42.45,19.01-42.45,42.45C89.55,68.99,108.56,88,132,88s42.45-19.01,42.45-42.45
		C174.45,22.11,155.44,3.1,132,3.1z M119.73,36.35l-0.41,3.25h-4.81l-2.02,17.2l-1.01,4.14c-0.19,0.61-0.46,1.07-0.81,1.4
		c-0.34,0.33-0.83,0.5-1.47,0.5h-1.78l2.75-23.19l-1.84-0.3c-0.26-0.05-0.5-0.18-0.69-0.37c-0.17-0.18-0.24-0.44-0.2-0.79l0.23-1.84
		h2.89l0.23-1.82c0.15-1.23,0.46-2.32,0.93-3.3c0.44-0.93,1.04-1.77,1.78-2.47c0.72-0.68,1.55-1.2,2.47-1.55
		c0.96-0.37,1.98-0.55,3-0.54c0.82-0.01,1.63,0.14,2.4,0.42l-0.41,2.37c-0.02,0.14-0.08,0.26-0.19,0.35
		c-0.11,0.08-0.24,0.14-0.38,0.16c-0.17,0.03-0.35,0.04-0.53,0.04h-0.6c-0.54-0.01-1.07,0.08-1.58,0.25
		c-0.48,0.17-0.91,0.44-1.27,0.8c-0.4,0.41-0.72,0.9-0.93,1.44c-0.25,0.59-0.42,1.32-0.52,2.18l-0.21,1.67H119.73z M124.71,57.6
		l-4.36,0l3.7-31.27h4.37L124.71,57.6z M134.44,57.6h-4.36l2.52-21.55l4.38,0L134.44,57.6z M138.05,30.71
		c-0.16,0.36-0.38,0.68-0.66,0.96c-0.27,0.27-0.58,0.49-0.93,0.66c-0.34,0.16-0.7,0.24-1.07,0.24c-0.37,0-0.73-0.08-1.06-0.24
		c-0.33-0.16-0.64-0.38-0.89-0.66c-0.26-0.28-0.47-0.61-0.62-0.96c-0.16-0.37-0.24-0.76-0.23-1.16c0-0.4,0.08-0.8,0.23-1.17
		c0.15-0.36,0.36-0.69,0.63-0.97c0.26-0.27,0.57-0.5,0.91-0.66c0.33-0.16,0.69-0.24,1.05-0.24c0.37,0,0.74,0.08,1.08,0.24
		c0.35,0.16,0.66,0.38,0.93,0.66c0.27,0.28,0.49,0.6,0.64,0.96l0.01,0c0.16,0.37,0.24,0.78,0.23,1.18
		C138.3,29.95,138.22,30.35,138.05,30.71z M158.9,47.23c-0.23,1.14-0.58,2.26-1.02,3.33c-0.43,1.03-0.97,2.01-1.6,2.93
		c-0.59,0.86-1.29,1.65-2.08,2.33c-0.74,0.64-1.57,1.16-2.46,1.54c-0.87,0.37-1.8,0.56-2.75,0.56c-0.93,0.01-1.85-0.18-2.69-0.57
		c-0.79-0.37-1.5-0.91-2.08-1.58l-1.07,9h-4.32l3.43-28.75h2.23c0.48,0,0.85,0.12,1.1,0.37c0.25,0.25,0.38,0.63,0.38,1.15l0,0
		l-0.23,3.72c0.48-0.81,1.04-1.57,1.66-2.28c0.57-0.65,1.2-1.23,1.88-1.74c0.63-0.47,1.31-0.85,2.04-1.12
		c0.7-0.26,1.44-0.39,2.18-0.39c0.82-0.01,1.63,0.16,2.38,0.5c0.72,0.34,1.34,0.85,1.81,1.5c0.5,0.67,0.88,1.5,1.15,2.49
		c0.27,0.99,0.4,2.15,0.4,3.48C159.26,44.88,159.14,46.07,158.9,47.23z"/>
	<path class="st1" d="M151.8,39.35c-0.61,0-1.22,0.2-1.84,0.6c-0.62,0.4-1.22,0.96-1.8,1.68c-0.62,0.79-1.17,1.64-1.63,2.54
		c-0.53,1.01-0.96,2.07-1.3,3.17l-0.64,5.37c0.45,0.6,1.06,1.06,1.75,1.33c0.64,0.25,1.31,0.38,1.99,0.38
		c0.64,0,1.28-0.14,1.86-0.42c0.59-0.29,1.13-0.68,1.59-1.16c0.5-0.52,0.94-1.11,1.3-1.74c0.39-0.68,0.72-1.4,0.97-2.14
		c0.26-0.77,0.46-1.57,0.6-2.38c0.14-0.81,0.2-1.62,0.21-2.44c0-1.59-0.26-2.79-0.8-3.58C153.54,39.75,152.78,39.35,151.8,39.35z"/>
</g>
</svg>
