<?xml version="1.0" encoding="utf-8"?>
<!-- Generator: Adobe Illustrator 26.4.1, SVG Export Plug-In . SVG Version: 6.00 Build 0)  -->
<svg version="1.1" id="Layer_1" xmlns="http://www.w3.org/2000/svg" xmlns:xlink="http://www.w3.org/1999/xlink" x="0px" y="0px"
	 viewBox="0 0 264 91" style="enable-background:new 0 0 264 91;" xml:space="preserve">
<style type="text/css">
	.st0{fill:#B3B3B3;}
	.st1{fill-rule:evenodd;clip-rule:evenodd;fill:#B3B3B3;}
</style>
<g>
	<path class="st0" d="M50.21,29.63c4.48-4.48,10.43-6.94,16.76-6.94c2.69,0,5.3,0.44,7.77,1.3c0.13,0.05,0.27,0.09,0.4,0.14
		c3.19,1.17,6.12,3.03,8.6,5.5l3.02-3.02c-5.28-5.28-12.31-8.19-19.78-8.19c-7.47,0-14.5,2.91-19.78,8.19
		c-0.59,0.59-1.15,1.2-1.68,1.83l3.03,3.03C49.07,30.83,49.62,30.22,50.21,29.63z"/>
	<path class="st0" d="M66.98,70.1c-6.33,0-12.29-2.47-16.76-6.94c-4.48-4.48-6.94-10.43-6.94-16.76c0-2.01,0.25-3.98,0.73-5.88
		c0.25-0.97,0.55-1.92,0.92-2.85L57.9,50.64l10.31-10.31V59.7h4.27V33.46h-3.43L57.9,44.6L46.97,33.66l-3.08-3.08
		c-0.84,1.22-1.58,2.5-2.21,3.83c-0.41,0.87-0.78,1.76-1.1,2.67C39.54,40.04,39,43.17,39,46.39c0,7.47,2.91,14.5,8.19,19.78
		s12.31,8.19,19.78,8.19c7.47,0,14.5-2.91,19.78-8.19l-3.02-3.02C79.27,67.64,73.31,70.1,66.98,70.1z"/>
	<path class="st0" d="M87.92,55.05c-4.78,0-8.66-3.89-8.66-8.66c0-4.78,3.89-8.66,8.66-8.66c2.39,0,4.55,0.97,6.12,2.54l3.02-3.02
		c-2.34-2.34-5.57-3.79-9.14-3.79c-7.13,0-12.93,5.8-12.93,12.93c0,7.13,5.8,12.93,12.93,12.93c3.56,0,6.8-1.45,9.14-3.79
		l-3.02-3.02C92.48,54.08,90.31,55.05,87.92,55.05z"/>
	<path class="st0" d="M109.99,37.73c2.39,0,4.55,0.97,6.12,2.54l3.02-3.02c-2.34-2.34-5.57-3.79-9.14-3.79
		c-7.13,0-12.93,5.8-12.93,12.93c0,7.13,5.8,12.93,12.93,12.93c3.56,0,6.8-1.45,9.14-3.79l-3.02-3.02
		c-1.57,1.57-3.73,2.54-6.12,2.54c-4.78,0-8.66-3.89-8.66-8.66C101.33,41.61,105.22,37.73,109.99,37.73z"/>
	<path class="st0" d="M135.52,34.48c0.65,0.42,1.48,0.63,2.49,0.63c0.52,0,0.99-0.04,1.41-0.12c0.42-0.08,0.85-0.21,1.28-0.38v-1.74
		c-0.47,0.16-0.9,0.29-1.3,0.38c-0.4,0.09-0.8,0.13-1.19,0.13c-0.57,0-1.04-0.13-1.4-0.38c-0.36-0.26-0.63-0.63-0.8-1.12
		c-0.17-0.49-0.26-1.08-0.26-1.77c0-0.51,0.05-0.97,0.16-1.39c0.11-0.41,0.26-0.76,0.47-1.05s0.46-0.51,0.77-0.67
		c0.31-0.15,0.66-0.23,1.05-0.23c0.36,0,0.72,0.06,1.09,0.19c0.37,0.13,0.74,0.28,1.1,0.46l0.67-1.69c-0.45-0.21-0.91-0.38-1.4-0.51
		c-0.49-0.12-0.98-0.18-1.46-0.18c-0.74,0-1.4,0.12-1.97,0.37c-0.57,0.25-1.05,0.59-1.44,1.04c-0.39,0.45-0.68,0.98-0.88,1.6
		c-0.2,0.62-0.3,1.29-0.3,2.03c0,1,0.16,1.88,0.47,2.63C134.39,33.48,134.87,34.06,135.52,34.48z"/>
	<path class="st0" d="M147.18,29.39c0.2,0.27,0.29,0.68,0.29,1.21v4.37h2.04v-4.88c0-0.64-0.11-1.17-0.33-1.57
		c-0.22-0.4-0.54-0.7-0.94-0.89c-0.4-0.19-0.87-0.28-1.41-0.28c-0.31,0-0.6,0.04-0.86,0.11c-0.27,0.08-0.51,0.19-0.73,0.35
		c-0.22,0.16-0.41,0.37-0.57,0.63h-0.11c0.01-0.14,0.03-0.37,0.06-0.71c0.02-0.33,0.04-0.69,0.04-1.06v-2.12h-2.04v10.41h2.04v-3.52
		c0-0.53,0.05-0.98,0.15-1.35c0.1-0.37,0.27-0.65,0.5-0.84c0.24-0.19,0.56-0.28,0.97-0.28C146.68,28.98,146.99,29.12,147.18,29.39z"
		/>
	<path class="st0" d="M153.01,34.69c0.58,0.28,1.24,0.41,1.99,0.41c0.58,0,1.06-0.04,1.47-0.13c0.4-0.08,0.79-0.22,1.16-0.4V33
		c-0.42,0.2-0.83,0.34-1.22,0.44c-0.4,0.1-0.83,0.15-1.31,0.15c-0.58,0-1.02-0.16-1.35-0.49c-0.32-0.33-0.5-0.78-0.52-1.35h4.82
		v-0.99c0-0.73-0.14-1.34-0.41-1.85c-0.27-0.5-0.66-0.89-1.16-1.15c-0.5-0.27-1.09-0.4-1.79-0.4c-0.7,0-1.32,0.15-1.85,0.44
		c-0.53,0.29-0.94,0.73-1.24,1.31c-0.3,0.58-0.44,1.31-0.44,2.18c0,0.86,0.16,1.57,0.49,2.14
		C151.98,33.99,152.44,34.41,153.01,34.69z M153.73,29.18c0.26-0.25,0.59-0.38,0.99-0.38c0.32,0,0.59,0.07,0.79,0.21
		c0.21,0.14,0.36,0.33,0.47,0.56c0.1,0.24,0.16,0.51,0.16,0.81h-2.86C153.32,29.84,153.47,29.44,153.73,29.18z"/>
	<path class="st0" d="M161.61,34.15h0.14c0.2,0.25,0.45,0.47,0.77,0.66c0.32,0.2,0.75,0.29,1.3,0.29c0.57,0,1.07-0.15,1.51-0.44
		c0.43-0.29,0.77-0.73,1.01-1.3c0.24-0.58,0.36-1.29,0.36-2.14c0-1.27-0.26-2.23-0.78-2.88c-0.52-0.66-1.2-0.98-2.04-0.98
		c-0.54,0-0.98,0.11-1.32,0.32c-0.34,0.22-0.61,0.48-0.8,0.79h-0.08c0.02-0.15,0.04-0.37,0.06-0.64c0.02-0.28,0.02-0.56,0.02-0.84
		v-2.42h-2.04v10.41h1.56L161.61,34.15z M161.75,30.98c0.01-0.45,0.06-0.82,0.16-1.12c0.1-0.29,0.25-0.52,0.46-0.66
		c0.21-0.15,0.49-0.22,0.85-0.22c0.43,0,0.77,0.19,1.02,0.56c0.25,0.37,0.37,0.92,0.37,1.65c0,0.73-0.12,1.29-0.37,1.68
		c-0.25,0.39-0.58,0.58-1,0.58c-0.57,0-0.96-0.19-1.17-0.58c-0.21-0.39-0.32-0.94-0.32-1.67V30.98z"/>
	<rect x="168.38" y="24.56" class="st0" width="2.04" height="10.41"/>
	<path class="st0" d="M172.8,26.34c0.22,0.14,0.48,0.22,0.79,0.22c0.3,0,0.56-0.07,0.78-0.22c0.22-0.14,0.33-0.41,0.33-0.79
		c0-0.38-0.11-0.65-0.33-0.79c-0.22-0.14-0.48-0.21-0.78-0.21c-0.31,0-0.57,0.07-0.79,0.21c-0.22,0.14-0.32,0.4-0.32,0.79
		C172.48,25.93,172.59,26.2,172.8,26.34z"/>
	<rect x="172.57" y="27.49" class="st0" width="2.04" height="7.48"/>
	<path class="st0" d="M139.1,49.44h-0.04l-2.71-7.81h-2.25v9.78h1.46v-5.37c0-0.33-0.01-0.68-0.02-1.04
		c-0.01-0.36-0.03-0.7-0.05-1.02c-0.02-0.32-0.03-0.57-0.05-0.75h0.06l2.82,8.17h1.42l2.92-8.16h0.05
		c-0.01,0.19-0.02,0.44-0.04,0.75c-0.02,0.31-0.03,0.64-0.04,0.99c-0.01,0.35-0.02,0.67-0.02,0.97v5.45h1.53v-9.78h-2.25
		L139.1,49.44z"/>
	<path class="st0" d="M149.41,51.41c0.29-0.09,0.55-0.22,0.77-0.39c0.22-0.17,0.44-0.39,0.65-0.66h0.05l0.3,1.05h1.12v-4.98
		c0-0.88-0.24-1.53-0.72-1.94c-0.48-0.41-1.19-0.62-2.12-0.62c-0.5,0-0.98,0.06-1.44,0.18c-0.46,0.12-0.87,0.28-1.23,0.47l0.51,1.11
		c0.33-0.16,0.67-0.29,1.02-0.39c0.35-0.11,0.71-0.16,1.08-0.16c0.43,0,0.77,0.11,1.01,0.33c0.24,0.22,0.36,0.58,0.36,1.1v0.39
		l-1.28,0.05c-1.15,0.04-2.01,0.25-2.58,0.64c-0.57,0.38-0.85,0.96-0.85,1.72c0,0.51,0.1,0.94,0.3,1.27
		c0.2,0.33,0.47,0.58,0.82,0.75c0.35,0.16,0.74,0.24,1.18,0.24C148.77,51.54,149.12,51.5,149.41,51.41z M147.66,49.3
		c0-0.42,0.16-0.75,0.47-0.99c0.32-0.24,0.87-0.37,1.65-0.4l0.96-0.03v0.64c0,0.6-0.18,1.06-0.54,1.37
		c-0.36,0.31-0.81,0.47-1.35,0.47c-0.36,0-0.64-0.08-0.86-0.25C147.77,49.93,147.66,49.66,147.66,49.3z"/>
	<path class="st0" d="M158.68,51.43c0.32-0.08,0.62-0.2,0.9-0.36V49.7c-0.29,0.16-0.59,0.28-0.91,0.38
		c-0.32,0.1-0.68,0.15-1.09,0.15c-0.41,0-0.76-0.09-1.04-0.28c-0.28-0.19-0.49-0.47-0.64-0.84c-0.14-0.37-0.21-0.83-0.21-1.37
		c0-0.56,0.07-1.03,0.21-1.41c0.14-0.38,0.35-0.66,0.64-0.86s0.65-0.29,1.08-0.29c0.26,0,0.54,0.04,0.82,0.11
		c0.29,0.08,0.56,0.17,0.84,0.28l0.47-1.26c-0.25-0.12-0.55-0.23-0.91-0.32c-0.36-0.09-0.76-0.13-1.2-0.13
		c-0.7,0-1.31,0.14-1.85,0.41c-0.54,0.27-0.96,0.69-1.26,1.26c-0.3,0.57-0.45,1.31-0.45,2.21c0,0.87,0.14,1.58,0.41,2.14
		c0.28,0.56,0.67,0.98,1.18,1.25c0.51,0.27,1.12,0.41,1.82,0.41C157.96,51.54,158.36,51.51,158.68,51.43z"/>
	<path class="st0" d="M165.9,45.58c0.24,0.29,0.35,0.72,0.35,1.29v4.54h1.57v-4.83c0-0.63-0.11-1.15-0.32-1.55
		c-0.21-0.4-0.52-0.69-0.91-0.88c-0.4-0.19-0.88-0.28-1.45-0.28c-0.32,0-0.62,0.04-0.91,0.13c-0.28,0.08-0.54,0.21-0.77,0.38
		c-0.23,0.17-0.42,0.38-0.58,0.64h-0.09c0.02-0.14,0.03-0.34,0.05-0.6c0.02-0.26,0.02-0.52,0.02-0.8V41h-1.57v10.41h1.57v-3.68
		c0-0.55,0.06-1.02,0.18-1.41c0.12-0.39,0.32-0.68,0.6-0.88c0.28-0.2,0.66-0.3,1.13-0.3C165.29,45.15,165.66,45.29,165.9,45.58z"/>
	<rect x="170.02" y="44" class="st0" width="1.57" height="7.41"/>
	<path class="st0" d="M171.44,41.36c-0.18-0.13-0.38-0.19-0.63-0.19c-0.25,0-0.46,0.06-0.63,0.19c-0.17,0.13-0.26,0.35-0.26,0.67
		c0,0.31,0.09,0.53,0.26,0.67c0.17,0.13,0.38,0.2,0.63,0.2c0.24,0,0.45-0.07,0.63-0.2c0.18-0.13,0.26-0.35,0.26-0.67
		C171.7,41.71,171.61,41.49,171.44,41.36z"/>
	<path class="st0" d="M180.35,51.41v-4.83c0-0.95-0.23-1.64-0.7-2.07c-0.47-0.43-1.12-0.65-1.95-0.65c-0.32,0-0.63,0.04-0.93,0.13
		c-0.3,0.08-0.56,0.21-0.8,0.38c-0.24,0.17-0.44,0.38-0.6,0.64h-0.09l-0.22-1h-1.22v7.41h1.57v-3.68c0-0.84,0.14-1.48,0.42-1.92
		c0.28-0.44,0.78-0.66,1.5-0.66c0.49,0,0.86,0.14,1.1,0.43c0.24,0.29,0.35,0.72,0.35,1.29v4.54H180.35z"/>
	<path class="st0" d="M183.86,51.12c0.55,0.28,1.19,0.42,1.92,0.42c0.54,0,0.99-0.04,1.38-0.12c0.38-0.08,0.76-0.21,1.13-0.38v-1.28
		c-0.4,0.18-0.79,0.31-1.17,0.4c-0.38,0.09-0.8,0.14-1.27,0.14c-0.66,0-1.18-0.19-1.55-0.58c-0.37-0.39-0.56-0.94-0.58-1.66h4.94
		v-0.84c0-0.7-0.13-1.29-0.38-1.79c-0.25-0.5-0.62-0.89-1.09-1.16c-0.47-0.27-1.04-0.41-1.7-0.41c-0.68,0-1.27,0.15-1.78,0.46
		c-0.51,0.3-0.9,0.74-1.18,1.32c-0.28,0.58-0.42,1.28-0.42,2.11c0,0.83,0.15,1.53,0.46,2.09C182.88,50.41,183.31,50.84,183.86,51.12
		z M184.29,45.53c0.31-0.32,0.71-0.48,1.2-0.48c0.37,0,0.67,0.08,0.91,0.24c0.24,0.16,0.42,0.38,0.54,0.67
		c0.12,0.29,0.18,0.61,0.18,0.98h-3.37C183.8,46.32,183.98,45.85,184.29,45.53z"/>
	<path class="st0" d="M192.01,47.54c0-0.37,0.06-0.69,0.17-0.96c0.11-0.28,0.27-0.51,0.46-0.69c0.2-0.19,0.42-0.32,0.68-0.41
		c0.25-0.09,0.52-0.14,0.8-0.14c0.11,0,0.23,0.01,0.36,0.02c0.14,0.01,0.25,0.03,0.34,0.06l0.15-1.47
		c-0.11-0.02-0.23-0.04-0.38-0.05c-0.15-0.01-0.28-0.02-0.41-0.02c-0.34,0-0.65,0.07-0.93,0.2c-0.28,0.13-0.53,0.31-0.75,0.53
		c-0.22,0.22-0.4,0.46-0.55,0.72h-0.07l-0.21-1.3h-1.23v7.41h1.58V47.54z"/>
	<path class="st0" d="M200.87,44l-1.46,4.23c-0.1,0.29-0.2,0.58-0.28,0.87c-0.08,0.29-0.15,0.55-0.19,0.78h-0.04
		c-0.03-0.18-0.06-0.36-0.1-0.54c-0.04-0.18-0.09-0.36-0.15-0.55c-0.06-0.19-0.12-0.37-0.18-0.57L196.94,44h-1.71l2.96,7.39
		l-0.26,0.7c-0.09,0.26-0.21,0.49-0.35,0.69c-0.14,0.2-0.32,0.36-0.52,0.47c-0.21,0.11-0.45,0.17-0.73,0.17
		c-0.15,0-0.3-0.01-0.44-0.03c-0.14-0.02-0.26-0.04-0.35-0.06v1.26c0.12,0.03,0.26,0.05,0.42,0.08c0.16,0.02,0.36,0.04,0.58,0.04
		c0.46,0,0.88-0.09,1.24-0.26c0.36-0.18,0.67-0.43,0.94-0.78c0.27-0.34,0.49-0.75,0.67-1.23l3.18-8.42H200.87z"/>
	<path class="st0" d="M141.85,64.44c0.25-0.54,0.44-1.08,0.58-1.64h-1.63c-0.1,0.4-0.23,0.78-0.37,1.13
		c-0.14,0.36-0.32,0.69-0.54,0.99l-2.31-2.25c0.57-0.33,1.04-0.7,1.42-1.11c0.37-0.41,0.56-0.92,0.56-1.53
		c0-0.45-0.11-0.83-0.32-1.15c-0.21-0.31-0.51-0.55-0.89-0.72c-0.38-0.16-0.82-0.25-1.33-0.25c-0.54,0-1,0.09-1.4,0.26
		c-0.4,0.18-0.71,0.43-0.94,0.76c-0.22,0.33-0.33,0.72-0.33,1.17c0,0.29,0.04,0.57,0.13,0.83c0.09,0.26,0.21,0.51,0.38,0.75
		c0.16,0.24,0.36,0.49,0.58,0.74c-0.41,0.23-0.76,0.48-1.06,0.73c-0.29,0.26-0.52,0.55-0.68,0.89c-0.16,0.34-0.24,0.74-0.24,1.21
		c0,0.56,0.13,1.05,0.4,1.46c0.27,0.41,0.65,0.72,1.14,0.94c0.5,0.22,1.08,0.33,1.77,0.33c0.45,0,0.85-0.05,1.22-0.14
		c0.37-0.09,0.71-0.22,1.03-0.38c0.31-0.16,0.61-0.36,0.89-0.58l0.99,0.97h2.01l-1.99-1.94C141.3,65.47,141.61,64.97,141.85,64.44z
		 M136.17,59.42c0.23-0.17,0.5-0.25,0.82-0.25c0.3,0,0.55,0.08,0.76,0.25c0.21,0.17,0.31,0.41,0.31,0.72c0,0.33-0.12,0.62-0.34,0.87
		c-0.23,0.25-0.58,0.5-1.05,0.76c-0.27-0.29-0.48-0.55-0.63-0.8c-0.15-0.25-0.22-0.51-0.22-0.79
		C135.83,59.84,135.94,59.58,136.17,59.42z M138.04,66.43c-0.34,0.14-0.74,0.2-1.19,0.2c-0.51,0-0.93-0.13-1.25-0.4
		c-0.32-0.27-0.49-0.63-0.49-1.09c0-0.27,0.05-0.5,0.15-0.7c0.1-0.2,0.24-0.38,0.43-0.55c0.19-0.17,0.41-0.33,0.67-0.5l2.57,2.53
		C138.68,66.12,138.38,66.3,138.04,66.43z"/>
	<path class="st0" d="M149.77,60.28c0.25-0.32,0.57-0.56,0.93-0.73c0.37-0.17,0.79-0.25,1.25-0.25c0.4,0,0.78,0.06,1.15,0.17
		c0.37,0.12,0.72,0.25,1.06,0.41l0.56-1.32c-0.41-0.2-0.85-0.36-1.32-0.46c-0.48-0.11-0.96-0.16-1.45-0.16
		c-0.74,0-1.41,0.12-1.98,0.36s-1.06,0.59-1.46,1.04c-0.39,0.45-0.69,0.98-0.9,1.6c-0.21,0.62-0.31,1.29-0.31,2.03
		c0,1.01,0.16,1.9,0.49,2.65c0.32,0.75,0.81,1.34,1.47,1.75c0.66,0.41,1.49,0.62,2.49,0.62c0.53,0,1-0.04,1.4-0.11
		c0.41-0.07,0.81-0.19,1.2-0.34v-1.36c-0.42,0.14-0.83,0.25-1.22,0.33c-0.39,0.08-0.8,0.12-1.21,0.12c-0.67,0-1.22-0.15-1.66-0.44
		c-0.44-0.29-0.76-0.71-0.98-1.26c-0.21-0.55-0.32-1.2-0.32-1.96c0-0.57,0.07-1.08,0.2-1.53C149.32,60.99,149.51,60.6,149.77,60.28z
		"/>
	<path class="st0" d="M161.2,60.75c-0.52-0.3-1.12-0.45-1.81-0.45c-0.73,0-1.35,0.15-1.88,0.45c-0.53,0.3-0.93,0.73-1.21,1.3
		c-0.28,0.57-0.42,1.26-0.42,2.08c0,0.62,0.08,1.16,0.25,1.64c0.17,0.48,0.41,0.88,0.72,1.21c0.31,0.33,0.68,0.58,1.1,0.75
		c0.42,0.17,0.89,0.26,1.4,0.26c0.54,0,1.03-0.09,1.47-0.26c0.43-0.17,0.8-0.42,1.11-0.75c0.31-0.33,0.54-0.73,0.7-1.21
		c0.16-0.48,0.24-1.02,0.24-1.64c0-0.81-0.15-1.5-0.44-2.07C162.13,61.49,161.72,61.05,161.2,60.75z M161.05,65.52
		c-0.13,0.38-0.33,0.68-0.61,0.88c-0.28,0.2-0.63,0.3-1.07,0.3c-0.44,0-0.79-0.1-1.07-0.3c-0.28-0.2-0.48-0.5-0.61-0.88
		c-0.13-0.38-0.2-0.85-0.2-1.38c0-0.82,0.15-1.44,0.45-1.88c0.3-0.44,0.77-0.66,1.42-0.66c0.44,0,0.8,0.1,1.08,0.3
		c0.28,0.2,0.48,0.49,0.61,0.86c0.13,0.38,0.19,0.84,0.19,1.37C161.25,64.67,161.18,65.13,161.05,65.52z"/>
	<path class="st0" d="M168.53,60.31c-0.32,0-0.63,0.04-0.93,0.13c-0.3,0.08-0.56,0.21-0.8,0.38c-0.24,0.17-0.44,0.38-0.6,0.64h-0.09
		l-0.22-1h-1.22v7.41h1.57v-3.68c0-0.84,0.14-1.48,0.42-1.92c0.28-0.44,0.78-0.66,1.5-0.66c0.5,0,0.86,0.14,1.1,0.43
		c0.24,0.29,0.35,0.72,0.35,1.29v4.54h1.57v-4.83c0-0.95-0.23-1.64-0.7-2.07C170.02,60.52,169.37,60.31,168.53,60.31z"/>
	<path class="st0" d="M177.35,64.02c-0.32-0.19-0.71-0.36-1.15-0.53c-0.45-0.18-0.8-0.33-1.05-0.45c-0.25-0.12-0.43-0.24-0.53-0.36
		c-0.1-0.12-0.15-0.27-0.15-0.44c0-0.23,0.11-0.41,0.32-0.54c0.21-0.12,0.52-0.19,0.93-0.19c0.35,0,0.69,0.05,1.03,0.14
		c0.34,0.1,0.67,0.22,1.01,0.36l0.5-1.18c-0.39-0.17-0.78-0.31-1.19-0.4c-0.4-0.09-0.83-0.14-1.29-0.14c-0.86,0-1.54,0.17-2.06,0.51
		c-0.52,0.34-0.78,0.84-0.78,1.5c0,0.41,0.08,0.75,0.25,1.02c0.16,0.27,0.41,0.49,0.73,0.68c0.32,0.19,0.72,0.37,1.18,0.56
		c0.48,0.19,0.84,0.36,1.09,0.49c0.25,0.14,0.42,0.27,0.51,0.39c0.09,0.13,0.14,0.27,0.14,0.43c0,0.27-0.11,0.49-0.34,0.65
		c-0.23,0.16-0.6,0.24-1.12,0.24c-0.39,0-0.81-0.06-1.25-0.18c-0.44-0.12-0.84-0.26-1.19-0.43v1.36c0.33,0.15,0.68,0.26,1.05,0.34
		c0.37,0.07,0.82,0.11,1.33,0.11c0.66,0,1.21-0.09,1.66-0.26c0.45-0.17,0.8-0.42,1.03-0.76c0.24-0.33,0.35-0.74,0.35-1.23
		c0-0.42-0.09-0.77-0.26-1.04C177.92,64.43,177.67,64.21,177.35,64.02z"/>
	<path class="st0" d="M182.8,66.72c-0.31,0-0.56-0.09-0.74-0.27c-0.19-0.18-0.28-0.46-0.28-0.84v-3.96h2.12v-1.2h-2.12V58.8h-0.99
		l-0.52,1.59l-1.08,0.56v0.7h1.01v3.98c0,0.61,0.1,1.08,0.29,1.42c0.2,0.34,0.46,0.59,0.8,0.73c0.33,0.14,0.71,0.21,1.13,0.21
		c0.3,0,0.59-0.03,0.86-0.08c0.28-0.05,0.5-0.12,0.68-0.19v-1.19c-0.16,0.05-0.35,0.1-0.55,0.14
		C183.21,66.7,183.01,66.72,182.8,66.72z"/>
	<path class="st0" d="M189.22,60.31c-0.34,0-0.65,0.07-0.93,0.2c-0.28,0.13-0.53,0.31-0.75,0.53c-0.22,0.22-0.4,0.46-0.55,0.72
		h-0.07l-0.21-1.3h-1.23v7.41h1.58v-3.87c0-0.37,0.06-0.69,0.17-0.96c0.11-0.28,0.27-0.51,0.46-0.69c0.2-0.19,0.42-0.32,0.68-0.41
		c0.25-0.09,0.52-0.14,0.8-0.14c0.11,0,0.23,0.01,0.36,0.02c0.14,0.01,0.25,0.03,0.34,0.06l0.15-1.47
		c-0.11-0.02-0.23-0.04-0.38-0.05C189.48,60.31,189.34,60.31,189.22,60.31z"/>
	<path class="st0" d="M196.26,64.13c0,0.56-0.06,1.03-0.18,1.41c-0.12,0.38-0.32,0.67-0.6,0.87c-0.28,0.2-0.66,0.29-1.14,0.29
		c-0.5,0-0.86-0.14-1.09-0.43c-0.23-0.29-0.35-0.72-0.35-1.29v-4.54h-1.58v4.84c0,0.63,0.1,1.14,0.31,1.54
		c0.21,0.4,0.51,0.69,0.91,0.88c0.39,0.19,0.87,0.28,1.43,0.28c0.33,0,0.64-0.04,0.93-0.12c0.29-0.08,0.56-0.21,0.8-0.37
		c0.24-0.17,0.44-0.38,0.6-0.63h0.09l0.21,1h1.24v-7.41h-1.58V64.13z"/>
	<path class="st0" d="M202.12,61.9c0.29-0.19,0.65-0.29,1.08-0.29c0.26,0,0.54,0.04,0.82,0.11c0.29,0.08,0.56,0.17,0.84,0.28
		l0.47-1.26c-0.25-0.12-0.55-0.23-0.91-0.32c-0.36-0.09-0.76-0.13-1.2-0.13c-0.7,0-1.31,0.14-1.85,0.41
		c-0.54,0.27-0.96,0.69-1.26,1.26c-0.3,0.57-0.45,1.31-0.45,2.21c0,0.87,0.14,1.58,0.41,2.14c0.28,0.56,0.67,0.98,1.18,1.25
		s1.12,0.41,1.82,0.41c0.47,0,0.86-0.04,1.18-0.12c0.32-0.08,0.62-0.2,0.9-0.36v-1.36c-0.29,0.16-0.59,0.28-0.91,0.38
		c-0.32,0.1-0.68,0.15-1.09,0.15c-0.41,0-0.76-0.09-1.04-0.28c-0.28-0.19-0.49-0.47-0.64-0.84c-0.14-0.37-0.21-0.83-0.21-1.37
		c0-0.56,0.07-1.03,0.21-1.41C201.62,62.38,201.83,62.1,202.12,61.9z"/>
	<path class="st0" d="M209.64,66.72c-0.31,0-0.56-0.09-0.74-0.27c-0.19-0.18-0.28-0.46-0.28-0.84v-3.96h2.12v-1.2h-2.12V58.8h-0.99
		l-0.52,1.59l-1.08,0.56v0.7h1.01v3.98c0,0.61,0.1,1.08,0.29,1.42c0.2,0.34,0.46,0.59,0.8,0.73c0.33,0.14,0.71,0.21,1.13,0.21
		c0.3,0,0.59-0.03,0.86-0.08c0.28-0.05,0.5-0.12,0.68-0.19v-1.19c-0.16,0.05-0.35,0.1-0.55,0.14
		C210.05,66.7,209.85,66.72,209.64,66.72z"/>
	<path class="st0" d="M213.73,57.8c-0.18-0.13-0.38-0.19-0.63-0.19c-0.25,0-0.46,0.06-0.63,0.19c-0.17,0.13-0.26,0.35-0.26,0.67
		c0,0.31,0.09,0.53,0.26,0.67c0.17,0.13,0.38,0.2,0.63,0.2c0.24,0,0.45-0.07,0.63-0.2c0.18-0.13,0.26-0.35,0.26-0.67
		C213.99,58.16,213.9,57.93,213.73,57.8z"/>
	<rect x="212.31" y="60.45" class="st0" width="1.57" height="7.41"/>
	<path class="st0" d="M221.02,60.75c-0.52-0.3-1.12-0.45-1.81-0.45c-0.73,0-1.35,0.15-1.88,0.45c-0.53,0.3-0.93,0.73-1.21,1.3
		c-0.28,0.57-0.42,1.26-0.42,2.08c0,0.62,0.08,1.16,0.25,1.64c0.17,0.48,0.41,0.88,0.72,1.21c0.31,0.33,0.68,0.58,1.1,0.75
		c0.42,0.17,0.89,0.26,1.4,0.26c0.54,0,1.03-0.09,1.47-0.26c0.43-0.17,0.8-0.42,1.11-0.75c0.31-0.33,0.54-0.73,0.7-1.21
		c0.16-0.48,0.24-1.02,0.24-1.64c0-0.81-0.15-1.5-0.44-2.07C221.95,61.49,221.54,61.05,221.02,60.75z M220.87,65.52
		c-0.13,0.38-0.33,0.68-0.61,0.88c-0.28,0.2-0.63,0.3-1.07,0.3c-0.44,0-0.79-0.1-1.07-0.3c-0.28-0.2-0.48-0.5-0.61-0.88
		c-0.13-0.38-0.2-0.85-0.2-1.38c0-0.82,0.15-1.44,0.45-1.88c0.3-0.44,0.77-0.66,1.42-0.66c0.44,0,0.8,0.1,1.08,0.3
		c0.28,0.2,0.48,0.49,0.61,0.86c0.13,0.38,0.19,0.84,0.19,1.37C221.06,64.67,221,65.13,220.87,65.52z"/>
	<path class="st0" d="M230.3,60.95c-0.47-0.43-1.12-0.65-1.95-0.65c-0.32,0-0.63,0.04-0.93,0.13c-0.3,0.08-0.56,0.21-0.8,0.38
		c-0.24,0.17-0.44,0.38-0.6,0.64h-0.09l-0.22-1h-1.22v7.41h1.57v-3.68c0-0.84,0.14-1.48,0.42-1.92c0.28-0.44,0.78-0.66,1.5-0.66
		c0.49,0,0.86,0.14,1.1,0.43c0.24,0.29,0.35,0.72,0.35,1.29v4.54H231v-4.83C231,62.07,230.76,61.38,230.3,60.95z"/>
</g>
</svg>
