<?xml version="1.0" encoding="utf-8"?>
<!-- Generator: Adobe Illustrator 26.4.1, SVG Export Plug-In . SVG Version: 6.00 Build 0)  -->
<svg version="1.1" xmlns="http://www.w3.org/2000/svg" xmlns:xlink="http://www.w3.org/1999/xlink" x="0px" y="0px"
	 viewBox="0 0 1493 368" style="enable-background:new 0 0 1493 368;" xml:space="preserve">
<style type="text/css">
	.st0{fill:url(#SVGID_1_);}
	.st1{fill:#3C4451;}
</style>
<g id="Layer_1">
</g>
<g id="Layer_2">
</g>
<g id="Layer_3">
	<linearGradient id="SVGID_1_" gradientUnits="userSpaceOnUse" x1="208.2491" y1="87.0771" x2="304.8657" y2="206.3886">
		<stop  offset="0" style="stop-color:#DCEFE4"/>
		<stop  offset="0.0889" style="stop-color:#C8EBE2"/>
		<stop  offset="0.2703" style="stop-color:#96E0DD"/>
		<stop  offset="0.4951" style="stop-color:#4FD1D6"/>
		<stop  offset="0.6514" style="stop-color:#86ABE1"/>
		<stop  offset="0.8106" style="stop-color:#B788EB"/>
		<stop  offset="0.932" style="stop-color:#D673F1"/>
		<stop  offset="1" style="stop-color:#E16BF3"/>
	</linearGradient>
	<path class="st0" d="M343.29,141.12c0,0-11.17,142.98-227.87,55.85c0,0,100.53-151.91,173.14-150.8
		c42.97,0.66,53.62,24.15,53.62,24.15s15.1-6.12,33.77-0.69C375.94,69.64,346.6,88.21,343.29,141.12z"/>
	<g>
		<path class="st1" d="M387.72,68.61c-13.43-15.33-32.39-14.12-44.95-9.96c-25.56-27.34-59.34-31.14-95.88-10.5
			c-8.29,4.67-15.75,10.03-22,15.1V90.3c6.14-6.12,17.74-16.69,31.88-24.66c30.7-17.31,55.34-13.6,75.33,11.39l5.25,6.48l7.35-3.91
			c0.42-0.2,6.05-3.15,12.71-3.57c-11.24,8.29-23.05,22.16-23.05,43.88v2.57c0.07,16.4,0.13,43.83-16.49,68.7
			c-20.55,30.74-61.43,49.53-121.48,55.87c-6.3,0.67-11.46,5.25-12.82,11.44c-1.39,6.19,1.34,12.58,6.79,15.86
			c8.16,4.94,20.91,14.2,26.98,26.6c-29.33,0.42-58.13,4.28-84.03,11.26v20.83c27.05-7.89,57.93-12.07,89.36-12.07
			c30.57,0,60.61,3.98,87.13,11.46v-20.85c-6.44-1.66-13.05-3.14-19.79-4.43l19.79-12.74v-23.91l-50.04,32.22
			c-6.87-0.69-13.82-1.17-20.81-1.48c-4.3-15.27-15.07-27.21-26.31-35.97c142.22-20.46,141.95-108.91,141.84-142.84v-2.52
			C354.46,94.34,387.72,68.61,387.72,68.61z"/>
		<circle class="st1" cx="297.49" cy="81.92" r="12.29"/>
		<path class="st1" d="M168.9,225.77c3.66,0.38,7.39,0.6,11.19,0.6c8.31,0,16.89-0.94,25.67-2.81
			c35.19-7.53,59.74-22.59,72.98-44.75c16.58-27.75,8.65-56.05,8.29-57.24l-3.57-12.33l-58.58,33.8v23.23l44.21-25.53
			c-0.11,7.84-1.76,18.05-7.77,27.99c-10.3,17.05-30.4,28.86-59.76,35.16c-29.94,6.41-55.74-0.04-76.72-19.15
			c-29.38-26.79-45.26-76.36-41.8-128.52H62.95c-2.64,44.01,7.39,86.59,27.23,117.87c-18.16-14.45-32.1-33.49-41.69-57.03
			C38.95,93.67,36,70.86,35.15,56.23H14.98c0.8,16.06,3.98,41.31,14.61,67.71c16.29,40.46,53.66,90.99,139.29,101.98L168.9,225.77z"
			/>
	</g>
	<g>
		<path class="st1" d="M475.62,285.82h-26.47V147.67h-47v-22.4h120.36v22.4h-46.89V285.82z"/>
		<path class="st1" d="M547,285.82V125.26h26.36v160.56H547z"/>
		<path class="st1" d="M662.32,125.26c20.72,0,35.84,4.25,45.36,12.74c9.52,8.49,14.28,20.39,14.28,35.69
			c0,6.96-1.08,13.56-3.24,19.82c-2.16,6.26-5.69,11.79-10.6,16.58c-4.91,4.8-11.37,8.58-19.38,11.37
			c-8.02,2.78-17.88,4.17-29.6,4.17H642v60.18h-26.36V125.26H662.32z M660.56,147.12H642v56.56h14.39c8.27,0,15.3-0.97,21.09-2.91
			c5.78-1.94,10.17-5.03,13.18-9.28c3-4.25,4.5-9.85,4.5-16.8c0-9.3-2.8-16.22-8.4-20.76C681.15,149.39,672.42,147.12,660.56,147.12
			z"/>
		<path class="st1" d="M853.41,285.82l-15.71-44.59h-61.39l-15.7,44.59h-27.79l59.74-161.22h29.21l59.63,161.22H853.41z
			 M830.89,218.61l-15.27-43.93c-0.59-1.9-1.43-4.59-2.53-8.07c-1.1-3.48-2.2-7.03-3.29-10.65c-1.1-3.62-2.01-6.68-2.75-9.17
			c-0.73,3-1.63,6.35-2.69,10.05c-1.06,3.7-2.09,7.16-3.08,10.38c-0.99,3.22-1.74,5.71-2.25,7.47l-15.38,43.93H830.89z"/>
		<path class="st1" d="M958.29,285.82h-26.47V147.67h-47v-22.4h120.36v22.4h-46.89V285.82z"/>
		<path class="st1" d="M1129.17,285.82l-15.71-44.59h-61.39l-15.7,44.59h-27.79l59.74-161.22h29.21l59.63,161.22H1129.17z
			 M1106.66,218.61l-15.27-43.93c-0.59-1.9-1.43-4.59-2.53-8.07c-1.1-3.48-2.2-7.03-3.29-10.65c-1.1-3.62-2.01-6.68-2.75-9.17
			c-0.73,3-1.63,6.35-2.69,10.05c-1.06,3.7-2.09,7.16-3.08,10.38c-0.99,3.22-1.74,5.71-2.25,7.47l-15.38,43.93H1106.66z"/>
		<path class="st1" d="M1305,285.82h-26.25v-72.48h-74.02v72.48h-26.36V125.26h26.36v65.67h74.02v-65.67H1305V285.82z"/>
		<path class="st1" d="M1446.89,285.82l-15.71-44.59h-61.39l-15.7,44.59h-27.79l59.74-161.22h29.21l59.63,161.22H1446.89z
			 M1424.37,218.61l-15.27-43.93c-0.59-1.9-1.43-4.59-2.53-8.07c-1.1-3.48-2.2-7.03-3.29-10.65c-1.1-3.62-2.01-6.68-2.75-9.17
			c-0.73,3-1.63,6.35-2.69,10.05c-1.06,3.7-2.09,7.16-3.08,10.38c-0.99,3.22-1.74,5.71-2.25,7.47l-15.38,43.93H1424.37z"/>
	</g>
</g>
</svg>
