<?xml version="1.0" encoding="utf-8"?>
<!-- Generator: Adobe Illustrator 26.4.1, SVG Export Plug-In . SVG Version: 6.00 Build 0)  -->
<svg version="1.1" id="Layer_1" xmlns="http://www.w3.org/2000/svg" xmlns:xlink="http://www.w3.org/1999/xlink" x="0px" y="0px"
	 viewBox="0 0 600 500" style="enable-background:new 0 0 600 500;" xml:space="preserve">
<style type="text/css">
	.st0{fill:#F5F5FF;}
	.st1{fill:url(#SVGID_1_);}
	.st2{fill:url(#SVGID_00000090995552067609701290000010150154728392928687_);}
	.st3{fill:url(#SVGID_00000044163129282011470100000011711397693960441003_);}
	.st4{enable-background:new    ;}
	.st5{fill:url(#SVGID_00000092421792315062379370000001027369923917760918_);}
	.st6{fill:#EFEFF4;}
	.st7{fill:#9EA6B0;}
	.st8{fill:#4E4960;}
	.st9{fill:#A0B0D5;}
	.st10{fill:#FFFFFF;}
	.st11{fill:url(#SVGID_00000164493211751414820240000018410952147363233170_);}
	.st12{fill:#DFE2ED;}
	.st13{fill:#3C4451;}
	.st14{fill:url(#SVGID_00000026146249908286596100000005569337684793495179_);}
	.st15{fill:#202833;}
	.st16{opacity:0.3;fill:#474452;}
	.st17{fill:url(#SVGID_00000146484735943578061350000003308877239173306033_);}
	.st18{fill:url(#SVGID_00000109015592561657139080000005833048826751275689_);}
	.st19{fill:url(#SVGID_00000155130039938584459090000013411021961595784374_);}
	.st20{fill:#4FD1D6;}
	.st21{fill:url(#SVGID_00000154415774488144735580000011468940714402066590_);}
	.st22{opacity:0.5;fill:#5792CD;}
	.st23{fill:none;stroke:#E9E9EE;stroke-width:1.5;stroke-linecap:round;stroke-linejoin:round;stroke-miterlimit:10;}
	.st24{fill:url(#SVGID_00000090271313757552544850000006196019695936660362_);}
	.st25{fill:url(#SVGID_00000121251698025914449010000010570409047504515735_);}
	.st26{opacity:0.3;fill:url(#SVGID_00000112628713912310108920000004847094331512592260_);}
	.st27{fill:url(#SVGID_00000042714781912510015360000002087657529195077551_);}
	.st28{fill:url(#SVGID_00000010308477797100926550000003017648143073298828_);}
	.st29{fill:url(#SVGID_00000015317867685829615140000001696760389599825063_);}
	.st30{fill:url(#SVGID_00000111878535353909643620000001505915119264113049_);}
	.st31{fill:#C8EBE2;}
	.st32{fill:#96E0DD;}
	.st33{fill:#70569B;}
	.st34{fill:url(#SVGID_00000134945075470867176920000001077698229466115253_);}
	.st35{fill:url(#SVGID_00000129923525345721643330000001677384928951530391_);}
	.st36{fill:url(#SVGID_00000176730443463077919600000000348104151438359210_);}
	.st37{fill:url(#SVGID_00000009550857216753686510000002349046240788180631_);}
</style>
<g>
	<path class="st0" d="M154.59,12.69c3.17-1.83,5.74-0.36,5.75,3.27l0.17,60.2c0.01,3.64-2.54,8.06-5.71,9.89L102.4,116.3
		c-3.16,1.82-5.74,0.36-5.75-3.27l-0.17-60.2c-0.01-3.63,2.55-8.06,5.71-9.89L154.59,12.69z"/>
</g>
<linearGradient id="SVGID_1_" gradientUnits="userSpaceOnUse" x1="160.5973" y1="377.9271" x2="276.7091" y2="377.9271">
	<stop  offset="0.0113" style="stop-color:#E5E9EF"/>
	<stop  offset="1" style="stop-color:#D5D7E0"/>
</linearGradient>
<path class="st1" d="M233.6,317.83L233.6,317.83l-8.91-5.14l-3.59,2.61l5.05,6.67l0.97-0.39l16.81,61.48l-70.71-40.82l-1.81-1.04
	v-59.28l-7.23-4.18l-3.59,2.61l2.63,5.35l0.96-1.18v125.98l1.25,0.72v0c0.31,0.18,2.4,6.07,2.4,6.07l3.59-2.61v-65.12L246.65,393
	l21.15,77.34l2.4,1.39c0.46,2.2,1.34,5.06,2.91,6.37l3.59-2.61L233.6,317.83z"/>
<linearGradient id="SVGID_00000059287425265544872120000016941567809671804563_" gradientUnits="userSpaceOnUse" x1="131.4125" y1="322.0504" x2="299.8162" y2="439.9679">
	<stop  offset="0" style="stop-color:#DCEFE4"/>
	<stop  offset="0.0889" style="stop-color:#C8EBE2"/>
	<stop  offset="0.2703" style="stop-color:#96E0DD"/>
	<stop  offset="0.4951" style="stop-color:#4FD1D6"/>
	<stop  offset="0.6514" style="stop-color:#86ABE1"/>
	<stop  offset="0.8106" style="stop-color:#B788EB"/>
	<stop  offset="0.932" style="stop-color:#D673F1"/>
	<stop  offset="1" style="stop-color:#E16BF3"/>
</linearGradient>
<polygon style="fill:url(#SVGID_00000059287425265544872120000016941567809671804563_);" points="264.21,472.95 273.12,478.1 
	230.01,320.45 230,320.45 221.1,315.31 240.35,385.7 169.64,344.87 167.83,343.83 167.83,284.55 160.6,280.37 160.6,413.13 
	167.83,417.3 167.83,352.18 243.06,395.62 "/>
<g>
	<g>
		<path class="st0" d="M534.62,200.22c7.63,4.4,7.67,11.54,0.09,15.94L311.27,346.02c-7.57,4.4-19.9,4.4-27.52,0L150.3,268.97
			c-7.62-4.4-7.66-11.54-0.09-15.94l223.44-129.85c7.58-4.4,19.9-4.4,27.52,0L534.62,200.22z"/>
	</g>
	
		<linearGradient id="SVGID_00000060017852621473800480000005218936883717671853_" gradientUnits="userSpaceOnUse" x1="144.5332" y1="282.051" x2="540.3691" y2="282.051">
		<stop  offset="0" style="stop-color:#DCEFE4"/>
		<stop  offset="0.0889" style="stop-color:#C8EBE2"/>
		<stop  offset="0.2703" style="stop-color:#96E0DD"/>
		<stop  offset="0.4951" style="stop-color:#4FD1D6"/>
		<stop  offset="0.6514" style="stop-color:#86ABE1"/>
		<stop  offset="0.8106" style="stop-color:#B788EB"/>
		<stop  offset="0.932" style="stop-color:#D673F1"/>
		<stop  offset="1" style="stop-color:#E16BF3"/>
	</linearGradient>
	<path style="fill:url(#SVGID_00000060017852621473800480000005218936883717671853_);" d="M540.35,208.59
		c-0.01,0.1-0.01,0.2-0.02,0.29c-0.01,0.09-0.02,0.17-0.03,0.26c-0.01,0.1-0.03,0.19-0.05,0.29c-0.02,0.09-0.03,0.17-0.05,0.26
		c-0.02,0.09-0.04,0.19-0.07,0.28c-0.02,0.09-0.05,0.17-0.08,0.26c-0.03,0.09-0.06,0.19-0.09,0.28c-0.03,0.08-0.06,0.17-0.1,0.25
		c-0.04,0.1-0.08,0.2-0.12,0.3c-0.04,0.08-0.07,0.16-0.11,0.24c-0.05,0.1-0.1,0.2-0.15,0.29c-0.04,0.08-0.09,0.16-0.13,0.24
		c-0.07,0.12-0.14,0.23-0.21,0.35c-0.04,0.07-0.09,0.14-0.14,0.21c-0.09,0.13-0.18,0.25-0.27,0.38c-0.04,0.05-0.08,0.11-0.12,0.16
		c-0.16,0.2-0.33,0.39-0.5,0.59c-0.05,0.05-0.1,0.1-0.14,0.15c-0.14,0.15-0.29,0.29-0.44,0.44c-0.07,0.07-0.14,0.13-0.21,0.2
		c-0.09,0.08-0.19,0.16-0.28,0.24c-0.09,0.07-0.18,0.15-0.27,0.22c-0.1,0.08-0.2,0.16-0.31,0.24c-0.09,0.07-0.19,0.15-0.29,0.22
		c-0.11,0.08-0.22,0.16-0.33,0.23c-0.1,0.07-0.2,0.14-0.31,0.21c-0.12,0.08-0.23,0.15-0.35,0.22c-0.15,0.09-0.3,0.19-0.45,0.28
		L311.27,346.02c-0.42,0.25-0.86,0.47-1.31,0.69c-0.12,0.06-0.24,0.11-0.36,0.17c-0.41,0.19-0.82,0.37-1.25,0.53
		c-0.06,0.02-0.11,0.05-0.16,0.07c-0.46,0.17-0.92,0.33-1.4,0.48c-0.33,0.1-0.66,0.19-1,0.29c-0.26,0.07-0.51,0.14-0.77,0.21
		c-0.35,0.09-0.71,0.16-1.07,0.23c-0.26,0.05-0.52,0.11-0.79,0.16c-0.11,0.02-0.22,0.03-0.33,0.05c-0.45,0.07-0.9,0.14-1.35,0.19
		c-0.13,0.02-0.26,0.03-0.39,0.05c-0.52,0.06-1.05,0.1-1.58,0.13c-0.1,0.01-0.2,0.01-0.29,0.01c-0.36,0.02-0.71,0.02-1.07,0.03
		c-0.36,0.01-0.71,0.01-1.07,0c-0.3,0-0.59-0.01-0.89-0.02c-0.33-0.01-0.66-0.03-0.99-0.05c-0.3-0.02-0.6-0.05-0.9-0.08
		c-0.33-0.03-0.65-0.07-0.97-0.11c-0.29-0.04-0.58-0.08-0.87-0.12c-0.35-0.05-0.69-0.11-1.03-0.18c-0.36-0.07-0.72-0.14-1.07-0.22
		c-0.08-0.02-0.17-0.04-0.25-0.06c-0.5-0.12-0.98-0.25-1.47-0.39c-0.14-0.04-0.27-0.08-0.41-0.13c-0.4-0.13-0.79-0.26-1.18-0.4
		c-0.11-0.04-0.23-0.08-0.34-0.12c-0.35-0.14-0.69-0.29-1.03-0.44c-0.17-0.07-0.34-0.14-0.5-0.22c-0.49-0.23-0.97-0.48-1.43-0.75
		L150.3,268.97c-3.84-2.21-5.75-5.12-5.74-8.03l-0.02,6.55c-0.01,2.9,1.91,5.81,5.74,8.03l133.45,77.05
		c0.46,0.27,0.94,0.51,1.43,0.75c0.16,0.08,0.34,0.14,0.5,0.22c0.29,0.13,0.58,0.26,0.88,0.38c0.05,0.02,0.1,0.04,0.16,0.06
		c0.11,0.04,0.23,0.08,0.34,0.12c0.39,0.14,0.78,0.28,1.18,0.4c0.14,0.04,0.27,0.09,0.41,0.13c0.09,0.03,0.18,0.06,0.28,0.09
		c0.39,0.11,0.79,0.21,1.19,0.31c0.08,0.02,0.17,0.04,0.25,0.06c0.2,0.04,0.39,0.09,0.59,0.13c0.16,0.03,0.32,0.05,0.48,0.08
		c0.34,0.07,0.69,0.13,1.03,0.18c0.14,0.02,0.27,0.05,0.41,0.07c0.15,0.02,0.3,0.03,0.46,0.05c0.32,0.04,0.65,0.08,0.97,0.11
		c0.16,0.02,0.31,0.04,0.46,0.05c0.14,0.01,0.29,0.01,0.43,0.02c0.33,0.02,0.66,0.04,0.99,0.05c0.17,0.01,0.33,0.02,0.5,0.03
		c0.13,0,0.26,0,0.4,0c0.36,0,0.71,0,1.07,0c0.18,0,0.35,0,0.53,0c0.18-0.01,0.36-0.02,0.54-0.03c0.1,0,0.2-0.01,0.29-0.01
		c0.44-0.03,0.89-0.06,1.33-0.1c0.08-0.01,0.17-0.02,0.25-0.03c0.13-0.01,0.26-0.03,0.39-0.05c0.45-0.05,0.9-0.12,1.35-0.19
		c0.11-0.02,0.22-0.03,0.33-0.05c0.05-0.01,0.11-0.02,0.16-0.03c0.21-0.04,0.42-0.09,0.63-0.13c0.36-0.07,0.72-0.14,1.08-0.23
		c0.26-0.06,0.51-0.14,0.76-0.21c0.34-0.09,0.67-0.18,1-0.29c0.07-0.02,0.14-0.04,0.21-0.06c0.4-0.13,0.79-0.27,1.18-0.42
		c0.06-0.02,0.11-0.05,0.16-0.07c0.43-0.17,0.84-0.34,1.25-0.53c0.12-0.06,0.24-0.11,0.36-0.17c0.45-0.22,0.89-0.44,1.31-0.69
		l223.44-129.85c0.08-0.05,0.16-0.09,0.24-0.14c0.07-0.04,0.14-0.09,0.21-0.14c0.12-0.07,0.24-0.15,0.35-0.22
		c0.11-0.07,0.21-0.14,0.31-0.21c0.11-0.08,0.22-0.15,0.33-0.23c0.1-0.07,0.19-0.14,0.29-0.22c0.1-0.08,0.21-0.16,0.3-0.24
		c0.09-0.07,0.18-0.15,0.27-0.22c0.1-0.08,0.19-0.16,0.28-0.24c0.04-0.03,0.08-0.07,0.12-0.1c0.03-0.03,0.06-0.06,0.1-0.1
		c0.15-0.14,0.3-0.29,0.44-0.44c0.05-0.05,0.1-0.1,0.14-0.15c0.18-0.19,0.35-0.39,0.5-0.59c0.01-0.01,0.02-0.02,0.02-0.03
		c0.04-0.05,0.07-0.09,0.1-0.14c0.09-0.12,0.19-0.25,0.27-0.38c0.05-0.07,0.09-0.14,0.14-0.21c0.07-0.11,0.15-0.23,0.21-0.35
		c0.02-0.03,0.04-0.06,0.06-0.09c0.03-0.05,0.05-0.09,0.07-0.14c0.05-0.1,0.1-0.19,0.15-0.29c0.04-0.08,0.08-0.16,0.11-0.25
		c0.04-0.1,0.09-0.2,0.12-0.3c0.02-0.04,0.04-0.09,0.06-0.13c0.01-0.04,0.03-0.08,0.04-0.12c0.03-0.09,0.06-0.19,0.09-0.28
		c0.03-0.09,0.05-0.17,0.08-0.26c0.03-0.09,0.05-0.19,0.07-0.28c0.01-0.05,0.03-0.1,0.04-0.15c0.01-0.03,0.01-0.07,0.02-0.1
		c0.02-0.1,0.03-0.19,0.05-0.29c0.01-0.09,0.02-0.17,0.03-0.26c0.01-0.1,0.02-0.2,0.02-0.29c0-0.06,0.01-0.11,0.01-0.17
		c0-0.06,0-0.11,0-0.17l0.02-6.55C540.37,208.36,540.36,208.48,540.35,208.59z"/>
	<g class="st4">
		<g>
			
				<linearGradient id="SVGID_00000086654948251061215580000003505578929983822479_" gradientUnits="userSpaceOnUse" x1="308.5736" y1="234.768" x2="465.4179" y2="234.768">
				<stop  offset="0" style="stop-color:#DCEFE4"/>
				<stop  offset="0.0889" style="stop-color:#C8EBE2"/>
				<stop  offset="0.2703" style="stop-color:#96E0DD"/>
				<stop  offset="0.4951" style="stop-color:#4FD1D6"/>
				<stop  offset="0.6514" style="stop-color:#86ABE1"/>
				<stop  offset="0.8106" style="stop-color:#B788EB"/>
				<stop  offset="0.932" style="stop-color:#D673F1"/>
				<stop  offset="1" style="stop-color:#E16BF3"/>
			</linearGradient>
			<path style="fill:url(#SVGID_00000086654948251061215580000003505578929983822479_);" d="M464.27,219.05
				c1.53,0.88,1.53,2.31,0.02,3.19l-98.67,57.34c-1.52,0.88-3.98,0.88-5.51,0l-50.38-29.09c-1.53-0.88-1.53-2.31-0.02-3.19
				l98.67-57.34c1.52-0.88,3.98-0.88,5.51,0L464.27,219.05z"/>
		</g>
	</g>
	<g>
		<g>
			<path class="st6" d="M464.36,218.24c1.53,0.88,1.53,2.31,0.02,3.19l-98.67,57.34c-1.52,0.88-3.98,0.88-5.51,0l-50.38-29.09
				c-1.53-0.88-1.53-2.31-0.02-3.19l98.67-57.34c1.52-0.88,3.98-0.88,5.51,0L464.36,218.24z"/>
		</g>
	</g>
	<g>
		<g>
			<path class="st7" d="M438.03,212.85c-1.19-7.46-16.68-15.38-24.98-13.04c-1.25,0.35-2.43,1.18-3.25,1.68
				c-2.77,1.69-2.52,4.71,0.72,6.58l13.95,8.05c3.24,1.87,8.15,2.08,10.96,0.45l0.76-0.44
				C437.68,215.28,438.28,214.08,438.03,212.85z"/>
			<g>
				<path class="st8" d="M438.11,211.71c-0.04,0.99-0.67,1.93-1.89,2.63l-0.76,0.44c-2.81,1.62-7.71,1.42-10.96-0.45l-13.95-8.05
					c-1.72-1-2.63-2.26-2.68-3.47h0l0,1.19c0.03,1.22,0.94,2.51,2.68,3.52l13.95,8.05c3.24,1.87,8.15,2.08,10.96,0.45l0.76-0.44
					c1.24-0.72,1.87-1.67,1.89-2.68L438.11,211.71L438.11,211.71z"/>
				<g>
					<path class="st9" d="M438.11,211.47c-0.01,0.12,0.34,1.78-2.65,3.31l0,0c-2.81,1.62-7.72,1.42-10.97-0.45l-13.96-8.05
						c-1.6-0.92-2.49-2.08-2.66-3.2c0.05,1.21,0.96,2.48,2.68,3.47l13.95,8.05c3.24,1.87,8.15,2.08,10.96,0.45l0.76-0.44
						c1.24-0.72,1.87-1.67,1.89-2.68L438.11,211.47z"/>
				</g>
				<path class="st10" d="M438.05,211.06c-1.19-7.46-16.68-15.38-24.98-13.04c-1.25,0.35-2.43,1.18-3.25,1.68
					c-2.77,1.69-2.52,4.71,0.72,6.58l13.95,8.05c3.24,1.87,8.15,2.08,10.96,0.45l0.76-0.44
					C437.71,213.48,438.31,212.28,438.05,211.06z"/>
			</g>
		</g>
	</g>
	<g>
		<g>
			
				<linearGradient id="SVGID_00000074417755589035569700000000994948706519851961_" gradientUnits="userSpaceOnUse" x1="329.0297" y1="236.8659" x2="424.2744" y2="236.8659">
				<stop  offset="0" style="stop-color:#DCEFE4"/>
				<stop  offset="0.0889" style="stop-color:#C8EBE2"/>
				<stop  offset="0.2703" style="stop-color:#96E0DD"/>
				<stop  offset="0.4951" style="stop-color:#4FD1D6"/>
				<stop  offset="0.6514" style="stop-color:#86ABE1"/>
				<stop  offset="0.8106" style="stop-color:#B788EB"/>
				<stop  offset="0.932" style="stop-color:#D673F1"/>
				<stop  offset="1" style="stop-color:#E16BF3"/>
			</linearGradient>
			<path style="fill:url(#SVGID_00000074417755589035569700000000994948706519851961_);" d="M423.6,224.8
				c0.89,0.51,0.9,1.35,0.01,1.86l-64.42,37.44c-0.89,0.51-2.33,0.51-3.22,0l-26.28-15.17c-0.89-0.51-0.9-1.35-0.01-1.86
				l64.42-37.44c0.89-0.51,2.33-0.51,3.22,0L423.6,224.8z"/>
		</g>
		<g>
			<path class="st10" d="M423.6,223.72c0.89,0.51,0.9,1.35,0.01,1.86l-64.42,37.44c-0.89,0.51-2.33,0.51-3.22,0l-26.28-15.17
				c-0.89-0.51-0.9-1.35-0.01-1.86l64.42-37.44c0.89-0.51,2.33-0.51,3.22,0L423.6,223.72z"/>
		</g>
		<g>
			<g>
				<g>
					<path class="st12" d="M352.82,237.89c0.21,0.12,0.21,0.32,0,0.44l-3.36,1.95c-0.21,0.12-0.55,0.12-0.77,0l-1.74-1.01
						c-0.21-0.12-0.21-0.32,0-0.44l3.36-1.95c0.21-0.12,0.55-0.12,0.77,0L352.82,237.89z"/>
				</g>
			</g>
			<g>
				<g>
					<path class="st12" d="M348.19,240.57c0.21,0.12,0.21,0.32,0,0.44l-3.36,1.95c-0.21,0.12-0.55,0.12-0.77,0l-1.74-1.01
						c-0.21-0.12-0.21-0.32,0-0.44l3.36-1.95c0.21-0.12,0.55-0.12,0.77,0L348.19,240.57z"/>
				</g>
			</g>
			<g>
				<g>
					<path class="st12" d="M343.56,243.26c0.21,0.12,0.21,0.32,0,0.44l-3.36,1.95c-0.21,0.12-0.55,0.12-0.77,0l-1.74-1.01
						c-0.21-0.12-0.21-0.32,0-0.44l3.36-1.95c0.21-0.12,0.55-0.12,0.77,0L343.56,243.26z"/>
				</g>
			</g>
			<g>
				<g>
					<path class="st12" d="M338.94,245.95c0.21,0.12,0.21,0.32,0,0.44l-3.36,1.95c-0.21,0.12-0.55,0.12-0.77,0l-1.74-1.01
						c-0.21-0.12-0.21-0.32,0-0.44l3.36-1.95c0.21-0.12,0.55-0.12,0.77,0L338.94,245.95z"/>
				</g>
			</g>
			<g>
				<g>
					<path class="st12" d="M343.31,248.48c0.21,0.12,0.21,0.32,0,0.44l-3.36,1.95c-0.21,0.12-0.55,0.12-0.77,0l-3.31-1.91
						c-0.21-0.12-0.21-0.32,0-0.44l3.36-1.95c0.21-0.12,0.55-0.12,0.77,0L343.31,248.48z"/>
				</g>
			</g>
			<g>
				<g>
					<path class="st12" d="M359.81,249c0.21,0.12,0.21,0.32,0,0.44l-3.36,1.95c-0.21,0.12-0.55,0.12-0.77,0l-3.31-1.91
						c-0.21-0.12-0.21-0.32,0-0.44l3.36-1.95c0.21-0.12,0.55-0.12,0.77,0L359.81,249z"/>
				</g>
			</g>
			<g>
				<g>
					<path class="st12" d="M354.35,247.07c0.21,0.12,0.21,0.32,0,0.44l-3.36,1.95c-0.21,0.12-0.55,0.12-0.77,0l-3.31-1.91
						c-0.21-0.12-0.21-0.32,0-0.44l3.36-1.95c0.21-0.12,0.55-0.12,0.77,0L354.35,247.07z"/>
				</g>
			</g>
			<g>
				<g>
					<path class="st12" d="M347.75,245.89c0.21,0.12,0.21,0.32,0,0.44l-3.36,1.95c-0.21,0.12-0.55,0.12-0.77,0l-3.31-1.91
						c-0.21-0.12-0.21-0.32,0-0.44l3.36-1.95c0.21-0.12,0.55-0.12,0.77,0L347.75,245.89z"/>
				</g>
			</g>
			<g>
				<g>
					<path class="st12" d="M375.36,245.07c0.21,0.12,0.21,0.32,0,0.44l-3.36,1.95c-0.21,0.12-0.55,0.12-0.77,0l-3.31-1.91
						c-0.21-0.12-0.21-0.32,0-0.44l3.36-1.95c0.21-0.12,0.55-0.12,0.77,0L375.36,245.07z"/>
				</g>
			</g>
			<g>
				<g>
					<path class="st12" d="M379.81,242.48c0.21,0.12,0.21,0.32,0,0.44l-3.36,1.95c-0.21,0.12-0.55,0.12-0.77,0l-3.31-1.91
						c-0.21-0.12-0.21-0.32,0-0.44l3.36-1.95c0.21-0.12,0.55-0.12,0.77,0L379.81,242.48z"/>
				</g>
			</g>
			<g class="st4">
				<g>
					<g>
						<path class="st12" d="M361.09,238.14c0.21,0.12,0.21,0.32,0,0.44l-3.36,1.95c-0.21,0.12-0.55,0.12-0.77,0l-3.31-1.91
							c-0.21-0.12-0.21-0.32,0-0.44l3.36-1.95c0.21-0.12,0.55-0.12,0.77,0L361.09,238.14z"/>
					</g>
				</g>
				<g>
					<g>
						<path class="st12" d="M367.69,239.32c0.21,0.12,0.21,0.32,0,0.44l-3.36,1.95c-0.21,0.12-0.55,0.12-0.77,0l-3.31-1.91
							c-0.21-0.12-0.21-0.32,0-0.44l3.36-1.95c0.21-0.12,0.55-0.12,0.77,0L367.69,239.32z"/>
					</g>
				</g>
				<g>
					<g>
						<path class="st12" d="M356.65,240.72c0.21,0.12,0.21,0.32,0,0.44l-3.36,1.95c-0.21,0.12-0.55,0.12-0.77,0l-3.31-1.91
							c-0.21-0.12-0.21-0.32,0-0.44l3.36-1.95c0.21-0.12,0.55-0.12,0.77,0L356.65,240.72z"/>
					</g>
				</g>
				<g>
					<g>
						<path class="st12" d="M373.18,241.23c0.21,0.12,0.21,0.32,0,0.44l-3.36,1.95c-0.21,0.12-0.55,0.12-0.77,0l-3.31-1.91
							c-0.21-0.12-0.21-0.32,0-0.44l3.36-1.95c0.21-0.12,0.55-0.12,0.77,0L373.18,241.23z"/>
					</g>
				</g>
				<g>
					<g>
						<path class="st12" d="M363.25,241.9c0.21,0.12,0.21,0.32,0,0.44l-3.36,1.95c-0.21,0.12-0.55,0.12-0.77,0l-3.31-1.91
							c-0.21-0.12-0.21-0.32,0-0.44l3.36-1.95c0.21-0.12,0.55-0.12,0.77,0L363.25,241.9z"/>
					</g>
				</g>
				<g>
					<g>
						<path class="st12" d="M352.2,243.31c0.21,0.12,0.21,0.32,0,0.44l-3.36,1.95c-0.21,0.12-0.55,0.12-0.77,0l-3.31-1.91
							c-0.21-0.12-0.21-0.32,0-0.44l3.36-1.95c0.21-0.12,0.55-0.12,0.77,0L352.2,243.31z"/>
					</g>
				</g>
				<g>
					<g>
						<path class="st12" d="M368.73,243.82c0.21,0.12,0.21,0.32,0,0.44l-3.36,1.95c-0.21,0.12-0.55,0.12-0.77,0l-3.31-1.91
							c-0.21-0.12-0.21-0.32,0-0.44l3.36-1.95c0.21-0.12,0.55-0.12,0.77,0L368.73,243.82z"/>
					</g>
				</g>
				<g>
					<g>
						<path class="st12" d="M358.8,244.49c0.21,0.12,0.21,0.32,0,0.44l-3.36,1.95c-0.21,0.12-0.55,0.12-0.77,0l-3.31-1.91
							c-0.21-0.12-0.21-0.32,0-0.44l3.36-1.95c0.21-0.12,0.55-0.12,0.77,0L358.8,244.49z"/>
					</g>
				</g>
				<g>
					<g>
						<path class="st12" d="M364.27,246.41c0.21,0.12,0.21,0.32,0,0.44l-3.36,1.95c-0.21,0.12-0.55,0.12-0.77,0l-3.31-1.91
							c-0.21-0.12-0.21-0.32,0-0.44l3.36-1.95c0.21-0.12,0.55-0.12,0.77,0L364.27,246.41z"/>
					</g>
				</g>
			</g>
			<g>
				<g>
					<path class="st12" d="M381.03,231.57c0.21,0.12,0.21,0.32,0,0.44l-3.36,1.95c-0.21,0.12-0.55,0.12-0.77,0l-3.31-1.91
						c-0.21-0.12-0.21-0.32,0-0.44l3.36-1.95c0.21-0.12,0.55-0.12,0.77,0L381.03,231.57z"/>
				</g>
			</g>
			<g>
				<g>
					<path class="st12" d="M397.63,232.13c0.21,0.12,0.21,0.32,0,0.44l-3.36,1.95c-0.21,0.12-0.55,0.12-0.77,0l-3.31-1.91
						c-0.21-0.12-0.21-0.32,0-0.44l3.36-1.95c0.21-0.12,0.55-0.12,0.77,0L397.63,232.13z"/>
				</g>
			</g>
			<g>
				<g>
					<path class="st12" d="M391.01,230.87c0.21,0.12,0.21,0.32,0,0.44l-3.36,1.95c-0.21,0.12-0.55,0.12-0.77,0l-3.31-1.91
						c-0.21-0.12-0.21-0.32,0-0.44l3.36-1.95c0.21-0.12,0.55-0.12,0.77,0L391.01,230.87z"/>
				</g>
			</g>
			<g>
				<g>
					<path class="st12" d="M383.32,225.22c0.21,0.12,0.21,0.32,0,0.44l-3.36,1.95c-0.21,0.12-0.55,0.12-0.77,0l-3.31-1.91
						c-0.21-0.12-0.21-0.32,0-0.44l3.36-1.95c0.21-0.12,0.55-0.12,0.77,0L383.32,225.22z"/>
				</g>
			</g>
			<g>
				<g>
					<path class="st12" d="M387.77,222.64c0.21,0.12,0.21,0.32,0,0.44l-3.36,1.95c-0.21,0.12-0.55,0.12-0.77,0l-3.31-1.91
						c-0.21-0.12-0.21-0.32,0-0.44l3.36-1.95c0.21-0.12,0.55-0.12,0.77,0L387.77,222.64z"/>
				</g>
			</g>
			<g>
				<g>
					<path class="st12" d="M389.92,226.4c0.21,0.12,0.21,0.32,0,0.44l-3.36,1.95c-0.21,0.12-0.55,0.12-0.77,0l-3.31-1.91
						c-0.21-0.12-0.21-0.32,0-0.44l3.36-1.95c0.21-0.12,0.55-0.12,0.77,0L389.92,226.4z"/>
				</g>
			</g>
			<g>
				<g>
					<path class="st12" d="M385.48,228.98c0.21,0.12,0.21,0.32,0,0.44l-3.36,1.95c-0.21,0.12-0.55,0.12-0.77,0l-3.31-1.91
						c-0.21-0.12-0.21-0.32,0-0.44l3.36-1.95c0.21-0.12,0.55-0.12,0.77,0L385.48,228.98z"/>
				</g>
			</g>
			<g class="st4">
				<g>
					<g>
						<path class="st12" d="M386.56,233.46c0.21,0.12,0.21,0.32,0,0.44l-3.36,1.95c-0.21,0.12-0.55,0.12-0.77,0l-3.31-1.91
							c-0.21-0.12-0.21-0.32,0-0.44l3.36-1.95c0.21-0.12,0.55-0.12,0.77,0L386.56,233.46z"/>
					</g>
				</g>
				<g>
					<g>
						<path class="st12" d="M393.18,234.71c0.21,0.12,0.21,0.32,0,0.44l-3.36,1.95c-0.21,0.12-0.55,0.12-0.77,0l-3.31-1.91
							c-0.21-0.12-0.21-0.32,0-0.44l3.36-1.95c0.21-0.12,0.55-0.12,0.77,0L393.18,234.71z"/>
					</g>
				</g>
				<g>
					<g>
						<path class="st12" d="M382.1,236.05c0.21,0.12,0.21,0.32,0,0.44l-3.36,1.95c-0.21,0.12-0.55,0.12-0.77,0l-3.31-1.91
							c-0.21-0.12-0.21-0.32,0-0.44l3.36-1.95c0.21-0.12,0.55-0.12,0.77,0L382.1,236.05z"/>
					</g>
				</g>
				<g>
					<g>
						<path class="st12" d="M388.72,237.3c0.21,0.12,0.21,0.32,0,0.44l-3.36,1.95c-0.21,0.12-0.55,0.12-0.77,0l-3.31-1.91
							c-0.21-0.12-0.21-0.32,0-0.44l3.36-1.95c0.21-0.12,0.55-0.12,0.77,0L388.72,237.3z"/>
					</g>
				</g>
			</g>
			<g class="st4">
				<g>
					<g>
						<path class="st12" d="M362.07,232.51c0.21,0.12,0.21,0.32,0,0.44l-3.36,1.95c-0.21,0.12-0.55,0.12-0.77,0l-1.74-1.01
							c-0.21-0.12-0.21-0.32,0-0.44l3.36-1.95c0.21-0.12,0.55-0.12,0.77,0L362.07,232.51z"/>
					</g>
				</g>
				<g>
					<g>
						<path class="st12" d="M369.98,232.97c0.21,0.12,0.21,0.32,0,0.44l-3.36,1.95c-0.21,0.12-0.55,0.12-0.77,0l-3.31-1.91
							c-0.21-0.12-0.21-0.32,0-0.44l3.36-1.95c0.21-0.12,0.55-0.12,0.77,0L369.98,232.97z"/>
					</g>
				</g>
				<g>
					<g>
						<path class="st12" d="M376.58,234.15c0.21,0.12,0.21,0.32,0,0.44l-3.36,1.95c-0.21,0.12-0.55,0.12-0.77,0l-3.31-1.91
							c-0.21-0.12-0.21-0.32,0-0.44l3.36-1.95c0.21-0.12,0.55-0.12,0.77,0L376.58,234.15z"/>
					</g>
				</g>
				<g>
					<g>
						<path class="st12" d="M365.54,235.56c0.21,0.12,0.21,0.32,0,0.44l-3.36,1.95c-0.21,0.12-0.55,0.12-0.77,0l-3.31-1.91
							c-0.21-0.12-0.21-0.32,0-0.44l3.36-1.95c0.21-0.12,0.55-0.12,0.77,0L365.54,235.56z"/>
					</g>
				</g>
				<g>
					<g>
						<path class="st12" d="M372.14,236.74c0.21,0.12,0.21,0.32,0,0.44l-3.36,1.95c-0.21,0.12-0.55,0.12-0.77,0l-3.31-1.91
							c-0.21-0.12-0.21-0.32,0-0.44l3.36-1.95c0.21-0.12,0.55-0.12,0.77,0L372.14,236.74z"/>
					</g>
				</g>
				<g>
					<g>
						<path class="st12" d="M377.64,238.64c0.21,0.12,0.21,0.32,0,0.44l-3.36,1.95c-0.21,0.12-0.55,0.12-0.77,0l-3.31-1.91
							c-0.21-0.12-0.21-0.32,0-0.44l3.36-1.95c0.21-0.12,0.55-0.12,0.77,0L377.64,238.64z"/>
					</g>
				</g>
			</g>
			<g>
				<g>
					<path class="st12" d="M366.7,229.82c0.21,0.12,0.21,0.32,0,0.44l-3.36,1.95c-0.21,0.12-0.55,0.12-0.77,0l-1.74-1.01
						c-0.21-0.12-0.21-0.32,0-0.44l3.36-1.95c0.21-0.12,0.55-0.12,0.77,0L366.7,229.82z"/>
				</g>
			</g>
			<g>
				<g>
					<path class="st12" d="M395.47,228.28c0.21,0.12,0.21,0.32,0,0.44l-3.36,1.95c-0.21,0.12-0.55,0.12-0.77,0l-3.31-1.91
						c-0.21-0.12-0.21-0.32,0-0.44l3.36-1.95c0.21-0.12,0.55-0.12,0.77,0L395.47,228.28z"/>
				</g>
			</g>
			<g>
				<g>
					<path class="st12" d="M421.45,223.98c0.21,0.12,0.21,0.32,0,0.44l-3.36,1.95c-0.21,0.12-0.55,0.12-0.77,0l-1.62-0.94
						c-0.21-0.12-0.21-0.32,0-0.44l3.36-1.95c0.21-0.12,0.55-0.12,0.77,0L421.45,223.98z"/>
				</g>
			</g>
			<g class="st4">
				<g>
					<g>
						<path class="st12" d="M407.71,216.07c0.21,0.12,0.21,0.32,0,0.44l-3.36,1.95c-0.21,0.12-0.55,0.12-0.77,0l-3.31-1.91
							c-0.21-0.12-0.21-0.32,0-0.44l3.36-1.95c0.21-0.12,0.55-0.12,0.77,0L407.71,216.07z"/>
					</g>
				</g>
				<g>
					<g>
						<path class="st12" d="M389.83,216.38c0.21,0.12,0.21,0.32,0,0.44l-3.36,1.95c-0.21,0.12-0.55,0.12-0.77,0l-1.74-1.01
							c-0.21-0.12-0.21-0.32,0-0.44l3.36-1.95c0.21-0.12,0.55-0.12,0.77,0L389.83,216.38z"/>
					</g>
				</g>
				<g>
					<g>
						<path class="st12" d="M396.66,217.47c0.21,0.12,0.21,0.32,0,0.44l-3.36,1.95c-0.21,0.12-0.55,0.12-0.77,0l-3.31-1.91
							c-0.21-0.12-0.21-0.32,0-0.44l3.36-1.95c0.21-0.12,0.55-0.12,0.77,0L396.66,217.47z"/>
					</g>
				</g>
				<g>
					<g>
						<path class="st12" d="M403.26,218.65c0.21,0.12,0.21,0.32,0,0.44l-3.36,1.95c-0.21,0.12-0.55,0.12-0.77,0l-3.31-1.91
							c-0.21-0.12-0.21-0.32,0-0.44l3.36-1.95c0.21-0.12,0.55-0.12,0.77,0L403.26,218.65z"/>
					</g>
				</g>
				<g>
					<g>
						<path class="st12" d="M385.21,219.06c0.21,0.12,0.21,0.32,0,0.44l-3.36,1.95c-0.21,0.12-0.55,0.12-0.77,0l-1.74-1.01
							c-0.21-0.12-0.21-0.32,0-0.44l3.36-1.95c0.21-0.12,0.55-0.12,0.77,0L385.21,219.06z"/>
					</g>
				</g>
				<g>
					<g>
						<path class="st12" d="M392.22,220.05c0.21,0.12,0.21,0.32,0,0.44l-3.36,1.95c-0.21,0.12-0.55,0.12-0.77,0l-3.31-1.91
							c-0.21-0.12-0.21-0.32,0-0.44l3.36-1.95c0.21-0.12,0.55-0.12,0.77,0L392.22,220.05z"/>
					</g>
				</g>
				<g>
					<g>
						<path class="st12" d="M412.03,218.62c0.21,0.12,0.21,0.32,0,0.44l-6.67,3.87c-0.21,0.12-0.55,0.12-0.77,0l-3.31-1.91
							c-0.21-0.12-0.21-0.32,0-0.44l6.67-3.87c0.21-0.12,0.55-0.12,0.77,0L412.03,218.62z"/>
					</g>
				</g>
				<g>
					<g>
						<path class="st12" d="M398.81,221.23c0.21,0.12,0.21,0.32,0,0.44l-3.36,1.95c-0.21,0.12-0.55,0.12-0.77,0l-3.31-1.91
							c-0.21-0.12-0.21-0.32,0-0.44l3.36-1.95c0.21-0.12,0.55-0.12,0.77,0L398.81,221.23z"/>
					</g>
				</g>
				<g>
					<g>
						<path class="st12" d="M380.58,221.75c0.21,0.12,0.21,0.32,0,0.44l-3.36,1.95c-0.21,0.12-0.55,0.12-0.77,0l-1.74-1.01
							c-0.21-0.12-0.21-0.32,0-0.44l3.36-1.95c0.21-0.12,0.55-0.12,0.77,0L380.58,221.75z"/>
					</g>
				</g>
				<g>
					<g>
						<path class="st12" d="M404.39,223.1c0.21,0.12,0.21,0.32,0,0.44l-3.36,1.95c-0.21,0.12-0.55,0.12-0.77,0l-3.31-1.91
							c-0.21-0.12-0.21-0.32,0-0.44l3.36-1.95c0.21-0.12,0.55-0.12,0.77,0L404.39,223.1z"/>
					</g>
				</g>
				<g>
					<g>
						<path class="st12" d="M416.41,221.09c0.21,0.12,0.21,0.32,0,0.44l-8.93,5.19c-0.21,0.12-0.55,0.12-0.77,0l-3.31-1.91
							c-0.21-0.12-0.21-0.32,0-0.44l8.93-5.19c0.21-0.12,0.55-0.12,0.77,0L416.41,221.09z"/>
					</g>
				</g>
				<g>
					<g>
						<path class="st12" d="M399.93,225.69c0.21,0.12,0.21,0.32,0,0.44l-3.36,1.95c-0.21,0.12-0.55,0.12-0.77,0l-3.31-1.91
							c-0.21-0.12-0.21-0.32,0-0.44l3.36-1.95c0.21-0.12,0.55-0.12,0.77,0L399.93,225.69z"/>
					</g>
				</g>
				<g>
					<g>
						<path class="st12" d="M406.55,226.95c0.21,0.12,0.21,0.32,0,0.44l-3.36,1.95c-0.21,0.12-0.55,0.12-0.77,0l-3.31-1.91
							c-0.21-0.12-0.21-0.32,0-0.44l3.36-1.95c0.21-0.12,0.55-0.12,0.77,0L406.55,226.95z"/>
					</g>
				</g>
			</g>
			<g class="st4">
				<g>
					<g>
						<path class="st12" d="M375.95,224.44c0.21,0.12,0.21,0.32,0,0.44l-3.36,1.95c-0.21,0.12-0.55,0.12-0.77,0l-1.74-1.01
							c-0.21-0.12-0.21-0.32,0-0.44l3.36-1.95c0.21-0.12,0.55-0.12,0.77,0L375.95,224.44z"/>
					</g>
				</g>
				<g>
					<g>
						<path class="st12" d="M371.33,227.13c0.21,0.12,0.21,0.32,0,0.44l-3.36,1.95c-0.21,0.12-0.55,0.12-0.77,0l-1.74-1.01
							c-0.21-0.12-0.21-0.32,0-0.44l3.36-1.95c0.21-0.12,0.55-0.12,0.77,0L371.33,227.13z"/>
					</g>
				</g>
				<g>
					<g>
						<path class="st12" d="M378.88,227.81c0.21,0.12,0.21,0.32,0,0.44l-3.36,1.95c-0.21,0.12-0.55,0.12-0.77,0l-3.31-1.91
							c-0.21-0.12-0.21-0.32,0-0.44l3.36-1.95c0.21-0.12,0.55-0.12,0.77,0L378.88,227.81z"/>
					</g>
				</g>
			</g>
			<g>
				<g>
					<path class="st12" d="M374.43,230.39c0.21,0.12,0.21,0.32,0,0.44l-3.36,1.95c-0.21,0.12-0.55,0.12-0.77,0l-3.31-1.91
						c-0.21-0.12-0.21-0.32,0-0.44l3.36-1.95c0.21-0.12,0.55-0.12,0.77,0L374.43,230.39z"/>
				</g>
			</g>
			<g>
				<g>
					<path class="st12" d="M394.46,213.69c0.21,0.12,0.21,0.32,0,0.44l-3.36,1.95c-0.21,0.12-0.55,0.12-0.77,0l-1.74-1.01
						c-0.21-0.12-0.21-0.32,0-0.44l3.36-1.95c0.21-0.12,0.55-0.12,0.77,0L394.46,213.69z"/>
				</g>
			</g>
			<g>
				<g>
					<path class="st12" d="M399.09,211c0.21,0.12,0.21,0.32,0,0.44l-3.36,1.95c-0.21,0.12-0.55,0.12-0.77,0l-1.74-1.01
						c-0.21-0.12-0.21-0.32,0-0.44l3.36-1.95c0.21-0.12,0.55-0.12,0.77,0L399.09,211z"/>
				</g>
			</g>
			<g>
				<g>
					<path class="st12" d="M403.38,213.57c0.21,0.12,0.21,0.32,0,0.44l-5.55,3.22c-0.21,0.12-0.55,0.12-0.77,0l-3.31-1.91
						c-0.21-0.12-0.21-0.32,0-0.44l5.55-3.22c0.21-0.12,0.55-0.12,0.77,0L403.38,213.57z"/>
				</g>
			</g>
			<g>
				<g>
					<path class="st12" d="M394.37,223.82c0.21,0.12,0.21,0.32,0,0.44l-3.36,1.95c-0.21,0.12-0.55,0.12-0.77,0l-3.31-1.91
						c-0.21-0.12-0.21-0.32,0-0.44l3.36-1.95c0.21-0.12,0.55-0.12,0.77,0L394.37,223.82z"/>
				</g>
			</g>
			<g>
				<g>
					<path class="st12" d="M366.45,250.25c0.21,0.12,0.21,0.32,0,0.44l-3.36,1.95c-0.21,0.12-0.55,0.12-0.77,0l-3.31-1.91
						c-0.21-0.12-0.21-0.32,0-0.44l3.36-1.95c0.21-0.12,0.55-0.12,0.77,0L366.45,250.25z"/>
				</g>
			</g>
			<g>
				<g>
					<path class="st12" d="M361.39,258.89c0.21,0.12,0.21,0.32,0,0.44l-3.36,1.95c-0.21,0.12-0.55,0.12-0.77,0l-3.93-2.27
						c-0.21-0.12-0.21-0.32,0-0.44l3.36-1.95c0.21-0.12,0.55-0.12,0.77,0L361.39,258.89z"/>
				</g>
			</g>
			<g>
				<g>
					<path class="st12" d="M375.8,250.51c0.21,0.12,0.21,0.32,0,0.44l-4.33,2.52c-0.21,0.12-0.55,0.12-0.77,0l-3.93-2.27
						c-0.21-0.12-0.21-0.32,0-0.44l4.33-2.52c0.21-0.12,0.55-0.12,0.77,0L375.8,250.51z"/>
				</g>
			</g>
			<g>
				<g>
					<path class="st12" d="M370.35,253.68c0.21,0.12,0.21,0.32,0,0.44l-3.36,1.95c-0.21,0.12-0.55,0.12-0.77,0l-3.93-2.27
						c-0.21-0.12-0.21-0.32,0-0.44l3.36-1.95c0.21-0.12,0.55-0.12,0.77,0L370.35,253.68z"/>
				</g>
			</g>
			<g>
				<g>
					<path class="st12" d="M362.02,252.82c0.21,0.12,0.21,0.32,0,0.44l-8.93,5.19c-0.21,0.12-0.55,0.12-0.77,0l-3.31-1.91
						c-0.21-0.12-0.21-0.32,0-0.44l8.93-5.19c0.21-0.12,0.55-0.12,0.77,0L362.02,252.82z"/>
				</g>
			</g>
			<g>
				<g>
					<path class="st12" d="M365.87,256.28c0.21,0.12,0.21,0.32,0,0.44l-3.36,1.95c-0.21,0.12-0.55,0.12-0.77,0l-3.93-2.27
						c-0.21-0.12-0.21-0.32,0-0.44l3.36-1.95c0.21-0.12,0.55-0.12,0.77,0L365.87,256.28z"/>
				</g>
			</g>
			<g>
				<g>
					<path class="st12" d="M417.01,226.56c0.21,0.12,0.21,0.32,0,0.44l-3.36,1.95c-0.21,0.12-0.55,0.12-0.77,0l-3.93-2.27
						c-0.21-0.12-0.21-0.32,0-0.44l3.36-1.95c0.21-0.12,0.55-0.12,0.77,0L417.01,226.56z"/>
				</g>
			</g>
			<g>
				<g>
					<path class="st12" d="M412.58,229.14c0.21,0.12,0.21,0.32,0,0.44l-3.36,1.95c-0.21,0.12-0.55,0.12-0.77,0l-1.62-0.94
						c-0.21-0.12-0.21-0.32,0-0.44l3.36-1.95c0.21-0.12,0.55-0.12,0.77,0L412.58,229.14z"/>
				</g>
			</g>
			<g>
				<g>
					<path class="st12" d="M402.09,229.54c0.21,0.12,0.21,0.32,0,0.44l-3.36,1.95c-0.21,0.12-0.55,0.12-0.77,0l-3.31-1.91
						c-0.21-0.12-0.21-0.32,0-0.44l3.36-1.95c0.21-0.12,0.55-0.12,0.77,0L402.09,229.54z"/>
				</g>
			</g>
			<g>
				<g>
					<path class="st12" d="M403.53,234.39c0.21,0.12,0.21,0.32,0,0.44l-4.33,2.52c-0.21,0.12-0.55,0.12-0.77,0l-3.93-2.27
						c-0.21-0.12-0.21-0.32,0-0.44l4.33-2.52c0.21-0.12,0.55-0.12,0.77,0L403.53,234.39z"/>
				</g>
			</g>
			<g>
				<g>
					<path class="st12" d="M408.16,231.71c0.21,0.12,0.21,0.32,0,0.44l-3.36,1.95c-0.21,0.12-0.55,0.12-0.77,0l-3.93-2.27
						c-0.21-0.12-0.21-0.32,0-0.44l3.36-1.95c0.21-0.12,0.55-0.12,0.77,0L408.16,231.71z"/>
				</g>
			</g>
			<g>
				<g>
					<path class="st12" d="M384.27,239.89c0.21,0.12,0.21,0.32,0,0.44l-3.36,1.95c-0.21,0.12-0.55,0.12-0.77,0l-3.31-1.91
						c-0.21-0.12-0.21-0.32,0-0.44l3.36-1.95c0.21-0.12,0.55-0.12,0.77,0L384.27,239.89z"/>
				</g>
			</g>
			<g>
				<g>
					<path class="st12" d="M398.04,237.59c0.21,0.12,0.21,0.32,0,0.44l-21.06,12.24c-0.21,0.12-0.55,0.12-0.77,0l-3.93-2.27
						c-0.21-0.12-0.21-0.32,0-0.44l21.06-12.24c0.21-0.12,0.55-0.12,0.77,0L398.04,237.59z"/>
				</g>
			</g>
			<g>
				<g>
					<path class="st12" d="M370.9,247.66c0.21,0.12,0.21,0.32,0,0.44l-3.36,1.95c-0.21,0.12-0.55,0.12-0.77,0l-3.31-1.91
						c-0.21-0.12-0.21-0.32,0-0.44l3.36-1.95c0.21-0.12,0.55-0.12,0.77,0L370.9,247.66z"/>
				</g>
			</g>
			<g>
				<g>
					<path class="st12" d="M355.35,251.6c0.21,0.12,0.21,0.32,0,0.44l-6.67,3.87c-0.21,0.12-0.55,0.12-0.77,0l-3.31-1.91
						c-0.21-0.12-0.21-0.32,0-0.44l6.67-3.87c0.21-0.12,0.55-0.12,0.77,0L355.35,251.6z"/>
				</g>
			</g>
			<g>
				<g>
					<path class="st12" d="M349.82,249.7c0.21,0.12,0.21,0.32,0,0.44l-5.55,3.22c-0.21,0.12-0.55,0.12-0.77,0l-3.31-1.91
						c-0.21-0.12-0.21-0.32,0-0.44l5.55-3.22c0.21-0.12,0.55-0.12,0.77,0L349.82,249.7z"/>
				</g>
			</g>
			<g>
				<g>
					<path class="st12" d="M357.45,235.2c0.21,0.12,0.21,0.32,0,0.44l-3.36,1.95c-0.21,0.12-0.55,0.12-0.77,0l-1.74-1.01
						c-0.21-0.12-0.21-0.32,0-0.44l3.36-1.95c0.21-0.12,0.55-0.12,0.77,0L357.45,235.2z"/>
				</g>
			</g>
		</g>
	</g>
</g>
<g>
	<path class="st13" d="M500.26,192.39l2.25-3.09c0,0-0.1-5.52,7.98-9.83c8.08-4.31,19.38-16.15,11.85-23.15
		c0,0,6.46-10.77-12.38-21.54c-18.84-10.77-32.3-11.85-38.77-7c-6.46,4.85,3.77,18.84,3.77,18.84l-1.62,21.54l8.08,17.23
		L500.26,192.39z"/>
	
		<linearGradient id="SVGID_00000049179543230579180000000014894815928826709931_" gradientUnits="userSpaceOnUse" x1="465.3885" y1="175.3294" x2="506.7819" y2="175.3294">
		<stop  offset="0" style="stop-color:#F9C2C5"/>
		<stop  offset="1" style="stop-color:#F3ABAB"/>
	</linearGradient>
	<path style="fill:url(#SVGID_00000049179543230579180000000014894815928826709931_);" d="M474.42,141.24c0,0-9.68,20.73-8.99,44.3
		c0.1,3.33,2.57,6.11,5.86,6.62l8.52,1.31l2.15,12.38l-4.31,3.23c0,0,16.69,1.62,25.31-2.15c8.61-3.77,0-9.69,0-9.69l-0.54-9.69
		c0,0-8.61,7-9.69-8.08c0,0,3.77-16.15-10.23-4.31l-2.15-3.77c0,0,1.62-6.46-0.54-9.15c-2.15-2.69-4.31-5.38,1.08-7.54
		S481.42,145.01,474.42,141.24z"/>
	<path class="st15" d="M384.14,432.74c0,0,0,10.82-6.85,11.99c-3.91,0.67-15.74-4.94-15.74-4.94s-12.73,2.6-19.18-6.02
		c-5.84-7.82,1.3-10.11,5.84-8.35c1.91,0.74,3.89,1.3,5.94,1.42c3.13,0.18,7.22-0.29,10.33-3.12L384.14,432.74z"/>
	<path class="st15" d="M470.28,421.75c0,0,6.16,8.9,1.18,13.76c-2.84,2.77-15.76,4.89-15.76,4.89s-8.99,9.38-19.19,5.96
		c-9.25-3.1-4.68-9.06,0.05-10.19c1.99-0.48,3.94-1.14,5.69-2.21c2.67-1.63,5.78-4.35,6.72-8.44L470.28,421.75z"/>
	<path class="st13" d="M435.14,295.8l8.7-6.59l-13.67,3.68c-4.29,1.16-7.86,4.14-9.76,8.16v0c-1.5,3.17-1.85,6.75-1,10.15
		l29.73,118.88c0,0,9.73,6.31,21.38-6.18l-20.37-116.17L435.14,295.8z"/>
	<path class="st13" d="M428.36,307.4l5.48,18.38l-12.53,26.98l-14.12,30.38l-23.04,49.59c-16.5,6.35-21.08-7.15-21.08-7.15
		l43.58-114.53c0.62-1.63,1.52-3.14,2.64-4.45c1.12-1.31,2.47-2.44,3.99-3.31c3.86-2.21,8.49-2.62,12.68-1.11l13.32,4.79
		L428.36,307.4z"/>
	<path class="st16" d="M423.53,331.74c0,0-0.78,9.66-2.22,21.03l-14.12,30.38c-10.04-26.75,5.39-57.03,5.39-57.03L423.53,331.74z"/>
	<g>
		
			<linearGradient id="SVGID_00000096763284785172210780000015076053441286875048_" gradientUnits="userSpaceOnUse" x1="412.576" y1="339.9881" x2="565.9152" y2="339.9881">
			<stop  offset="0.0113" style="stop-color:#E5E9EF"/>
			<stop  offset="1" style="stop-color:#D5D7E0"/>
		</linearGradient>
		<path style="fill:url(#SVGID_00000096763284785172210780000015076053441286875048_);" d="M564.29,338.29
			c2.16,1.25,2.17,3.27,0.03,4.52l-69.95,40.65c-2.15,1.25-5.64,1.25-7.8,0l-72.36-41.78c-2.16-1.25-2.17-3.27-0.03-4.52
			l69.95-40.65c2.15-1.25,5.64-1.25,7.8,0L564.29,338.29z"/>
	</g>
	<path class="st6" d="M565.92,340.09c0,0.05-0.01,0.11-0.01,0.16c-0.01,0.06-0.01,0.12-0.02,0.17c-0.01,0.05-0.02,0.09-0.04,0.14
		c-0.01,0.05-0.03,0.11-0.05,0.16c-0.02,0.05-0.04,0.09-0.06,0.13c-0.02,0.06-0.05,0.12-0.08,0.17c-0.02,0.04-0.05,0.08-0.07,0.12
		c-0.04,0.06-0.08,0.13-0.13,0.19c-0.03,0.04-0.06,0.07-0.09,0.11c-0.07,0.09-0.15,0.17-0.23,0.25c-0.03,0.03-0.06,0.06-0.09,0.09
		c-0.05,0.05-0.11,0.09-0.17,0.14c-0.05,0.04-0.1,0.08-0.16,0.12c-0.06,0.05-0.13,0.09-0.2,0.13c-0.07,0.05-0.14,0.09-0.21,0.13
		l-69.95,40.65c-0.17,0.1-0.34,0.18-0.52,0.26c-0.05,0.02-0.1,0.05-0.16,0.07c-0.14,0.06-0.29,0.11-0.43,0.16
		c-0.05,0.02-0.1,0.04-0.16,0.05c-0.09,0.03-0.19,0.06-0.28,0.08c-0.07,0.02-0.14,0.04-0.22,0.06c-0.1,0.02-0.2,0.04-0.31,0.07
		c-0.07,0.01-0.14,0.03-0.21,0.04c-0.21,0.04-0.42,0.07-0.63,0.09c-0.06,0.01-0.13,0.01-0.2,0.02c-0.12,0.01-0.25,0.02-0.37,0.02
		c-0.08,0-0.16,0.01-0.24,0.01c-0.1,0-0.2,0-0.3,0c-0.08,0-0.17,0-0.25-0.01c-0.09,0-0.19-0.01-0.28-0.01
		c-0.09-0.01-0.17-0.01-0.26-0.02c-0.09-0.01-0.18-0.02-0.27-0.03c-0.08-0.01-0.17-0.02-0.25-0.04c-0.1-0.02-0.19-0.03-0.29-0.05
		c-0.08-0.01-0.15-0.03-0.23-0.05c-0.12-0.03-0.23-0.05-0.34-0.08c-0.06-0.02-0.13-0.03-0.19-0.05c-0.2-0.06-0.4-0.13-0.59-0.2
		c-0.03-0.01-0.05-0.02-0.08-0.03c-0.26-0.11-0.51-0.22-0.75-0.36l-72.36-41.78c-1.09-0.63-1.63-1.45-1.63-2.27l-0.01,4.47
		c0,0.82,0.54,1.65,1.63,2.27l72.36,41.78c0.23,0.14,0.49,0.25,0.75,0.36c0.02,0.01,0.03,0.02,0.05,0.02c0.01,0,0.02,0.01,0.03,0.01
		c0.19,0.07,0.39,0.14,0.59,0.2c0.02,0,0.03,0.01,0.05,0.02c0.05,0.01,0.1,0.02,0.14,0.03c0.11,0.03,0.23,0.06,0.34,0.08
		c0.03,0.01,0.06,0.02,0.09,0.02c0.05,0.01,0.09,0.02,0.14,0.02c0.1,0.02,0.19,0.04,0.29,0.05c0.04,0.01,0.08,0.01,0.12,0.02
		c0.04,0.01,0.09,0.01,0.13,0.01c0.09,0.01,0.18,0.02,0.27,0.03c0.04,0,0.09,0.01,0.13,0.01c0.04,0,0.08,0,0.12,0.01
		c0.09,0.01,0.19,0.01,0.28,0.01c0.05,0,0.09,0.01,0.14,0.01c0.04,0,0.08,0,0.11,0c0.1,0,0.2,0,0.3,0c0.05,0,0.1,0,0.15,0
		c0.03,0,0.06,0,0.09-0.01c0.12-0.01,0.25-0.01,0.37-0.02c0.05,0,0.1-0.01,0.15-0.01c0.02,0,0.03,0,0.05-0.01
		c0.21-0.02,0.42-0.05,0.63-0.09c0.01,0,0.02,0,0.03,0c0.06-0.01,0.12-0.03,0.18-0.04c0.1-0.02,0.21-0.04,0.31-0.07
		c0.07-0.02,0.14-0.04,0.22-0.06c0.1-0.03,0.19-0.05,0.29-0.08c0.02-0.01,0.04-0.01,0.06-0.02c0.03-0.01,0.06-0.03,0.1-0.04
		c0.15-0.05,0.29-0.11,0.43-0.16c0.05-0.02,0.11-0.04,0.16-0.07c0.18-0.08,0.36-0.17,0.52-0.26l69.95-40.65
		c0.02-0.01,0.05-0.03,0.07-0.04c0.05-0.03,0.09-0.06,0.14-0.1c0.07-0.04,0.13-0.09,0.2-0.13c0.06-0.04,0.1-0.08,0.16-0.12
		c0.06-0.05,0.12-0.09,0.17-0.14c0.01-0.01,0.02-0.02,0.03-0.03c0.02-0.02,0.04-0.04,0.06-0.06c0.08-0.08,0.16-0.17,0.23-0.25
		c0.02-0.02,0.04-0.04,0.05-0.06c0.01-0.02,0.02-0.04,0.04-0.06c0.05-0.06,0.09-0.13,0.13-0.19c0.02-0.03,0.04-0.05,0.05-0.08
		c0.01-0.01,0.01-0.03,0.02-0.04c0.03-0.06,0.06-0.11,0.08-0.17c0.01-0.03,0.03-0.07,0.05-0.1c0-0.01,0.01-0.02,0.01-0.03
		c0.02-0.05,0.03-0.11,0.05-0.17c0.01-0.04,0.02-0.07,0.03-0.11c0-0.01,0-0.02,0-0.03c0.01-0.06,0.01-0.12,0.02-0.17
		c0-0.04,0.01-0.08,0.01-0.11c0-0.02,0-0.03,0-0.05l0,0L565.92,340.09z"/>
	<g>
		
			<linearGradient id="SVGID_00000046341117789555069340000000322090711318102688_" gradientUnits="userSpaceOnUse" x1="451.408" y1="331.7084" x2="511.7101" y2="480.9614">
			<stop  offset="0" style="stop-color:#DCEFE4"/>
			<stop  offset="0.0889" style="stop-color:#C8EBE2"/>
			<stop  offset="0.2703" style="stop-color:#96E0DD"/>
			<stop  offset="0.4951" style="stop-color:#4FD1D6"/>
			<stop  offset="0.6514" style="stop-color:#86ABE1"/>
			<stop  offset="0.8106" style="stop-color:#B788EB"/>
			<stop  offset="0.932" style="stop-color:#D673F1"/>
			<stop  offset="1" style="stop-color:#E16BF3"/>
		</linearGradient>
		<path style="fill:url(#SVGID_00000046341117789555069340000000322090711318102688_);" d="M491.38,488c-2.65,0-5.3-0.7-7.66-2.11
			l-52.48-31.32c-10.19-6.08-16.52-17.23-16.52-29.1v-76.9c0-1.09,0.59-2.1,1.55-2.64c0.96-0.53,2.13-0.51,3.06,0.07l42.94,26.57
			c1.42,0.88,1.86,2.74,0.98,4.15c-0.88,1.42-2.74,1.86-4.15,0.98l-38.34-23.72v71.48c0,9.76,5.2,18.92,13.58,23.92l52.48,31.32
			c2.77,1.65,6.23,1.68,9.02,0.07l69.05-39.83c0.66-0.38,0.73-1.01,0.73-1.27c0-0.25-0.07-0.89-0.73-1.27l-69.18-39.78
			c-0.76-0.42-7.6-4.68-5.74-18.54c0.22-1.65,1.74-2.81,3.39-2.59c1.65,0.22,2.81,1.74,2.59,3.39c-1.29,9.59,2.52,12.34,2.8,12.53
			l69.14,39.76c2.35,1.35,3.76,3.78,3.76,6.49c0,2.71-1.4,5.14-3.75,6.5L498.85,486C496.54,487.33,493.96,488,491.38,488z
			 M498.76,393.43L498.76,393.43L498.76,393.43z M498.68,393.39l0.06,0.04C498.7,393.4,498.68,393.39,498.68,393.39z"/>
	</g>
	<path class="st13" d="M480.22,325.79c-0.61,0.06-1.45-0.02-2.48-0.2c-7.21-1.31-23.61-8.13-34.89-13.06
		c-6.76-2.95-11.68-5.23-11.68-5.23l11.69-18.09l22.93,4.05l16.17,2.85l2.91,0.52C484.86,296.63,487.69,325.06,480.22,325.79z"/>
	<path class="st16" d="M477.73,325.58c-7.21-1.31-23.61-8.13-34.89-13.06l3.54-11.24l10.2,2.98c6.81,1.99,13.72-2.97,13.93-10.06
		c0-0.04,0-0.07,0-0.11l11.44,2.02C482.46,306.84,479.66,318.8,477.73,325.58z"/>
	<path class="st13" d="M544.46,313.94l7.07-1.15v2.4c0,19.57-11.77,37.22-29.83,44.74l0,0c-13.95,5.81-29.72,5.33-43.29-1.32
		l-57.29-28.07l5.11-28.27l66.28,24.56L544.46,313.94z"/>
	
		<linearGradient id="SVGID_00000116198606787837438150000009030044654471143596_" gradientUnits="userSpaceOnUse" x1="389.0272" y1="267.7487" x2="429.7747" y2="267.7487">
		<stop  offset="0" style="stop-color:#F9C2C5"/>
		<stop  offset="1" style="stop-color:#F3ABAB"/>
	</linearGradient>
	<path style="fill:url(#SVGID_00000116198606787837438150000009030044654471143596_);" d="M429.77,285.58l-14.58-18.03
		c0,0,1.55-8.92,2.83-12.1c0.64-1.59,1.47-2.96,2.14-3.93c0.62-0.91,0.46-2.14-0.38-2.84l-0.02-0.02c-0.9-0.75-2.23-0.63-2.98,0.27
		c-1,1.21-2.28,2.99-2.95,4.89c0,0-2.56-12.72-3.8-15.02c-0.73-1.36-2.43-1.96-3.7-2.22c-0.89-0.19-1.79,0.22-2.23,1.01l0,0
		c-0.51,0.93-0.24,2.11,0.66,2.68c0.45,0.29,0.88,0.63,1.16,1c0.8,1.06,1.1,4.95,1.1,4.95s-1.55-4.92-4.9-6.96
		c-0.41-0.25-0.93-0.2-1.31,0.09l-3.45,2.71c-0.72,0.57-1.18,1.4-1.28,2.31l-0.38,3.65c0,0-1.81-3.76-3-4.11
		c-0.88-0.26-2.6,2.36-3.44,3.76c-0.31,0.51-0.32,1.14-0.03,1.66l0,0c0.48,0.87,1.63,1.13,2.43,0.54l0.6-0.44
		c0,0,1.28,16.57,9.85,19.75l15.51,29.78L429.77,285.58z"/>
	<path class="st20" d="M476.03,212.07c0,0,2.61-7.07,11.88-13.17c9.28-6.1,18.54-2.25,18.54-2.25l-2.64,5.08
		C503.82,201.73,494.36,208.71,476.03,212.07z"/>
	
		<linearGradient id="SVGID_00000009574527187108214480000006500630521123533483_" gradientUnits="userSpaceOnUse" x1="446.8628" y1="227.9334" x2="556.0364" y2="307.2527">
		<stop  offset="0" style="stop-color:#DCEFE4"/>
		<stop  offset="0.0889" style="stop-color:#C8EBE2"/>
		<stop  offset="0.2703" style="stop-color:#96E0DD"/>
		<stop  offset="0.4951" style="stop-color:#4FD1D6"/>
		<stop  offset="0.6514" style="stop-color:#86ABE1"/>
		<stop  offset="0.8106" style="stop-color:#B788EB"/>
		<stop  offset="0.932" style="stop-color:#D673F1"/>
		<stop  offset="1" style="stop-color:#E16BF3"/>
	</linearGradient>
	<path style="fill:url(#SVGID_00000009574527187108214480000006500630521123533483_);" d="M551.53,312.8
		c-12.06,23.06-47.98,29.95-63.75,23.06c-4.44-1.94-7.5-4.69-9.59-7.64c-5.35-7.53-4.46-16.35-4.46-16.35
		c5.69-26.77-7.2-44.58-7.2-44.58c-3.08,12.46-13.98,34.2-19.07,44c-0.83,1.61-1.97,3.02-3.34,4.16s-2.95,2.02-4.68,2.56
		c-5.95,1.87-12.4-0.52-15.7-5.81l-7.66-12.3c0.25-8.15,3.39-11.78,6.6-13.35c3.51-1.71,7.1-0.97,7.1-0.97l16.25-54.65
		c0.58-1.96,1.48-3.82,2.65-5.5c2.3-3.3,5.58-5.78,9.37-7.1l17.98-6.28l4.64-2.29c6.36-5.57,21.73-10.52,21.73-10.52l17.32-11.14
		c6.54-4.24,16.43-10.25,27.57,37.29C558.42,272.95,551.53,312.8,551.53,312.8z"/>
	<path class="st22" d="M429.77,285.58l-2.47,11.04l-4.62-10.08C426.19,284.84,429.77,285.58,429.77,285.58z"/>
	<path class="st22" d="M478.5,311.6c0,0-1.56,8.01-0.31,16.62c-5.35-7.53-4.46-16.35-4.46-16.35c5.69-26.77-7.2-44.58-7.2-44.58
		s3.49-14,3.89-19.3C470.42,247.99,485.13,276.08,478.5,311.6z"/>
	<path class="st23" d="M416.74,295.43l6.45,10.49c0.6,0.98,1.68,1.57,2.83,1.54l0,0c1.4-0.03,2.61-0.96,3.02-2.29l21.54-70.51
		c1.44-4.73,4.1-8.99,7.7-12.37l0,0c1.98-1.85,4.21-3.41,6.63-4.63l11.1-5.59"/>
	<path class="st6" d="M571,206.02l3.5-3.05l-4.42-3.21c-0.15-0.13-0.31-0.24-0.47-0.34l-0.08-0.06l0,0.01
		c-1.16-0.69-2.67-0.81-4.03-0.01l-66.93,39.54c-1.81,1.07-3.05,2.89-3.38,4.96l-11.26,70.71c-0.68,4.29-0.94,8.63-0.76,12.97
		l2.35,59.27l5.16,2.81l0.62-7.09l70.85-41.35l-2.64-57.11c-0.21-4.62,0.06-9.24,0.82-13.8L571,206.02z"/>
	
		<linearGradient id="SVGID_00000107552405423362172920000003336769219411622799_" gradientUnits="userSpaceOnUse" x1="488.2826" y1="296.0749" x2="576.6543" y2="296.0749">
		<stop  offset="0.0113" style="stop-color:#E5E9EF"/>
		<stop  offset="1" style="stop-color:#D5D7E0"/>
	</linearGradient>
	<path style="fill:url(#SVGID_00000107552405423362172920000003336769219411622799_);" d="M490.68,389.63l-2.35-58.37
		c-0.17-4.34,0.08-8.68,0.76-12.97l11.26-70.71c0.33-2.07,1.57-3.89,3.38-4.96l66.93-39.54c2.9-1.71,6.48,0.74,5.93,4.06
		l-11.11,66.84c-0.76,4.56-1.03,9.19-0.82,13.8l2.64,57.11L490.68,389.63z"/>
</g>
<linearGradient id="SVGID_00000147903657589440957850000016956598002082183331_" gradientUnits="userSpaceOnUse" x1="297.2883" y1="190.9686" x2="351.2064" y2="190.9686">
	<stop  offset="0" style="stop-color:#C6C8D3"/>
	<stop  offset="1" style="stop-color:#B5B7C4"/>
</linearGradient>
<path style="fill:url(#SVGID_00000147903657589440957850000016956598002082183331_);" d="M351.21,187.6v2.28h-0.04
	c-0.11,0.58-0.46,1.1-0.99,1.42l-21.49,12.69c-1.04,0.61-2.2,1-3.39,1.12c-1.92,0.21-3.86-0.25-5.48-1.29l-8.74-5.57l-11.3-7.21
	l-1.31-0.84l-1.17-0.19l15.57-7.19l5.1-2.35l7.98-3.69l10.93,4.92l13.1,5.89c0.26,0.12,0.49,0.29,0.69,0.5l0.52-0.45L351.21,187.6z"
	/>
<path class="st12" d="M351.21,187.97c0,0.73-0.39,1.42-1.03,1.8l-21.49,12.69c-1.04,0.62-2.2,1-3.39,1.12
	c-1.92,0.21-3.86-0.25-5.48-1.29l-8.74-5.61l-10-6.41l-0.55-0.34l12.34-7.13l0.02-0.01l13.06-7.54l0.54,0.25h0.01l11.85,5.33
	l11.62,5.23c0.63,0.28,1.08,0.86,1.2,1.54c0,0.01,0.01,0.02,0.01,0.03C351.2,187.74,351.21,187.86,351.21,187.97z"/>
<linearGradient id="SVGID_00000027587971021176803570000010527092571117482914_" gradientUnits="userSpaceOnUse" x1="299.7674" y1="186.8772" x2="338.3452" y2="186.8772">
	<stop  offset="0" style="stop-color:#C6C8D3"/>
	<stop  offset="1" style="stop-color:#B5B7C4"/>
</linearGradient>
<polygon style="opacity:0.3;fill:url(#SVGID_00000027587971021176803570000010527092571117482914_);" points="338.35,180.83 
	336.87,181.69 311.07,196.69 311.07,198.25 299.77,191.03 301.07,190.28 317.96,180.47 326.49,175.51 326.49,175.51 "/>
<linearGradient id="SVGID_00000020372775299184592560000012097507845930031772_" gradientUnits="userSpaceOnUse" x1="244.123" y1="117.2503" x2="392.2178" y2="117.2503">
	<stop  offset="0" style="stop-color:#C6C8D3"/>
	<stop  offset="1" style="stop-color:#B5B7C4"/>
</linearGradient>
<path style="fill:url(#SVGID_00000020372775299184592560000012097507845930031772_);" d="M392.19,131.1l-1.24-13.85l-0.12,0.07
	l-8.71-93.15c-0.24-2.54-3.03-3.98-5.24-2.7L247.63,96.62c-2.37,1.38-3.73,4.01-3.48,6.75l8.62,92.15l0,0l1.35,14.79
	c0.23,2.55,3.03,3.99,5.24,2.7l129.35-75.2C391.08,136.45,392.43,133.83,392.19,131.1z"/>
<path class="st12" d="M390.22,138.45l-129.35,75.2c-2.21,1.28-5.01-0.16-5.24-2.7l-1.35-14.79l138.18-78.27l1.24,13.85
	C393.94,134.46,392.58,137.08,390.22,138.45z"/>
<path class="st13" d="M254.58,199.39l137.88-80.16l-8.83-94.42c-0.24-2.54-3.03-3.98-5.24-2.7L249.13,97.25
	c-2.37,1.38-3.73,4.01-3.48,6.75L254.58,199.39z"/>
<polygon class="st10" points="387.58,116.11 258.78,190.97 250.61,102.83 379.41,27.98 "/>
<polygon class="st12" points="299.04,114.03 261.44,135.88 259.06,110.16 296.65,88.31 "/>
<linearGradient id="SVGID_00000088848781396160546080000017008692072551558824_" gradientUnits="userSpaceOnUse" x1="292.7916" y1="109.817" x2="343.1972" y2="153.6339">
	<stop  offset="0" style="stop-color:#DCEFE4"/>
	<stop  offset="0.0889" style="stop-color:#C8EBE2"/>
	<stop  offset="0.2703" style="stop-color:#96E0DD"/>
	<stop  offset="0.4951" style="stop-color:#4FD1D6"/>
	<stop  offset="0.6514" style="stop-color:#86ABE1"/>
	<stop  offset="0.8106" style="stop-color:#B788EB"/>
	<stop  offset="0.932" style="stop-color:#D673F1"/>
	<stop  offset="1" style="stop-color:#E16BF3"/>
</linearGradient>
<polygon style="fill:url(#SVGID_00000088848781396160546080000017008692072551558824_);" points="373.7,118.54 265.65,181.33 
	262.28,144.92 370.33,82.12 "/>
<polygon class="st12" points="367.74,50.98 307.75,85.84 307.29,80.88 367.28,46.02 "/>
<polygon class="st12" points="368.81,62.62 308.82,97.49 308.36,92.52 368.35,57.65 "/>
<polygon class="st12" points="344.99,88.74 309.91,109.12 309.45,104.15 344.52,83.77 344.97,88.56 "/>
<polygon class="st10" points="348.73,110.95 288.74,145.81 288.28,140.85 348.27,105.99 "/>
<polygon class="st10" points="319.91,139.95 289.81,157.45 289.35,152.48 319.45,134.98 "/>
<g>
	<path class="st6" d="M218.14,242.38c0-0.01,0-20.79,0-20.79h-25.57l0,20.8c-0.02,1.9,1.22,3.79,3.71,5.24
		c4.98,2.87,13.07,2.86,18.08-0.03c2.49-1.44,3.75-3.32,3.77-5.2h0V242.38z"/>
	
		<linearGradient id="SVGID_00000181074951254989781560000000124854433854148025_" gradientUnits="userSpaceOnUse" x1="192.5681" y1="221.5875" x2="218.1417" y2="221.5875">
		<stop  offset="0" style="stop-color:#C6C8D3"/>
		<stop  offset="1" style="stop-color:#B5B7C4"/>
	</linearGradient>
	<path style="fill:url(#SVGID_00000181074951254989781560000000124854433854148025_);" d="M214.42,216.35
		c4.98,2.87,4.95,7.55-0.06,10.44c-5.01,2.89-13.11,2.91-18.08,0.03c-4.98-2.87-4.95-7.55,0.06-10.44
		C201.35,213.49,209.45,213.48,214.42,216.35z"/>
	<path class="st13" d="M214.42,219.78c-4.98-2.87-13.07-2.86-18.08,0.03c-1.75,1.01-2.88,2.24-3.41,3.53
		c0.53,1.27,1.63,2.48,3.35,3.48c4.98,2.87,13.07,2.86,18.08-0.03c1.75-1.01,2.88-2.24,3.41-3.53
		C217.25,221.99,216.14,220.78,214.42,219.78z"/>
	<path class="st12" d="M214.42,216.35c0.87,0.4,1.72,0.88,2.46,1.55c0.73,0.68,1.33,1.54,1.64,2.56c0.3,1.02,0.23,2.17-0.16,3.18
		c-0.38,1.02-1.06,1.87-1.8,2.6c-1.54,1.41-3.4,2.32-5.32,2.91c-1.93,0.58-3.92,0.84-5.92,0.87c-1.99-0.02-3.99-0.28-5.92-0.84
		c-1.92-0.59-3.79-1.49-5.33-2.91c-0.75-0.73-1.41-1.6-1.78-2.62c-0.38-1.02-0.42-2.17-0.1-3.18c0.33-1.01,0.95-1.87,1.68-2.54
		c0.74-0.67,1.6-1.15,2.46-1.55c-0.75,0.59-1.47,1.22-2.03,1.95c-0.55,0.73-0.97,1.54-1.09,2.38c-0.31,1.7,0.65,3.25,1.97,4.31
		c1.38,1.03,3.02,1.81,4.77,2.22c1.74,0.45,3.55,0.67,5.37,0.66c1.81,0.01,3.63-0.22,5.37-0.68c1.75-0.42,3.39-1.2,4.78-2.23
		c1.32-1.07,2.32-2.6,2.04-4.3c-0.11-0.84-0.52-1.66-1.06-2.39C215.89,217.57,215.18,216.94,214.42,216.35z"/>
	
		<linearGradient id="SVGID_00000168831647605782165090000003108816454986376619_" gradientUnits="userSpaceOnUse" x1="187.6615" y1="186.2841" x2="223.1884" y2="175.4225">
		<stop  offset="0" style="stop-color:#DCEFE4"/>
		<stop  offset="0.0889" style="stop-color:#C8EBE2"/>
		<stop  offset="0.2703" style="stop-color:#96E0DD"/>
		<stop  offset="0.4951" style="stop-color:#4FD1D6"/>
		<stop  offset="0.6514" style="stop-color:#86ABE1"/>
		<stop  offset="0.8106" style="stop-color:#B788EB"/>
		<stop  offset="0.932" style="stop-color:#D673F1"/>
		<stop  offset="1" style="stop-color:#E16BF3"/>
	</linearGradient>
	<path style="fill:url(#SVGID_00000168831647605782165090000003108816454986376619_);" d="M209.86,209.05
		c-1.9,1.86-3.29,5.12-3.94,6.9l-0.09-9.1c1.38-0.44,5.51-1.9,7.73-4.08c2.69-2.65,2.61-4.28,1.55-5.36
		c-1.06-1.08-2.69-1.19-5.38,1.45c-1.86,1.83-3.24,5.01-3.91,6.8l-0.08-7.72c1.1-0.34,5.6-1.84,7.96-4.15
		c2.69-2.65,2.61-4.28,1.55-5.36c-1.06-1.08-2.69-1.19-5.38,1.45c-2.1,2.07-3.58,5.85-4.13,7.41l-0.1-9.56
		c1.15-0.36,5.59-1.85,7.92-4.14c2.69-2.65,2.61-4.28,1.55-5.36c-1.06-1.08-2.69-1.19-5.38,1.45c-2.06,2.02-3.52,5.69-4.1,7.32
		l-0.1-9.47c1.19-0.37,5.57-1.86,7.89-4.13c2.69-2.65,2.61-4.28,1.55-5.36c-1.06-1.08-2.69-1.19-5.38,1.45
		c-2.02,1.98-3.46,5.55-4.06,7.22l-0.09-9.38c1.24-0.39,5.56-1.87,7.85-4.12c2.69-2.65,2.61-4.28,1.55-5.36
		c-1.06-1.08-2.69-1.19-5.38,1.45c-1.98,1.95-3.41,5.42-4.03,7.12l-0.08-8.33c1.28-0.41,5.55-1.87,7.82-4.11
		c2.69-2.65,2.61-4.28,1.55-5.36c-1.06-1.08-2.69-1.19-5.38,1.45c-1.95,1.92-3.36,5.31-4,7.04l-0.05-4.92
		c0.74-1.58,2.26-5.18,2.22-8.04c-0.05-3.78-1.29-4.84-2.8-4.82c-1.51,0.02-2.72,1.12-2.67,4.9c0.04,2.85,1.65,6.4,2.43,7.97
		l0.05,4.83c-0.7-1.74-2.18-5-4.15-6.83c-2.76-2.57-4.39-2.41-5.42-1.31c-1.03,1.11-1.07,2.74,1.69,5.31
		c2.3,2.14,6.53,3.49,7.88,3.88l0.08,8.07c-0.71-1.76-2.18-4.95-4.11-6.74c-2.76-2.57-4.39-2.41-5.42-1.31
		c-1.03,1.11-1.07,2.74,1.69,5.31c2.28,2.13,6.47,3.47,7.85,3.87l0.09,8.96c-0.73-1.78-2.18-4.89-4.08-6.65
		c-2.76-2.57-4.39-2.41-5.42-1.31c-1.03,1.11-1.07,2.74,1.69,5.31c2.26,2.11,6.39,3.45,7.81,3.86l0.09,8.89
		c-0.74-1.79-2.17-4.83-4.04-6.57c-2.76-2.57-4.39-2.41-5.42-1.31c-1.03,1.11-1.07,2.74,1.69,5.31c2.24,2.09,6.32,3.42,7.78,3.85
		l0.09,8.81c-0.75-1.8-2.17-4.77-4-6.48c-2.76-2.57-4.39-2.41-5.42-1.31c-1.03,1.11-1.07,2.74,1.69,5.31
		c2.23,2.07,6.26,3.4,7.74,3.84l0.08,8.19c-0.65-1.67-2.19-5.15-4.24-7.06c-2.76-2.57-4.39-2.41-5.42-1.31
		c-1.03,1.11-1.07,2.74,1.69,5.31c2.36,2.2,6.74,3.55,7.97,3.91l0.09,9.24c-0.67-1.7-2.19-5.09-4.2-6.97
		c-2.76-2.57-4.39-2.41-5.42-1.31c-1.03,1.11-1.07,2.74,1.69,5.31c2.34,2.18,6.66,3.53,7.94,3.9l0.05,5.42l0.82-0.01l-0.05-5.44
		c1.35-0.43,5.52-1.89,7.76-4.09c2.69-2.65,2.61-4.28,1.55-5.36C214.19,206.52,212.56,206.41,209.86,209.05z"/>
</g>
<g>
	<g>
		<path class="st31" d="M228.37,249.53v51.18l77.64-44.83v-52.23c0-0.26-0.11-0.49-0.28-0.65c-0.07-0.07-0.16-0.13-0.25-0.17
			c-0.25-0.12-0.56-0.12-0.83,0.04l-74.02,42.74c-0.61,0.35-1.11,0.83-1.49,1.39c-0.06,0.09-0.11,0.17-0.16,0.26c0,0,0,0,0,0
			C228.58,247.94,228.37,248.72,228.37,249.53z"/>
		<path class="st20" d="M272.68,326.29c0.7,0.41,1.49,0.61,2.27,0.61c0.78,0,1.56-0.2,2.26-0.61l74.03-42.74
			c0.3-0.17,0.45-0.48,0.45-0.78v1.81l-0.06,0.33c0,0,0,0,0,0c-0.07,0.18-0.2,0.34-0.39,0.45l-74.03,42.74
			c-0.7,0.4-1.48,0.61-2.26,0.61c-0.78,0-1.57-0.2-2.27-0.61l-44.32-25.59v-1.81L272.68,326.29z"/>
		<path class="st32" d="M351.69,282.77c0,0.3-0.15,0.61-0.45,0.78l-45.23,26.11l-28.8,16.62c-0.7,0.4-1.48,0.61-2.26,0.61
			c-0.78,0-1.57-0.2-2.27-0.61l-44.32-25.59l77.64-44.83l45.23,26.11C351.54,282.16,351.69,282.47,351.69,282.77z"/>
		<polygon class="st20" points="238.07,299.58 304.07,261.48 325.42,273.81 259.42,311.91 		"/>
		<path class="st20" d="M320.6,296.44c-0.06-0.22-0.2-0.43-0.43-0.56l-11.91-6.86c-0.28-0.16-0.62-0.16-0.91,0l-21.47,12.39
			c-0.23,0.13-0.37,0.34-0.43,0.56c-0.09-0.37,0.05-0.79,0.43-1.01l21.47-12.39c0.28-0.16,0.62-0.16,0.91,0l11.91,6.86
			C320.55,295.65,320.69,296.07,320.6,296.44z"/>
		<path class="st20" d="M320.6,296.44c-0.06,0.22-0.2,0.43-0.43,0.56l-21.47,12.4c-0.28,0.16-0.62,0.16-0.91,0l-11.91-6.86
			c-0.23-0.13-0.37-0.34-0.43-0.56c0.06-0.22,0.2-0.43,0.43-0.56l21.47-12.39c0.28-0.16,0.62-0.16,0.91,0l11.91,6.86
			C320.4,296.01,320.54,296.22,320.6,296.44z"/>
		<path class="st10" d="M233.39,293.32c-0.63,0.36-1.14,0.07-1.14-0.66v-42.2c0-0.72,0.51-1.61,1.14-1.97l67.6-39.03
			c0.63-0.36,1.14-0.07,1.14,0.66l0,42.2c0,0.72-0.51,1.61-1.14,1.97L233.39,293.32z"/>
		<path class="st20" d="M227.56,246.45c0.39-0.72,0.98-1.33,1.71-1.75l74.02-42.74c0.31-0.18,0.66-0.15,0.92,0.01
			c0.03,0.02,0.06,0.04,0.1,0.07l1.17,0.79c-0.25-0.12-0.56-0.12-0.83,0.04l-74.02,42.74c-0.7,0.4-1.27,0.98-1.65,1.66l0,0h0
			c-0.39,0.67-0.61,1.45-0.61,2.26v51.18l-1.36-0.79v-51.3C227.01,247.84,227.2,247.1,227.56,246.45z"/>
	</g>
</g>
<path class="st33" d="M125.91,43.57"/>
<g>
	<g>
		
			<linearGradient id="SVGID_00000106841193292710697930000015951153513113781664_" gradientUnits="userSpaceOnUse" x1="265.3241" y1="242.2079" x2="276.0875" y2="248.4222">
			<stop  offset="0" style="stop-color:#DCEFE4"/>
			<stop  offset="0.0889" style="stop-color:#C8EBE2"/>
			<stop  offset="0.2703" style="stop-color:#96E0DD"/>
			<stop  offset="0.4951" style="stop-color:#4FD1D6"/>
			<stop  offset="0.6514" style="stop-color:#86ABE1"/>
			<stop  offset="0.8106" style="stop-color:#B788EB"/>
			<stop  offset="0.932" style="stop-color:#D673F1"/>
			<stop  offset="1" style="stop-color:#E16BF3"/>
		</linearGradient>
		<path style="fill:url(#SVGID_00000106841193292710697930000015951153513113781664_);" d="M280.68,231.52
			c-1.12,1.59-2.29,3.85-2.28,6.34l0,0.29c0.01,1.87,0.03,5-1.62,8.8c-0.32,0.75-0.7,1.5-1.13,2.24c-1.57,2.23-3.8,4.5-6.99,6.33
			c-0.87,0.5-1.8,0.97-2.81,1.4c3.39-2.83,5.75-5.9,7.04-9.13c1.64-4.12,0.84-6.9,0.81-7.02l-0.36-1.2l-5.82,7.23l0.01,2.66
			l4.39-5.46c-0.01,0.9-0.17,2.16-0.77,3.64c-1.02,2.54-3.01,5.05-5.93,7.45c-0.74,0.61-1.46,1.12-2.16,1.52
			c-2.07,1.2-3.91,1.43-5.48,0.69c-0.02-0.01-0.04-0.02-0.06-0.03c1.72-3.77,5.73-12.2,9.97-18.4l0.01,1.89
			c0.61-1.05,1.76-2.92,3.16-4.65c1.25-1.53,2.4-2.61,3.46-3.22c1.52-0.88,2.86-0.81,4.03,0.2l0.52,0.44l0.73-0.87
			C279.46,232.61,280.02,231.95,280.68,231.52z M274.72,237.03c0.68-0.39,1.22-1.34,1.22-2.1c0-0.78-0.55-1.09-1.23-0.7
			c-0.68,0.39-1.21,1.33-1.21,2.11C273.5,237.11,274.05,237.42,274.72,237.03"/>
	</g>
	<g class="st4">
		<g>
			<path class="st13" d="M274.71,234.23c0.68-0.39,1.22-0.08,1.23,0.7c0,0.77-0.54,1.71-1.22,2.1c-0.68,0.39-1.22,0.07-1.22-0.7
				C273.5,235.56,274.04,234.62,274.71,234.23z"/>
		</g>
		<g>
			<path class="st13" d="M253.39,245.01c-0.33,6.12,1.25,10.85,4.14,12.25c0.02,0.01,0.04,0.02,0.06,0.03
				c1.57,0.74,3.4,0.5,5.48-0.69c0.69-0.4,1.41-0.91,2.16-1.52c2.92-2.4,4.91-4.91,5.93-7.45c0.6-1.48,0.76-2.74,0.77-3.64
				l-4.39,5.46l-0.01-2.66l5.82-7.23l0.36,1.2c0.03,0.12,0.83,2.9-0.81,7.02c-1.28,3.23-3.65,6.3-7.04,9.13
				c-0.07,0.06-0.13,0.11-0.2,0.17c-0.87,0.72-1.73,1.32-2.55,1.8c-0.38,0.22-0.75,0.4-1.12,0.58c-8.52,3.68-12.25,0.05-13.88-3.64
				c-1.07-2.4-1.39-5.11-1.48-6.9l2.01-1.16c0.09,1.62,0.39,4.06,1.35,6.18c0.96,2.15,2.35,3.52,4.16,4.13
				c-1.98-2.43-3-6.72-2.75-11.91L253.39,245.01z"/>
		</g>
	</g>
	<g>
		<path class="st13" d="M274.12,230.61c1.9-1.09,3.63-1.19,5.09-0.23c0.47-0.45,1.03-0.91,1.62-1.25c0.97-0.56,2.02-0.81,2.85-0.2
			c-0.17,0.24-3.3,4.85-3.29,7.78l0,0.28c0.02,3.87,0.08,13.96-14.06,24.47c1.12,0.35,2.19,1.1,2.62,2.6
			c0.7-0.37,1.38-0.71,2.07-1.03l4.96-6.56l0.01,2.73l-1.97,2.6c0.68-0.24,1.33-0.45,1.97-0.64l0.01,2.39
			c-2.64,0.66-5.62,1.93-8.67,3.69c-3.13,1.81-6.19,4.05-8.89,6.51l-0.01-2.38c2.58-2.29,5.44-4.39,8.35-6.11
			c-0.61-1.07-1.88-1.39-2.69-1.49c-0.54-0.06-0.82-0.64-0.68-1.42c0.13-0.78,0.64-1.6,1.27-2.04c5.01-3.5,8.68-7.24,10.93-11.12
			c0.43-0.74,0.81-1.49,1.13-2.24c1.65-3.8,1.63-6.93,1.62-8.8l0-0.29c-0.01-2.49,1.16-4.75,2.28-6.34
			c-0.66,0.43-1.22,1.09-1.26,1.14l-0.73,0.87l-0.52-0.44c-1.17-1.01-2.51-1.08-4.03-0.2c-1.06,0.61-2.21,1.68-3.46,3.22
			c-1.4,1.72-2.55,3.6-3.16,4.65l-0.01-1.89l0-1.19c0.62-0.94,1.36-1.99,2.18-2.99C271.22,232.78,272.72,231.42,274.12,230.61z"/>
	</g>
</g>
<g>
	
		<linearGradient id="SVGID_00000000215966397482052960000005926963770553524411_" gradientUnits="userSpaceOnUse" x1="115.0142" y1="47.2752" x2="167.9793" y2="91.7182">
		<stop  offset="0" style="stop-color:#DCEFE4"/>
		<stop  offset="0.2205" style="stop-color:#C8EBE2"/>
		<stop  offset="0.627" style="stop-color:#96E0DD"/>
		<stop  offset="1" style="stop-color:#4FD1D6"/>
	</linearGradient>
	<path style="fill:url(#SVGID_00000000215966397482052960000005926963770553524411_);" d="M167.59,17.69
		c3.17-1.83,5.74-0.36,5.75,3.27l0.17,60.2c0.01,3.64-2.54,8.06-5.71,9.89L115.4,121.3c-3.16,1.82-5.74,0.36-5.75-3.27l-0.17-60.2
		c-0.01-3.63,2.55-8.06,5.71-9.89L167.59,17.69z"/>
</g>
<g>
	<path class="st0" d="M83.59,168.69c3.17-1.83,5.74-0.36,5.75,3.27l0.17,60.2c0.01,3.64-2.54,8.06-5.71,9.89L31.4,272.3
		c-3.16,1.82-5.74,0.36-5.75-3.27l-0.17-60.2c-0.01-3.63,2.55-8.06,5.71-9.89L83.59,168.69z"/>
</g>
<path class="st33" d="M46.91,245.57"/>
<g>
	<path class="st13" d="M96.59,173.69c3.17-1.83,5.74-0.36,5.75,3.27l0.17,60.2c0.01,3.64-2.54,8.06-5.71,9.89L44.4,277.3
		c-3.16,1.82-5.74,0.36-5.75-3.27l-0.17-60.2c-0.01-3.63,2.55-8.06,5.71-9.89L96.59,173.69z"/>
</g>
<path class="st33" d="M27.91,408.57"/>
<g>
	<g>
		
			<linearGradient id="SVGID_00000083810695301319538360000014160578993116817071_" gradientUnits="userSpaceOnUse" x1="55.0325" y1="200.8915" x2="88.7462" y2="222.7855">
			<stop  offset="0" style="stop-color:#DCEFE4"/>
			<stop  offset="0.2205" style="stop-color:#C8EBE2"/>
			<stop  offset="0.627" style="stop-color:#96E0DD"/>
			<stop  offset="1" style="stop-color:#4FD1D6"/>
		</linearGradient>
		<path style="fill:url(#SVGID_00000083810695301319538360000014160578993116817071_);" d="M93.85,184.82
			c0.93-0.54,1.69-0.1,1.7,0.97l0.02,6.24c0,1.07-0.75,2.38-1.69,2.92l-5.43,3.13c-0.93,0.54-1.69,0.1-1.7-0.97l0-1.47l-6.39,3.69
			c5.6,0.18,9.37,4.64,9.65,12.04c1.69-0.42,2.93,0.65,2.94,2.76c0.01,2.55-1.79,5.68-4.02,6.97c-2.22,1.28-4.04,0.25-4.05-2.31
			c-0.01-2.15,1.27-4.7,3-6.22c-0.35-7.98-5.31-12.03-12.19-10c-0.56,2.1-2.04,4.24-3.78,5.24c-1.75,1.01-3.24,0.59-3.8-0.88
			c-6.93,5.9-11.91,15.72-12.2,24.13c1.69-0.43,2.94,0.64,2.95,2.76c0.01,2.55-1.8,5.68-4.02,6.97c-2.23,1.29-4.04,0.25-4.05-2.31
			c-0.01-2.15,1.27-4.69,2.99-6.21c0.25-7.72,3.97-16.48,9.55-23.1l-7.13,4.11l0,1.47c0,1.07-0.75,2.38-1.69,2.92l-5.42,3.13
			c-0.93,0.54-1.7,0.11-1.7-0.96l-0.02-6.24c0-1.07,0.76-2.39,1.69-2.92l5.42-3.13c0.94-0.54,1.7-0.11,1.7,0.96l0.01,2.32
			l11.86-6.85c0.51-2.17,2.03-4.41,3.83-5.45c1.8-1.04,3.33-0.56,3.85,1.01l11.01-6.35l-0.01-2.32c0-1.07,0.75-2.38,1.69-2.92
			L93.85,184.82z M93.43,192.76l-0.01-5.24l-4.56,2.63l0.01,5.24L93.43,192.76 M54.07,215.48l-0.01-5.24l-4.55,2.63l0.01,5.24
			L54.07,215.48 M71.9,205.37c1.05-0.61,1.91-2.09,1.9-3.3c0-1.21-0.86-1.7-1.92-1.09c-1.05,0.61-1.91,2.09-1.9,3.3
			C69.99,205.49,70.85,205.98,71.9,205.37 M56.73,235.05c0-1.21-0.86-1.7-1.92-1.09c-1.05,0.61-1.91,2.09-1.9,3.3
			c0,1.2,0.86,1.69,1.92,1.08C55.88,237.73,56.73,236.25,56.73,235.05 M90.82,215.37c0-1.21-0.86-1.7-1.92-1.09s-1.91,2.09-1.9,3.3
			c0,1.2,0.86,1.69,1.92,1.08C89.97,218.05,90.82,216.57,90.82,215.37"/>
	</g>
	<g>
		
			<linearGradient id="SVGID_00000062900300499828769270000013492475361007766446_" gradientUnits="userSpaceOnUse" x1="60.068" y1="230.4983" x2="82.752" y2="245.2294">
			<stop  offset="0" style="stop-color:#DCEFE4"/>
			<stop  offset="0.2205" style="stop-color:#C8EBE2"/>
			<stop  offset="0.627" style="stop-color:#96E0DD"/>
			<stop  offset="1" style="stop-color:#4FD1D6"/>
		</linearGradient>
		<path style="fill:url(#SVGID_00000062900300499828769270000013492475361007766446_);" d="M84.34,225.71l-0.51,1
			c-0.04,0.09-4.3,8.54-5.12,14.38c1.63,0.28,2.73,1.75,2.74,4.14l0.01,2l-18.9,10.91l-0.01-2c-0.01-2.41,1.09-5.16,2.74-7.32
			c-0.86-4.87-5.14-8.38-5.18-8.42L59.58,240l11.74-26.84l1.13-0.65l0.34,0.34L84.34,225.71z M76.69,241.31
			c0.88-5.25,3.81-11.72,4.99-14.2L73,217.42l0.03,9.05c1.71-0.44,2.98,0.63,2.98,2.75c0.01,2.56-1.8,5.68-4.02,6.97
			c-2.23,1.29-4.04,0.25-4.05-2.31c-0.01-2.13,1.25-4.65,2.96-6.18l-0.03-9.1l-8.63,19.74c1.19,1.1,4.14,4.18,5.06,8.39
			c0.37-0.29,0.76-0.57,1.16-0.8l7.06-4.08C75.92,241.62,76.31,241.44,76.69,241.31 M79.29,246.03c-0.2-2.08-1.82-2.86-3.78-1.73
			l-7.06,4.08c-1.96,1.13-3.57,3.77-3.76,6.08L79.29,246.03 M71.97,229.36c-1.05,0.61-1.91,2.09-1.9,3.29c0,1.21,0.86,1.7,1.92,1.09
			c1.05-0.61,1.91-2.09,1.9-3.3C73.88,229.24,73.02,228.75,71.97,229.36"/>
	</g>
</g>
<g>
	<g>
		<polygon class="st13" points="134.28,72.13 135.78,72.99 131.05,81.19 135.87,83.94 134.37,86.54 128.04,82.93 		"/>
	</g>
	<g>
		<polygon class="st13" points="148.33,64.01 154.61,67.59 148.32,78.48 146.81,77.63 151.6,69.33 146.84,66.61 		"/>
	</g>
	<g>
		<polygon class="st13" points="143.91,62.2 145.93,61.84 139.08,88.74 137.07,89.11 		"/>
	</g>
	<g>
		<path class="st13" d="M123.76,61.25c0.95-0.55,1.73-0.11,1.73,0.99c0,1.09-0.77,2.42-1.72,2.97c-0.94,0.55-1.72,0.1-1.72-0.98
			C122.04,63.13,122.81,61.79,123.76,61.25z"/>
	</g>
	<g>
		<path class="st13" d="M130.64,57.28c0.95-0.55,1.72-0.1,1.72,0.99c0,1.09-0.76,2.42-1.71,2.97s-1.72,0.1-1.72-0.98
			C128.92,59.16,129.68,57.83,130.64,57.28z"/>
	</g>
	<g>
		<path class="st13" d="M137.51,53.31c0.95-0.55,1.72-0.1,1.72,0.99c0,1.09-0.76,2.42-1.71,2.97c-0.95,0.55-1.72,0.1-1.72-0.98
			C135.8,55.19,136.56,53.86,137.51,53.31z"/>
	</g>
	<g>
		<path class="st13" d="M156.38,36.36c4.81-2.78,8.74-0.55,8.76,4.98l0.08,28.92c0.02,5.53-3.89,12.28-8.7,15.06l-30.14,17.4
			c-4.81,2.78-8.73,0.55-8.75-4.99l-0.08-28.92c-0.02-5.53,3.89-12.28,8.69-15.06L156.38,36.36z M163.09,71.49l-0.07-23.73
			l-43.33,25.01l0.07,23.73c0.01,4.18,2.98,5.87,6.62,3.77l30.14-17.4C160.15,80.78,163.1,75.67,163.09,71.49 M163.01,45.31
			L163,42.57c-0.01-4.18-2.98-5.87-6.62-3.77l-30.14,17.4c-3.63,2.1-6.59,7.2-6.57,11.39l0.01,2.74L163.01,45.31"/>
	</g>
</g>
</svg>
