<?xml version="1.0" encoding="utf-8"?>
<!-- Generator: Adobe Illustrator 26.4.1, SVG Export Plug-In . SVG Version: 6.00 Build 0)  -->
<svg version="1.1" id="Layer_1" xmlns="http://www.w3.org/2000/svg" xmlns:xlink="http://www.w3.org/1999/xlink" x="0px" y="0px"
	 viewBox="0 0 200 200" style="enable-background:new 0 0 200 200;" xml:space="preserve">
<style type="text/css">
	.st0{fill:url(#SVGID_1_);}
	.st1{fill:url(#SVGID_00000143596404545175891170000003871247046287517365_);}
	.st2{fill:url(#SVGID_00000019673119161051431840000010999453120556603838_);}
	.st3{fill:none;stroke:#FFFFFF;stroke-width:4;stroke-miterlimit:10;}
	.st4{fill:#FFFFFF;}
</style>
<linearGradient id="SVGID_1_" gradientUnits="userSpaceOnUse" x1="53.0435" y1="11.6877" x2="146.9565" y2="188.3123">
	<stop  offset="0" style="stop-color:#DAEDE2"/>
	<stop  offset="0.0889" style="stop-color:#C6E9E0"/>
	<stop  offset="0.2703" style="stop-color:#94DEDB"/>
	<stop  offset="0.4951" style="stop-color:#4FCFD4"/>
	<stop  offset="0.6514" style="stop-color:#84A9E0"/>
	<stop  offset="0.8106" style="stop-color:#B586E9"/>
	<stop  offset="0.932" style="stop-color:#D473EF"/>
	<stop  offset="1" style="stop-color:#DF6BF1"/>
</linearGradient>
<circle class="st0" cx="100" cy="100" r="100"/>
<g>
	
		<rect x="50.44" y="61.07" transform="matrix(0.7071 -0.7071 0.7071 0.7071 -34.7279 68.8064)" class="st3" width="30.51" height="30.51"/>
	<polygon class="st3" points="113.54,157 75.52,148.42 100.76,125.09 	"/>
	<path class="st3" d="M141.06,62.87c1.79,0,3.51,0.31,5.1,0.89"/>
	<path class="st3" d="M148.92,65.09c4.27,2.64,7.11,7.36,7.11,12.75c0,8.27-6.7,14.97-14.97,14.97c-8.27,0-14.97-6.7-14.97-14.97
		c0-7.23,5.13-13.27,11.95-14.67"/>
	<g>
		<path class="st3" d="M143.1,107.69c0,0-1.96,22.53-26.45,25.47"/>
		<polyline class="st3" points="133.53,112.69 143.19,106.26 149.62,115.92 		"/>
	</g>
	<g>
		<path class="st3" d="M90.7,56.48c0,0,16.65-15.31,36.71-0.94"/>
		<polyline class="st3" points="101.14,59.25 89.67,57.47 91.45,46 		"/>
	</g>
	<g>
		<path class="st3" d="M66.84,137.05c0,0-20.97-8.48-16.6-32.76"/>
		<polyline class="st3" points="64.87,126.43 68.18,137.55 57.06,140.87 		"/>
	</g>
</g>
</svg>
