<?xml version="1.0" encoding="utf-8"?>
<!-- Generator: Adobe Illustrator 26.4.1, SVG Export Plug-In . SVG Version: 6.00 Build 0)  -->
<svg version="1.1" id="Layer_1" xmlns="http://www.w3.org/2000/svg" xmlns:xlink="http://www.w3.org/1999/xlink" x="0px" y="0px"
	 viewBox="0 0 200 200" style="enable-background:new 0 0 200 200;" xml:space="preserve">
<style type="text/css">
	.st0{fill:url(#SVGID_1_);}
	.st1{fill:url(#SVGID_00000137127057521269658700000009215427519909790886_);}
	.st2{fill:url(#SVGID_00000178194039598268316150000007825592865947357878_);}
	.st3{fill:none;stroke:#FFFFFF;stroke-width:4;stroke-miterlimit:10;}
	.st4{fill:#FFFFFF;}
</style>
<linearGradient id="SVGID_1_" gradientUnits="userSpaceOnUse" x1="53.0435" y1="11.6877" x2="146.9565" y2="188.3123">
	<stop  offset="0" style="stop-color:#DAEDE2"/>
	<stop  offset="0.0889" style="stop-color:#C6E9E0"/>
	<stop  offset="0.2703" style="stop-color:#94DEDB"/>
	<stop  offset="0.4951" style="stop-color:#4FCFD4"/>
	<stop  offset="0.6514" style="stop-color:#84A9E0"/>
	<stop  offset="0.8106" style="stop-color:#B586E9"/>
	<stop  offset="0.932" style="stop-color:#D473EF"/>
	<stop  offset="1" style="stop-color:#DF6BF1"/>
</linearGradient>
<circle class="st0" cx="100" cy="100" r="100"/>
<g>
	<path class="st3" d="M128.09,94.5c0-15.79-13.3-28.46-29.3-27.44C85.1,67.93,74,79.06,73.14,92.74
		c-0.54,8.66,2.93,16.52,8.73,21.91c3.41,3.16,5.21,7.69,5.21,12.34V135h27v-8.25c0-4.62,1.92-9.02,5.29-12.18
		C124.74,109.55,128.09,102.42,128.09,94.5z"/>
	<line class="st3" x1="85.96" y1="144" x2="115.22" y2="144"/>
	<line class="st3" x1="85.96" y1="153" x2="115.22" y2="153"/>
	<line class="st3" x1="100.59" y1="55.8" x2="100.59" y2="36.56"/>
	<line class="st3" x1="130.78" y1="63.99" x2="144.39" y2="50.38"/>
	<line class="st3" x1="139.96" y1="89.18" x2="159.21" y2="89.18"/>
	<line class="st3" x1="71.21" y1="63.99" x2="57.6" y2="50.38"/>
	<line class="st3" x1="62.03" y1="89.18" x2="42.78" y2="89.18"/>
</g>
<path class="st3" d="M101,76c10.49,0,19,8.51,19,19"/>
</svg>
