<?xml version="1.0" encoding="utf-8"?>
<!-- Generator: Adobe Illustrator 26.4.1, SVG Export Plug-In . SVG Version: 6.00 Build 0)  -->
<svg version="1.1" id="Layer_1" xmlns="http://www.w3.org/2000/svg" xmlns:xlink="http://www.w3.org/1999/xlink" x="0px" y="0px"
	 viewBox="0 0 200 200" style="enable-background:new 0 0 200 200;" xml:space="preserve">
<style type="text/css">
	.st0{fill:url(#SVGID_1_);}
	.st1{fill:url(#SVGID_00000072280277065015555790000016385813273605691316_);}
	.st2{fill:url(#SVGID_00000055689761587558631800000005124576135994058658_);}
	.st3{fill:none;stroke:#FFFFFF;stroke-width:4;stroke-miterlimit:10;}
	.st4{fill:#FFFFFF;}
</style>
<linearGradient id="SVGID_1_" gradientUnits="userSpaceOnUse" x1="53.0435" y1="11.6877" x2="146.9565" y2="188.3123">
	<stop  offset="0" style="stop-color:#DAEDE2"/>
	<stop  offset="0.0889" style="stop-color:#C6E9E0"/>
	<stop  offset="0.2703" style="stop-color:#94DEDB"/>
	<stop  offset="0.4951" style="stop-color:#4FCFD4"/>
	<stop  offset="0.6514" style="stop-color:#84A9E0"/>
	<stop  offset="0.8106" style="stop-color:#B586E9"/>
	<stop  offset="0.932" style="stop-color:#D473EF"/>
	<stop  offset="1" style="stop-color:#DF6BF1"/>
</linearGradient>
<circle class="st0" cx="100" cy="100" r="100"/>
<path class="st3" d="M151.43,48H92.63c-3.54,0-6.41,2.87-6.41,6.41v28.75v16.66v16.55c0,0.15,0.18,0.22,0.29,0.12l14.79-14.79
	c1.2-1.2,2.83-1.88,4.54-1.88h45.6c3.54,0,6.41-2.87,6.41-6.41v-39C157.84,50.87,154.97,48,151.43,48z"/>
<path class="st3" d="M109.78,108.31v10.67v16.66v16.55c0,0.15-0.18,0.23-0.28,0.11l-14.79-14.79c-1.21-1.2-2.84-1.88-4.54-1.88
	H44.58c-3.54,0-6.42-2.87-6.42-6.42V90.23c0-3.54,2.87-6.42,6.42-6.42h41.64"/>
<circle class="st4" cx="59.36" cy="109.72" r="3.3"/>
<circle class="st4" cx="74.44" cy="109.72" r="3.3"/>
<g>
	<path class="st3" d="M116.74,68.22c0-3.96,3.21-7.18,7.18-7.18s7.18,3.21,7.18,7.18s-3.21,7.18-7.18,7.18v6.52"/>
	<line class="st3" x1="123.91" y1="88.52" x2="123.91" y2="84.61"/>
</g>
</svg>
