<?xml version="1.0" encoding="utf-8"?>
<!-- Generator: Adobe Illustrator 26.4.1, SVG Export Plug-In . SVG Version: 6.00 Build 0)  -->
<svg version="1.1" xmlns="http://www.w3.org/2000/svg" xmlns:xlink="http://www.w3.org/1999/xlink" x="0px" y="0px"
	 viewBox="0 0 555 530" style="enable-background:new 0 0 555 530;" xml:space="preserve">
<style type="text/css">
	.st0{fill:url(#SVGID_1_);}
	.st1{fill:#3C4451;}
	.st2{fill:#727A87;}
</style>
<g id="Layer_1">
</g>
<g id="Layer_2">
</g>
<g id="Layer_3">
	<linearGradient id="SVGID_1_" gradientUnits="userSpaceOnUse" x1="266.2491" y1="64.0771" x2="362.8657" y2="183.3886">
		<stop  offset="0" style="stop-color:#DCEFE4"/>
		<stop  offset="0.0889" style="stop-color:#C8EBE2"/>
		<stop  offset="0.2703" style="stop-color:#96E0DD"/>
		<stop  offset="0.4951" style="stop-color:#4FD1D6"/>
		<stop  offset="0.6514" style="stop-color:#86ABE1"/>
		<stop  offset="0.8106" style="stop-color:#B788EB"/>
		<stop  offset="0.932" style="stop-color:#D673F1"/>
		<stop  offset="1" style="stop-color:#E16BF3"/>
	</linearGradient>
	<path class="st0" d="M401.29,118.12c0,0-11.17,142.98-227.87,55.85c0,0,100.53-151.91,173.14-150.8
		c42.97,0.66,53.62,24.15,53.62,24.15s15.1-6.12,33.77-0.69C433.94,46.64,404.6,65.21,401.29,118.12z"/>
	<g>
		<path class="st1" d="M445.72,45.61c-13.43-15.33-32.39-14.12-44.95-9.96C375.22,8.3,341.44,4.5,304.89,25.14
			c-8.29,4.67-15.75,10.03-22,15.1V67.3c6.14-6.12,17.74-16.69,31.88-24.66c30.7-17.31,55.34-13.6,75.33,11.39l5.25,6.48l7.35-3.91
			c0.42-0.2,6.05-3.15,12.71-3.57c-11.24,8.29-23.05,22.16-23.05,43.88v2.57c0.07,16.4,0.13,43.83-16.49,68.7
			c-20.55,30.74-61.43,49.53-121.48,55.87c-6.3,0.67-11.46,5.25-12.82,11.44c-1.39,6.19,1.34,12.58,6.79,15.86
			c8.16,4.94,20.91,14.2,26.98,26.6c-29.33,0.42-58.13,4.28-84.03,11.26v20.83c27.05-7.89,57.93-12.07,89.36-12.07
			c30.57,0,60.61,3.98,87.13,11.46v-20.85c-6.44-1.66-13.05-3.14-19.79-4.43l19.79-12.74v-23.91l-50.04,32.22
			c-6.87-0.69-13.82-1.17-20.81-1.48c-4.3-15.27-15.07-27.21-26.31-35.97C412.84,221.8,412.57,133.36,412.46,99.42V96.9
			C412.46,71.34,445.72,45.61,445.72,45.61z"/>
		<circle class="st1" cx="355.49" cy="58.92" r="12.29"/>
		<path class="st1" d="M226.9,202.77c3.66,0.38,7.39,0.6,11.19,0.6c8.31,0,16.89-0.94,25.67-2.81
			c35.19-7.53,59.74-22.59,72.98-44.75c16.58-27.75,8.65-56.05,8.29-57.24l-3.57-12.33l-58.58,33.8v23.23l44.21-25.53
			c-0.11,7.84-1.76,18.05-7.77,27.99c-10.3,17.05-30.4,28.86-59.76,35.16c-29.94,6.41-55.74-0.04-76.72-19.15
			c-29.38-26.79-45.26-76.36-41.8-128.52h-20.11c-2.64,44.01,7.39,86.59,27.23,117.87c-18.16-14.45-32.1-33.49-41.69-57.03
			C96.95,70.67,94,47.86,93.15,33.23H72.98c0.8,16.06,3.98,41.31,14.61,67.71c16.29,40.46,53.66,90.99,139.29,101.98L226.9,202.77z"
			/>
	</g>
	<g>
		<path class="st1" d="M61.18,440.32H45.59v-60.53H25.63v-12.97h55.5v12.97H61.18V440.32z"/>
		<path class="st1" d="M92.45,440.32v-73.5h15.59v73.5H92.45z"/>
		<path class="st1" d="M150.01,366.82c9.49,0,16.41,2.04,20.76,6.11c4.36,4.07,6.53,9.68,6.53,16.82c0,3.22-0.49,6.29-1.46,9.23
			c-0.97,2.93-2.55,5.54-4.75,7.82c-2.2,2.28-5.12,4.08-8.77,5.4c-3.65,1.33-8.16,1.99-13.52,1.99h-6.69v26.14h-15.59v-73.5H150.01z
			 M149.21,379.59h-7.09v21.82h5.13c2.92,0,5.45-0.39,7.59-1.16c2.14-0.77,3.8-1.98,4.98-3.62c1.17-1.64,1.76-3.75,1.76-6.34
			c0-3.62-1.01-6.31-3.02-8.07C156.55,380.47,153.43,379.59,149.21,379.59z"/>
		<path class="st1" d="M236.19,440.32l-5.33-17.5h-26.8l-5.33,17.5h-16.79l25.94-73.8h19.06l26.04,73.8H236.19z M227.14,409.75
			l-5.33-17.09c-0.34-1.14-0.78-2.61-1.33-4.4c-0.55-1.79-1.11-3.62-1.66-5.48c-0.55-1.86-1-3.48-1.33-4.85
			c-0.34,1.37-0.8,3.08-1.38,5.1c-0.59,2.03-1.15,3.95-1.68,5.76c-0.54,1.81-0.92,3.1-1.15,3.87l-5.28,17.09H227.14z"/>
		<path class="st1" d="M290.59,440.32H275v-60.53h-19.96v-12.97h55.5v12.97h-19.96V440.32z"/>
		<path class="st1" d="M366.85,440.32l-5.33-17.5h-26.8l-5.33,17.5h-16.79l25.94-73.8h19.06l26.04,73.8H366.85z M357.8,409.75
			l-5.33-17.09c-0.34-1.14-0.78-2.61-1.33-4.4c-0.55-1.79-1.11-3.62-1.66-5.48s-1-3.48-1.33-4.85c-0.34,1.37-0.8,3.08-1.38,5.1
			c-0.59,2.03-1.15,3.95-1.68,5.76c-0.54,1.81-0.92,3.1-1.15,3.87l-5.28,17.09H357.8z"/>
		<path class="st1" d="M453.13,440.32h-15.53V408.6h-29.11v31.72H392.9v-73.5h15.59v28.81h29.11v-28.81h15.53V440.32z"/>
		<path class="st1" d="M516.67,440.32l-5.33-17.5h-26.8l-5.33,17.5h-16.79l25.94-73.8h19.06l26.04,73.8H516.67z M507.62,409.75
			l-5.33-17.09c-0.33-1.14-0.78-2.61-1.33-4.4c-0.55-1.79-1.1-3.62-1.66-5.48s-1-3.48-1.33-4.85c-0.34,1.37-0.8,3.08-1.38,5.1
			c-0.59,2.03-1.15,3.95-1.68,5.76c-0.54,1.81-0.92,3.1-1.16,3.87l-5.28,17.09H507.62z"/>
	</g>
	<g>
		<path class="st2" d="M124.54,471.64c-1.52,0-2.87,0.27-4.06,0.82c-1.19,0.55-2.2,1.34-3.02,2.37s-1.45,2.28-1.88,3.75
			s-0.65,3.12-0.65,4.95c0,2.46,0.35,4.57,1.04,6.34c0.69,1.77,1.75,3.13,3.16,4.07c1.42,0.95,3.21,1.42,5.37,1.42
			c1.34,0,2.65-0.13,3.92-0.39c1.27-0.26,2.58-0.61,3.94-1.06v4.42c-1.29,0.51-2.58,0.87-3.9,1.11c-1.31,0.23-2.83,0.35-4.55,0.35
			c-3.23,0-5.92-0.67-8.05-2.01c-2.13-1.34-3.72-3.23-4.77-5.68c-1.05-2.44-1.57-5.3-1.57-8.58c0-2.4,0.33-4.59,1-6.59
			c0.66-1.99,1.63-3.71,2.9-5.17c1.27-1.45,2.84-2.57,4.71-3.36c1.87-0.79,4.01-1.18,6.42-1.18c1.59,0,3.15,0.18,4.69,0.53
			c1.54,0.35,2.96,0.86,4.28,1.51l-1.82,4.29c-1.1-0.52-2.25-0.97-3.44-1.34C127.07,471.83,125.83,471.64,124.54,471.64z"/>
		<path class="st2" d="M150.8,474.91c0.4,0,0.84,0.02,1.32,0.07c0.48,0.04,0.89,0.1,1.23,0.17l-0.48,4.77
			c-0.3-0.09-0.67-0.15-1.12-0.2c-0.44-0.04-0.83-0.07-1.18-0.07c-0.91,0-1.78,0.15-2.6,0.44c-0.82,0.3-1.55,0.74-2.19,1.34
			c-0.64,0.6-1.13,1.35-1.49,2.24c-0.36,0.9-0.54,1.94-0.54,3.12v12.54h-5.11v-23.98h3.99l0.69,4.22h0.24
			c0.48-0.85,1.07-1.63,1.78-2.34c0.71-0.71,1.52-1.27,2.44-1.7C148.69,475.12,149.7,474.91,150.8,474.91z"/>
		<path class="st2" d="M167.35,474.91c2.14,0,3.97,0.44,5.5,1.32c1.53,0.88,2.71,2.13,3.53,3.75c0.82,1.62,1.23,3.55,1.23,5.81v2.73
			h-16.01c0.06,2.33,0.68,4.12,1.87,5.37c1.19,1.26,2.86,1.88,5.01,1.88c1.53,0,2.91-0.15,4.13-0.44c1.22-0.3,2.48-0.73,3.78-1.31
			v4.14c-1.2,0.56-2.42,0.97-3.66,1.23c-1.24,0.26-2.73,0.39-4.46,0.39c-2.35,0-4.42-0.46-6.21-1.38c-1.78-0.92-3.18-2.28-4.18-4.1
			c-1-1.82-1.51-4.08-1.51-6.78c0-2.69,0.46-4.97,1.36-6.85c0.91-1.88,2.19-3.31,3.83-4.29
			C163.23,475.4,165.15,474.91,167.35,474.91z M167.35,478.74c-1.6,0-2.9,0.52-3.89,1.56c-0.99,1.04-1.57,2.56-1.74,4.57h10.92
			c-0.01-1.2-0.21-2.26-0.6-3.18c-0.38-0.92-0.96-1.65-1.73-2.17C169.53,479,168.54,478.74,167.35,478.74z"/>
		<path class="st2" d="M192.75,474.91c3.03,0,5.33,0.67,6.88,2.01c1.55,1.34,2.33,3.44,2.33,6.28v16.14h-3.62l-0.98-3.4h-0.17
			c-0.68,0.87-1.38,1.58-2.1,2.15c-0.72,0.56-1.56,0.99-2.5,1.27c-0.95,0.28-2.1,0.42-3.45,0.42c-1.43,0-2.71-0.26-3.83-0.79
			c-1.13-0.53-2.01-1.33-2.66-2.41c-0.65-1.08-0.97-2.45-0.97-4.12c0-2.47,0.92-4.32,2.76-5.57s4.62-1.93,8.35-2.06l4.16-0.15v-1.26
			c0-1.66-0.39-2.84-1.16-3.55c-0.77-0.71-1.86-1.06-3.26-1.06c-1.2,0-2.36,0.17-3.49,0.52c-1.13,0.35-2.22,0.77-3.29,1.28
			l-1.65-3.6c1.17-0.62,2.5-1.13,4-1.52S191.14,474.91,192.75,474.91z M196.91,487.88l-3.1,0.11c-2.54,0.09-4.33,0.52-5.35,1.3
			c-1.03,0.78-1.54,1.85-1.54,3.21c0,1.18,0.35,2.05,1.06,2.59c0.71,0.54,1.64,0.81,2.79,0.81c1.76,0,3.22-0.5,4.39-1.51
			c1.16-1,1.74-2.48,1.74-4.43V487.88z"/>
		<path class="st2" d="M218.01,495.66c0.66,0,1.32-0.06,1.97-0.18c0.65-0.12,1.24-0.27,1.78-0.44v3.86
			c-0.56,0.25-1.29,0.46-2.19,0.63c-0.9,0.17-1.83,0.26-2.79,0.26c-1.36,0-2.58-0.23-3.66-0.68c-1.08-0.45-1.94-1.24-2.58-2.35
			c-0.64-1.11-0.95-2.65-0.95-4.61v-12.89h-3.27v-2.27l3.51-1.8l1.67-5.13h3.21v5.33h6.87v3.88h-6.87v12.82
			c0,1.21,0.3,2.12,0.91,2.71C216.21,495.36,217.01,495.66,218.01,495.66z"/>
		<path class="st2" d="M229.21,466.18c0.78,0,1.45,0.21,2.03,0.63c0.57,0.42,0.86,1.14,0.86,2.17c0,1.01-0.29,1.73-0.86,2.16
			c-0.57,0.43-1.25,0.64-2.03,0.64c-0.81,0-1.49-0.21-2.05-0.64c-0.56-0.43-0.83-1.14-0.83-2.16c0-1.02,0.28-1.75,0.83-2.17
			C227.72,466.39,228.4,466.18,229.21,466.18z M231.72,475.36v23.98h-5.09v-23.98H231.72z"/>
		<path class="st2" d="M244.48,499.34l-9.12-23.98h5.39l4.94,14.08c0.32,0.89,0.61,1.86,0.87,2.9s0.44,1.91,0.54,2.62h0.17
			c0.1-0.74,0.3-1.62,0.58-2.65c0.29-1.03,0.59-1.99,0.89-2.87l4.94-14.08h5.37l-9.12,23.98H244.48z"/>
		<path class="st2" d="M272.25,474.91c2.14,0,3.97,0.44,5.5,1.32c1.53,0.88,2.71,2.13,3.53,3.75c0.82,1.62,1.23,3.55,1.23,5.81v2.73
			h-16.01c0.06,2.33,0.68,4.12,1.87,5.37c1.19,1.26,2.86,1.88,5.01,1.88c1.53,0,2.91-0.15,4.13-0.44c1.22-0.3,2.48-0.73,3.78-1.31
			v4.14c-1.2,0.56-2.42,0.97-3.66,1.23c-1.24,0.26-2.73,0.39-4.46,0.39c-2.35,0-4.42-0.46-6.21-1.38c-1.78-0.92-3.18-2.28-4.18-4.1
			c-1-1.82-1.51-4.08-1.51-6.78c0-2.69,0.46-4.97,1.36-6.85c0.91-1.88,2.19-3.31,3.83-4.29
			C268.13,475.4,270.06,474.91,272.25,474.91z M272.25,478.74c-1.6,0-2.9,0.52-3.89,1.56c-0.99,1.04-1.57,2.56-1.74,4.57h10.92
			c-0.01-1.2-0.21-2.26-0.6-3.18c-0.38-0.92-0.96-1.65-1.73-2.17C274.43,479,273.45,478.74,272.25,478.74z"/>
		<path class="st2" d="M319.93,499.34l-3.1-8.79h-12.11l-3.1,8.79h-5.48l11.78-31.8h5.76l11.76,31.8H319.93z M315.49,486.09
			l-3.01-8.66c-0.12-0.37-0.28-0.91-0.5-1.59c-0.22-0.69-0.43-1.39-0.65-2.1c-0.22-0.72-0.4-1.32-0.54-1.81
			c-0.15,0.59-0.32,1.25-0.53,1.98c-0.21,0.73-0.41,1.41-0.61,2.05s-0.34,1.13-0.44,1.47l-3.03,8.66H315.49z"/>
		<path class="st2" d="M335.96,510c-3.25,0-5.74-0.59-7.47-1.76c-1.73-1.17-2.6-2.81-2.6-4.92c0-1.47,0.46-2.72,1.39-3.74
			s2.25-1.72,3.96-2.11c-0.65-0.29-1.21-0.74-1.68-1.35c-0.47-0.61-0.7-1.3-0.7-2.05c0-0.9,0.25-1.66,0.76-2.3
			c0.51-0.64,1.26-1.25,2.28-1.84c-1.26-0.53-2.26-1.4-3.02-2.61c-0.76-1.21-1.14-2.62-1.14-4.26c0-1.73,0.37-3.21,1.1-4.43
			c0.74-1.22,1.81-2.15,3.23-2.79c1.41-0.64,3.13-0.96,5.13-0.96c0.43,0,0.91,0.03,1.42,0.08c0.51,0.05,0.99,0.11,1.43,0.17
			c0.44,0.07,0.78,0.13,1.01,0.21h8.3v2.84l-4.07,0.76c0.39,0.55,0.7,1.17,0.93,1.87c0.23,0.7,0.35,1.46,0.35,2.28
			c0,2.48-0.86,4.44-2.57,5.86c-1.71,1.42-4.07,2.13-7.07,2.13c-0.72-0.03-1.42-0.09-2.1-0.17c-0.52,0.32-0.92,0.67-1.19,1.05
			c-0.27,0.38-0.41,0.81-0.41,1.29c0,0.39,0.14,0.7,0.41,0.94c0.27,0.24,0.68,0.42,1.22,0.53c0.54,0.12,1.2,0.17,1.98,0.17h4.14
			c2.63,0,4.64,0.56,6.02,1.67c1.39,1.11,2.08,2.74,2.08,4.9c0,2.73-1.13,4.83-3.38,6.31C343.43,509.26,340.19,510,335.96,510z
			 M336.15,506.43c1.78,0,3.27-0.17,4.48-0.52c1.21-0.35,2.13-0.84,2.75-1.48c0.62-0.64,0.93-1.41,0.93-2.29
			c0-0.78-0.2-1.38-0.59-1.8s-0.97-0.71-1.75-0.87c-0.78-0.16-1.75-0.24-2.9-0.24h-3.77c-0.94,0-1.77,0.15-2.49,0.44
			c-0.72,0.3-1.28,0.73-1.68,1.29c-0.4,0.56-0.6,1.24-0.6,2.04c0,1.1,0.49,1.94,1.46,2.54
			C332.98,506.13,334.36,506.43,336.15,506.43z M337.15,487.75c1.49,0,2.59-0.41,3.31-1.22c0.72-0.82,1.08-1.97,1.08-3.45
			c0-1.62-0.37-2.83-1.12-3.64s-1.84-1.21-3.3-1.21c-1.43,0-2.52,0.41-3.26,1.23c-0.74,0.82-1.12,2.04-1.12,3.66
			c0,1.46,0.37,2.6,1.12,3.41S335.7,487.75,337.15,487.75z"/>
		<path class="st2" d="M363.25,474.91c2.14,0,3.97,0.44,5.5,1.32c1.53,0.88,2.71,2.13,3.53,3.75c0.82,1.62,1.23,3.55,1.23,5.81v2.73
			h-16.01c0.06,2.33,0.68,4.12,1.87,5.37c1.19,1.26,2.86,1.88,5.01,1.88c1.53,0,2.91-0.15,4.13-0.44c1.22-0.3,2.48-0.73,3.78-1.31
			v4.14c-1.2,0.56-2.42,0.97-3.66,1.23c-1.24,0.26-2.73,0.39-4.46,0.39c-2.35,0-4.42-0.46-6.21-1.38c-1.78-0.92-3.18-2.28-4.18-4.1
			c-1-1.82-1.51-4.08-1.51-6.78c0-2.69,0.46-4.97,1.36-6.85c0.91-1.88,2.19-3.31,3.83-4.29
			C359.13,475.4,361.05,474.91,363.25,474.91z M363.25,478.74c-1.6,0-2.9,0.52-3.89,1.56c-0.99,1.04-1.57,2.56-1.74,4.57h10.92
			c-0.01-1.2-0.21-2.26-0.6-3.18c-0.38-0.92-0.96-1.65-1.73-2.17C365.43,479,364.45,478.74,363.25,478.74z"/>
		<path class="st2" d="M391.75,474.91c2.7,0,4.8,0.7,6.31,2.09c1.51,1.39,2.26,3.63,2.26,6.7v15.64h-5.09v-14.69
			c0-1.86-0.38-3.26-1.15-4.19c-0.77-0.93-1.95-1.4-3.55-1.4c-2.33,0-3.94,0.71-4.84,2.14c-0.9,1.43-1.35,3.5-1.35,6.22v11.91h-5.09
			v-23.98h3.96l0.72,3.25h0.28c0.52-0.84,1.17-1.53,1.94-2.07c0.77-0.54,1.64-0.95,2.6-1.22
			C389.71,475.05,390.71,474.91,391.75,474.91z"/>
		<path class="st2" d="M417.1,499.78c-2.27,0-4.23-0.44-5.89-1.32c-1.66-0.88-2.94-2.23-3.83-4.05c-0.9-1.82-1.34-4.13-1.34-6.93
			c0-2.92,0.49-5.3,1.47-7.15c0.98-1.85,2.34-3.21,4.08-4.09c1.74-0.88,3.74-1.32,5.99-1.32c1.43,0,2.73,0.14,3.89,0.42
			c1.16,0.28,2.15,0.62,2.96,1.03l-1.52,4.07c-0.88-0.36-1.78-0.66-2.71-0.91c-0.92-0.24-1.81-0.37-2.67-0.37
			c-1.4,0-2.57,0.31-3.5,0.93c-0.93,0.62-1.63,1.54-2.08,2.77c-0.46,1.23-0.68,2.75-0.68,4.57c0,1.76,0.23,3.25,0.69,4.45
			c0.46,1.21,1.15,2.12,2.06,2.73c0.91,0.61,2.03,0.92,3.36,0.92c1.31,0,2.49-0.16,3.53-0.48c1.04-0.32,2.02-0.73,2.95-1.23v4.42
			c-0.91,0.52-1.88,0.91-2.92,1.16C419.89,499.65,418.61,499.78,417.1,499.78z"/>
		<path class="st2" d="M425.85,475.36h5.55l4.92,13.69c0.22,0.62,0.41,1.23,0.6,1.83c0.18,0.6,0.34,1.19,0.48,1.77
			c0.14,0.58,0.25,1.16,0.34,1.73h0.13c0.14-0.75,0.35-1.59,0.62-2.52c0.27-0.93,0.57-1.87,0.9-2.8l4.72-13.69h5.48l-10.29,27.27
			c-0.59,1.56-1.32,2.89-2.18,4c-0.86,1.11-1.87,1.94-3.04,2.51c-1.17,0.57-2.51,0.86-4.01,0.86c-0.72,0-1.35-0.04-1.89-0.12
			c-0.53-0.08-0.99-0.16-1.36-0.25v-4.07c0.3,0.07,0.69,0.14,1.15,0.2c0.46,0.06,0.94,0.09,1.43,0.09c0.91,0,1.7-0.18,2.36-0.54
			c0.66-0.36,1.23-0.87,1.69-1.53c0.46-0.66,0.84-1.4,1.15-2.24l0.85-2.25L425.85,475.36z"/>
	</g>
</g>
</svg>
