<?xml version="1.0" encoding="utf-8"?>
<!-- Generator: Adobe Illustrator 26.4.1, SVG Export Plug-In . SVG Version: 6.00 Build 0)  -->
<svg version="1.1" id="Layer_1" xmlns="http://www.w3.org/2000/svg" xmlns:xlink="http://www.w3.org/1999/xlink" x="0px" y="0px"
	 viewBox="0 0 500 500" style="enable-background:new 0 0 500 500;" xml:space="preserve">
<style type="text/css">
	.st0{fill:url(#SVGID_1_);}
	.st1{opacity:0.5;}
	.st2{fill:#FFFFFF;}
	.st3{fill:none;stroke:#FFFFFF;stroke-width:2;stroke-miterlimit:10;}
	.st4{fill:url(#SVGID_00000168119196433474530710000014943984913963706284_);}
	.st5{fill:url(#SVGID_00000015317885147519471420000016821427624171011985_);}
	.st6{fill:url(#SVGID_00000030480648863535470650000017016765215113384848_);}
	.st7{fill:url(#SVGID_00000017505143199008729750000006872652373951342987_);}
	.st8{clip-path:url(#SVGID_00000087390790923447678870000003264464996289655735_);}
	.st9{fill:#3D3D3D;}
	.st10{fill:url(#SVGID_00000097477857099868877580000006674342975897140653_);}
	.st11{fill:#CC4C4C;}
	.st12{fill:url(#SVGID_00000023240727674601452480000014528939065391999676_);}
	.st13{fill:#EDB28A;}
	.st14{fill:#F9BF98;}
	.st15{fill:none;stroke:#EEB54C;stroke-width:0.5;stroke-miterlimit:10;}
	.st16{fill:#763634;}
	.st17{fill:#000100;}
	.st18{fill:url(#SVGID_00000019656117230403426040000007125877578060882817_);}
	.st19{fill:none;stroke:#CC4C4C;stroke-miterlimit:10;}
	.st20{fill:#F5DDD2;}
	.st21{fill:url(#SVGID_00000107565347530770844750000013288597859957189279_);}
	.st22{fill:url(#SVGID_00000002385746067547876290000011102712199225513105_);}
</style>
<linearGradient id="SVGID_1_" gradientUnits="userSpaceOnUse" x1="144.3203" y1="23.3707" x2="355.679" y2="476.631">
	<stop  offset="0" style="stop-color:#DCEFE4"/>
	<stop  offset="0.073" style="stop-color:#C8EBE2"/>
	<stop  offset="0.222" style="stop-color:#96E0DD"/>
	<stop  offset="0.4065" style="stop-color:#4FD1D6"/>
	<stop  offset="0.5903" style="stop-color:#86ABE1"/>
	<stop  offset="0.7774" style="stop-color:#B788EB"/>
	<stop  offset="0.9201" style="stop-color:#D673F1"/>
	<stop  offset="1" style="stop-color:#E16BF3"/>
</linearGradient>
<path class="st0" d="M500,250c0,138.07-111.93,250-250,250c-75.25,0-142.74-33.25-188.57-85.86c-6.27-7.19-12.13-14.75-17.54-22.63
	c-5.64-8.19-10.8-16.73-15.44-25.58c-0.04-0.07-0.08-0.15-0.11-0.22c-4.32-8.24-8.19-16.75-11.57-25.51
	c-0.92-2.36-1.8-4.75-2.65-7.15c-2.5-7.1-4.69-14.35-6.54-21.72c-0.05-0.19-0.09-0.38-0.14-0.57c-2.28-9.11-4.05-18.42-5.29-27.9
	c-0.35-2.61-0.65-5.23-0.91-7.86c-0.8-7.97-1.21-16.05-1.24-24.22V250c0-10.65,0.66-21.14,1.95-31.44c0.29-2.27,0.6-4.53,0.95-6.78
	c1.39-9.05,3.26-17.94,5.6-26.64c0.32-1.17,0.64-2.35,0.97-3.51c3.72-13.12,8.47-25.79,14.18-37.93c0.37-0.77,0.73-1.54,1.1-2.3
	C65.17,57.73,150.85,0,250,0C388.07,0,500,111.93,500,250z"/>
<g class="st1">
	<path class="st2" d="M116.52,130L9.47,181.63c3.72-13.12,8.47-25.79,14.18-37.93l80.7-38.92L116.52,130z"/>
	<path class="st2" d="M141.71,182.24L0,250.59V250c0-10.65,0.66-21.14,1.95-31.44l127.6-61.54L141.71,182.24z"/>
	<path class="st2" d="M166.91,234.48L7.58,311.33c-0.05-0.19-0.09-0.38-0.14-0.57c-2.28-9.11-4.05-18.42-5.29-27.9l152.6-73.6
		L166.91,234.48z"/>
	<path class="st2" d="M192.11,286.72L28.34,365.71c-4.32-8.24-8.19-16.75-11.57-25.51l163.17-78.7L192.11,286.72z"/>
</g>
<circle class="st3" cx="250" cy="250" r="220"/>
<g>
	<defs>
		<circle id="SVGID_00000040576722240459038870000018012388870547456135_" cx="250" cy="250" r="250"/>
	</defs>
	<clipPath id="SVGID_00000038380980906678622630000008474244545008983732_">
		<use xlink:href="#SVGID_00000040576722240459038870000018012388870547456135_"  style="overflow:visible;"/>
	</clipPath>
	<g style="clip-path:url(#SVGID_00000038380980906678622630000008474244545008983732_);">
		<path class="st9" d="M160.57,207.53c0,0-18.68-69.25,17.42-87.43c0,0,9.65-35.52,74.8-37.93c65.16-2.41,67.97,22.36,66.25,25.8
			c0,0,36.04,10.13,31.09,90.38L160.57,207.53z"/>
		
			<linearGradient id="SVGID_00000164499173839093276500000008367192418643975554_" gradientUnits="userSpaceOnUse" x1="180.3869" y1="325.5842" x2="331.7898" y2="325.5842">
			<stop  offset="0" style="stop-color:#FFA994"/>
			<stop  offset="0.4658" style="stop-color:#FA9589"/>
			<stop  offset="1" style="stop-color:#F37A7A"/>
		</linearGradient>
		<path style="fill:url(#SVGID_00000164499173839093276500000008367192418643975554_);" d="M331.79,323.23
			c0,30.35-33.89,54.96-75.7,54.96s-75.7-24.61-75.7-54.96c0-30.35,33.89-50.26,75.7-50.26S331.79,292.88,331.79,323.23z"/>
		<path class="st11" d="M312.66,323.83c0,22.68-25.33,41.07-56.57,41.07s-56.57-18.39-56.57-41.07c0-22.68,25.33-37.56,56.57-37.56
			S312.66,301.15,312.66,323.83z"/>
		
			<linearGradient id="SVGID_00000150067407269163393430000016987952315149721271_" gradientUnits="userSpaceOnUse" x1="101.8433" y1="431.6678" x2="410.9298" y2="431.6678">
			<stop  offset="0" style="stop-color:#FFA994"/>
			<stop  offset="0.4658" style="stop-color:#FA9589"/>
			<stop  offset="1" style="stop-color:#F37A7A"/>
		</linearGradient>
		<path style="fill:url(#SVGID_00000150067407269163393430000016987952315149721271_);" d="M314.07,308.63l-17.04,17.21h-78.37
			l-15.09-19.5C96.32,338.93,101.89,478.89,101.89,481.82L409.18,557C409.18,557,431.86,348.55,314.07,308.63z"/>
		<g>
			<rect x="151.57" y="415.65" class="st11" width="2.72" height="66.17"/>
		</g>
		<g>
			<rect x="359.63" y="415.65" class="st11" width="2.72" height="122.48"/>
		</g>
		<g>
			<path class="st13" d="M226.45,270.36l1.49,17.8c18.86,4.87,38.32,5.46,56.31,1.55l0.33-25.45L226.45,270.36z"/>
			<path class="st14" d="M227.94,288.16l2.26,27.04c0,0,3.79,24.82,25.89,24.82c24.77,0,27.82-24.82,27.82-24.82l0.33-25.49
				C266.25,293.62,246.8,293.03,227.94,288.16z"/>
		</g>
		<g>
			<path class="st9" d="M343.28,140.41c0,0,9.67,27.49,4.82,67.16c-4.47,36.58-37.41,68.61-87.06,71.53
				c-46.66,2.74-85.23-10.04-99.77-69.28c-14.54-59.24,8.53-102.35,68.47-113.24C288.78,85.85,332.09,105.58,343.28,140.41z"/>
		</g>
		<g>
			<path class="st14" d="M334.29,140.41c0,0,8.75,27.49,4.36,67.16c-4.05,36.58-32.66,73.11-77.59,76.03
				c-42.23,2.74-78.36-14.54-91.52-73.78c-13.16-59.24,7.72-102.35,61.98-113.24C284.95,85.85,324.16,105.58,334.29,140.41z"/>
		</g>
		<path class="st15" d="M173.57,204.18c0,0,21.87-17.76,20.43-67.3"/>
		<path class="st15" d="M313.31,127.46c0,0-9.71,67.12,22.8,73.67"/>
		<path class="st9" d="M160.57,207.53c0,0-16.15-113.88,78.22-117.39C359.12,70.77,347.9,197.86,350.13,198.35
			c2.23,0.5-18.63,1.12-18.63,1.12c-19.24-13.8-18.98-65.71-18.98-65.71C282.06,167.32,194,136.89,194,136.89
			c-1.13,48.42-24.33,66.97-24.33,66.97L160.57,207.53"/>
		<g>
			<path class="st14" d="M323.34,233.55l1.92-34.22c0,0,39.63-11.85,41.27,20.65C368.18,252.47,334.04,254.12,323.34,233.55z"/>
			<g>
				<path class="st16" d="M334.45,235.43c0.09,0,0.18-0.02,0.27-0.06c0.33-0.15,0.47-0.54,0.32-0.86
					c-0.07-0.16-7.02-15.78,3.88-23.05c3.83-2.55,7.61-3.45,11.23-2.66c6.26,1.36,10.03,7.34,10.07,7.4c0.19,0.31,0.59,0.4,0.9,0.21
					c0.31-0.19,0.4-0.59,0.21-0.9c-0.16-0.26-4.08-6.5-10.89-7.98c-3.99-0.87-8.11,0.09-12.24,2.85
					c-11.82,7.88-4.42,24.5-4.34,24.67C333.97,235.29,334.2,235.43,334.45,235.43z"/>
			</g>
			<g>
				<path class="st16" d="M350.49,222.69c0.2,0,0.39-0.09,0.52-0.26c0.21-0.29,0.15-0.7-0.13-0.91c-0.11-0.08-11.04-8.06-19.14,0.06
					c-0.25,0.25-0.25,0.67,0,0.92c0.25,0.25,0.67,0.25,0.92,0c7.32-7.33,17.34-0.01,17.45,0.06
					C350.22,222.65,350.36,222.69,350.49,222.69z"/>
			</g>
			<path class="st14" d="M187.68,233.55l-9.87-34.56c0,0-31.68-11.52-33.32,20.98C142.84,252.47,176.98,254.12,187.68,233.55z"/>
			<g>
				<path class="st16" d="M176.57,235.43c-0.09,0-0.18-0.02-0.27-0.06c-0.33-0.15-0.47-0.54-0.32-0.86
					c0.07-0.16,7.02-15.78-3.88-23.05c-3.83-2.55-7.61-3.45-11.23-2.66c-6.26,1.36-10.03,7.34-10.07,7.4
					c-0.19,0.31-0.59,0.4-0.9,0.21c-0.31-0.19-0.4-0.59-0.21-0.9c0.16-0.26,4.08-6.5,10.89-7.98c3.99-0.87,8.11,0.09,12.24,2.85
					c11.82,7.88,4.42,24.5,4.34,24.67C177.05,235.29,176.82,235.43,176.57,235.43z"/>
			</g>
			<g>
				<path class="st16" d="M160.52,222.69c-0.2,0-0.39-0.09-0.52-0.26c-0.21-0.29-0.15-0.7,0.13-0.91
					c0.11-0.08,11.04-8.06,19.14,0.06c0.25,0.25,0.25,0.67,0,0.92c-0.25,0.25-0.67,0.25-0.92,0c-7.32-7.33-17.34-0.01-17.45,0.06
					C160.8,222.65,160.66,222.69,160.52,222.69z"/>
			</g>
		</g>
		<g>
			<g>
				<path class="st16" d="M259.17,239.15c-9.95,0-11.1-8.27-11.11-8.36c-0.04-0.36,0.21-0.68,0.56-0.73
					c0.34-0.05,0.68,0.2,0.73,0.56c0.04,0.33,1.19,8.14,11.63,7.13c0.36-0.01,0.68,0.23,0.71,0.59c0.03,0.36-0.23,0.68-0.59,0.71
					C260.43,239.12,259.78,239.15,259.17,239.15z"/>
			</g>
			<path class="st9" d="M201.04,183.9c0,0-6.48-5.76,7.22-12.96c13.7-7.2,18.51-5.62,20.73-2.02c2.03,3.28-1.11,8.21-8.89,12.09
				C210.78,185.68,204.56,187.21,201.04,183.9z"/>
			<path class="st17" d="M225.82,207.35c0,4.43-2.95,8.02-6.58,8.02c-3.64,0-6.58-3.59-6.58-8.02s2.95-8.02,6.58-8.02
				C222.87,199.33,225.82,202.92,225.82,207.35z"/>
			<path class="st17" d="M296.07,207.35c0,4.43-2.95,8.02-6.58,8.02c-3.64,0-6.58-3.59-6.58-8.02s2.95-8.02,6.58-8.02
				C293.12,199.33,296.07,202.92,296.07,207.35z"/>
			<path class="st9" d="M306.71,182.69c0,0,6.48-5.76-7.22-12.96c-13.7-7.2-18.51-5.62-20.73-2.02c-2.03,3.28,1.11,8.21,8.89,12.09
				C296.97,184.47,303.19,186,306.71,182.69z"/>
			<g>
				<path class="st16" d="M261.38,223.43c-0.25,0-0.48-0.14-0.59-0.38c-0.15-0.33,0-0.71,0.32-0.86c0.05-0.02,5.26-2.44,7.57-7.1
					c1.81-3.66,1.25-9.16-1.18-11.54c-1.46-1.43-3.44-1.55-5.73-0.35c-0.07,0.04-0.19,0.11-0.34,0.19
					c-8.02,4.65-11.63,2.56-13.25-0.01c-2.98-4.73-0.33-24.67-0.02-28.91c0.03-0.36,0.34-0.62,0.7-0.6c0.36,0.03,0.63,0.34,0.6,0.7
					c-0.82,11.4-2.5,24.42-0.17,28.12c1.91,3.04,5.78,2.9,11.5-0.42c0.18-0.1,0.31-0.18,0.39-0.22c2.8-1.46,5.37-1.26,7.25,0.57
					c2.83,2.77,3.51,8.87,1.44,13.05c-2.52,5.09-7.97,7.6-8.2,7.71C261.57,223.41,261.47,223.43,261.38,223.43z"/>
			</g>
		</g>
		<g>
			
				<linearGradient id="SVGID_00000130622662339637605330000016216044880690831286_" gradientUnits="userSpaceOnUse" x1="181.6827" y1="320.7448" x2="255.6035" y2="320.7448">
				<stop  offset="0" style="stop-color:#FFA994"/>
				<stop  offset="0.4658" style="stop-color:#FA9589"/>
				<stop  offset="1" style="stop-color:#F37A7A"/>
			</linearGradient>
			<path style="fill:url(#SVGID_00000130622662339637605330000016216044880690831286_);" d="M207.5,296.89
				c32.61,9.96,48.11,47.7,48.11,47.7c-23.62-9.21-67.67-4.56-73.92-27c0,0,0.21-9.09,6.26-17.09"/>
			<path class="st19" d="M249.42,342.59c-23.08-6.27-57.97-4.61-66.54-21.84"/>
			<path class="st19" d="M207.5,296.89c28.09,8.57,43.48,37.76,47.21,45.7"/>
			<path class="st11" d="M240.86,333.66c0,1.46-1.18,2.64-2.63,2.64c-1.45,0-2.63-1.18-2.63-2.64c0-1.46,1.18-2.64,2.63-2.64
				C239.69,331.01,240.86,332.2,240.86,333.66z"/>
			<g>
				<path class="st20" d="M236.95,385.21c-0.12,0-0.24-0.02-0.36-0.05c-0.64-0.2-1-0.88-0.8-1.52c2.46-7.89,0.75-11.48-2.67-18.63
					c-0.93-1.94-1.96-4.11-3.06-6.66c-5.41-12.64,6.79-25.03,7.32-25.55c0.47-0.47,1.24-0.47,1.71,0c0.47,0.47,0.47,1.24,0,1.72
					c-0.12,0.11-11.56,11.76-6.8,22.88c1.08,2.52,2.1,4.66,3.02,6.57c3.45,7.23,5.54,11.6,2.8,20.4
					C237.94,384.88,237.46,385.21,236.95,385.21z"/>
			</g>
		</g>
		<g>
			
				<linearGradient id="SVGID_00000164492196091540539160000016942103951830525348_" gradientUnits="userSpaceOnUse" x1="256.5842" y1="320.7448" x2="330.505" y2="320.7448">
				<stop  offset="0" style="stop-color:#FFA994"/>
				<stop  offset="0.4658" style="stop-color:#FA9589"/>
				<stop  offset="1" style="stop-color:#F37A7A"/>
			</linearGradient>
			<path style="fill:url(#SVGID_00000164492196091540539160000016942103951830525348_);" d="M304.69,296.89
				c-32.61,9.96-48.11,47.7-48.11,47.7c23.62-9.21,67.67-4.56,73.92-27c0,0-0.21-9.09-6.26-17.09"/>
			<path class="st19" d="M262.76,342.59c23.08-6.27,57.97-4.61,66.54-21.84"/>
			<path class="st19" d="M304.69,296.89c-28.09,8.57-43.48,37.76-47.21,45.7"/>
			<path class="st11" d="M271.33,333.66c0,1.46,1.18,2.64,2.63,2.64c1.45,0,2.63-1.18,2.63-2.64c0-1.46-1.18-2.64-2.63-2.64
				C272.5,331.01,271.33,332.2,271.33,333.66z"/>
			<g>
				<path class="st20" d="M275.24,385.21c0.12,0,0.24-0.02,0.36-0.05c0.64-0.2,1-0.88,0.8-1.52c-2.46-7.89-0.75-11.48,2.67-18.63
					c0.93-1.94,1.96-4.11,3.06-6.66c5.41-12.64-6.79-25.03-7.32-25.55c-0.47-0.47-1.24-0.47-1.71,0c-0.47,0.47-0.47,1.24,0,1.72
					c0.12,0.11,11.56,11.76,6.8,22.88c-1.08,2.52-2.1,4.66-3.02,6.57c-3.45,7.23-5.54,11.6-2.8,20.4
					C274.24,384.88,274.72,385.21,275.24,385.21z"/>
			</g>
		</g>
	</g>
</g>
</svg>
