<?xml version="1.0" encoding="utf-8"?>
<!-- Generator: Adobe Illustrator 26.4.1, SVG Export Plug-In . SVG Version: 6.00 Build 0)  -->
<svg version="1.1" id="Layer_1" xmlns="http://www.w3.org/2000/svg" xmlns:xlink="http://www.w3.org/1999/xlink" x="0px" y="0px"
	 viewBox="0 0 500 500" style="enable-background:new 0 0 500 500;" xml:space="preserve">
<style type="text/css">
	.st0{fill:url(#SVGID_1_);}
	.st1{fill:#EFEFF4;}
	.st2{fill:#3C4451;}
	.st3{fill:url(#SVGID_00000118392738510567610100000014818554021847558284_);}
	.st4{fill:#E9E9EE;}
	.st5{fill:#F5F5FF;}
	.st6{fill:#B5B7C4;}
	.st7{opacity:0.61;fill:#E9E9EE;}
	.st8{fill:url(#SVGID_00000026884444273380065770000009834366860620424112_);}
	.st9{fill:url(#SVGID_00000155115925839924552890000003348315871339845018_);}
	.st10{fill:url(#SVGID_00000134207287009142456090000009080832319168884639_);}
	.st11{fill:url(#SVGID_00000069382215204791107090000016821323530372141246_);}
	.st12{fill:url(#SVGID_00000109737501396375952640000005181638960241806499_);}
	.st13{fill:url(#SVGID_00000128483279209619634840000002339615434473809546_);}
	.st14{fill:url(#SVGID_00000003816027687943470300000002828198925464003489_);}
	.st15{fill:url(#SVGID_00000177446332917760554450000001192878166490783399_);}
	.st16{fill:url(#SVGID_00000119828602476739240240000012063319090770623905_);}
	.st17{fill:url(#SVGID_00000152978736462180485500000015953389789967942075_);}
	.st18{fill:url(#SVGID_00000144334751790265605570000010477856109335266211_);}
	.st19{fill:#D5D7E0;}
	.st20{fill:#C6C8D3;}
	.st21{fill:url(#SVGID_00000156563810906212019110000002251649651640170677_);}
	.st22{fill:url(#SVGID_00000000922851012667927980000004114096106880164286_);}
	.st23{fill:#70569B;}
	.st24{opacity:0.3;fill:#474452;}
	.st25{fill:url(#SVGID_00000134248248241365102280000007543036853057841816_);}
	.st26{fill:url(#SVGID_00000064332893885561097380000010258579598752825788_);}
	.st27{fill:#D6DAF2;}
	.st28{fill:url(#SVGID_00000098220471518951442040000009864025558458192795_);}
	.st29{fill:url(#SVGID_00000160149273841562552430000014989003504705658290_);}
	.st30{fill:url(#SVGID_00000122716826198441348690000014306448670991414667_);}
	.st31{fill:url(#SVGID_00000028287238087941147370000004663231206966877595_);}
	.st32{fill:none;stroke:#DFE2ED;stroke-miterlimit:10;}
	.st33{fill:url(#SVGID_00000165193956867107385410000011394703545345556657_);}
	.st34{fill:url(#SVGID_00000070839034053219836980000000495447090711833240_);}
	.st35{fill:url(#SVGID_00000127026061195575092420000007134052955309818525_);}
	.st36{opacity:0.1;fill:#474452;}
	.st37{fill:url(#SVGID_00000135673328704707896940000014011340559846186170_);}
	.st38{fill:url(#SVGID_00000098198080943628625270000013604070546533912222_);}
	.st39{fill:url(#SVGID_00000155136031572389753340000018133180232458453662_);}
	.st40{fill:url(#SVGID_00000158751503630651691990000001588903198095980715_);}
	.st41{opacity:0.5;}
	.st42{fill:#FFFFFF;}
	.st43{fill:url(#SVGID_00000120546326270331810450000017406795301233846959_);}
	.st44{fill:url(#SVGID_00000126285361797343874670000007044846117535022777_);}
	.st45{fill:url(#SVGID_00000137850108785312467600000008156504588042460311_);}
	.st46{fill:none;stroke:#FFFFFF;stroke-width:2;stroke-miterlimit:10;}
	.st47{opacity:0.6;fill:#D5D7E0;}
	.st48{fill:url(#SVGID_00000144334953762870460120000008823393673881518976_);}
	.st49{fill:url(#SVGID_00000034048509954305198480000000352111516927497101_);}
	.st50{fill:url(#SVGID_00000101814010874697283940000000445077840170304916_);}
	.st51{enable-background:new    ;}
	.st52{fill:url(#SVGID_00000143595488394438654050000008881217407126937218_);}
	.st53{fill:url(#SVGID_00000147917168965848228770000016212648363976448438_);}
	.st54{fill:url(#SVGID_00000052076083810685106920000014837006990533088144_);}
	.st55{fill:url(#SVGID_00000148619592930680527520000013923687607282548634_);}
	.st56{fill:url(#SVGID_00000114050908186867375890000002449655325200122243_);}
	.st57{fill:url(#SVGID_00000052103418147430861010000005092108470649630859_);}
	.st58{fill:url(#SVGID_00000109730885931337473640000010997448517445130149_);}
	.st59{fill:url(#SVGID_00000181081996850615085340000016411485213853393026_);}
	.st60{fill:url(#SVGID_00000070095248721907864700000007795552798836267449_);}
	.st61{fill:#BAC1DD;}
	.st62{fill:url(#SVGID_00000116940130637698079930000004230446000404571786_);}
	.st63{fill:url(#SVGID_00000143590425886812650420000001818131443013199785_);}
	.st64{fill:url(#SVGID_00000030485041366441342440000000983437873850964110_);}
	.st65{fill:url(#SVGID_00000015355519300725202030000009535686199700695681_);}
	.st66{fill:url(#SVGID_00000070105934667854637870000006916343844183579786_);}
	.st67{fill:#DD7A7A;}
	.st68{opacity:0.3;}
	.st69{fill:#3E4450;}
	.st70{fill:url(#SVGID_00000172421652093186422590000004115305065738251709_);}
	.st71{fill:url(#SVGID_00000040545038578430439840000006563725161075887254_);}
	.st72{fill:url(#SVGID_00000098184941327198807430000012765129726079436465_);}
	.st73{fill:url(#SVGID_00000165954252294709950850000008443628761967393980_);}
	.st74{fill:url(#SVGID_00000026123357306819723300000017600142147088402595_);}
	.st75{fill:url(#SVGID_00000097495867832826358680000000781938572339978415_);}
	.st76{fill:url(#SVGID_00000046299490651846661520000010743155602996527005_);}
	.st77{fill:url(#SVGID_00000176723702964675993340000010582396637000242109_);}
	.st78{fill:#2E353F;}
	.st79{fill:url(#SVGID_00000029046192177207185880000003246536088256561330_);}
</style>
<linearGradient id="SVGID_1_" gradientUnits="userSpaceOnUse" x1="414.3438" y1="203.2151" x2="483.5834" y2="203.2151">
	<stop  offset="1.196656e-03" style="stop-color:#F5F5FF"/>
	<stop  offset="1" style="stop-color:#FFFFFF"/>
</linearGradient>
<path class="st0" d="M478.42,180.49l-58.7-33.89c-2.86-1.65-5.18-0.32-5.19,2.96l-0.02,6.16l-0.17,61.28
	c-0.01,3.28,2.3,7.28,5.16,8.93l58.7,33.89c2.86,1.65,5.19,0.33,5.19-2.96l0.17-61.28l0.02-6.16
	C483.59,186.14,481.28,182.14,478.42,180.49z"/>
<g>
	<g>
		<path class="st2" d="M464.08,183.05c2.86,1.65,5.17,5.65,5.16,8.94l-0.02,6.16l-69.05-39.87l0.02-6.16
			c0.01-3.28,2.33-4.61,5.19-2.96L464.08,183.05z"/>
	</g>
	<g>
		<path class="st4" d="M469.22,198.15l-0.17,61.28c-0.01,3.28-2.34,4.61-5.19,2.96l-58.7-33.89c-2.86-1.65-5.17-5.65-5.16-8.93
			l0.17-61.28L469.22,198.15z"/>
	</g>
</g>
<g>
	
		<linearGradient id="SVGID_00000012446075438705244570000013243172088384831664_" gradientUnits="userSpaceOnUse" x1="9.0498" y1="352.5" x2="490.7202" y2="352.5">
		<stop  offset="1.196656e-03" style="stop-color:#F5F5FF"/>
		<stop  offset="1" style="stop-color:#FFFFFF"/>
	</linearGradient>
	<path style="fill:url(#SVGID_00000012446075438705244570000013243172088384831664_);" d="M478.71,369.43L279.86,484.99
		c-16.09,9.35-42.27,9.35-58.46,0l-16.8-9.7l-19.25-11.11l-5.97-3.45L40.01,380.26l-18.76-10.83c-16.19-9.35-16.28-24.51-0.19-33.86
		l198.85-115.56c16.1-9.35,42.26-9.35,58.45,0l200.16,115.56C494.71,344.92,494.8,360.08,478.71,369.43z"/>
</g>
<g>
	
		<linearGradient id="SVGID_00000173839639753240984700000004633200063316724101_" gradientUnits="userSpaceOnUse" x1="207.7796" y1="195.9129" x2="291.9907" y2="455.0879">
		<stop  offset="0" style="stop-color:#DFEDE4"/>
		<stop  offset="0.0889" style="stop-color:#CFE9E1"/>
		<stop  offset="0.2703" style="stop-color:#A8DDDB"/>
		<stop  offset="0.4951" style="stop-color:#79CDD3"/>
		<stop  offset="0.6514" style="stop-color:#8EA9DC"/>
		<stop  offset="0.8106" style="stop-color:#AE8AE4"/>
		<stop  offset="0.932" style="stop-color:#C679E9"/>
		<stop  offset="1" style="stop-color:#CF73EB"/>
	</linearGradient>
	<path style="fill:url(#SVGID_00000173839639753240984700000004633200063316724101_);" d="M478.71,342.43L279.86,457.99
		c-16.09,9.35-42.27,9.35-58.46,0l-16.8-9.7l-19.25-11.11l-5.97-3.45L40.01,353.26l-18.76-10.83c-16.19-9.35-16.28-24.51-0.19-33.86
		l198.85-115.56c16.1-9.35,42.26-9.35,58.45,0l200.16,115.56C494.71,317.92,494.8,333.08,478.71,342.43z"/>
</g>
<linearGradient id="SVGID_00000156580113608321315130000017433829305237260936_" gradientUnits="userSpaceOnUse" x1="67.0181" y1="71.8382" x2="153.5907" y2="190.9951">
	<stop  offset="1.196656e-03" style="stop-color:#F5F5FF"/>
	<stop  offset="1" style="stop-color:#FFFFFF"/>
</linearGradient>
<path style="fill:url(#SVGID_00000156580113608321315130000017433829305237260936_);" d="M198.17,33.77l-0.05-16.5l-0.02-6.93
	c-0.01-4.7-3.33-6.6-7.43-4.23L29.48,99.18c-4.09,2.36-7.39,8.08-7.38,12.78l0.02,6.93l0.05,16.5l0.33,117.1
	c0.01,4.69,3.34,6.59,7.43,4.23l19-10.97l119.5-68.99l22.7-13.11c4.09-2.36,7.39-8.09,7.38-12.78L198.17,33.77z"/>
<g>
	
		<linearGradient id="SVGID_00000165949920253178353110000006829496152561973645_" gradientUnits="userSpaceOnUse" x1="40.01" y1="365.6454" x2="231.6291" y2="365.6454">
		<stop  offset="0" style="stop-color:#F7F7F7"/>
		<stop  offset="1" style="stop-color:#E8E3FA"/>
	</linearGradient>
	<path style="fill:url(#SVGID_00000165949920253178353110000006829496152561973645_);" d="M221.72,423.65
		c-1.21,2.48-2.54,4.93-3.98,7.35c-3.81,6.36-8.22,12.14-13.14,17.29l-19.25-11.11l-5.97-3.45L40.01,353.26
		c2.28-7.79,5.58-15.41,9.94-22.69c5.55-9.28,12.4-17.3,20.18-23.97c9.55-8.21,20.5-14.39,32.18-18.36
		c26.24-8.93,56.1-6.7,81.75,8.66C227.98,323.18,243.81,378.5,221.72,423.65z"/>
	<g>
		<path class="st19" d="M207.13,349.61c1.79-0.44,3.8,0.85,5.45,3.23c1.11,1.59,2.04,3.67,2.64,6.03
			c1.47,5.86,0.24,11.22-2.75,11.97c-1.04,0.26-2.15-0.07-3.23-0.85c-2.02-1.47-3.89-4.57-4.86-8.4
			C202.9,355.73,204.14,350.36,207.13,349.61z"/>
		<path class="st20" d="M204.37,361.59c0.97,3.83,2.84,6.92,4.86,8.4c-1.11-1.59-2.04-3.67-2.64-6.03
			c-1.47-5.86-0.23-11.22,2.76-11.98c1.04-0.26,2.15,0.07,3.22,0.86c-1.64-2.37-3.66-3.67-5.45-3.23
			C204.14,350.37,202.91,355.73,204.37,361.59z"/>
	</g>
	<g>
		<path class="st19" d="M145.75,338.75c-4.28,1.25-7.21,6.49-8.2,13.57c-0.67,4.76-0.48,10.34,0.76,16.1
			c3.07,14.31,11.38,24.22,18.56,22.17c2.49-0.72,4.53-2.79,5.99-5.79c2.75-5.63,3.47-14.52,1.47-23.88
			C161.25,346.61,152.93,336.68,145.75,338.75z"/>
		<path class="st20" d="M164.33,360.93c2,9.36,1.27,18.26-1.47,23.88c0.67-4.76,0.46-10.35-0.76-16.1
			c-3.07-14.31-11.39-24.23-18.58-22.16c-2.49,0.72-4.51,2.8-5.97,5.78c0.99-7.07,3.92-12.32,8.2-13.57
			C152.94,336.7,161.25,346.63,164.33,360.93z"/>
	</g>
	<g>
		<path class="st19" d="M70.37,307.94c-0.12-0.44-0.21-0.9-0.24-1.34c9.55-8.21,20.5-14.39,32.18-18.35
			c2.22-0.04,4.34,0.1,6.33,0.38c7.07,0.99,12.32,3.92,13.57,8.2c1.44,4.98-2.89,10.49-10.44,14.44c-0.48,0.25-0.97,0.49-1.48,0.73
			c-1.25,0.6-2.59,1.14-3.98,1.64c-0.01,0-0.01,0-0.02,0.01c-1.41,0.5-2.88,0.95-4.41,1.33c-0.61,0.15-1.23,0.3-1.86,0.44
			c-5.27,1.13-10.38,1.39-14.86,0.92c-0.49-0.05-0.97-0.11-1.44-0.19c0,0-0.01,0-0.02,0c-0.47-0.07-0.94-0.15-1.4-0.24
			c0,0-0.01,0-0.02,0c-0.68-0.13-1.35-0.29-1.99-0.45c-0.23-0.06-0.45-0.11-0.66-0.18c-1.25-0.37-2.41-0.81-3.45-1.32l-0.02-0.01
			C73.16,312.46,71.09,310.43,70.37,307.94z"/>
		<path class="st20" d="M100.02,315.4c-9.36,2-18.26,1.27-23.88-1.47c4.76,0.67,10.35,0.46,16.1-0.76
			c14.31-3.07,24.23-11.39,22.16-18.58c-0.72-2.49-2.8-4.51-5.78-5.97c7.07,0.99,12.32,3.92,13.57,8.2
			C124.25,304.01,114.32,312.33,100.02,315.4z"/>
	</g>
	<g>
		<path class="st19" d="M221.72,423.65c-1.21,2.48-2.54,4.93-3.98,7.35c-3.81,6.36-8.22,12.14-13.14,17.29l-19.25-11.11l-5.97-3.45
			c0.76-0.6,1.55-1.19,2.37-1.77c2.27-1.6,4.77-3.11,7.47-4.47c6.03-3.03,12.16-4.9,17.67-5.63c0.57-0.06,1.14-0.13,1.7-0.18
			c0.3-0.03,0.58-0.05,0.87-0.07c2.76-0.17,5.33-0.04,7.58,0.41c0.02,0.01,0.03,0.01,0.05,0.01
			C218.83,422.38,220.39,422.92,221.72,423.65z"/>
		<path class="st20" d="M217.11,422.01c-0.02,0.01-0.04,0.01-0.07,0.01c-5.65,0.66-11.99,2.58-18.2,5.7
			c-5.39,2.71-9.99,6-13.49,9.46l-5.97-3.45c0.76-0.6,1.55-1.19,2.37-1.77c2.27-1.6,4.77-3.11,7.47-4.47
			c6.03-3.03,12.16-4.9,17.67-5.63c0.57-0.06,1.14-0.13,1.7-0.18c0.3-0.03,0.58-0.05,0.87-0.07
			C212.25,421.42,214.83,421.56,217.11,422.01z"/>
	</g>
	<circle class="st20" cx="184.93" cy="405.25" r="1.81"/>
	<circle class="st20" cx="170.12" cy="322.14" r="3.61"/>
	<circle class="st20" cx="77.58" cy="358.13" r="6.07"/>
</g>
<g class="st41">
	<circle class="st42" cx="259" cy="435" r="7"/>
	<circle class="st42" cx="157" cy="250.5" r="3.5"/>
	<circle class="st42" cx="341" cy="365" r="2"/>
	<circle class="st42" cx="31" cy="318" r="2"/>
	<circle class="st42" cx="236" cy="302" r="2"/>
	<circle class="st42" cx="446" cy="316" r="2"/>
</g>
<g>
	<g class="st51">
		<g>
			<path class="st19" d="M216.17,44.77l0.33,117.1c0.01,4.69-3.29,10.42-7.38,12.78l-22.7,13.11l-0.36-125.61L216.17,44.77z"/>
		</g>
		<g>
			<polygon class="st4" points="186.07,62.15 186.42,187.76 66.93,256.75 66.57,131.15 			"/>
		</g>
		<g>
			<path class="st19" d="M66.57,131.15l0.36,125.61l-19,10.97c-4.09,2.36-7.41,0.46-7.43-4.23l-0.33-117.1L66.57,131.15z"/>
		</g>
		<g>
			<polygon class="st1" points="216.13,28.27 216.17,44.77 186.07,62.15 66.57,131.15 40.17,146.39 40.12,129.89 			"/>
		</g>
		<g>
			<path class="st2" d="M208.68,17.11c4.09-2.36,7.41-0.47,7.43,4.23l0.02,6.93L40.12,129.89l-0.02-6.93
				c-0.01-4.7,3.29-10.42,7.38-12.78L208.68,17.11z"/>
		</g>
	</g>
</g>
<g>
	<path class="st42" d="M48.73,115.75c-0.83,0.48-1.5,1.64-1.5,2.59c0,0.96,0.68,1.34,1.51,0.87c0.83-0.48,1.51-1.65,1.5-2.61
		C50.25,115.66,49.57,115.27,48.73,115.75z"/>
	<path class="st42" d="M53.25,113.14c-0.83,0.48-1.5,1.64-1.5,2.59c0,0.96,0.67,1.35,1.51,0.87c0.83-0.48,1.51-1.65,1.5-2.61
		C54.76,113.05,54.09,112.66,53.25,113.14z"/>
	<path class="st42" d="M57.77,110.54c-0.83,0.48-1.51,1.65-1.5,2.6c0,0.96,0.68,1.34,1.51,0.86c0.83-0.48,1.5-1.64,1.5-2.6
		C59.28,110.45,58.6,110.06,57.77,110.54z"/>
</g>
<g>
	<path class="st6" d="M52.7,126.93c0.58-0.34,1.06-0.07,1.06,0.6l0.01,5.03c0,0.67-0.47,1.48-1.06,1.82l-4.37,2.52
		c-0.58,0.34-1.06,0.07-1.06-0.6l-0.01-5.03c0-0.67,0.47-1.48,1.06-1.82L52.7,126.93z"/>
</g>
<g>
	<path class="st6" d="M63.81,120.51c0.58-0.34,1.06-0.07,1.06,0.6l0.01,5.03c0,0.67-0.47,1.48-1.06,1.82l-4.37,2.52
		c-0.58,0.34-1.06,0.07-1.06-0.6l-0.01-5.03c0-0.67,0.47-1.48,1.06-1.82L63.81,120.51z"/>
</g>
<g>
	<path class="st6" d="M74.94,114.09c0.58-0.34,1.05-0.07,1.05,0.6l0.01,5.03c0,0.67-0.46,1.48-1.05,1.81l-4.38,2.53
		c-0.58,0.34-1.05,0.07-1.05-0.6l-0.01-5.03c0-0.67,0.46-1.48,1.05-1.81L74.94,114.09z"/>
</g>
<g>
	<path class="st6" d="M86.05,107.67c0.58-0.34,1.06-0.07,1.06,0.6l0.01,5.03c0,0.67-0.47,1.48-1.06,1.82l-4.37,2.52
		c-0.58,0.34-1.06,0.07-1.06-0.6l-0.01-5.03c0-0.67,0.47-1.48,1.06-1.82L86.05,107.67z"/>
</g>
<g>
	<path class="st6" d="M184.25,50.98c0.58-0.34,1.05-0.07,1.05,0.6l0.01,5.03c0,0.67-0.46,1.48-1.05,1.81l-4.37,2.52
		c-0.59,0.34-1.06,0.07-1.06-0.6l-0.01-5.03c0-0.67,0.46-1.48,1.06-1.82L184.25,50.98z"/>
</g>
<g>
	<path class="st6" d="M195.36,44.56c0.58-0.34,1.06-0.07,1.06,0.6l0.01,5.03c0,0.67-0.47,1.48-1.06,1.82l-4.37,2.52
		c-0.58,0.34-1.06,0.07-1.06-0.6l-0.01-5.03c0-0.67,0.47-1.48,1.06-1.82L195.36,44.56z"/>
</g>
<g>
	<path class="st6" d="M206.47,38.15c0.58-0.34,1.06-0.07,1.06,0.6l0.01,5.03c0,0.67-0.47,1.48-1.06,1.82l-4.37,2.52
		c-0.58,0.34-1.06,0.07-1.06-0.6l-0.01-5.03c0-0.67,0.47-1.48,1.06-1.82L206.47,38.15z"/>
</g>
<g>
	<polygon class="st6" points="206.68,63.61 193.71,71.1 193.71,72.16 206.68,64.67 	"/>
	<polygon class="st6" points="64.08,166.2 44.63,177.43 44.63,178.49 64.08,167.26 	"/>
	<polygon class="st6" points="64.05,157.68 44.6,168.91 44.6,169.98 64.06,158.75 	"/>
	<polygon class="st6" points="64.03,149.17 44.58,160.4 44.58,161.47 64.03,150.24 	"/>
	<polygon class="st6" points="64,140.66 44.55,151.89 44.56,152.95 64.01,141.72 	"/>
	<polygon class="st6" points="64.1,174.72 44.65,185.95 44.65,187.01 64.1,175.78 	"/>
	<polygon class="st6" points="44.7,202.98 44.7,204.04 64.15,192.81 64.15,191.75 	"/>
	<polygon class="st6" points="64.12,183.23 44.67,194.46 44.68,195.53 64.13,184.3 	"/>
	<polygon class="st6" points="206.71,73.19 193.73,80.68 193.74,81.74 206.71,74.25 	"/>
	<polygon class="st6" points="206.73,82.77 193.76,90.26 193.76,91.32 206.74,83.83 	"/>
	<polygon class="st6" points="206.76,92.35 193.79,99.84 193.79,100.9 206.76,93.41 	"/>
	<polygon class="st6" points="206.79,101.93 193.81,109.42 193.82,110.48 206.79,102.99 	"/>
	<polygon class="st6" points="206.81,111.51 193.84,119 193.84,120.06 206.82,112.57 	"/>
</g>
<g>
	<g>
		<polygon class="st6" points="163.1,88.01 163.1,89.08 149.9,96.7 149.9,95.63 		"/>
	</g>
	<g>
		<polygon class="st42" points="150.23,129.03 150.3,155.11 150.31,156.18 150.39,185.45 121.67,202.03 121.51,145.61 		"/>
	</g>
	<g>
		<polygon class="st6" points="164.19,147.09 164.2,148.16 150.31,156.18 150.3,155.11 		"/>
	</g>
	<g>
		<path class="st6" d="M121.19,112.21l0,1.06l-3.7,2.14c-1.51,0.87-2.73,3-2.73,4.73l0.04,14.99c0.01,2.33-1.64,5.17-3.66,6.33
			l-3.1,1.79l0-1.06l3.1-1.79c1.51-0.87,2.73-3,2.73-4.73l-0.04-14.99c-0.01-2.33,1.64-5.17,3.66-6.33L121.19,112.21z"/>
	</g>
	<g>
		<polygon class="st42" points="149.87,82.86 149.9,95.63 149.9,96.7 149.95,111.07 121.23,127.64 121.19,113.27 121.19,112.21 
			121.15,99.44 		"/>
	</g>
	<g>
		<polygon class="st42" points="186.22,61.87 186.35,106.04 163.19,119.42 163.06,75.24 		"/>
	</g>
	<g>
		<polygon class="st42" points="186.4,124.14 186.56,179.5 164.32,192.33 164.17,136.98 		"/>
	</g>
	<g>
		<polygon class="st42" points="107.99,124.1 108.04,142.2 108.05,143.26 108.09,157.09 108.09,158.16 108.15,180.52 79.44,197.09 
			79.28,140.68 		"/>
	</g>
	<g>
		<path class="st6" d="M111.32,155.22c2.03-1.17,3.67-0.23,3.68,2.1l0.04,14.99c0,1.73,1.23,2.43,2.74,1.56l3.57-2.06l0,1.07
			l-3.57,2.06c-2.02,1.16-3.67,0.22-3.67-2.1l-0.04-14.99c0-1.73-1.24-2.44-2.75-1.57l-3.23,1.87l0-1.06L111.32,155.22z"/>
	</g>
</g>
<g>
	
		<linearGradient id="SVGID_00000089556873013045423820000002638768647600371342_" gradientUnits="userSpaceOnUse" x1="133.1714" y1="103.4911" x2="138.0923" y2="108.7682">
		<stop  offset="0" style="stop-color:#DCEFE4"/>
		<stop  offset="0.0889" style="stop-color:#C8EBE2"/>
		<stop  offset="0.2703" style="stop-color:#96E0DD"/>
		<stop  offset="0.4951" style="stop-color:#4FD1D6"/>
		<stop  offset="0.6514" style="stop-color:#86ABE1"/>
		<stop  offset="0.8106" style="stop-color:#B788EB"/>
		<stop  offset="0.932" style="stop-color:#D673F1"/>
		<stop  offset="1" style="stop-color:#E16BF3"/>
	</linearGradient>
	<path style="fill:url(#SVGID_00000089556873013045423820000002638768647600371342_);" d="M141.64,99.99
		c1.28-0.74,2.32-0.15,2.33,1.33c0,1.47-1.03,3.26-2.31,4l-12.04,6.95c-1.28,0.74-2.32,0.14-2.33-1.33c0-1.48,1.03-3.26,2.31-4
		L141.64,99.99z"/>
</g>
<g class="st51">
	<g>
		<path class="st2" d="M140.69,171.98c1.28-0.74,2.32-0.14,2.33,1.33c0,1.48-1.03,3.26-2.31,4l-12.04,6.95
			c-1.28,0.74-2.32,0.15-2.33-1.33c0-1.47,1.03-3.26,2.31-4L140.69,171.98z"/>
	</g>
	<g>
		
			<linearGradient id="SVGID_00000003823837179136679090000017862767328749433758_" gradientUnits="userSpaceOnUse" x1="127.4573" y1="145.1436" x2="142.6834" y2="162.6592">
			<stop  offset="0" style="stop-color:#DCEFE4"/>
			<stop  offset="0.0889" style="stop-color:#C8EBE2"/>
			<stop  offset="0.2703" style="stop-color:#96E0DD"/>
			<stop  offset="0.4951" style="stop-color:#4FD1D6"/>
			<stop  offset="0.6514" style="stop-color:#86ABE1"/>
			<stop  offset="0.8106" style="stop-color:#B788EB"/>
			<stop  offset="0.932" style="stop-color:#D673F1"/>
			<stop  offset="1" style="stop-color:#E16BF3"/>
		</linearGradient>
		<polygon style="fill:url(#SVGID_00000003823837179136679090000017862767328749433758_);" points="143.83,136.05 143.91,161.6 
			126.31,171.76 126.23,146.21 		"/>
	</g>
</g>
<g>
	<polygon class="st2" points="186.38,86.43 186.38,87.49 169.24,97.38 169.27,104.84 186.4,94.95 186.4,96.01 168.34,106.44 
		168.31,96.86 	"/>
</g>
<g>
	<polygon class="st2" points="186.34,74.72 186.34,75.79 169.21,85.68 169.23,93.12 186.37,83.23 186.37,84.3 168.3,94.73 
		168.28,85.15 	"/>
</g>
<g>
	<polygon class="st2" points="186.31,63.01 186.31,64.07 169.18,73.96 169.2,81.41 186.33,71.52 186.34,72.59 168.27,83.02 
		168.24,73.44 	"/>
</g>
<g>
	<polygon class="st19" points="180.93,130.62 180.99,151.91 169.88,158.33 169.82,137.04 	"/>
</g>
<g>
	<path class="st2" d="M181.49,162.29c1.28-0.74,2.32-0.15,2.33,1.33c0,1.47-1.03,3.26-2.31,3.99l-12.04,6.95
		c-1.28,0.74-2.32,0.15-2.33-1.32c0-1.48,1.03-3.26,2.31-4L181.49,162.29z"/>
</g>
<g>
	<path class="st2" d="M99.85,167.84c1.28-0.74,2.32-0.15,2.33,1.32c0,1.48-1.03,3.26-2.31,4l-12.04,6.95
		c-1.28,0.74-2.32,0.15-2.33-1.33c0-1.47,1.03-3.25,2.31-3.99L99.85,167.84z"/>
</g>
<g>
	
		<linearGradient id="SVGID_00000182498351134095828120000000125679444748043175_" gradientUnits="userSpaceOnUse" x1="88.3181" y1="144.8139" x2="99.2254" y2="157.3614">
		<stop  offset="0" style="stop-color:#DCEFE4"/>
		<stop  offset="0.0889" style="stop-color:#C8EBE2"/>
		<stop  offset="0.2703" style="stop-color:#96E0DD"/>
		<stop  offset="0.4951" style="stop-color:#4FD1D6"/>
		<stop  offset="0.6514" style="stop-color:#86ABE1"/>
		<stop  offset="0.8106" style="stop-color:#B788EB"/>
		<stop  offset="0.932" style="stop-color:#D673F1"/>
		<stop  offset="1" style="stop-color:#E16BF3"/>
	</linearGradient>
	<path style="fill:url(#SVGID_00000182498351134095828120000000125679444748043175_);" d="M93.74,140.44
		c5.12-2.96,9.28-0.58,9.29,5.3c0.02,5.88-4.11,13.05-9.23,16c-5.12,2.96-9.28,0.58-9.29-5.31
		C84.49,150.56,88.62,143.4,93.74,140.44z"/>
</g>
<g>
	
		<linearGradient id="SVGID_00000005957956058173214710000004597053026593300881_" gradientUnits="userSpaceOnUse" x1="268.6734" y1="234.7555" x2="287.29" y2="234.7555" gradientTransform="matrix(0.6915 -0.7224 0.7224 0.6915 -96.1124 256.9543)">
		<stop  offset="0" style="stop-color:#F9C2C5"/>
		<stop  offset="1" style="stop-color:#F3ABAB"/>
	</linearGradient>
	<path style="fill:url(#SVGID_00000005957956058173214710000004597053026593300881_);" d="M265.42,215.53c0,0-9.64,4.15-9.73,5.05
		c-0.09,0.9,6.6-0.82,6.6-0.82s-4.6,2.64-4.54,3.92c0.06,1.27,9.04-3.49,9.04-3.49s-2.14,3.42-1.85,4.17
		c0.29,0.75,8.31-5.37,8.31-5.37l1.7-4.55L265.42,215.53z"/>
	
		<linearGradient id="SVGID_00000054239899014373474450000004665179683828089986_" gradientUnits="userSpaceOnUse" x1="274.2734" y1="241.4317" x2="317.7086" y2="241.4317" gradientTransform="matrix(0.6915 -0.7224 0.7224 0.6915 -96.1124 256.9543)">
		<stop  offset="0" style="stop-color:#F9C2C5"/>
		<stop  offset="1" style="stop-color:#F3ABAB"/>
	</linearGradient>
	<path style="fill:url(#SVGID_00000054239899014373474450000004665179683828089986_);" d="M304.05,200.19l-26.29,11.44
		c0,0-19.06,2.16-20.8,3.27c-1.74,1.1,15.33,2.74,15.33,2.74s-3.07,5.51-2.11,6.87s8.16-5.74,8.16-5.74l24.82-7.41l0.84-4.99
		L304.05,200.19z"/>
	<g>
		<path class="st4" d="M206.12,199.93v36.32l55.1-31.81v-37.06c0-0.19-0.08-0.35-0.2-0.46c-0.05-0.05-0.11-0.09-0.18-0.12
			c-0.18-0.08-0.4-0.09-0.59,0.03l-52.53,30.33c-0.43,0.25-0.79,0.59-1.06,0.99c-0.04,0.06-0.08,0.12-0.12,0.19c0,0,0,0,0,0
			C206.27,198.81,206.12,199.35,206.12,199.93z"/>
		<path class="st6" d="M237.57,254.4c0.5,0.29,1.05,0.43,1.61,0.43c0.56,0,1.11-0.14,1.6-0.43l52.53-30.33
			c0.22-0.12,0.32-0.34,0.32-0.56v1.29l-0.04,0.23c0,0,0,0,0,0c-0.05,0.13-0.14,0.24-0.28,0.32l-52.53,30.33
			c-0.49,0.29-1.05,0.43-1.6,0.43c-0.56,0-1.11-0.14-1.61-0.43l-31.45-18.16v-1.29L237.57,254.4z"/>
		<path class="st42" d="M293.64,223.52c0,0.22-0.11,0.43-0.32,0.56l-32.1,18.53l-20.43,11.79c-0.49,0.29-1.05,0.43-1.6,0.43
			s-1.11-0.14-1.61-0.43l-31.45-18.16l55.1-31.81l32.1,18.53C293.53,223.09,293.64,223.3,293.64,223.52z"/>
		<polygon class="st7" points="213.01,235.45 259.84,208.41 274.99,217.16 228.16,244.2 		"/>
		
			<linearGradient id="SVGID_00000082339719006477487840000012972814052268665996_" gradientUnits="userSpaceOnUse" x1="-2394.4551" y1="227.5301" x2="-2381.9824" y2="242.3944" gradientTransform="matrix(-1 0 0 1 -2129.1025 0)">
			<stop  offset="0" style="stop-color:#D2B1ED"/>
			<stop  offset="0.2325" style="stop-color:#C5AFF0"/>
			<stop  offset="0.7455" style="stop-color:#ABACF6"/>
		</linearGradient>
		<path style="fill:url(#SVGID_00000082339719006477487840000012972814052268665996_);" d="M271.57,233.22
			c-0.04-0.16-0.14-0.31-0.31-0.4l-8.45-4.87c-0.2-0.12-0.44-0.12-0.64,0l-15.24,8.79c-0.16,0.09-0.26,0.24-0.3,0.4
			c-0.06-0.26,0.04-0.56,0.3-0.72l15.24-8.79c0.2-0.12,0.44-0.12,0.64,0l8.45,4.87C271.54,232.66,271.64,232.96,271.57,233.22z"/>
		<path class="st7" d="M271.57,233.22c-0.04,0.16-0.14,0.31-0.31,0.4l-15.24,8.8c-0.2,0.12-0.44,0.12-0.64,0l-8.45-4.87
			c-0.16-0.09-0.26-0.24-0.3-0.4c0.04-0.16,0.14-0.31,0.3-0.4l15.24-8.79c0.2-0.12,0.44-0.12,0.64,0l8.45,4.87
			C271.43,232.92,271.53,233.07,271.57,233.22z"/>
		
			<linearGradient id="SVGID_00000158737357076552459350000011237125901443399350_" gradientUnits="userSpaceOnUse" x1="227.3935" y1="180.7279" x2="239.9448" y2="221.7814">
			<stop  offset="0" style="stop-color:#DFEDE4"/>
			<stop  offset="0.0889" style="stop-color:#CFE9E1"/>
			<stop  offset="0.2703" style="stop-color:#A8DDDB"/>
			<stop  offset="0.4951" style="stop-color:#79CDD3"/>
			<stop  offset="0.6514" style="stop-color:#8EA9DC"/>
			<stop  offset="0.8106" style="stop-color:#AE8AE4"/>
			<stop  offset="0.932" style="stop-color:#C679E9"/>
			<stop  offset="1" style="stop-color:#CF73EB"/>
		</linearGradient>
		<path style="fill:url(#SVGID_00000158737357076552459350000011237125901443399350_);" d="M209.68,231.01
			c-0.44,0.26-0.81,0.05-0.81-0.47V200.6c0-0.51,0.36-1.14,0.81-1.4l47.97-27.7c0.44-0.26,0.81-0.05,0.81,0.47l0,29.94
			c0,0.51-0.36,1.14-0.81,1.4L209.68,231.01z"/>
		
			<linearGradient id="SVGID_00000145027825234505258750000012688036750508978623_" gradientUnits="userSpaceOnUse" x1="-2398.8455" y1="239.5076" x2="-2393.0752" y2="239.5076" gradientTransform="matrix(-1 0 0 1 -2129.1025 0)">
			<stop  offset="0" style="stop-color:#F4F2FD"/>
			<stop  offset="0.363" style="stop-color:#F1EEFA"/>
			<stop  offset="0.6977" style="stop-color:#E7E3F3"/>
			<stop  offset="1" style="stop-color:#D8D2E7"/>
		</linearGradient>
		<polygon style="fill:url(#SVGID_00000145027825234505258750000012688036750508978623_);" points="263.97,241.01 264.25,241.18 
			269.74,237.99 269.48,237.84 		"/>
		<path class="st6" d="M205.55,197.74c0.28-0.51,0.69-0.94,1.21-1.24l52.53-30.33c0.22-0.13,0.47-0.11,0.66,0.01
			c0.02,0.02,0.04,0.03,0.07,0.05l0.83,0.56c-0.18-0.08-0.4-0.09-0.59,0.03l-52.53,30.33c-0.5,0.29-0.9,0.69-1.17,1.18l0,0h0
			c-0.28,0.48-0.43,1.03-0.43,1.6v36.32l-0.96-0.56v-36.4C205.16,198.74,205.3,198.21,205.55,197.74z"/>
	</g>
	
		<linearGradient id="SVGID_00000080918206596538458710000003101378432467712410_" gradientUnits="userSpaceOnUse" x1="223.3243" y1="240.7285" x2="291.9507" y2="240.7285" gradientTransform="matrix(0.6915 -0.7224 0.7224 0.6915 -96.1124 256.9543)">
		<stop  offset="0" style="stop-color:#F9C2C5"/>
		<stop  offset="1" style="stop-color:#F3ABAB"/>
	</linearGradient>
	<path style="fill:url(#SVGID_00000080918206596538458710000003101378432467712410_);" d="M289.31,221.74l-15.25,15.4l-32.35,4.7
		c0,0-11.97-7.49-13.85-6.76c-1.88,0.73,2.41,5.13,2.41,5.13s-16.46-2.3-17.3-1.11s9.62,3.64,9.62,3.64s-5.13,2.41-3.15,6.41
		c1.97,4,9.05,7.75,9.51,6.71c0.46-1.04-1.51-5.04-1.51-5.04l8.46,0.63l6.46-1.19l25.89,0.91c4.6,0.16,9.16-0.79,13.32-2.77h0
		c2.11-1.01,4.09-2.27,5.89-3.76l13.03-10.75L289.31,221.74z"/>
	<path class="st61" d="M374.88,350.48l2.4-0.49c0,0,3.77,4.17,7.36,4.51l-0.03,2.17l-5.1,0.24c0,0-1.33,4.4-1.01,8.6
		c0.32,4.2,0.1,15.96-6.04,15.74l-1.33-1.22l-1.16-3.01l1.18-4.78l3.55-8.72l-0.65-8.4L374.88,350.48z"/>
	<path class="st2" d="M368.38,372.88c0,0,0.5,8.02,4.09,8.37c0,0-2.21-3.47,0.57-9.73c2.77-6.26,3.55-8.72,2.94-13.68
		c-0.61-4.95,1.3-7.85,1.3-7.85s-2.29-2.58-5.82-1.65l-4.66,1.37l0.79,8.78l2.82,8.43L368.38,372.88z"/>
	<path class="st2" d="M298.94,401.4l3.11,0.2c0,0,2.31,3.77,0.69,7.42c-1.62,3.65-5.12,8.03-5.12,8.03l-1.65,0.2l-0.18-3.82
		c0,0-15.32,8.5-20.94,8.51c-5.62,0.01-2.18-5.65,5.46-11.62L298.94,401.4z"/>
	
		<linearGradient id="SVGID_00000008131658352645484330000001841971371857387446_" gradientUnits="userSpaceOnUse" x1="147.977" y1="364.0026" x2="233.9773" y2="364.0026" gradientTransform="matrix(0.6915 -0.7224 0.7224 0.6915 -96.1124 256.9543)">
		<stop  offset="0" style="stop-color:#F9C2C5"/>
		<stop  offset="1" style="stop-color:#F3ABAB"/>
	</linearGradient>
	<path style="fill:url(#SVGID_00000008131658352645484330000001841971371857387446_);" d="M322.63,333.88c0,0-3.21,5.13-5.37,16.34
		s-8.4,30.92-15.69,44.54c0,0,1.25,7.73-0.19,9.59c-1.45,1.86-16.62,10.74-17.89,10.79c-1.27,0.06-3.16-4.83-3.16-4.83
		s11.06-9.46,12.41-16.03c1.35-6.58,6.89-60.61,6.89-60.61L322.63,333.88z"/>
	
		<linearGradient id="SVGID_00000060010799593332894130000009788273875513532083_" gradientUnits="userSpaceOnUse" x1="237.4373" y1="386.7819" x2="259.8489" y2="386.7819" gradientTransform="matrix(0.6915 -0.7224 0.7224 0.6915 -96.1124 256.9543)">
		<stop  offset="0" style="stop-color:#F9C2C5"/>
		<stop  offset="1" style="stop-color:#F3ABAB"/>
	</linearGradient>
	<path style="fill:url(#SVGID_00000060010799593332894130000009788273875513532083_);" d="M346.31,320.73l20.16,24.78l4.99,2.83
		c0,0-2.05,2.52-0.46,6.66s5.74,8.16-2.62,17.88c0,0-1.58-11.93-6.07-17.98l-32.96-24.91L346.31,320.73z"/>
	<path class="st2" d="M382.98,265.62c0,0-7.39,39.61-13.47,46.28c-6.08,6.67-28.67,9.76-28.67,9.76l-54.29-15.31
		c0,0-5.27-4.53-3.42-8.71c1.85-4.17,44.08-32.56,44.08-32.56L382.98,265.62z"/>
	<path class="st24" d="M382.98,265.54c0,0-7.39,39.61-13.47,46.28c-6.08,6.67-28.67,9.76-28.67,9.76l-54.29-15.31
		c0,0-5.27-4.53-3.42-8.71c1.85-4.17,44.08-32.56,44.08-32.56L382.98,265.54z"/>
	<path class="st2" d="M370.52,229.34c0,0,15.31,10.53,14.97,25.36c-0.14,6.3-3.9,15.18-8.18,23.29
		c-5.44,10.32-12.02,19.99-19.49,28.94l-14.7,17.61c-4.22,5.06-9.8,8.81-16.1,10.73c-6.29,1.92-14.55,3.21-22.94,1
		c-12.8-3.37-18.21-12.66-20.16-17.28c-0.71-1.68-0.84-3.54-0.37-5.3c1.51-5.66,6.54-19.43,21.64-30.6
		c19.51-14.45,28.83-22.8,27.78-28.88L370.52,229.34z"/>
	
		<linearGradient id="SVGID_00000093179372865011379100000016170924872729469347_" gradientUnits="userSpaceOnUse" x1="329.4635" y1="238.5557" x2="370.5243" y2="238.5557">
		<stop  offset="0" style="stop-color:#F7F7F7"/>
		<stop  offset="1" style="stop-color:#E8E3FA"/>
	</linearGradient>
	<path style="fill:url(#SVGID_00000093179372865011379100000016170924872729469347_);" d="M363.36,220.86c0,0,2.2-2.15,2.98,1.01
		c0.79,3.16,4.18,7.47,4.18,7.47s-2.42,8.69-11.74,16.64c-9.55,8.14-20.02,10.38-23.94,10.96c-1,0.15-1.99-0.33-2.51-1.19
		c-1.07-1.76-2.71-4.99-2.86-8.41L363.36,220.86z"/>
	
		<linearGradient id="SVGID_00000162344285145819677500000003216766926330007441_" gradientUnits="userSpaceOnUse" x1="287.1805" y1="279.9712" x2="357.2621" y2="279.9712" gradientTransform="matrix(0.6915 -0.7224 0.7224 0.6915 -96.1124 256.9543)">
		<stop  offset="0" style="stop-color:#DFEDE4"/>
		<stop  offset="0.0889" style="stop-color:#CFE9E1"/>
		<stop  offset="0.2703" style="stop-color:#A8DDDB"/>
		<stop  offset="0.4951" style="stop-color:#79CDD3"/>
		<stop  offset="0.6514" style="stop-color:#8EA9DC"/>
		<stop  offset="0.8106" style="stop-color:#AE8AE4"/>
		<stop  offset="0.932" style="stop-color:#C679E9"/>
		<stop  offset="1" style="stop-color:#CF73EB"/>
	</linearGradient>
	<path style="fill:url(#SVGID_00000162344285145819677500000003216766926330007441_);" d="M300.91,235l6.84-4.09
		c2.1-1.25,4.68-1.41,6.92-0.42c1.09,0.48,2.04,1.21,2.79,2.13l12,14.72c0,0,6.84,4.28,21.75-7.52
		c14.91-11.8,12.15-18.96,12.15-18.96l-5.23-6.66l-3.23-4.13l-4.3-5.48c0,0-0.44-1.46-1.2-3.7c-0.47-1.39-1.07-3.1-1.75-4.93
		c-2.46-6.6-6.07-15.01-9.38-17.75c-5.71-4.72-16.25-0.65-19.84,4.63l-3.38,6.93l-6.33,9.36l-6.06,5l-0.83,0.68l-2.61,3.26
		l-6.77,8.47l-3.27,4.09l-1.35,1.69C287.81,222.32,288.58,233.27,300.91,235z"/>
	<path class="st2" d="M276.33,186.96l-3.66-0.03c0,0-6.5,9.58-17.24,11.99c-10.75,2.42-12.26-8.24-12.26-8.24
		s-21.67,1.01-30.57-11.99c-8.91-13,0.7-26.22,15.28-17.57c0,0,7.22,4.14,15.29-6.33s18.61-20.15,30.51-19.56
		c11.91,0.6,15.98,16.76,15.98,16.76s16.63,0.5,15.76,28.52l2.53,7.67l-16.74,2.57L276.33,186.96z"/>
	
		<linearGradient id="SVGID_00000123427361218955176270000011796537351160739973_" gradientUnits="userSpaceOnUse" x1="305.5908" y1="235.935" x2="340.6005" y2="235.935" gradientTransform="matrix(0.6915 -0.7224 0.7224 0.6915 -96.1124 256.9543)">
		<stop  offset="0" style="stop-color:#F9C2C5"/>
		<stop  offset="1" style="stop-color:#F3ABAB"/>
	</linearGradient>
	<path style="fill:url(#SVGID_00000123427361218955176270000011796537351160739973_);" d="M270.88,185.17
		c0,0,13.54,13.8,18.35,12.82c0.58-0.12,1.13-0.29,1.66-0.48c3.17-1.2,5.36-3.63,6.04-4.46c0.15-0.18,0.23-0.28,0.23-0.28
		s7.97,3.84,4.65,12.05c0,0,12.19-4.27,17.98-11.69c5.79-7.42-1.37-10.28-1.37-10.28s-7.56,5.08-13.01-2.33c0,0,1.05,6.08-7.15,2.76
		c0,0-8.54,5.89-16.28,1.52C274.24,180.42,270.88,185.17,270.88,185.17z"/>
	<path class="st67" d="M290.89,197.5c3.17-1.2,5.36-3.63,6.04-4.46l0.08-0.66c0,0-4.38-3.5-6.09-4.57
		C290.93,187.82,293.8,193.51,290.89,197.5z"/>
	<g class="st68">
		<path class="st42" d="M317.89,229.24c-0.84-2.18,0.25-4.63,2.42-5.47s4.63,0.25,5.47,2.42c0.84,2.18-0.25,4.63-2.42,5.47
			S318.73,231.42,317.89,229.24z M319.83,228.49c0.43,1.11,1.68,1.66,2.78,1.23c1.11-0.43,1.66-1.68,1.23-2.78
			c-0.43-1.11-1.68-1.66-2.78-1.23C319.96,226.14,319.4,227.38,319.83,228.49z"/>
	</g>
	<g class="st68">
		<path class="st42" d="M328.47,187.72c-0.84-2.18,0.25-4.63,2.42-5.47s4.63,0.25,5.47,2.42c0.84,2.18-0.25,4.63-2.42,5.47
			S329.31,189.9,328.47,187.72z M330.41,186.98c0.43,1.11,1.68,1.66,2.78,1.23c1.11-0.43,1.66-1.68,1.23-2.78s-1.68-1.66-2.78-1.23
			C330.54,184.62,329.99,185.87,330.41,186.98z"/>
	</g>
	<g class="st68">
		<path class="st42" d="M340.72,233.7c-1.3-3.38,0.38-7.18,3.76-8.48c3.38-1.3,7.18,0.38,8.48,3.76c1.3,3.38-0.38,7.18-3.76,8.48
			C345.83,238.76,342.02,237.07,340.72,233.7z M343.73,232.54c0.66,1.72,2.6,2.58,4.32,1.91c1.72-0.66,2.58-2.6,1.91-4.32
			s-2.6-2.58-4.32-1.91S343.06,230.82,343.73,232.54z"/>
	</g>
	<g class="st68">
		<path class="st42" d="M319.68,209.8c-1.3-3.38,0.38-7.18,3.76-8.48c3.38-1.3,7.18,0.38,8.48,3.76c1.3,3.38-0.38,7.18-3.76,8.48
			C324.79,214.86,320.98,213.17,319.68,209.8z M322.69,208.64c0.66,1.72,2.6,2.58,4.32,1.91s2.58-2.6,1.91-4.32
			c-0.66-1.72-2.6-2.58-4.32-1.91S322.02,206.92,322.69,208.64z"/>
	</g>
	<g class="st68">
		<path class="st42" d="M341.42,209.79c2.12,5.49,8.3,8.23,13.79,6.11c1.09-0.42,2.07-1,2.92-1.7l-3.23-4.13
			c-0.45,0.39-0.99,0.71-1.58,0.94c-2.79,1.08-5.94-0.32-7.02-3.11c-1.07-2.78,0.31-5.92,3.09-7.01c-0.47-1.39-1.07-3.1-1.75-4.93
			c-0.04,0.01-0.07,0.02-0.11,0.04C342.04,198.11,339.3,204.3,341.42,209.79z"/>
	</g>
	<g class="st68">
		<path class="st42" d="M289.16,220.64c2.86,2.18,6.74,2.87,10.33,1.49c5.48-2.12,8.23-8.3,6.11-13.79
			c-0.65-1.68-1.68-3.1-2.95-4.21l-0.83,0.68l-2.61,3.26c0.65,0.56,1.17,1.29,1.5,2.15c1.08,2.79-0.31,5.94-3.11,7.02
			c-1.79,0.69-3.73,0.36-5.17-0.7L289.16,220.64z"/>
	</g>
</g>
<g>
	<g class="st51">
		<g>
			<path class="st69" d="M418.41,184.78c-0.46,7.29,1.51,15.6,5.17,21.64c0.02,0.04,0.05,0.08,0.07,0.12
				c1.99,3.24,4.32,5.64,6.97,7.16c0.88,0.51,1.79,0.92,2.74,1.23c3.72,1.23,6.27,0.98,7.58-0.75c0.77-1.01,0.98-2.37,1-3.5
				l-5.61,0.48l0.01-3.38l7.43-0.64l0.45,2.06c0.04,0.2,1.04,4.9-1.08,7.72c-1.65,2.21-4.68,2.64-9.01,1.26
				c-0.08-0.03-0.17-0.05-0.26-0.08c-1.11-0.37-2.2-0.86-3.25-1.47c-0.48-0.28-0.95-0.58-1.42-0.9
				c-10.84-7.84-15.56-17.93-17.6-25.01c-1.34-4.62-1.73-8.53-1.82-10.92l2.55,1.47c0.1,2.19,0.47,5.73,1.67,9.83
				c1.2,4.13,2.96,7.92,5.26,11.35c-2.5-6.01-3.75-12.94-3.4-19.15L418.41,184.78z"/>
		</g>
		<g>
			<path class="st69" d="M445.57,202.42c0.86,0.5,1.56,1.7,1.55,2.69c0,0.99-0.7,1.38-1.56,0.89c-0.86-0.5-1.55-1.7-1.55-2.68
				S444.71,201.92,445.57,202.42z"/>
		</g>
		<g>
			<path class="st69" d="M444.84,196.95c2.42,1.39,4.62,3.82,6.47,7.18c0.6,0.12,1.31,0.36,2.06,0.8c1.24,0.71,2.57,1.94,3.63,3.94
				c-0.21,0.07-4.22,1.31-4.23,5.03l0,0.37c0,4.95,0,17.84-18.02,10.42c1.42,2.1,2.78,4.62,3.32,7.16c0.88,0.56,1.77,1.13,2.63,1.74
				l6.35-1.03l-0.01,3.48l-2.51,0.41c0.85,0.68,1.69,1.38,2.51,2.09l-0.01,3.03c-3.35-3.03-7.16-5.8-11.03-8.04
				c-3.98-2.3-7.89-3.95-11.32-4.78l0.01-3.03c3.29,0.88,6.93,2.42,10.65,4.51c-0.76-2.25-2.38-4.53-3.41-5.85
				c-0.69-0.87-1.03-2.01-0.85-2.81c0.18-0.8,0.83-1.09,1.63-0.73c6.39,2.91,11.07,3.56,13.96,1.93c0.55-0.31,1.03-0.7,1.45-1.18
				c2.12-2.4,2.12-6.4,2.12-8.79l0-0.37c0.01-3.16,1.51-4.32,2.94-4.7c-0.84-0.42-1.56-0.41-1.61-0.41l-0.93,0.03l-0.66-1.33
				c-1.49-3.01-3.18-5.05-5.12-6.17c-1.35-0.78-2.82-1.11-4.42-1c-1.8,0.13-3.27,0.82-4.05,1.26l0.01-2.42l0-1.52
				c0.8-0.28,1.74-0.52,2.8-0.59C441.14,195.45,443.05,195.91,444.84,196.95z"/>
		</g>
	</g>
	<g>
		
			<linearGradient id="SVGID_00000014591665610325223390000010774508005800888989_" gradientUnits="userSpaceOnUse" x1="432.7066" y1="199.0436" x2="448.4558" y2="221.5358">
			<stop  offset="0" style="stop-color:#DFEDE4"/>
			<stop  offset="0.0889" style="stop-color:#CFE9E1"/>
			<stop  offset="0.2703" style="stop-color:#A8DDDB"/>
			<stop  offset="0.4951" style="stop-color:#79CDD3"/>
			<stop  offset="0.6514" style="stop-color:#8EA9DC"/>
			<stop  offset="0.8106" style="stop-color:#AE8AE4"/>
			<stop  offset="0.932" style="stop-color:#C679E9"/>
			<stop  offset="1" style="stop-color:#CF73EB"/>
		</linearGradient>
		<path style="fill:url(#SVGID_00000014591665610325223390000010774508005800888989_);" d="M453.15,207.73
			c-1.43,0.38-2.93,1.54-2.94,4.7l0,0.37c0,2.39,0,6.39-2.12,8.79c-0.42,0.47-0.9,0.87-1.45,1.18c-2.01,0.54-4.86,0.13-8.92-2.21
			c-1.1-0.64-2.3-1.42-3.59-2.36c4.32,1.38,7.35,0.95,9.01-1.26c2.11-2.82,1.12-7.52,1.08-7.72l-0.45-2.06l-7.43,0.64l-0.01,3.38
			l5.61-0.48c-0.02,1.13-0.23,2.5-1,3.5c-1.31,1.73-3.86,1.98-7.58,0.75c-0.95-0.31-1.86-0.73-2.74-1.23
			c-2.64-1.53-4.98-3.93-6.97-7.16c-0.02-0.04-0.05-0.08-0.07-0.12c2.21-2.27,7.36-7.08,12.79-8.73l-0.01,2.42
			c0.78-0.44,2.25-1.13,4.05-1.26c1.6-0.11,3.07,0.22,4.42,1c1.94,1.12,3.63,3.17,5.12,6.17l0.66,1.33l0.93-0.03
			C451.6,207.32,452.31,207.3,453.15,207.73z M445.56,205.99c0.86,0.5,1.56,0.1,1.56-0.89c0-0.99-0.69-2.19-1.55-2.69
			c-0.86-0.5-1.56-0.1-1.56,0.89C444.01,204.29,444.7,205.5,445.56,205.99"/>
	</g>
</g>
<g>
	<path class="st42" d="M357.5,71.66c0.83,0.48,1.5,1.64,1.5,2.59c0,0.96-0.68,1.34-1.51,0.87c-0.83-0.48-1.51-1.65-1.5-2.61
		C355.99,71.56,356.67,71.17,357.5,71.66z"/>
	<path class="st42" d="M352.98,69.05c0.83,0.48,1.5,1.64,1.5,2.59c0,0.96-0.67,1.35-1.51,0.87c-0.83-0.48-1.51-1.65-1.5-2.61
		C351.47,68.95,352.15,68.57,352.98,69.05z"/>
	<path class="st42" d="M348.46,66.44c0.83,0.48,1.51,1.65,1.5,2.6c0,0.96-0.68,1.34-1.51,0.86c-0.83-0.48-1.5-1.64-1.5-2.6
		C346.96,66.35,347.64,65.96,348.46,66.44z"/>
</g>
</svg>
