<?xml version="1.0" encoding="utf-8"?>
<!-- Generator: Adobe Illustrator 26.4.1, SVG Export Plug-In . SVG Version: 6.00 Build 0)  -->
<svg version="1.1" id="Layer_1" xmlns="http://www.w3.org/2000/svg" xmlns:xlink="http://www.w3.org/1999/xlink" x="0px" y="0px"
	 viewBox="0 0 500 500" style="enable-background:new 0 0 500 500;" xml:space="preserve">
<style type="text/css">
	.st0{fill:url(#SVGID_1_);}
	.st1{fill:#EFEFF4;}
	.st2{fill:#3C4451;}
	.st3{fill:url(#SVGID_00000105427214969335651020000010201453832553680038_);}
	.st4{fill:#E9E9EE;}
	.st5{fill:#F5F5FF;}
	.st6{fill:#B5B7C4;}
	.st7{opacity:0.61;fill:#E9E9EE;}
	.st8{fill:url(#SVGID_00000170239518210202018710000011719770862969530545_);}
	.st9{fill:url(#SVGID_00000048496474067225807670000006358601582136169657_);}
	.st10{fill:url(#SVGID_00000083799616680709226210000008101217675314524553_);}
	.st11{fill:url(#SVGID_00000060724501929365116620000010978676411394504122_);}
	.st12{fill:url(#SVGID_00000075141262733792412260000006016246036498975388_);}
	.st13{fill:url(#SVGID_00000022553268648396468480000002696817595646102705_);}
	.st14{fill:url(#SVGID_00000117661128755909259910000004363080038454472126_);}
	.st15{fill:url(#SVGID_00000149375277724885781780000011941798470807152550_);}
	.st16{fill:url(#SVGID_00000109726482831297053930000006736003685402397586_);}
	.st17{fill:url(#SVGID_00000027580716993750503490000011637102821990653887_);}
	.st18{fill:url(#SVGID_00000079457968998552712740000000092611537909704324_);}
	.st19{fill:#D5D7E0;}
	.st20{fill:#C6C8D3;}
	.st21{fill:url(#SVGID_00000176001455138503043100000014271237420157203101_);}
	.st22{fill:url(#SVGID_00000158010535185451191460000011362869175783165576_);}
	.st23{fill:#70569B;}
	.st24{opacity:0.3;fill:#474452;}
	.st25{fill:url(#SVGID_00000103950278749515063180000017290170206266770583_);}
	.st26{fill:url(#SVGID_00000114765596027491357710000000687534577037968795_);}
	.st27{fill:#D6DAF2;}
	.st28{fill:url(#SVGID_00000060712587124510886720000013526378562936197532_);}
	.st29{fill:url(#SVGID_00000117656881150708432820000009781883885491780004_);}
	.st30{fill:url(#SVGID_00000116955401037559418890000014539797932797914296_);}
	.st31{fill:url(#SVGID_00000134211248037400375480000010691026131032309424_);}
	.st32{fill:none;stroke:#DFE2ED;stroke-miterlimit:10;}
	.st33{fill:url(#SVGID_00000036224141072574763150000010435836757680503201_);}
	.st34{fill:url(#SVGID_00000094612575447109051400000000325727233220144779_);}
	.st35{fill:url(#SVGID_00000127728042912125588900000010505349693990966207_);}
	.st36{opacity:0.1;fill:#474452;}
	.st37{fill:url(#SVGID_00000057848133907543200080000014078165347778887337_);}
	.st38{fill:url(#SVGID_00000074424843112579719620000017364979684746241453_);}
	.st39{fill:url(#SVGID_00000085239002459163409870000012783557071062054826_);}
	.st40{fill:url(#SVGID_00000012468264191757407010000000854467882942369198_);}
	.st41{opacity:0.5;}
	.st42{fill:#FFFFFF;}
	.st43{fill:url(#SVGID_00000156587612300794550330000018092467306213861789_);}
	.st44{fill:url(#SVGID_00000032610148470159754970000005697377548324595901_);}
	.st45{fill:url(#SVGID_00000010303912594522219800000016628475782250279808_);}
	.st46{fill:none;stroke:#FFFFFF;stroke-width:2;stroke-miterlimit:10;}
	.st47{opacity:0.6;fill:#D5D7E0;}
	.st48{fill:url(#SVGID_00000093141548668989993870000012078590774798870204_);}
	.st49{fill:url(#SVGID_00000069397621001114771350000015467257741014058158_);}
	.st50{fill:url(#SVGID_00000046329387917425401290000008862289709776847796_);}
	.st51{enable-background:new    ;}
	.st52{fill:url(#SVGID_00000150823475422285343320000016600755986445121707_);}
	.st53{fill:url(#SVGID_00000183217154456434075050000017182180844724250786_);}
	.st54{fill:url(#SVGID_00000009549241153459393980000017257329859109491361_);}
	.st55{fill:url(#SVGID_00000148642479086056967230000010948885322762916019_);}
	.st56{fill:url(#SVGID_00000134968045985106629090000010408580399427975300_);}
	.st57{fill:url(#SVGID_00000126308229504794502420000009288832578757512619_);}
	.st58{fill:url(#SVGID_00000145774654709359497650000017687901422593363634_);}
	.st59{fill:url(#SVGID_00000085241580080202374980000000940657512788082097_);}
	.st60{fill:url(#SVGID_00000181052284846835323460000016820580521842998444_);}
	.st61{fill:#BAC1DD;}
	.st62{fill:url(#SVGID_00000085946544579808679130000016910498708625299118_);}
	.st63{fill:url(#SVGID_00000000940812737989157130000003483120511784402110_);}
	.st64{fill:url(#SVGID_00000156553802599666727030000015409504103841248142_);}
	.st65{fill:url(#SVGID_00000124139739279529827910000017861957756739727497_);}
	.st66{fill:url(#SVGID_00000115474203660413769310000009307717587833179803_);}
	.st67{fill:#DD7A7A;}
	.st68{opacity:0.3;}
	.st69{fill:#3E4450;}
	.st70{fill:url(#SVGID_00000015342485810100159160000000112158962904874426_);}
	.st71{fill:url(#SVGID_00000183955113868346111830000001252297459728262809_);}
	.st72{fill:url(#SVGID_00000019651229058815354380000012086463795885955219_);}
	.st73{fill:url(#SVGID_00000047033146272133771210000013942782359661703613_);}
	.st74{fill:url(#SVGID_00000155862909521427187890000003106391199593157817_);}
	.st75{fill:url(#SVGID_00000141447678470253755500000005504267179472460977_);}
	.st76{fill:url(#SVGID_00000143601279152788407760000018083574220750102182_);}
	.st77{fill:url(#SVGID_00000150808471266521776500000012601951771149067151_);}
	.st78{fill:#2E353F;}
	.st79{fill:url(#SVGID_00000110452206684113743250000013674839427036147373_);}
</style>
<linearGradient id="SVGID_1_" gradientUnits="userSpaceOnUse" x1="56.4361" y1="70.1504" x2="143.0086" y2="189.3073">
	<stop  offset="1.196656e-03" style="stop-color:#F5F5FF"/>
	<stop  offset="1" style="stop-color:#FFFFFF"/>
</linearGradient>
<path class="st0" d="M187.59,32.08l-0.05-16.5l-0.02-6.93c-0.01-4.7-3.33-6.6-7.43-4.23L18.9,97.5c-4.09,2.36-7.39,8.08-7.38,12.78
	l0.02,6.93l0.05,16.5l0.33,117.1c0.01,4.69,3.34,6.59,7.43,4.23l19-10.97l119.5-68.99l22.7-13.11c4.09-2.36,7.39-8.09,7.38-12.78
	L187.59,32.08z"/>
<path class="st1" d="M205.59,43.08l-0.05-16.5L29.54,128.2l0.05,16.5l0.33,117.1c0.01,4.69,3.34,6.59,7.43,4.23l19-10.97
	l119.5-68.99l22.7-13.11c4.09-2.36,7.39-8.09,7.38-12.78L205.59,43.08z"/>
<g>
	<path class="st2" d="M198.1,15.43c4.09-2.36,7.41-0.47,7.43,4.23l0.02,6.93L29.54,128.2l-0.02-6.93
		c-0.01-4.7,3.29-10.42,7.38-12.78L198.1,15.43z"/>
</g>
<g>
	
		<linearGradient id="SVGID_00000080889604898733014230000000706779759243770502_" gradientUnits="userSpaceOnUse" x1="8.0498" y1="352.5" x2="489.7202" y2="352.5">
		<stop  offset="1.196656e-03" style="stop-color:#F5F5FF"/>
		<stop  offset="1" style="stop-color:#FFFFFF"/>
	</linearGradient>
	<path style="fill:url(#SVGID_00000080889604898733014230000000706779759243770502_);" d="M477.71,369.43L278.86,484.99
		c-16.09,9.35-42.27,9.35-58.46,0l-16.8-9.7l-19.25-11.11l-5.97-3.45L39.01,380.26l-18.76-10.83c-16.19-9.35-16.28-24.51-0.19-33.86
		l198.85-115.56c16.1-9.35,42.26-9.35,58.45,0l200.16,115.56C493.71,344.92,493.8,360.08,477.71,369.43z"/>
</g>
<g>
	
		<linearGradient id="SVGID_00000099658681476259398690000017208864924897018762_" gradientUnits="userSpaceOnUse" x1="206.7796" y1="195.9129" x2="290.9907" y2="455.0879">
		<stop  offset="0" style="stop-color:#DFEDE4"/>
		<stop  offset="0.0889" style="stop-color:#CFE9E1"/>
		<stop  offset="0.2703" style="stop-color:#A8DDDB"/>
		<stop  offset="0.4951" style="stop-color:#79CDD3"/>
		<stop  offset="0.6514" style="stop-color:#8EA9DC"/>
		<stop  offset="0.8106" style="stop-color:#AE8AE4"/>
		<stop  offset="0.932" style="stop-color:#C679E9"/>
		<stop  offset="1" style="stop-color:#CF73EB"/>
	</linearGradient>
	<path style="fill:url(#SVGID_00000099658681476259398690000017208864924897018762_);" d="M477.71,342.43l-9.87,5.74l-19.12,11.11
		l-5.79,3.36l-140.1,81.42l-23.97,13.93c-16.09,9.35-42.27,9.35-58.46,0l-16.8-9.7l-19.25-11.11l-5.97-3.45L39.01,353.26
		l-18.76-10.83c-16.19-9.35-16.28-24.51-0.19-33.86l198.85-115.56c16.1-9.35,42.26-9.35,58.45,0l200.16,115.56
		C493.71,317.92,493.8,333.08,477.71,342.43z"/>
</g>
<g>
	
		<linearGradient id="SVGID_00000150060957206706604810000007104672713590220428_" gradientUnits="userSpaceOnUse" x1="276.8203" y1="361.9659" x2="467.84" y2="361.9659">
		<stop  offset="0" style="stop-color:#F7F7F7"/>
		<stop  offset="1" style="stop-color:#E8E3FA"/>
	</linearGradient>
	<path style="fill:url(#SVGID_00000150060957206706604810000007104672713590220428_);" d="M467.84,348.17l-19.12,11.11l-5.79,3.36
		l-140.1,81.42c-5.08-5.47-9.57-11.61-13.39-18.37c-5.31-9.42-8.89-19.34-10.83-29.41c-0.3-1.54-0.56-3.08-0.79-4.62v-0.01
		c-0.22-1.54-0.4-3.08-0.56-4.62c-0.89-9.33-0.42-18.69,1.33-27.79v-0.01c5.23-27.21,21.96-52.05,48-66.73
		c44.58-25.15,100.48-11.51,128.77,30.04c1.56,2.28,3.03,4.65,4.41,7.1C463.15,335.63,465.85,341.85,467.84,348.17z"/>
	<g>
		<path class="st19" d="M383.81,298.55c0.5-1.77,2.63-2.88,5.5-3.13c1.93-0.17,4.2,0.04,6.54,0.69c5.82,1.62,9.86,5.35,9.04,8.32
			c-0.29,1.03-1.13,1.84-2.34,2.39c-2.28,1.02-5.9,1.12-9.7,0.06C387.03,305.25,382.98,301.52,383.81,298.55z"/>
		<path class="st20" d="M392.85,306.88c3.81,1.06,7.42,0.96,9.7-0.06c-1.93,0.17-4.2-0.05-6.54-0.69c-5.82-1.62-9.87-5.36-9.04-8.33
			c0.29-1.03,1.13-1.83,2.34-2.38c-2.87,0.25-5,1.36-5.5,3.13C382.99,301.53,387.04,305.25,392.85,306.88z"/>
	</g>
	<g>
		<path class="st19" d="M343.98,346.51c-1.04,4.34,2.07,9.48,7.73,13.84c3.8,2.94,8.75,5.53,14.36,7.31
			c13.96,4.42,26.68,2.11,28.45-5.15c0.61-2.52-0.18-5.31-2.06-8.07c-3.53-5.17-10.9-10.2-20.02-13.1
			C358.49,336.93,345.74,339.24,343.98,346.51z"/>
		<path class="st20" d="M372.45,341.34c9.12,2.9,16.49,7.93,20.02,13.1c-3.8-2.94-8.76-5.52-14.36-7.31
			c-13.96-4.42-26.7-2.1-28.45,5.17c-0.61,2.52,0.2,5.31,2.07,8.05c-5.66-4.36-8.76-9.5-7.73-13.84
			C345.76,339.24,358.51,336.94,372.45,341.34z"/>
	</g>
	<g>
		<path class="st19" d="M279.89,396.74c-0.45-0.11-0.88-0.26-1.29-0.45c-2.4-12.37-2.35-24.94-0.01-37.05
			c1.06-1.95,2.23-3.73,3.46-5.31c4.36-5.65,9.51-8.76,13.84-7.73c5.04,1.22,7.69,7.71,7.37,16.22c-0.02,0.54-0.05,1.09-0.09,1.65
			c-0.1,1.39-0.29,2.82-0.55,4.27c-0.01,0,0,0.01-0.01,0.02c-0.26,1.47-0.6,2.97-1.03,4.49c-0.17,0.61-0.35,1.22-0.54,1.83
			c-1.63,5.13-3.93,9.71-6.56,13.36c-0.29,0.4-0.58,0.79-0.88,1.16c0,0,0,0.01-0.01,0.02c-0.29,0.37-0.6,0.74-0.9,1.1
			c0,0,0,0.01-0.01,0.02c-0.45,0.53-0.91,1.03-1.38,1.51c-0.16,0.17-0.32,0.34-0.48,0.49c-0.94,0.9-1.9,1.69-2.85,2.35l-0.02,0.01
			C285.2,396.55,282.4,397.34,279.89,396.74z"/>
		<path class="st20" d="M301.06,374.67c-2.9,9.12-7.93,16.49-13.1,20.02c2.94-3.8,5.52-8.76,7.31-14.36
			c4.42-13.96,2.1-26.7-5.17-28.45c-2.52-0.61-5.31,0.2-8.05,2.07c4.36-5.66,9.5-8.76,13.84-7.73
			C303.16,347.98,305.46,360.73,301.06,374.67z"/>
	</g>
	<g>
		<path class="st19" d="M467.84,348.17l-19.12,11.11l-5.79,3.36c-0.05-0.42-0.1-0.84-0.14-1.26c-0.27-2.77-0.34-5.69-0.19-8.7
			c0.36-6.74,1.77-13,3.86-18.14c0.23-0.53,0.45-1.06,0.69-1.57c0.12-0.28,0.24-0.53,0.37-0.79c0.15-0.32,0.31-0.62,0.46-0.93
			c1.11-2.09,2.33-3.94,3.65-5.45c0-0.01,0.01-0.02,0.01-0.02c0.01,0,0.02-0.01,0.02-0.02c1.17-1.34,2.41-2.43,3.7-3.22
			c1.56,2.28,3.03,4.65,4.41,7.1C463.15,335.63,465.85,341.85,467.84,348.17z"/>
		<path class="st20" d="M451.65,325.73c0,0.01-0.01,0.03-0.01,0.05c0,0-0.01,0.01-0.01,0.02c-2.23,5.23-3.7,11.69-4.06,18.63
			c-0.29,5.38,0.15,10.44,1.15,14.85l-5.79,3.36c-0.05-0.42-0.1-0.84-0.14-1.26c-0.27-2.77-0.34-5.69-0.19-8.7
			c0.36-6.74,1.77-13,3.86-18.14c0.23-0.53,0.45-1.06,0.69-1.57c0.12-0.28,0.24-0.53,0.37-0.79c0.15-0.32,0.31-0.62,0.46-0.93
			C449.08,329.12,450.32,327.27,451.65,325.73z"/>
	</g>
	<circle class="st20" cx="421.16" cy="345.39" r="1.81"/>
	<circle class="st20" cx="341.62" cy="317.1" r="3.61"/>
	<circle class="st20" cx="327.07" cy="415.32" r="6.07"/>
</g>
<g class="st41">
	<circle class="st42" cx="223" cy="424" r="7"/>
	<circle class="st42" cx="186.5" cy="259.5" r="3.5"/>
	<circle class="st42" cx="136" cy="360" r="2"/>
	<circle class="st42" cx="384" cy="269" r="2"/>
	<circle class="st42" cx="284" cy="273" r="2"/>
	<circle class="st42" cx="58" cy="306" r="2"/>
</g>
<g>
	
		<linearGradient id="SVGID_00000170276795781451844220000011922937489314486422_" gradientUnits="userSpaceOnUse" x1="357.2055" y1="309.4429" x2="370.779" y2="309.4429" gradientTransform="matrix(-0.4882 -0.8727 0.8727 -0.4882 121.6191 640.1615)">
		<stop  offset="0" style="stop-color:#F9C2C5"/>
		<stop  offset="1" style="stop-color:#F3ABAB"/>
	</linearGradient>
	<path style="fill:url(#SVGID_00000170276795781451844220000011922937489314486422_);" d="M221.24,163.33c0,0-3.57,6.23-3.92,10.66
		s-2.46,2.32-2.99-1.15c0,0-1.54,6.5-2.77,7.66c-1.23,1.16-0.73-3.82-0.73-3.82s-3.5,3.84-4.61,3.52c-1.12-0.32,1.29-7.78,1.29-7.78
		l6.84-7.12l6-5.24L221.24,163.33z"/>
	
		<linearGradient id="SVGID_00000030458607644924403700000007068973001116981137_" gradientUnits="userSpaceOnUse" x1="357.2343" y1="321.2951" x2="392.1222" y2="321.2951" gradientTransform="matrix(-0.4882 -0.8727 0.8727 -0.4882 121.6191 640.1615)">
		<stop  offset="0" style="stop-color:#F9C2C5"/>
		<stop  offset="1" style="stop-color:#F3ABAB"/>
	</linearGradient>
	<path style="fill:url(#SVGID_00000030458607644924403700000007068973001116981137_);" d="M236.92,140.92l-12.99,17.14
		c0,0,5.18,12.62,3.03,13.82s-6.96-7.39-6.96-7.39s-14,11.12-16.59,10.69c-2.59-0.43,8.77-12.9,8.77-12.9l14.58-30.26L236.92,140.92
		z"/>
	<path class="st42" d="M329.3,290.07l-1.68-0.47c0,0-2.21,7.82-4.99,11.26c-1.92,2.37-11.77,10.52-17.71,15.35
		c-2.57,2.09-3.08,5.8-1.17,8.51l0,0c1.97,2.8,5.81,3.51,8.65,1.62c6.75-4.51,18.17-12.57,21.97-17.94
		c5.52-7.79,4.29-18.39,4.29-18.39L329.3,290.07z"/>
	<path class="st42" d="M277.02,261.9l-4.22,10.39c0,0-28.74,14.2-25.94,19.21s26.06-4.7,26.06-4.7l0,0c0.04,0.9,0.96,1.49,1.79,1.16
		l6.26-2.46c0.33-0.13,0.59-0.38,0.73-0.71l7.58-17.7L277.02,261.9z"/>
	<path class="st2" d="M345.77,291.39l27.36-102.03c0,0,5.51-23.78,0.76-38.99c-0.93-2.97-4.26-5.36-9.02-7.27
		c-19.58-7.87-63.34-7.74-63.34-7.74l-28.32,120.26c-0.27,1.12-0.07,2.3,0.52,3.29c1.88,3.08,6.72,9.32,15.06,9.07c0,0,0,0,0,0
		c1.8-0.05,3.76-0.41,5.9-1.17c1.18-0.42,2.11-1.34,2.58-2.5c3.37-8.45,18.15-46.22,29.1-84.84c1.49-5.24,2.91-10.49,4.22-15.69
		l4.51,2.18c0,0-5.93,80.13-11.3,118.2c-0.16,1.17,0.09,2.36,0.74,3.35c1.66,2.55,5.62,7.04,13.25,7.57
		c1.14,0.08,2.37,0.07,3.68-0.05C343.53,294.83,345.24,293.37,345.77,291.39z"/>
	<path class="st24" d="M297.28,264.3c3.37-8.45,18.15-46.22,29.1-84.84l-4.87-1.67c-8.16,43.67-27.64,80.97-32.71,90.18
		c1.8-0.05,3.76-0.41,5.9-1.17C295.88,266.38,296.81,265.46,297.28,264.3z"/>
	<path class="st24" d="M345.77,291.39l27.36-102.03c0,0,5.51-23.78,0.76-38.99c-0.93-2.97-4.26-5.36-9.02-7.27l-4.03,3.29
		c0,0,7.38,16.56,4.28,44.64c-2.8,25.31-23.31,91.29-27.32,104.05c1.14,0.08,2.37,0.07,3.68-0.05
		C343.53,294.83,345.24,293.37,345.77,291.39z"/>
	
		<linearGradient id="SVGID_00000140714651035373992420000010828446179572615330_" gradientUnits="userSpaceOnUse" x1="287.9552" y1="438.2985" x2="430.7041" y2="438.2985" gradientTransform="matrix(-0.4882 -0.8727 0.8727 -0.4882 121.6191 640.1615)">
		<stop  offset="0" style="stop-color:#DFEDE4"/>
		<stop  offset="0.0889" style="stop-color:#CFE9E1"/>
		<stop  offset="0.2703" style="stop-color:#A8DDDB"/>
		<stop  offset="0.4951" style="stop-color:#79CDD3"/>
		<stop  offset="0.6514" style="stop-color:#8EA9DC"/>
		<stop  offset="0.8106" style="stop-color:#AE8AE4"/>
		<stop  offset="0.932" style="stop-color:#C679E9"/>
		<stop  offset="1" style="stop-color:#CF73EB"/>
	</linearGradient>
	<path style="fill:url(#SVGID_00000140714651035373992420000010828446179572615330_);" d="M271.89,63.04l2.67-1.96l5.73-3.21
		c0,0,41.47-9.09,74.75,26.85s25.59,80.21,25.59,80.21s-4.93,4.64-11.59,3.66l-1.67-12.23l-3.76,10.1c0,0-11.04-0.41-24.07-11.93
		c0,0-28.34-12.83-39.4-17.46c0,0,0.31-17.1-6.62-27.81l-26.19-25.8L271.89,63.04z"/>
	<path class="st46" d="M332.96,111.5c0,0,9.24-15.64,21.32,0.45c9.21,12.25,13.09,44.41,13.09,44.41"/>
	<g>
		<path class="st6" d="M278.27,245.56L278.27,245.56c1.58,0.7,3.33,0.93,5.04,0.68l0.02,0c1.19-0.18,2.34-0.59,3.37-1.21
			l32.32-18.97c1.27-0.75,2.05-2.11,2.05-3.58v0L278.27,245.56z"/>
		<path class="st4" d="M253.13,198.52l9.83-6.07c1.68-1.04,3.68-1.42,5.62-1.08l0,0c0.96,0.17,1.88,0.51,2.72,1l49.12,29.01
			c0.39,0.23,0.63,0.65,0.63,1.1l0,0c0,0.45-0.24,0.87-0.62,1.1l-32.37,19.41c-2.83,1.7-6.07,2.59-9.37,2.58l0,0L253.13,198.52z"/>
		<path class="st47" d="M276.07,234.77l1.93,1.67l4.9,3.14c0.94,0.6,2.14,0.64,3.11,0.1l18.02-9.95c0.81-0.45,0.82-1.6,0.02-2.06
			l-34.26-19.76L276.07,234.77z"/>
		<path class="st47" d="M284.91,204.04l-7.55,4.38c-0.65,0.38-0.66,1.31-0.02,1.7l11.45,6.92c0.69,0.42,1.56,0.42,2.25,0l7.51-4.53
			c0.64-0.39,0.64-1.31-0.01-1.69l-11.43-6.77C286.44,203.65,285.6,203.65,284.91,204.04z"/>
		<path class="st5" d="M214.98,174.08l51.1,29.46c1.92,1.11,3.33,2.91,3.94,5.04l10,34.95c0.04,0.14,0.06,0.29,0.06,0.44l0,0
			c0,1.23-1.33,2-2.4,1.4l-45.6-25.83c-2.44-1.38-4.51-3.33-6.04-5.67v0c-0.86-1.33-1.54-2.77-2.02-4.28l-10.78-34.13
			c-0.11-0.33-0.06-0.7,0.13-0.99l0,0C213.73,173.93,214.43,173.76,214.98,174.08z"/>
		<g>
			<path class="st6" d="M246.65,215.07c-1.58-0.91-2.87-3.37-2.87-5.48c0-2.11,1.28-3.08,2.87-2.17c1.58,0.91,2.87,3.37,2.87,5.48
				C249.51,215.01,248.23,215.98,246.65,215.07z"/>
		</g>
	</g>
	
		<linearGradient id="SVGID_00000029746398638048453690000002634594534299965060_" gradientUnits="userSpaceOnUse" x1="259.229" y1="389.1005" x2="333.4285" y2="389.1005" gradientTransform="matrix(-0.4882 -0.8727 0.8727 -0.4882 121.6191 640.1615)">
		<stop  offset="0" style="stop-color:#F9C2C5"/>
		<stop  offset="1" style="stop-color:#F3ABAB"/>
	</linearGradient>
	<path style="fill:url(#SVGID_00000029746398638048453690000002634594534299965060_);" d="M313.1,150.98c0,0,8.45,27.72-1.79,56.5
		c0,0-12.21,10.12-10.25,12.79s9-4.09,9-4.09s-0.69,8.85-2.71,12.81c-2.02,3.95-5.04,6.11-4.6,7.75c0.44,1.63,2.88,2.62,2.88,2.62
		s11.55-4.58,14.69-8.22s2.43-15,2.43-15s15.03-40.58,9.91-65.6L313.1,150.98z"/>
	
		<linearGradient id="SVGID_00000080922114945661084250000011626129213315774140_" gradientUnits="userSpaceOnUse" x1="323.3015" y1="405.2257" x2="431.7036" y2="405.2257" gradientTransform="matrix(-0.4882 -0.8727 0.8727 -0.4882 121.6191 640.1615)">
		<stop  offset="0" style="stop-color:#F7F7F7"/>
		<stop  offset="1" style="stop-color:#E8E3FA"/>
	</linearGradient>
	<path style="fill:url(#SVGID_00000080922114945661084250000011626129213315774140_);" d="M279.51,104.4c0,0,5.79,1.94,14.11,10.92
		c8.32,8.99,17.85,36.11,17.85,36.11s6.56,6.68,16.83,2.34c10.27-4.34,11.18-8.6,11.18-8.6s-0.76-28.26-11.97-44.1
		s-32.8-9.87-32.8-9.87s-9.85-14.24-19.65-11.58c0,0-6.14-13.5,5.24-21.74c0,0-18.08,6.35-29.8,19.02
		c-11.72,12.67-10.54,22.36-10.54,22.36L279.51,104.4z"/>
	<path class="st2" d="M265.38,96.79l-3.04-2.06c0,0-15.21-7.01-21.3-3.6c0,0-8.42-3.28-14.23,2.31c-5.8,5.6-5.04,22.1,0.17,31.41
		c0,0-5.15,11.82,3,17.13c8.15,5.32,13.34-5.58,13.34-5.58s2.45,5.22,5.87,3.77c3.42-1.45,2.17-8.74,2.17-8.74s5.33,2.8,4.24-4.18
		l5.42-5.45l7.64-5.68L265.38,96.79z"/>
	
		<linearGradient id="SVGID_00000132767620299689302750000003814377222780794805_" gradientUnits="userSpaceOnUse" x1="375.2496" y1="390.0398" x2="409.7882" y2="390.0398" gradientTransform="matrix(-0.4882 -0.8727 0.8727 -0.4882 121.6191 640.1615)">
		<stop  offset="0" style="stop-color:#F9C2C5"/>
		<stop  offset="1" style="stop-color:#F3ABAB"/>
	</linearGradient>
	<path style="fill:url(#SVGID_00000132767620299689302750000003814377222780794805_);" d="M254.66,127.24c0,0,20.14-1.99,22.59-4.17
		c2.82-2.52-1.76-14.07-1.76-14.07l9.31-5.21c0,0,6.39,3.01,7.82,2.21s0.01-11.76-7.51-19.31c-7.52-7.55-13.59,0.08-11.75,4.22
		c0,0-5.73,3.21-11.03,3.82c0,0,2.32,2.46-1.85,7.62c-4.17,5.16-6.02,12.78,4.38,11.19l-0.27,2.03c0,0-7.33,0.34-8.77,1.14
		s0.53,3.47,0.53,3.47s-3.78,1.65-4.1,2.76C251.94,124.05,254.66,127.24,254.66,127.24z"/>
</g>
<linearGradient id="SVGID_00000054962999962834983460000013941645558816394163_" gradientUnits="userSpaceOnUse" x1="415.3438" y1="203.2151" x2="484.5834" y2="203.2151">
	<stop  offset="1.196656e-03" style="stop-color:#F5F5FF"/>
	<stop  offset="1" style="stop-color:#FFFFFF"/>
</linearGradient>
<path style="fill:url(#SVGID_00000054962999962834983460000013941645558816394163_);" d="M479.42,180.49l-58.7-33.89
	c-2.86-1.65-5.18-0.32-5.19,2.96l-0.02,6.16l-0.17,61.28c-0.01,3.28,2.3,7.28,5.16,8.93l58.7,33.89c2.86,1.65,5.19,0.33,5.19-2.96
	l0.17-61.28l0.02-6.16C484.59,186.14,482.28,182.14,479.42,180.49z"/>
<g>
	<g>
		<path class="st2" d="M465.08,183.05c2.86,1.65,5.17,5.65,5.16,8.94l-0.02,6.16l-69.05-39.87l0.02-6.16
			c0.01-3.28,2.33-4.61,5.19-2.96L465.08,183.05z"/>
	</g>
	<g>
		<path class="st4" d="M470.22,198.15l-0.17,61.28c-0.01,3.28-2.34,4.61-5.19,2.96l-58.7-33.89c-2.86-1.65-5.17-5.65-5.16-8.93
			l0.17-61.28L470.22,198.15z"/>
	</g>
</g>
<g>
	<g class="st51">
		<g>
			<path class="st69" d="M419.41,184.78c-0.46,7.29,1.51,15.6,5.17,21.64c0.02,0.04,0.05,0.08,0.07,0.12
				c1.99,3.24,4.32,5.64,6.97,7.16c0.88,0.51,1.79,0.92,2.74,1.23c3.72,1.23,6.27,0.98,7.58-0.75c0.77-1.01,0.98-2.37,1-3.5
				l-5.61,0.48l0.01-3.38l7.43-0.64l0.45,2.06c0.04,0.2,1.04,4.9-1.08,7.72c-1.65,2.21-4.68,2.64-9.01,1.26
				c-0.08-0.03-0.17-0.05-0.26-0.08c-1.11-0.37-2.2-0.86-3.25-1.47c-0.48-0.28-0.95-0.58-1.42-0.9
				c-10.84-7.84-15.56-17.93-17.6-25.01c-1.34-4.62-1.73-8.53-1.82-10.92l2.55,1.47c0.1,2.19,0.47,5.73,1.67,9.83
				c1.2,4.13,2.96,7.92,5.26,11.35c-2.5-6.01-3.75-12.94-3.4-19.15L419.41,184.78z"/>
		</g>
		<g>
			<path class="st69" d="M446.57,202.42c0.86,0.5,1.56,1.7,1.55,2.69c0,0.99-0.7,1.38-1.56,0.89c-0.86-0.5-1.55-1.7-1.55-2.68
				S445.71,201.92,446.57,202.42z"/>
		</g>
		<g>
			<path class="st69" d="M445.84,196.95c2.42,1.39,4.62,3.82,6.47,7.18c0.6,0.12,1.31,0.36,2.06,0.8c1.24,0.71,2.57,1.94,3.63,3.94
				c-0.21,0.07-4.22,1.31-4.23,5.03l0,0.37c0,4.95,0,17.84-18.02,10.42c1.42,2.1,2.78,4.62,3.32,7.16c0.88,0.56,1.77,1.13,2.63,1.74
				l6.35-1.03l-0.01,3.48l-2.51,0.41c0.85,0.68,1.69,1.38,2.51,2.09l-0.01,3.03c-3.35-3.03-7.16-5.8-11.03-8.04
				c-3.98-2.3-7.89-3.95-11.32-4.78l0.01-3.03c3.29,0.88,6.93,2.42,10.65,4.51c-0.76-2.25-2.38-4.53-3.41-5.85
				c-0.69-0.87-1.03-2.01-0.85-2.81c0.18-0.8,0.83-1.09,1.63-0.73c6.39,2.91,11.07,3.56,13.96,1.93c0.55-0.31,1.03-0.7,1.45-1.18
				c2.12-2.4,2.12-6.4,2.12-8.79l0-0.37c0.01-3.16,1.51-4.32,2.94-4.7c-0.84-0.42-1.56-0.41-1.61-0.41l-0.93,0.03l-0.66-1.33
				c-1.49-3.01-3.18-5.05-5.12-6.17c-1.35-0.78-2.82-1.11-4.42-1c-1.8,0.13-3.27,0.82-4.05,1.26l0.01-2.42l0-1.52
				c0.8-0.28,1.74-0.52,2.8-0.59C442.14,195.45,444.05,195.91,445.84,196.95z"/>
		</g>
	</g>
	<g>
		
			<linearGradient id="SVGID_00000044147556712580800540000013848313470756627884_" gradientUnits="userSpaceOnUse" x1="433.7066" y1="199.0436" x2="449.4558" y2="221.5358">
			<stop  offset="0" style="stop-color:#DFEDE4"/>
			<stop  offset="0.0889" style="stop-color:#CFE9E1"/>
			<stop  offset="0.2703" style="stop-color:#A8DDDB"/>
			<stop  offset="0.4951" style="stop-color:#79CDD3"/>
			<stop  offset="0.6514" style="stop-color:#8EA9DC"/>
			<stop  offset="0.8106" style="stop-color:#AE8AE4"/>
			<stop  offset="0.932" style="stop-color:#C679E9"/>
			<stop  offset="1" style="stop-color:#CF73EB"/>
		</linearGradient>
		<path style="fill:url(#SVGID_00000044147556712580800540000013848313470756627884_);" d="M454.15,207.73
			c-1.43,0.38-2.93,1.54-2.94,4.7l0,0.37c0,2.39,0,6.39-2.12,8.79c-0.42,0.47-0.9,0.87-1.45,1.18c-2.01,0.54-4.86,0.13-8.92-2.21
			c-1.1-0.64-2.3-1.42-3.59-2.36c4.32,1.38,7.35,0.95,9.01-1.26c2.11-2.82,1.12-7.52,1.08-7.72l-0.45-2.06l-7.43,0.64l-0.01,3.38
			l5.61-0.48c-0.02,1.13-0.23,2.5-1,3.5c-1.31,1.73-3.86,1.98-7.58,0.75c-0.95-0.31-1.86-0.73-2.74-1.23
			c-2.64-1.53-4.98-3.93-6.97-7.16c-0.02-0.04-0.05-0.08-0.07-0.12c2.21-2.27,7.36-7.08,12.79-8.73l-0.01,2.42
			c0.78-0.44,2.25-1.13,4.05-1.26c1.6-0.11,3.07,0.22,4.42,1c1.94,1.12,3.63,3.17,5.12,6.17l0.66,1.33l0.93-0.03
			C452.6,207.32,453.31,207.3,454.15,207.73z M446.56,205.99c0.86,0.5,1.56,0.1,1.56-0.89c0-0.99-0.69-2.19-1.55-2.69
			c-0.86-0.5-1.56-0.1-1.56,0.89C445.01,204.29,445.7,205.5,446.56,205.99"/>
	</g>
</g>
<g>
	<g>
		<path class="st42" d="M181.38,147.62c0.93-0.54,1.7-0.1,1.7,0.97l0.05,18.81c0,1.08-0.76,2.39-1.69,2.93l-35.51,20.5
			c-0.93,0.54-1.69,0.11-1.69-0.97l-0.05-18.81c0-1.07,0.75-2.38,1.68-2.92L181.38,147.62z"/>
	</g>
	<g>
		<path class="st42" d="M181.2,81.9c0.93-0.54,1.7-0.11,1.7,0.96L183,118c0,1.08-0.76,2.39-1.69,2.93l-36.75,21.22
			c-0.93,0.54-1.7,0.11-1.7-0.97l-0.1-35.13c0-1.07,0.76-2.38,1.69-2.92L181.2,81.9z"/>
	</g>
	<g>
		<path class="st42" d="M181.33,128.6c0.93-0.54,1.7-0.11,1.7,0.96l0.02,6.76c0,1.07-0.76,2.38-1.69,2.92L58.8,210
			c-0.94,0.54-1.7,0.11-1.7-0.96l-0.02-6.76c0-1.07,0.75-2.38,1.69-2.92L181.33,128.6z"/>
	</g>
	<g>
		<path class="st42" d="M137.37,107.21c0.93-0.54,1.7-0.11,1.7,0.96l0.1,35.13c0,1.08-0.76,2.39-1.69,2.93L89,174.22
			c-0.93,0.54-1.7,0.11-1.7-0.97l-0.1-35.13c0-1.07,0.76-2.38,1.69-2.92L137.37,107.21z"/>
	</g>
	<g>
		<path class="st42" d="M81.8,139.29c0.93-0.54,1.7-0.11,1.7,0.96l0.1,35.13c0,1.08-0.76,2.39-1.69,2.93l-23.16,13.37
			c-0.94,0.54-1.7,0.11-1.7-0.97l-0.1-35.13c0-1.07,0.75-2.38,1.69-2.92L81.8,139.29z"/>
	</g>
	<g>
		<path class="st42" d="M181.12,52.23c0.93-0.54,1.7-0.1,1.7,0.97l0.05,18.1c0,1.08-0.76,2.39-1.69,2.93L58.62,144.99
			c-0.94,0.54-1.7,0.11-1.7-0.97l-0.05-18.1c0-1.07,0.75-2.38,1.69-2.93L181.12,52.23z"/>
	</g>
</g>
<g>
	<polygon class="st6" points="61.3,157.88 61.31,159.76 79,149.55 79,147.66 	"/>
	<polygon class="st6" points="61.31,167.76 79,157.55 79,155.66 61.3,165.88 	"/>
	<polygon class="st6" points="61.31,175.76 79,165.55 79,163.66 61.3,173.88 	"/>
	<polygon class="st6" points="61.31,183.76 70,178.74 70,176.86 61.3,181.88 	"/>
</g>
<g>
	<polygon class="st6" points="63.3,215.88 63.31,217.76 129,179.88 129,178 	"/>
	<polygon class="st6" points="63.31,222.76 129,184.88 129,183 63.3,220.88 	"/>
	<polygon class="st6" points="63.31,227.76 129,189.88 129,188 63.3,225.88 	"/>
	<polygon class="st6" points="63.31,232.76 129,194.88 129,193 63.3,230.88 	"/>
	<polygon class="st6" points="63.31,237.76 96,218.91 96,217.03 63.3,235.88 	"/>
</g>
<g>
	
		<linearGradient id="SVGID_00000141457270950584124890000010456774489716377499_" gradientUnits="userSpaceOnUse" x1="155.3083" y1="106.4238" x2="166.2157" y2="118.9713">
		<stop  offset="0" style="stop-color:#DCEFE4"/>
		<stop  offset="0.0889" style="stop-color:#C8EBE2"/>
		<stop  offset="0.2703" style="stop-color:#96E0DD"/>
		<stop  offset="0.4951" style="stop-color:#4FD1D6"/>
		<stop  offset="0.6514" style="stop-color:#86ABE1"/>
		<stop  offset="0.8106" style="stop-color:#B788EB"/>
		<stop  offset="0.932" style="stop-color:#D673F1"/>
		<stop  offset="1" style="stop-color:#E16BF3"/>
	</linearGradient>
	<path style="fill:url(#SVGID_00000141457270950584124890000010456774489716377499_);" d="M160.73,102.05
		c5.12-2.96,9.28-0.58,9.29,5.3c0.02,5.88-4.11,13.05-9.23,16s-9.28,0.58-9.29-5.31C151.48,112.17,155.61,105.01,160.73,102.05z"/>
</g>
<polygon class="st6" points="77.06,122.74 77.07,124.62 94.76,114.4 94.76,112.52 "/>
<polygon class="st6" points="155.06,173.74 155.07,175.62 172.76,165.4 172.76,163.52 "/>
<g>
	<path class="st6" d="M69.43,129.38l4.16,2.37l-0.96,1.67l-4.16-2.37c-0.77,1.11-1.73,2.07-2.77,2.67
		c-2.58,1.49-4.68,0.29-4.69-2.67c-0.01-2.96,2.08-6.58,4.66-8.07c2.58-1.49,4.68-0.29,4.69,2.67
		C70.35,126.85,70,128.15,69.43,129.38z M65.68,132.14c1.82-1.05,3.3-3.61,3.29-5.7c-0.01-2.1-1.49-2.94-3.31-1.89
		c-1.83,1.05-3.3,3.61-3.3,5.71C62.37,132.35,63.86,133.2,65.68,132.14"/>
</g>
<g>
	<g>
		<polygon class="st2" points="104.39,140.42 104.4,143.28 98.85,150.46 104.42,151.11 104.43,154.12 95.43,153.19 95.43,151.85 		
			"/>
	</g>
	<g>
		<polygon class="st2" points="119.15,127.69 108.82,151.05 106.24,152.53 116.56,129.19 		"/>
	</g>
	<g>
		<polygon class="st2" points="121.01,130.83 130,131.89 130,133.23 121.05,144.52 121.04,141.51 126.57,134.46 121.02,133.69 		"/>
	</g>
</g>
<g>
	<path class="st42" d="M42.96,111.12c-0.83,0.48-1.5,1.64-1.5,2.59c0,0.96,0.68,1.34,1.51,0.87c0.83-0.48,1.51-1.65,1.5-2.61
		C44.47,111.02,43.79,110.64,42.96,111.12z"/>
	<path class="st42" d="M47.48,108.51c-0.83,0.48-1.5,1.64-1.5,2.59c0,0.96,0.67,1.35,1.51,0.87c0.83-0.48,1.51-1.65,1.5-2.61
		C48.99,108.41,48.31,108.03,47.48,108.51z"/>
	<path class="st42" d="M51.99,105.9c-0.83,0.48-1.51,1.65-1.5,2.6c0,0.96,0.68,1.34,1.51,0.86c0.83-0.48,1.5-1.64,1.5-2.6
		C53.5,105.81,52.82,105.42,51.99,105.9z"/>
</g>
</svg>
