<?xml version="1.0" encoding="utf-8"?>
<!-- Generator: Adobe Illustrator 26.4.1, SVG Export Plug-In . SVG Version: 6.00 Build 0)  -->
<svg version="1.1" id="Layer_1" xmlns="http://www.w3.org/2000/svg" xmlns:xlink="http://www.w3.org/1999/xlink" x="0px" y="0px"
	 viewBox="0 0 500 500" style="enable-background:new 0 0 500 500;" xml:space="preserve">
<style type="text/css">
	.st0{fill:url(#SVGID_1_);}
	.st1{fill:#EFEFF4;}
	.st2{fill:#3C4451;}
	.st3{fill:url(#SVGID_00000103252253248148359920000000208065260766869939_);}
	.st4{fill:#E9E9EE;}
	.st5{fill:#F5F5FF;}
	.st6{fill:#B5B7C4;}
	.st7{opacity:0.61;fill:#E9E9EE;}
	.st8{fill:url(#SVGID_00000145027546399615424520000014796517716902999957_);}
	.st9{fill:url(#SVGID_00000102538268320683706420000009203784361941496998_);}
	.st10{fill:url(#SVGID_00000141428754549290754580000010094109838246514327_);}
	.st11{fill:url(#SVGID_00000176009621531252706760000007992550284739852715_);}
	.st12{fill:url(#SVGID_00000031917320661156257470000001190486966964639131_);}
	.st13{fill:url(#SVGID_00000000910655842445331900000017955237165332753828_);}
	.st14{fill:url(#SVGID_00000021808618506730547360000015265516875909474699_);}
	.st15{fill:url(#SVGID_00000030489279430929173490000005626617186543230597_);}
	.st16{fill:url(#SVGID_00000160159339827608670130000008970317330033109153_);}
	.st17{fill:url(#SVGID_00000088107243785067232000000013507698543496220594_);}
	.st18{fill:url(#SVGID_00000128472205396215020500000011399905293678206849_);}
	.st19{fill:#D5D7E0;}
	.st20{fill:#C6C8D3;}
	.st21{fill:url(#SVGID_00000090293748758794395800000017417457559644030643_);}
	.st22{fill:url(#SVGID_00000088840812000815929490000008843647117957270184_);}
	.st23{fill:#70569B;}
	.st24{opacity:0.3;fill:#474452;}
	.st25{fill:url(#SVGID_00000174560974299520661900000018336337603981658241_);}
	.st26{fill:url(#SVGID_00000090978750592970534390000001378248948085451966_);}
	.st27{fill:#D6DAF2;}
	.st28{fill:url(#SVGID_00000109025961932750010940000016788051477828666533_);}
	.st29{fill:url(#SVGID_00000176733827803152693360000006991647908093415341_);}
	.st30{fill:url(#SVGID_00000137114292313739626540000002785008858936916107_);}
	.st31{fill:url(#SVGID_00000150075532400981680390000016864957740828965528_);}
	.st32{fill:none;stroke:#DFE2ED;stroke-miterlimit:10;}
	.st33{fill:url(#SVGID_00000070819630554465450420000009671996812518046389_);}
	.st34{fill:url(#SVGID_00000058547322124514721250000004238020254213293999_);}
	.st35{fill:url(#SVGID_00000173160475580826870090000002379285875883677829_);}
	.st36{opacity:0.1;fill:#474452;}
	.st37{fill:url(#SVGID_00000039093180715870861410000001250313693814858380_);}
	.st38{fill:url(#SVGID_00000137831560087976778910000005399217645463982765_);}
	.st39{fill:url(#SVGID_00000181775654509936754390000004700213043780129671_);}
	.st40{fill:url(#SVGID_00000052811479901623149890000004845299194298983315_);}
	.st41{opacity:0.5;}
	.st42{fill:#FFFFFF;}
	.st43{fill:url(#SVGID_00000081631632537679285970000012636914964438287498_);}
	.st44{fill:url(#SVGID_00000068659158176153891550000003787804048145389737_);}
	.st45{fill:url(#SVGID_00000155106339430360800810000004457154006988761990_);}
	.st46{fill:none;stroke:#FFFFFF;stroke-width:2;stroke-miterlimit:10;}
	.st47{opacity:0.6;fill:#D5D7E0;}
	.st48{fill:url(#SVGID_00000167379999502431627360000015253318342151810233_);}
	.st49{fill:url(#SVGID_00000039132140779202945180000005939558147718318505_);}
	.st50{fill:url(#SVGID_00000044877710245404902910000015727652337535530679_);}
	.st51{enable-background:new    ;}
	.st52{fill:url(#SVGID_00000039841608649985844050000003925963664632589992_);}
	.st53{fill:url(#SVGID_00000045577113814656803510000012525644521489298088_);}
	.st54{fill:url(#SVGID_00000089558149295476181470000002090558595446128003_);}
	.st55{fill:url(#SVGID_00000163751180343608299640000017415883590092394660_);}
	.st56{fill:url(#SVGID_00000011023908944768887420000015461160607011119030_);}
	.st57{fill:url(#SVGID_00000161611305083253117920000010892018325212573859_);}
	.st58{fill:url(#SVGID_00000176039683366809575630000000519642296555925145_);}
	.st59{fill:url(#SVGID_00000085968123065747365480000018333000309839945397_);}
	.st60{fill:url(#SVGID_00000013174569095621920800000012119164801160065412_);}
	.st61{fill:#BAC1DD;}
	.st62{fill:url(#SVGID_00000134224753042572176980000002066288889909798299_);}
	.st63{fill:url(#SVGID_00000035507249808834099450000014128742410870358956_);}
	.st64{fill:url(#SVGID_00000000944665154777797670000016847823194611036290_);}
	.st65{fill:url(#SVGID_00000074421740329194694110000016978820419961282440_);}
	.st66{fill:url(#SVGID_00000111191617417250440340000004651444230713041078_);}
	.st67{fill:#DD7A7A;}
	.st68{opacity:0.3;}
	.st69{fill:#3E4450;}
	.st70{fill:url(#SVGID_00000180330288009982695820000006394479979406338982_);}
	.st71{fill:url(#SVGID_00000142864987630379533640000000702422086398937734_);}
	.st72{fill:url(#SVGID_00000137841262052389103020000009329604541213473683_);}
	.st73{fill:url(#SVGID_00000066487637176845238950000010471370963449382061_);}
	.st74{fill:url(#SVGID_00000065754472086874006610000006428480218519283387_);}
	.st75{fill:url(#SVGID_00000078729823303763342120000006792278647262884224_);}
	.st76{fill:url(#SVGID_00000099625357058174229720000003649463315619638932_);}
	.st77{fill:url(#SVGID_00000138567527582197402220000014989036479393157269_);}
	.st78{fill:#2E353F;}
	.st79{fill:url(#SVGID_00000047748829640840456060000017366927330901484191_);}
</style>
<g>
	<path class="st5" d="M465.66,67.4v45.63l-69.22-39.97V26.51c0-0.23,0.1-0.44,0.25-0.58c0.06-0.06,0.14-0.11,0.22-0.15
		c0.23-0.1,0.5-0.11,0.74,0.03l66,38.1c0.54,0.31,0.99,0.74,1.33,1.24c0.05,0.08,0.1,0.15,0.15,0.23c0,0,0,0,0,0
		C465.47,65.99,465.66,66.68,465.66,67.4z"/>
	<path class="st6" d="M426.15,135.84c-0.63,0.36-1.32,0.54-2.02,0.54s-1.39-0.18-2.01-0.54l-66-38.1c-0.27-0.15-0.4-0.43-0.4-0.7
		v1.61l0.06,0.29c0,0,0,0,0,0c0.06,0.16,0.18,0.3,0.35,0.4l66,38.1c0.62,0.36,1.32,0.54,2.01,0.54s1.4-0.18,2.02-0.54l39.51-22.81
		v-1.61L426.15,135.84z"/>
	<path class="st4" d="M355.7,97.04c0,0.27,0.13,0.54,0.4,0.7l40.33,23.28l25.67,14.82c0.62,0.36,1.32,0.54,2.01,0.54
		s1.4-0.18,2.02-0.54l39.51-22.81l-69.22-39.97l-40.33,23.28C355.84,96.5,355.7,96.77,355.7,97.04z"/>
	<polygon class="st7" points="457.01,112.04 398.17,78.06 379.13,89.05 437.97,123.03 	"/>
	
		<linearGradient id="SVGID_1_" gradientUnits="userSpaceOnUse" x1="-4429.9106" y1="102.0825" x2="-4414.2397" y2="120.7586" gradientTransform="matrix(1 0 0 1 4821.1538 0)">
		<stop  offset="0" style="stop-color:#D2B1ED"/>
		<stop  offset="0.2325" style="stop-color:#C5AFF0"/>
		<stop  offset="0.7455" style="stop-color:#ABACF6"/>
	</linearGradient>
	<path class="st0" d="M383.43,109.24c0.05-0.2,0.18-0.38,0.38-0.5l10.62-6.11c0.25-0.15,0.56-0.15,0.81,0l19.15,11.05
		c0.2,0.11,0.33,0.3,0.38,0.5c0.08-0.33-0.04-0.71-0.38-0.9l-19.15-11.05c-0.25-0.15-0.56-0.15-0.81,0l-10.62,6.11
		C383.47,108.53,383.35,108.9,383.43,109.24z"/>
	<path class="st7" d="M383.43,109.24c0.05,0.2,0.18,0.38,0.38,0.5l19.15,11.05c0.25,0.15,0.56,0.15,0.81,0l10.62-6.12
		c0.2-0.11,0.33-0.3,0.38-0.5c-0.05-0.2-0.18-0.38-0.38-0.5l-19.15-11.05c-0.25-0.15-0.56-0.15-0.81,0l-10.62,6.11
		C383.61,108.85,383.48,109.04,383.43,109.24z"/>
	
		<linearGradient id="SVGID_00000031202975176688476340000008789205756196663942_" gradientUnits="userSpaceOnUse" x1="417.9378" y1="26.1807" x2="444.1626" y2="111.9581">
		<stop  offset="0" style="stop-color:#DFEDE4"/>
		<stop  offset="0.0889" style="stop-color:#CFE9E1"/>
		<stop  offset="0.2703" style="stop-color:#A8DDDB"/>
		<stop  offset="0.4951" style="stop-color:#79CDD3"/>
		<stop  offset="0.6514" style="stop-color:#8EA9DC"/>
		<stop  offset="0.8106" style="stop-color:#AE8AE4"/>
		<stop  offset="0.932" style="stop-color:#C679E9"/>
		<stop  offset="1" style="stop-color:#CF73EB"/>
	</linearGradient>
	<path style="fill:url(#SVGID_00000031202975176688476340000008789205756196663942_);" d="M461.19,106.45
		c0.56,0.32,1.01,0.06,1.01-0.59V68.24c0-0.64-0.46-1.44-1.01-1.76l-60.27-34.8c-0.56-0.32-1.01-0.06-1.01,0.59l0,37.62
		c0,0.64,0.46,1.44,1.01,1.76L461.19,106.45z"/>
	
		<linearGradient id="SVGID_00000102511802301220189780000017112982026027046589_" gradientUnits="userSpaceOnUse" x1="-4435.4268" y1="117.1316" x2="-4428.1772" y2="117.1316" gradientTransform="matrix(1 0 0 1 4821.1538 0)">
		<stop  offset="0" style="stop-color:#F4F2FD"/>
		<stop  offset="0.363" style="stop-color:#F1EEFA"/>
		<stop  offset="0.6977" style="stop-color:#E7E3F3"/>
		<stop  offset="1" style="stop-color:#D8D2E7"/>
	</linearGradient>
	<polygon style="fill:url(#SVGID_00000102511802301220189780000017112982026027046589_);" points="392.98,119.03 392.62,119.23 
		385.73,115.22 386.05,115.03 	"/>
	<path class="st6" d="M466.38,64.66c-0.35-0.64-0.87-1.18-1.52-1.56l-66-38.1c-0.28-0.16-0.59-0.14-0.82,0.01
		c-0.03,0.02-0.06,0.04-0.08,0.06l-1.05,0.71c0.23-0.1,0.5-0.11,0.74,0.03l66,38.1c0.63,0.36,1.13,0.87,1.47,1.48l0,0h0
		c0.35,0.6,0.54,1.29,0.54,2.01v45.63l1.21-0.7V66.59C466.87,65.9,466.7,65.24,466.38,64.66z"/>
</g>
<g>
	
		<linearGradient id="SVGID_00000101825385442531678880000017410954340931067011_" gradientUnits="userSpaceOnUse" x1="9.0498" y1="352.5" x2="490.7202" y2="352.5">
		<stop  offset="1.196656e-03" style="stop-color:#F5F5FF"/>
		<stop  offset="1" style="stop-color:#FFFFFF"/>
	</linearGradient>
	<path style="fill:url(#SVGID_00000101825385442531678880000017410954340931067011_);" d="M478.71,369.43L279.86,484.99
		c-16.09,9.35-42.27,9.35-58.46,0l-16.8-9.7l-19.25-11.11l-5.97-3.45L40.01,380.26l-18.76-10.83c-16.19-9.35-16.28-24.51-0.19-33.86
		l198.85-115.56c16.1-9.35,42.26-9.35,58.45,0l200.16,115.56C494.71,344.92,494.8,360.08,478.71,369.43z"/>
</g>
<g>
	
		<linearGradient id="SVGID_00000139991523369160418930000010065257819607080109_" gradientUnits="userSpaceOnUse" x1="207.7812" y1="195.9169" x2="291.991" y2="455.0878">
		<stop  offset="0" style="stop-color:#DFEDE4"/>
		<stop  offset="0.0889" style="stop-color:#CFE9E1"/>
		<stop  offset="0.2703" style="stop-color:#A8DDDB"/>
		<stop  offset="0.4951" style="stop-color:#79CDD3"/>
		<stop  offset="0.6514" style="stop-color:#8EA9DC"/>
		<stop  offset="0.8106" style="stop-color:#AE8AE4"/>
		<stop  offset="0.932" style="stop-color:#C679E9"/>
		<stop  offset="1" style="stop-color:#CF73EB"/>
	</linearGradient>
	<path style="fill:url(#SVGID_00000139991523369160418930000010065257819607080109_);" d="M489.62,331.08
		c-1.69,4.16-5.33,8.11-10.91,11.35L279.86,457.99c-16.09,9.35-42.27,9.35-58.46,0l-16.8-9.7l-19.25-11.11l-5.97-3.45L40.01,353.26
		l-18.76-10.83c-5.69-3.29-9.39-7.29-11.1-11.51c-3.16-7.78,0.47-16.29,10.91-22.35l25.64-14.9l11.78-6.84l19.15-11.13l5.82-3.39
		l128.66-74.77l6.81-3.96l0.99-0.57c1.11-0.64,2.26-1.24,3.46-1.79c6.72-3.12,14.73-4.84,22.9-5.16c11.5-0.46,23.27,1.86,32.09,6.95
		l200.16,115.56C489.09,314.68,492.8,323.26,489.62,331.08z"/>
</g>
<g>
	
		<linearGradient id="SVGID_00000010999634633071701940000014622148680678677390_" gradientUnits="userSpaceOnUse" x1="40.01" y1="365.6454" x2="231.6291" y2="365.6454">
		<stop  offset="0" style="stop-color:#F7F7F7"/>
		<stop  offset="1" style="stop-color:#E8E3FA"/>
	</linearGradient>
	<path style="fill:url(#SVGID_00000010999634633071701940000014622148680678677390_);" d="M221.72,423.65
		c-1.21,2.48-2.54,4.93-3.98,7.35c-3.81,6.36-8.22,12.14-13.14,17.29l-19.25-11.11l-5.97-3.45L40.01,353.26
		c2.28-7.79,5.58-15.41,9.94-22.69c5.55-9.28,12.4-17.3,20.18-23.97c9.55-8.21,20.5-14.39,32.18-18.36
		c26.24-8.93,56.1-6.7,81.75,8.66C227.98,323.18,243.81,378.5,221.72,423.65z"/>
	<g>
		<path class="st19" d="M207.13,349.61c1.79-0.44,3.8,0.85,5.45,3.23c1.11,1.59,2.04,3.67,2.64,6.03
			c1.47,5.86,0.24,11.22-2.75,11.97c-1.04,0.26-2.15-0.07-3.23-0.85c-2.02-1.47-3.89-4.57-4.86-8.4
			C202.9,355.73,204.14,350.36,207.13,349.61z"/>
		<path class="st20" d="M204.37,361.59c0.97,3.83,2.84,6.92,4.86,8.4c-1.11-1.59-2.04-3.67-2.64-6.03
			c-1.47-5.86-0.23-11.22,2.76-11.98c1.04-0.26,2.15,0.07,3.22,0.86c-1.64-2.37-3.66-3.67-5.45-3.23
			C204.14,350.37,202.91,355.73,204.37,361.59z"/>
	</g>
	<g>
		<path class="st19" d="M145.75,338.75c-4.28,1.25-7.21,6.49-8.2,13.57c-0.67,4.76-0.48,10.34,0.76,16.1
			c3.07,14.31,11.38,24.22,18.56,22.17c2.49-0.72,4.53-2.79,5.99-5.79c2.75-5.63,3.47-14.52,1.47-23.88
			C161.25,346.61,152.93,336.68,145.75,338.75z"/>
		<path class="st20" d="M164.33,360.93c2,9.36,1.27,18.26-1.47,23.88c0.67-4.76,0.46-10.35-0.76-16.1
			c-3.07-14.31-11.39-24.23-18.58-22.16c-2.49,0.72-4.51,2.8-5.97,5.78c0.99-7.07,3.92-12.32,8.2-13.57
			C152.94,336.7,161.25,346.63,164.33,360.93z"/>
	</g>
	<g>
		<path class="st19" d="M70.37,307.94c-0.12-0.44-0.21-0.9-0.24-1.34c9.55-8.21,20.5-14.39,32.18-18.35
			c2.22-0.04,4.34,0.1,6.33,0.38c7.07,0.99,12.32,3.92,13.57,8.2c1.44,4.98-2.89,10.49-10.44,14.44c-0.48,0.25-0.97,0.49-1.48,0.73
			c-1.25,0.6-2.59,1.14-3.98,1.64c-0.01,0-0.01,0-0.02,0.01c-1.41,0.5-2.88,0.95-4.41,1.33c-0.61,0.15-1.23,0.3-1.86,0.44
			c-5.27,1.13-10.38,1.39-14.86,0.92c-0.49-0.05-0.97-0.11-1.44-0.19c0,0-0.01,0-0.02,0c-0.47-0.07-0.94-0.15-1.4-0.24
			c0,0-0.01,0-0.02,0c-0.68-0.13-1.35-0.29-1.99-0.45c-0.23-0.06-0.45-0.11-0.66-0.18c-1.25-0.37-2.41-0.81-3.45-1.32l-0.02-0.01
			C73.16,312.46,71.09,310.43,70.37,307.94z"/>
		<path class="st20" d="M100.02,315.4c-9.36,2-18.26,1.27-23.88-1.47c4.76,0.67,10.35,0.46,16.1-0.76
			c14.31-3.07,24.23-11.39,22.16-18.58c-0.72-2.49-2.8-4.51-5.78-5.97c7.07,0.99,12.32,3.92,13.57,8.2
			C124.25,304.01,114.32,312.33,100.02,315.4z"/>
	</g>
	<g>
		<path class="st19" d="M221.72,423.65c-1.21,2.48-2.54,4.93-3.98,7.35c-3.81,6.36-8.22,12.14-13.14,17.29l-19.25-11.11l-5.97-3.45
			c0.76-0.6,1.55-1.19,2.37-1.77c2.27-1.6,4.77-3.11,7.47-4.47c6.03-3.03,12.16-4.9,17.67-5.63c0.57-0.06,1.14-0.13,1.7-0.18
			c0.3-0.03,0.58-0.05,0.87-0.07c2.76-0.17,5.33-0.04,7.58,0.41c0.02,0.01,0.03,0.01,0.05,0.01
			C218.83,422.38,220.39,422.92,221.72,423.65z"/>
		<path class="st20" d="M217.11,422.01c-0.02,0.01-0.04,0.01-0.07,0.01c-5.65,0.66-11.99,2.58-18.2,5.7
			c-5.39,2.71-9.99,6-13.49,9.46l-5.97-3.45c0.76-0.6,1.55-1.19,2.37-1.77c2.27-1.6,4.77-3.11,7.47-4.47
			c6.03-3.03,12.16-4.9,17.67-5.63c0.57-0.06,1.14-0.13,1.7-0.18c0.3-0.03,0.58-0.05,0.87-0.07
			C212.25,421.42,214.83,421.56,217.11,422.01z"/>
	</g>
	<circle class="st20" cx="184.93" cy="405.25" r="1.81"/>
	<circle class="st20" cx="170.12" cy="322.14" r="3.61"/>
	<circle class="st20" cx="77.58" cy="358.13" r="6.07"/>
</g>
<g>
	<path class="st2" d="M292.45,258.27c0,0-22.02,48.92-29.2,55.3c-7.18,6.38-57.44,20.34-57.44,20.34v-31.11l31.91-5.98
		c-0.8-3.99,4.79-7.18,4.79-7.18c3.99-9.97,5.58-29.91,5.58-29.91l-0.05,0.04c-1.11,0.78-19.5,13.49-56.99,24.69
		c-38.69,11.57-61.43,15.56-61.43,15.56l-1.74-4.99l-7.84-22.54c0,0,38.69-7.58,70.2-20.74s45.26-28.65,45.26-28.65
		c21.73-2.33,49.78,21.21,49.78,21.21L292.45,258.27z"/>
	<path class="st24" d="M248.1,255.34v4.39l-0.05,0.04c-1.11,0.78-19.5,13.49-56.99,24.69c-38.69,11.57-61.43,15.56-61.43,15.56
		l-1.74-4.99c0,0,47.6-9.37,77.92-20.54s25.93-26.33,25.93-26.33L248.1,255.34z"/>
	<g>
		
			<linearGradient id="SVGID_00000108989323147891671530000003370159649096079806_" gradientUnits="userSpaceOnUse" x1="405.3018" y1="286.0435" x2="424.3467" y2="286.0435" gradientTransform="matrix(-1 0 0 1 540.0511 0)">
			<stop  offset="0" style="stop-color:#DCEFE4"/>
			<stop  offset="0.0889" style="stop-color:#C8EBE2"/>
			<stop  offset="0.2703" style="stop-color:#96E0DD"/>
			<stop  offset="0.4951" style="stop-color:#4FD1D6"/>
			<stop  offset="0.6514" style="stop-color:#86ABE1"/>
			<stop  offset="0.8106" style="stop-color:#B788EB"/>
			<stop  offset="0.932" style="stop-color:#D673F1"/>
			<stop  offset="1" style="stop-color:#E16BF3"/>
		</linearGradient>
		<path style="fill:url(#SVGID_00000108989323147891671530000003370159649096079806_);" d="M126.9,274.33
			c5.18,4.04,8.62,12.55,7.7,19.02c-0.92,6.47-5.86,8.44-11.04,4.4c-5.18-4.04-8.63-12.55-7.71-19.02
			C116.78,272.26,121.72,270.3,126.9,274.33z"/>
		<path class="st2" d="M128.77,298.25c-1.29,0-2.75-0.61-4.23-1.76c-4.69-3.66-7.94-11.69-7.11-17.54c0.46-3.26,2.02-5.13,4.26-5.13
			c1.29,0,2.75,0.61,4.23,1.76c4.77,3.72,7.95,11.58,7.1,17.54C132.56,296.39,131.01,298.25,128.77,298.25z"/>
	</g>
	<g>
		
			<linearGradient id="SVGID_00000061468306922471850010000015480182545145701786_" gradientUnits="userSpaceOnUse" x1="325.2527" y1="318.1814" x2="343.2515" y2="318.1814" gradientTransform="matrix(-1 0 0 1 540.0511 0)">
			<stop  offset="0" style="stop-color:#DCEFE4"/>
			<stop  offset="0.0889" style="stop-color:#C8EBE2"/>
			<stop  offset="0.2703" style="stop-color:#96E0DD"/>
			<stop  offset="0.4951" style="stop-color:#4FD1D6"/>
			<stop  offset="0.6514" style="stop-color:#86ABE1"/>
			<stop  offset="0.8106" style="stop-color:#B788EB"/>
			<stop  offset="0.932" style="stop-color:#D673F1"/>
			<stop  offset="1" style="stop-color:#E16BF3"/>
		</linearGradient>
		<path style="fill:url(#SVGID_00000061468306922471850010000015480182545145701786_);" d="M212.2,307.25
			c3.49,6.1,3.46,15.93-0.07,21.97c-3.53,6.04-9.23,5.98-12.72-0.11c-3.49-6.1-3.47-15.94,0.07-21.97
			C203.01,301.1,208.7,301.16,212.2,307.25z"/>
		<path class="st2" d="M204.36,331.72c-1.28-0.52-2.48-1.72-3.48-3.46c-3.16-5.52-3.14-14.8,0.06-20.26
			c1.78-3.04,4.08-4.27,6.3-3.36c1.28,0.52,2.48,1.72,3.48,3.46c3.22,5.61,3.19,14.7-0.07,20.26
			C208.87,331.4,206.58,332.62,204.36,331.72z"/>
	</g>
	<path class="st27" d="M209.81,319.96c0,0,3.99-6.78-1.6-11.57l-20.34,3.99l2.39,18.35l3.59-2.39
		C193.85,328.33,199.04,319.16,209.81,319.96z"/>
	<path class="st2" d="M177.1,313.18c0,0,11.57-3.99,13.96-0.8c2.39,3.19,0,9.57,0,9.57s3.59,5.19,3.99,8.78
		c0.4,3.59-14.76,33.9-19.54,33.9s-0.8-17.95-0.8-17.95L177.1,313.18z"/>
	
		<linearGradient id="SVGID_00000142869714078533650860000014170929666036818074_" gradientUnits="userSpaceOnUse" x1="350.1529" y1="340.4991" x2="362.1535" y2="340.4991" gradientTransform="matrix(-1 0 0 1 540.0511 0)">
		<stop  offset="0" style="stop-color:#DCEFE4"/>
		<stop  offset="0.0889" style="stop-color:#C8EBE2"/>
		<stop  offset="0.2703" style="stop-color:#96E0DD"/>
		<stop  offset="0.4951" style="stop-color:#4FD1D6"/>
		<stop  offset="0.6514" style="stop-color:#86ABE1"/>
		<stop  offset="0.8106" style="stop-color:#B788EB"/>
		<stop  offset="0.932" style="stop-color:#D673F1"/>
		<stop  offset="1" style="stop-color:#E16BF3"/>
	</linearGradient>
	<path style="fill:url(#SVGID_00000142869714078533650860000014170929666036818074_);" d="M177.9,349.07c0,0,5.98-4.79,7.58-8.38
		c1.6-3.59,1.2-12.76,1.2-12.76h3.23c0,0-0.43,11.17-2.03,15.16c-1.6,3.99-9.17,9.97-9.17,9.97L177.9,349.07z"/>
	
		<linearGradient id="SVGID_00000061462561571364657310000001902251486833105824_" gradientUnits="userSpaceOnUse" x1="356.9373" y1="338.8401" x2="373.2215" y2="338.8401" gradientTransform="matrix(-1 0 0 1 540.0511 0)">
		<stop  offset="0.0113" style="stop-color:#E5E9EF"/>
		<stop  offset="1" style="stop-color:#D5D7E0"/>
	</linearGradient>
	<path style="fill:url(#SVGID_00000061462561571364657310000001902251486833105824_);" d="M170.72,334.72c0,0,0-17.15,3.59-20.34
		c3.59-3.19,8.38,0.4,8.78,5.19c0.4,4.79-3.19,21.14-3.19,21.14s0.65,21.54-5.46,23.53c-6.11,1.99-8.5-6.78-7.3-14.36
		C168.32,342.29,170.72,334.72,170.72,334.72z"/>
	<path class="st27" d="M128.44,288.05c0,0-0.4-9.17-4.39-10.37l-18.35,4.39l-0.4,8.78l5.58,8.38
		C110.89,299.22,115.28,288.85,128.44,288.05z"/>
	<path class="st2" d="M107.7,290.44c0,0,2.39-7.98-1.2-9.97s-12.76,2.79-12.76,2.79l-2.79,28.72l7.58,18.75
		c0,0,11.97-21.94,13.16-27.12C112.88,298.42,107.7,290.44,107.7,290.44z"/>
	
		<linearGradient id="SVGID_00000128478151782055383080000004550024091577246082_" gradientUnits="userSpaceOnUse" x1="432.7181" y1="308.9887" x2="444.7187" y2="308.9887" gradientTransform="matrix(-1 0 0 1 540.0511 0)">
		<stop  offset="0" style="stop-color:#DCEFE4"/>
		<stop  offset="0.0889" style="stop-color:#C8EBE2"/>
		<stop  offset="0.2703" style="stop-color:#96E0DD"/>
		<stop  offset="0.4951" style="stop-color:#4FD1D6"/>
		<stop  offset="0.6514" style="stop-color:#86ABE1"/>
		<stop  offset="0.8106" style="stop-color:#B788EB"/>
		<stop  offset="0.932" style="stop-color:#D673F1"/>
		<stop  offset="1" style="stop-color:#E16BF3"/>
	</linearGradient>
	<path style="fill:url(#SVGID_00000128478151782055383080000004550024091577246082_);" d="M95.33,317.56c0,0,5.98-4.79,7.58-8.38
		c1.6-3.59,1.2-12.76,1.2-12.76h3.23c0,0-0.43,11.17-2.03,15.16c-1.6,3.99-9.17,9.97-9.17,9.97L95.33,317.56z"/>
	
		<linearGradient id="SVGID_00000004514901968605531560000000343772467664386995_" gradientUnits="userSpaceOnUse" x1="440.417" y1="309.0449" x2="454.8717" y2="309.0449" gradientTransform="matrix(-1 0 0 1 540.0511 0)">
		<stop  offset="0.0113" style="stop-color:#E5E9EF"/>
		<stop  offset="1" style="stop-color:#D5D7E0"/>
	</linearGradient>
	<path style="fill:url(#SVGID_00000004514901968605531560000000343772467664386995_);" d="M86.16,304c0,0,0.8-18.75,5.98-20.34
		c5.19-1.6,9.17,3.19,6.78,10.77c-2.39,7.58-2.39,15.16-0.4,25.13c1.99,9.97,0,15.56-6.38,15.16S83.77,313.97,86.16,304z"/>
	<path class="st32" d="M285.36,248.16c0,0-23.71,54.31-30.31,60.09s-40.25,13.3-40.25,13.3"/>
	
		<linearGradient id="SVGID_00000159454532044209465630000014878266262587248056_" gradientUnits="userSpaceOnUse" x1="139.4821" y1="115.4366" x2="163.5184" y2="115.4366" gradientTransform="matrix(-1 0 0 1 540.0511 0)">
		<stop  offset="0" style="stop-color:#F9C2C5"/>
		<stop  offset="1" style="stop-color:#F3ABAB"/>
	</linearGradient>
	<path style="fill:url(#SVGID_00000159454532044209465630000014878266262587248056_);" d="M376.53,126.11l1.2-3.19
		c0,0,1.6-14.76,2.79-15.95s2.79,5.98,2.79,5.98s3.59-9.17,6.38-11.57s7.98-1.6,8.38,0c0.4,1.6-5.58,2.39-5.58,2.39l-2.39,4.39
		c0,0,3.99-3.59,5.58-3.19c1.6,0.4,5.58,12.76,4.79,15.16c-0.8,2.39-5.19-1.99-5.19-1.99s-9.25,11.44-11.21,12.7
		S376.53,126.11,376.53,126.11z"/>
	
		<linearGradient id="SVGID_00000148663151941556343230000015858145391270235320_" gradientUnits="userSpaceOnUse" x1="155.1422" y1="133.0795" x2="173.0912" y2="133.0795" gradientTransform="matrix(-1 0 0 1 540.0511 0)">
		<stop  offset="0" style="stop-color:#F7F7F7"/>
		<stop  offset="1" style="stop-color:#E8E3FA"/>
	</linearGradient>
	<path style="fill:url(#SVGID_00000148663151941556343230000015858145391270235320_);" d="M366.96,132.49l6.78-7.58
		c0,0,8.38-0.8,11.17,7.98l-3.59,8.38L366.96,132.49z"/>
	
		<linearGradient id="SVGID_00000046336855907512630910000001496504140381190297_" gradientUnits="userSpaceOnUse" x1="175.9051" y1="117.3841" x2="320.7791" y2="238.9478" gradientTransform="matrix(-1 0 0 1 540.0511 0)">
		<stop  offset="0" style="stop-color:#DFEDE4"/>
		<stop  offset="0.0889" style="stop-color:#CFE9E1"/>
		<stop  offset="0.2703" style="stop-color:#A8DDDB"/>
		<stop  offset="0.4951" style="stop-color:#79CDD3"/>
		<stop  offset="0.6514" style="stop-color:#8EA9DC"/>
		<stop  offset="0.8106" style="stop-color:#AE8AE4"/>
		<stop  offset="0.932" style="stop-color:#C679E9"/>
		<stop  offset="1" style="stop-color:#CF73EB"/>
	</linearGradient>
	<path style="fill:url(#SVGID_00000046336855907512630910000001496504140381190297_);" d="M218.18,166.79
		c28.72-9.17,41.48-5.98,41.48-5.98l46.27,1.59l8.77,2.79c0,0,2.79,0.8,5.19,2.79c0,0,7.25-2.22,15.25-7.02
		c3.03-1.81,6.17-3.99,9.06-6.56c0.83-0.73,1.63-1.49,2.4-2.29c1.13-1.16,2.2-2.38,3.19-3.67c0.05-0.06,0.1-0.13,0.15-0.19
		c10.28-13.41,16.61-16.57,16.61-16.57s12.76-2.39,16.35,10.37c0,0-3.59,13.59-15.49,27.4c-1.5,1.75-3.14,3.5-4.93,5.23
		c-0.79,0.77-1.6,1.53-2.45,2.28c-0.98,0.87-2,1.74-3.06,2.59c-2.59,2.09-5.06,4.03-7.37,5.83c-15.83,12.33-24.94,18.1-24.94,18.1
		s-14.76,19.55-18.75,34.31c-3.99,14.75-11.17,14.75-11.17,14.75l0,0c0,0-0.47,2.49-1.4,4.75c-0.63,1.51-2.75,1.55-3.45,0.07
		c-2.5-5.21-9.33-15.86-25.86-23.97c-14.62-7.18-24.42-7.75-29.55-7.24c-1.69,0.17-2.79-1.77-1.71-3.08
		c0.01-0.01,0.02-0.03,0.03-0.04l-0.28-0.01c0,0-4.78-5.98,2.39-15.16c7.18-9.17,7.98-19.14,7.98-19.14s-16.35-3.19-25.13,0.4
		c-8.78,3.59-17.95,15.96-26.33,15.16l-2.78-2.9l-7.19-7.47C181.49,193.92,189.46,175.97,218.18,166.79z"/>
	<path class="st36" d="M244.91,179.56l-1.99,9.17c0,0-16.35-3.19-25.13,0.4c-8.78,3.59-17.95,15.95-26.33,15.16l-2.79-2.9
		c4.3-2.45,16.34-9.55,24.73-16.64C223.77,175.97,244.91,179.56,244.91,179.56z"/>
	<path class="st36" d="M258.08,170.82c0,0-0.01,9.94,13.55,11.13c13.56,1.2,25.53-7.58,25.53-7.58s9.41-8.38,15.48-9.57l-16.63-2.02
		L258.08,170.82z"/>
	<path class="st2" d="M290.78,152.43l-2.79-2.79c0,0-6.78-6.78-8.78-15.16c0,0-5.19-3.19-3.59-13.16s19.54-19.54,25.53-19.54
		c5.98,0,1.99,7.98,1.99,7.98s5.98-2.39,7.98,1.2c1.99,3.59-1.6,9.17-1.6,9.17l1.2,8.38l1.2,10.37l-5.58,9.97L290.78,152.43z"/>
	
		<linearGradient id="SVGID_00000183943839179794532270000014823266575361517195_" gradientUnits="userSpaceOnUse" x1="243.2481" y1="147.7103" x2="271.7014" y2="181.6195" gradientTransform="matrix(-1 0 0 1 540.0511 0)">
		<stop  offset="0" style="stop-color:#DCEFE4"/>
		<stop  offset="0.2751" style="stop-color:#C8EBE2"/>
		<stop  offset="0.5498" style="stop-color:#96E0DD"/>
		<stop  offset="0.8106" style="stop-color:#4FD1D6"/>
		<stop  offset="1" style="stop-color:#86ABE1"/>
	</linearGradient>
	<path style="fill:url(#SVGID_00000183943839179794532270000014823266575361517195_);" d="M314.71,165.2c0,0-6.31-2.79-16.75,5.98
		c-2.01,1.69-4.67,3.29-7.66,4.64h0c-11.84,5.34-28.97,6.7-32.62-6.23c-1.93-6.86-0.61-11.94,1.48-15.47c0,0,0-0.01,0-0.01
		c0.33-0.55,0.67-1.07,1.03-1.55c2.38-3.21,6.47-4.66,10.35-3.69l38.19,9.55C314.31,160.81,314.71,165.2,314.71,165.2z"/>
	
		<linearGradient id="SVGID_00000090258640862943786030000014707317158800306613_" gradientUnits="userSpaceOnUse" x1="224.3676" y1="137.8753" x2="252.0666" y2="137.8753" gradientTransform="matrix(-1 0 0 1 540.0511 0)">
		<stop  offset="0" style="stop-color:#F9C2C5"/>
		<stop  offset="1" style="stop-color:#F3ABAB"/>
	</linearGradient>
	<path style="fill:url(#SVGID_00000090258640862943786030000014707317158800306613_);" d="M309.52,117.33c0,0-3.59,2.79-3.59,4.39
		c0,1.6,2.79,5.19,2.79,5.19s-4.79,2.79,1.6,10.77l-1.99,1.99c0,0-7.98-5.98-8.78,5.58c0,0-3.19,6.78-11.57,4.39v3.59l21.14,5.19
		c0,0,5.98-1.99,6.38-8.78c0.19-3.27,0.2-9.06,0.15-14.16C315.6,128.93,313.45,122.57,309.52,117.33L309.52,117.33z"/>
	
		<linearGradient id="SVGID_00000063592394732945576230000015638789404112811924_" gradientUnits="userSpaceOnUse" x1="347.3955" y1="201.9456" x2="365.0539" y2="201.9456" gradientTransform="matrix(-1 0 0 1 540.0511 0)">
		<stop  offset="0" style="stop-color:#F7F7F7"/>
		<stop  offset="1" style="stop-color:#E8E3FA"/>
	</linearGradient>
	<path style="fill:url(#SVGID_00000063592394732945576230000015638789404112811924_);" d="M175,199.98l8.48-7.66
		c0,0,9.17,0.8,9.17,10.77l-9.19,8.48L175,199.98z"/>
	<g>
		<path class="st2" d="M178.95,199.93c2.9,1.49,5.36,5.33,5.51,8.57c0.15,3.24-2.08,4.65-4.98,3.16c-2.9-1.49-5.36-5.33-5.51-8.56
			C173.82,199.85,176.05,198.44,178.95,199.93z"/>
	</g>
	
		<linearGradient id="SVGID_00000170236297015187715600000009161847245293697439_" gradientUnits="userSpaceOnUse" x1="357.3671" y1="219.1322" x2="382.3036" y2="219.1322" gradientTransform="matrix(-1 0 0 1 540.0511 0)">
		<stop  offset="0" style="stop-color:#F9C2C5"/>
		<stop  offset="1" style="stop-color:#F3ABAB"/>
	</linearGradient>
	<path style="fill:url(#SVGID_00000170236297015187715600000009161847245293697439_);" d="M182.68,208.67l-3.99,3.99
		c0,0,0,10.77-1.99,12.36c-1.99,1.6-2.79-5.98-2.79-5.98s-11.17,18.75-13.56,17.95c-2.39-0.8,0.8-9.17,0.8-9.17
		s-4.39-7.98-3.19-11.97s17.97-14.61,17.97-14.61S181.49,201.1,182.68,208.67z"/>
</g>
<g class="st41">
	<circle class="st42" cx="255" cy="432" r="7"/>
	<circle class="st42" cx="32.5" cy="321.5" r="3.5"/>
	<circle class="st42" cx="348" cy="275" r="2"/>
	<circle class="st42" cx="326" cy="385" r="2"/>
	<circle class="st42" cx="191" cy="260" r="2"/>
</g>
<linearGradient id="SVGID_00000017477688732965683940000017169024205585545899_" gradientUnits="userSpaceOnUse" x1="409.3438" y1="203.2151" x2="478.5834" y2="203.2151">
	<stop  offset="1.196656e-03" style="stop-color:#F5F5FF"/>
	<stop  offset="1" style="stop-color:#FFFFFF"/>
</linearGradient>
<path style="fill:url(#SVGID_00000017477688732965683940000017169024205585545899_);" d="M473.42,180.49l-58.7-33.89
	c-2.86-1.65-5.18-0.32-5.19,2.96l-0.02,6.16l-0.17,61.28c-0.01,3.28,2.3,7.28,5.16,8.93l58.7,33.89c2.86,1.65,5.19,0.33,5.19-2.96
	l0.17-61.28l0.02-6.16C478.59,186.14,476.28,182.14,473.42,180.49z"/>
<g>
	<g>
		<path class="st2" d="M459.08,183.05c2.86,1.65,5.17,5.65,5.16,8.94l-0.02,6.16l-69.05-39.87l0.02-6.16
			c0.01-3.28,2.33-4.61,5.19-2.96L459.08,183.05z"/>
	</g>
	<g>
		<path class="st4" d="M464.22,198.15l-0.17,61.28c-0.01,3.28-2.34,4.61-5.19,2.96l-58.7-33.89c-2.86-1.65-5.17-5.65-5.16-8.93
			l0.17-61.28L464.22,198.15z"/>
	</g>
</g>
<g>
	<g class="st51">
		<g>
			<path class="st69" d="M413.41,184.78c-0.46,7.29,1.51,15.6,5.17,21.64c0.02,0.04,0.05,0.08,0.07,0.12
				c1.99,3.24,4.32,5.64,6.97,7.16c0.88,0.51,1.79,0.92,2.74,1.23c3.72,1.23,6.27,0.98,7.58-0.75c0.77-1.01,0.98-2.37,1-3.5
				l-5.61,0.48l0.01-3.38l7.43-0.64l0.45,2.06c0.04,0.2,1.04,4.9-1.08,7.72c-1.65,2.21-4.68,2.64-9.01,1.26
				c-0.08-0.03-0.17-0.05-0.26-0.08c-1.11-0.37-2.2-0.86-3.25-1.47c-0.48-0.28-0.95-0.58-1.42-0.9
				c-10.84-7.84-15.56-17.93-17.6-25.01c-1.34-4.62-1.73-8.53-1.82-10.92l2.55,1.47c0.1,2.19,0.47,5.73,1.67,9.83
				c1.2,4.13,2.96,7.92,5.26,11.35c-2.5-6.01-3.75-12.94-3.4-19.15L413.41,184.78z"/>
		</g>
		<g>
			<path class="st69" d="M440.57,202.42c0.86,0.5,1.56,1.7,1.55,2.69c0,0.99-0.7,1.38-1.56,0.89c-0.86-0.5-1.55-1.7-1.55-2.68
				S439.71,201.92,440.57,202.42z"/>
		</g>
		<g>
			<path class="st69" d="M439.84,196.95c2.42,1.39,4.62,3.82,6.47,7.18c0.6,0.12,1.31,0.36,2.06,0.8c1.24,0.71,2.57,1.94,3.63,3.94
				c-0.21,0.07-4.22,1.31-4.23,5.03l0,0.37c0,4.95,0,17.84-18.02,10.42c1.42,2.1,2.78,4.62,3.32,7.16c0.88,0.56,1.77,1.13,2.63,1.74
				l6.35-1.03l-0.01,3.48l-2.51,0.41c0.85,0.68,1.69,1.38,2.51,2.09l-0.01,3.03c-3.35-3.03-7.16-5.8-11.03-8.04
				c-3.98-2.3-7.89-3.95-11.32-4.78l0.01-3.03c3.29,0.88,6.93,2.42,10.65,4.51c-0.76-2.25-2.38-4.53-3.41-5.85
				c-0.69-0.87-1.03-2.01-0.85-2.81c0.18-0.8,0.83-1.09,1.63-0.73c6.39,2.91,11.07,3.56,13.96,1.93c0.55-0.31,1.03-0.7,1.45-1.18
				c2.12-2.4,2.12-6.4,2.12-8.79l0-0.37c0.01-3.16,1.51-4.32,2.94-4.7c-0.84-0.42-1.56-0.41-1.61-0.41l-0.93,0.03l-0.66-1.33
				c-1.49-3.01-3.18-5.05-5.12-6.17c-1.35-0.78-2.82-1.11-4.42-1c-1.8,0.13-3.27,0.82-4.05,1.26l0.01-2.42l0-1.52
				c0.8-0.28,1.74-0.52,2.8-0.59C436.14,195.45,438.05,195.91,439.84,196.95z"/>
		</g>
	</g>
	<g>
		
			<linearGradient id="SVGID_00000016071149624025168020000004291195763999780249_" gradientUnits="userSpaceOnUse" x1="427.7066" y1="199.0436" x2="443.4558" y2="221.5358">
			<stop  offset="0" style="stop-color:#DFEDE4"/>
			<stop  offset="0.0889" style="stop-color:#CFE9E1"/>
			<stop  offset="0.2703" style="stop-color:#A8DDDB"/>
			<stop  offset="0.4951" style="stop-color:#79CDD3"/>
			<stop  offset="0.6514" style="stop-color:#8EA9DC"/>
			<stop  offset="0.8106" style="stop-color:#AE8AE4"/>
			<stop  offset="0.932" style="stop-color:#C679E9"/>
			<stop  offset="1" style="stop-color:#CF73EB"/>
		</linearGradient>
		<path style="fill:url(#SVGID_00000016071149624025168020000004291195763999780249_);" d="M448.15,207.73
			c-1.43,0.38-2.93,1.54-2.94,4.7l0,0.37c0,2.39,0,6.39-2.12,8.79c-0.42,0.47-0.9,0.87-1.45,1.18c-2.01,0.54-4.86,0.13-8.92-2.21
			c-1.1-0.64-2.3-1.42-3.59-2.36c4.32,1.38,7.35,0.95,9.01-1.26c2.11-2.82,1.12-7.52,1.08-7.72l-0.45-2.06l-7.43,0.64l-0.01,3.38
			l5.61-0.48c-0.02,1.13-0.23,2.5-1,3.5c-1.31,1.73-3.86,1.98-7.58,0.75c-0.95-0.31-1.86-0.73-2.74-1.23
			c-2.64-1.53-4.98-3.93-6.97-7.16c-0.02-0.04-0.05-0.08-0.07-0.12c2.21-2.27,7.36-7.08,12.79-8.73l-0.01,2.42
			c0.78-0.44,2.25-1.13,4.05-1.26c1.6-0.11,3.07,0.22,4.42,1c1.94,1.12,3.63,3.17,5.12,6.17l0.66,1.33l0.93-0.03
			C446.6,207.32,447.31,207.3,448.15,207.73z M440.56,205.99c0.86,0.5,1.56,0.1,1.56-0.89c0-0.99-0.69-2.19-1.55-2.69
			c-0.86-0.5-1.56-0.1-1.56,0.89C439.01,204.29,439.7,205.5,440.56,205.99"/>
	</g>
</g>
<g>
	<path class="st42" d="M322.5,9.66c0.83,0.48,1.5,1.64,1.5,2.59c0,0.96-0.68,1.34-1.51,0.87c-0.83-0.48-1.51-1.65-1.5-2.61
		C320.99,9.56,321.67,9.17,322.5,9.66z"/>
	<path class="st42" d="M317.98,7.05c0.83,0.48,1.5,1.64,1.5,2.59c0,0.96-0.67,1.35-1.51,0.87c-0.83-0.48-1.51-1.65-1.5-2.61
		C316.47,6.95,317.15,6.57,317.98,7.05z"/>
	<path class="st42" d="M313.46,4.44c0.83,0.48,1.51,1.65,1.5,2.6c0,0.96-0.68,1.34-1.51,0.86c-0.83-0.48-1.5-1.64-1.5-2.6
		C311.96,4.35,312.64,3.96,313.46,4.44z"/>
</g>
<linearGradient id="SVGID_00000016063837729928173210000004337205016944306596_" gradientUnits="userSpaceOnUse" x1="53.4361" y1="70.1504" x2="140.0086" y2="189.3073">
	<stop  offset="1.196656e-03" style="stop-color:#F5F5FF"/>
	<stop  offset="1" style="stop-color:#FFFFFF"/>
</linearGradient>
<path style="fill:url(#SVGID_00000016063837729928173210000004337205016944306596_);" d="M184.59,32.08l-0.05-16.5l-0.02-6.93
	c-0.01-4.7-3.33-6.6-7.43-4.23L15.9,97.5c-4.09,2.36-7.39,8.08-7.38,12.78l0.02,6.93l0.05,16.5l0.33,117.1
	c0.01,4.69,3.34,6.59,7.43,4.23l19-10.97l119.5-68.99l22.7-13.11c4.09-2.36,7.39-8.09,7.38-12.78L184.59,32.08z"/>
<path class="st1" d="M202.59,43.08l-0.05-16.5L26.54,128.2l0.05,16.5l0.33,117.1c0.01,4.69,3.34,6.59,7.43,4.23l19-10.97
	l119.5-68.99l22.7-13.11c4.09-2.36,7.39-8.09,7.38-12.78L202.59,43.08z"/>
<g>
	<path class="st2" d="M195.1,15.43c4.09-2.36,7.41-0.47,7.43,4.23l0.02,6.93L26.54,128.2l-0.02-6.93
		c-0.01-4.7,3.29-10.42,7.38-12.78L195.1,15.43z"/>
</g>
<g>
	<path class="st42" d="M39.96,111.12c-0.83,0.48-1.5,1.64-1.5,2.59c0,0.96,0.68,1.34,1.51,0.87c0.83-0.48,1.51-1.65,1.5-2.61
		C41.47,111.02,40.79,110.64,39.96,111.12z"/>
	<path class="st42" d="M44.48,108.51c-0.83,0.48-1.5,1.64-1.5,2.59c0,0.96,0.67,1.35,1.51,0.87c0.83-0.48,1.51-1.65,1.5-2.61
		C45.99,108.41,45.31,108.03,44.48,108.51z"/>
	<path class="st42" d="M48.99,105.9c-0.83,0.48-1.51,1.65-1.5,2.6c0,0.96,0.68,1.34,1.51,0.86c0.83-0.48,1.5-1.64,1.5-2.6
		C50.5,105.81,49.82,105.42,48.99,105.9z"/>
</g>
<g>
	<g>
		<path class="st42" d="M141.41,82.59c2.35-1.36,4.28-0.28,4.29,2.43l0.25,88.55c0.01,2.72-1.9,6.02-4.26,7.38l-92.62,53.48
			c-2.35,1.36-4.28,0.28-4.29-2.44l-0.25-88.55c-0.01-2.7,1.9-6,4.26-7.36L141.41,82.59z"/>
	</g>
</g>
<g>
	<path class="st42" d="M185.5,56.33c1.11-0.64,2.02-0.13,2.03,1.15l0.12,41.85c0,1.29-0.9,2.84-2.01,3.49l-27.59,15.93
		c-1.12,0.65-2.02,0.13-2.03-1.15l-0.12-41.85c0-1.28,0.89-2.83,2.01-3.48L185.5,56.33z"/>
</g>
<g>
	<path class="st42" d="M185.5,110.31c1.11-0.64,2.02-0.13,2.03,1.15l0.12,41.85c0,1.29-0.9,2.84-2.01,3.49l-27.59,15.93
		c-1.12,0.65-2.02,0.13-2.03-1.15l-0.12-41.85c0-1.28,0.89-2.83,2.01-3.48L185.5,110.31z"/>
</g>
<g>
	
		<linearGradient id="SVGID_00000053532746327275855110000011926554847151594893_" gradientUnits="userSpaceOnUse" x1="58.3797" y1="138.1752" x2="99.2955" y2="166.8248">
		<stop  offset="0" style="stop-color:#DFEDE4"/>
		<stop  offset="0.0889" style="stop-color:#CFE9E1"/>
		<stop  offset="0.2703" style="stop-color:#A8DDDB"/>
		<stop  offset="0.4951" style="stop-color:#79CDD3"/>
		<stop  offset="0.6514" style="stop-color:#8EA9DC"/>
		<stop  offset="0.8106" style="stop-color:#AE8AE4"/>
		<stop  offset="0.932" style="stop-color:#C679E9"/>
		<stop  offset="1" style="stop-color:#CF73EB"/>
	</linearGradient>
	<path style="fill:url(#SVGID_00000053532746327275855110000011926554847151594893_);" d="M100.51,122.13l-2.79,1.61l0.1,35.66
		l2.79-1.61l0.02,7.13l-6.2,3.58l-0.01-3.21L63.39,183.2l0.01,3.21L57.18,190l-0.02-7.13l2.79-1.61l-0.1-35.66l-2.79,1.61
		l-0.02-7.13l6.21-3.59l0.01,3.21l31.04-17.92l-0.01-3.21l6.2-3.58L100.51,122.13z M97.21,159.76l-0.1-35.66l-2.79,1.61l-0.01-3.21
		l-31.04,17.92l0.01,3.21l-2.79,1.61l0.1,35.66l2.79-1.61l0.01,3.21l31.04-17.92l-0.01-3.21L97.21,159.76"/>
</g>
<g>
	<polygon class="st6" points="58.31,206.76 124,168.88 124,167 58.3,204.88 	"/>
	<polygon class="st6" points="58.31,211.76 124,173.88 124,172 58.3,209.88 	"/>
	<polygon class="st6" points="58.31,216.76 124,178.88 124,177 58.3,214.88 	"/>
	<polygon class="st6" points="58.31,221.76 91,202.91 91,201.03 58.3,219.88 	"/>
</g>
<g>
	<g>
		<polygon class="st78" points="67.08,154.94 67.1,161.69 70.6,159.67 70.6,161.78 64.98,165.03 64.96,156.16 		"/>
	</g>
	<g>
		<path class="st78" d="M78.37,151.23c0.19,0.43,0.28,0.93,0.28,1.5c0,0.58-0.09,1.19-0.28,1.83c-0.19,0.65-0.46,1.28-0.81,1.9
			c-0.35,0.62-0.76,1.19-1.24,1.72c-0.48,0.52-1,0.94-1.59,1.28c-0.59,0.34-1.12,0.51-1.6,0.54c-0.47,0.02-0.89-0.08-1.23-0.31
			c-0.34-0.23-0.61-0.56-0.8-1c-0.19-0.43-0.28-0.93-0.28-1.51c0-0.59,0.09-1.21,0.29-1.86c0.19-0.65,0.46-1.28,0.81-1.9
			c0.36-0.63,0.77-1.21,1.25-1.72c0.48-0.52,1.01-0.95,1.58-1.28c0.59-0.34,1.12-0.52,1.6-0.54c0.47-0.02,0.89,0.08,1.23,0.32
			C77.91,150.47,78.18,150.8,78.37,151.23z M76.39,154.84c0.07-0.32,0.1-0.63,0.1-0.92c0-0.3-0.03-0.56-0.11-0.8
			c-0.07-0.23-0.18-0.42-0.33-0.55c-0.15-0.14-0.34-0.2-0.56-0.2c-0.23,0-0.49,0.1-0.78,0.26c-0.31,0.18-0.57,0.4-0.79,0.65
			c-0.22,0.26-0.4,0.54-0.54,0.85c-0.15,0.3-0.25,0.61-0.32,0.94c-0.06,0.31-0.1,0.62-0.1,0.91c0,0.3,0.03,0.57,0.11,0.81
			c0.07,0.23,0.18,0.42,0.33,0.56c0.15,0.13,0.33,0.21,0.55,0.21c0.23-0.01,0.49-0.1,0.79-0.27c0.3-0.17,0.57-0.4,0.79-0.65
			c0.23-0.26,0.41-0.55,0.55-0.86C76.22,155.46,76.33,155.15,76.39,154.84"/>
	</g>
	<g>
		<path class="st78" d="M83.08,145.63c0.7-0.4,1.33-0.6,1.89-0.58c0.57,0.02,0.99,0.25,1.27,0.69l-1.57,2.3
			c-0.16-0.27-0.39-0.42-0.69-0.45c-0.31-0.04-0.63,0.04-0.97,0.24c-0.25,0.15-0.48,0.33-0.69,0.57c-0.21,0.24-0.39,0.51-0.55,0.81
			c-0.15,0.3-0.27,0.61-0.36,0.96c-0.08,0.33-0.12,0.67-0.12,1.01c0,0.36,0.04,0.64,0.13,0.88c0.09,0.23,0.21,0.4,0.37,0.52
			c0.16,0.11,0.34,0.16,0.56,0.15c0.22-0.01,0.47-0.1,0.73-0.26c0.34-0.2,0.66-0.48,0.98-0.86c0.23-0.28,0.44-0.6,0.63-0.95
			l-1.32,0.76l0-1.75l3.17-1.83l0.01,4.72l-1.75,1.01l0-0.75c-0.55,0.85-1.18,1.5-1.9,1.91c-0.5,0.29-0.98,0.46-1.43,0.51
			c-0.46,0.06-0.86-0.01-1.21-0.2c-0.34-0.2-0.62-0.51-0.82-0.96c-0.21-0.44-0.31-1.03-0.31-1.76c0-0.63,0.09-1.27,0.3-1.91
			c0.2-0.65,0.49-1.29,0.84-1.9c0.36-0.62,0.77-1.17,1.25-1.67C82,146.37,82.53,145.95,83.08,145.63z"/>
	</g>
	<g>
		<path class="st78" d="M94.72,141.79c0.19,0.43,0.28,0.93,0.28,1.5c0,0.58-0.09,1.19-0.28,1.83c-0.19,0.64-0.46,1.28-0.81,1.9
			c-0.35,0.62-0.76,1.19-1.24,1.72c-0.47,0.52-1,0.94-1.58,1.28c-0.59,0.34-1.13,0.52-1.6,0.54c-0.48,0.02-0.89-0.08-1.24-0.31
			c-0.34-0.23-0.61-0.56-0.8-1c-0.19-0.43-0.28-0.93-0.28-1.51c0-0.59,0.09-1.21,0.29-1.86c0.19-0.65,0.47-1.29,0.82-1.9
			c0.35-0.62,0.76-1.2,1.24-1.71c0.48-0.52,1.01-0.95,1.58-1.28c0.59-0.34,1.12-0.52,1.6-0.54c0.48-0.02,0.89,0.08,1.23,0.32
			C94.27,141.02,94.54,141.36,94.72,141.79z M92.75,145.39c0.06-0.32,0.1-0.63,0.1-0.92c0-0.3-0.03-0.56-0.11-0.8
			c-0.07-0.23-0.18-0.42-0.33-0.55c-0.15-0.14-0.33-0.21-0.56-0.2c-0.22,0-0.48,0.09-0.78,0.26c-0.3,0.17-0.56,0.39-0.79,0.65
			c-0.22,0.26-0.4,0.54-0.54,0.85c-0.15,0.3-0.25,0.61-0.32,0.93c-0.07,0.31-0.1,0.62-0.1,0.91c0,0.3,0.04,0.57,0.11,0.81
			c0.07,0.23,0.19,0.42,0.33,0.56c0.15,0.13,0.34,0.2,0.56,0.2c0.22-0.01,0.48-0.09,0.78-0.26c0.31-0.18,0.57-0.4,0.8-0.66
			c0.22-0.26,0.41-0.55,0.54-0.86C92.57,146.02,92.68,145.71,92.75,145.39"/>
	</g>
</g>
<g>
	<g>
		<polygon class="st6" points="111.56,141.73 111.6,155.43 106.37,158.45 106.33,144.75 		"/>
	</g>
	<g>
		<polygon class="st6" points="123.28,125.36 123.35,148.65 118.12,151.67 118.06,128.38 		"/>
	</g>
	<g>
		<polygon class="st6" points="132.22,104 139.16,107.96 134.85,110.45 134.94,141.96 129.71,144.98 129.62,113.46 125.31,115.95 		
			"/>
	</g>
</g>
<g>
	
		<linearGradient id="SVGID_00000038374738354621158660000017018579354182652815_" gradientUnits="userSpaceOnUse" x1="166.3257" y1="134.7277" x2="177.233" y2="147.2751">
		<stop  offset="0" style="stop-color:#DCEFE4"/>
		<stop  offset="0.0889" style="stop-color:#C8EBE2"/>
		<stop  offset="0.2703" style="stop-color:#96E0DD"/>
		<stop  offset="0.4951" style="stop-color:#4FD1D6"/>
		<stop  offset="0.6514" style="stop-color:#86ABE1"/>
		<stop  offset="0.8106" style="stop-color:#B788EB"/>
		<stop  offset="0.932" style="stop-color:#D673F1"/>
		<stop  offset="1" style="stop-color:#E16BF3"/>
	</linearGradient>
	<path style="fill:url(#SVGID_00000038374738354621158660000017018579354182652815_);" d="M171.75,130.35
		c5.12-2.96,9.28-0.58,9.29,5.3c0.02,5.88-4.11,13.05-9.23,16c-5.12,2.96-9.28,0.58-9.29-5.31
		C162.5,140.47,166.63,133.31,171.75,130.35z"/>
</g>
<g>
	<g>
		<polygon class="st6" points="179.47,73 179.53,94.46 164.75,103 164.69,81.54 		"/>
	</g>
</g>
</svg>
