<?xml version="1.0" encoding="utf-8"?>
<!-- Generator: Adobe Illustrator 26.4.1, SVG Export Plug-In . SVG Version: 6.00 Build 0)  -->
<svg version="1.1" id="Layer_1" xmlns="http://www.w3.org/2000/svg" xmlns:xlink="http://www.w3.org/1999/xlink" x="0px" y="0px"
	 viewBox="0 0 427.3 427.3" style="enable-background:new 0 0 427.3 427.3;" xml:space="preserve">
<style type="text/css">
	.st0{fill:#DDE5ED;}
	.st1{fill:url(#SVGID_1_);}
	.st2{fill:#3C4451;}
</style>
<circle class="st0" cx="213.6" cy="213.6" r="213.6"/>
<g>
	
		<linearGradient id="SVGID_1_" gradientUnits="userSpaceOnUse" x1="214.4791" y1="3716.0906" x2="307.0481" y2="3830.4038" gradientTransform="matrix(1 0 0 1 0 -3570.7185)">
		<stop  offset="0" style="stop-color:#DCEFE4"/>
		<stop  offset="8.890000e-02" style="stop-color:#C8EBE2"/>
		<stop  offset="0.2703" style="stop-color:#96E0DD"/>
		<stop  offset="0.4951" style="stop-color:#4FD1D6"/>
		<stop  offset="0.6514" style="stop-color:#86ABE1"/>
		<stop  offset="0.8106" style="stop-color:#B788EB"/>
		<stop  offset="0.932" style="stop-color:#D673F1"/>
		<stop  offset="1" style="stop-color:#E16BF3"/>
	</linearGradient>
	<path class="st1" d="M343.9,197.1c0,0-10.7,137-218.4,53.6c0,0,96.3-145.5,165.9-144.5c41.2,0.7,51.4,23.2,51.4,23.2
		s14.5-5.8,32.4-0.7C375.3,128.7,347.1,146.4,343.9,197.1L343.9,197.1z"/>
	<g>
		<path class="st2" d="M390.2,122.3c-12.8-14.7-31-13.5-43.1-9.6c-24.4-26.3-56.8-29.9-91.9-10.1c-8,4.5-15.1,9.6-21.1,14.5v26
			c5.8-5.8,17-16,30.6-23.7c29.4-16.6,53-13,72.1,10.9l5,6.2l7.1-3.7c0.4-0.2,5.7-3.1,12.2-3.4c-10.7,8-22,21.3-22,42.1v2.5
			c0.1,15.7,0.1,42-15.8,65.8c-19.6,29.4-58.8,47.4-116.4,53.6c-6,0.7-11,5-12.3,10.9c-1.3,5.9,1.2,12.1,6.5,15.2
			c7.9,4.7,20,13.6,25.9,25.5c-28.1,0.4-55.7,4.1-80.5,10.8v19.9c25.9-7.6,55.5-11.6,85.7-11.6c29.3,0,58.1,3.8,83.5,11v-20
			c-6.1-1.6-12.5-3-19-4.2l19-12.2v-22.9l-47.9,30.9c-6.6-0.7-13.2-1.1-19.9-1.4c-4.1-14.7-14.5-26.1-25.2-34.5
			c136.1-19.6,136-104.4,135.9-136.9v-2.4C358.4,146.9,390.2,122.3,390.2,122.3z"/>
		
			<ellipse transform="matrix(0.9732 -0.2298 0.2298 0.9732 -22.8925 73.4218)" class="st2" cx="303.8" cy="135" rx="11.8" ry="11.8"/>
		<path class="st2" d="M180.6,272.8c3.5,0.4,7.1,0.6,10.7,0.6c8,0,16.2-0.9,24.6-2.7c33.7-7.2,57.2-21.7,69.9-42.9
			c15.9-26.6,8.2-53.7,8-54.8l-3.4-11.8l-56.1,32.4v22.2l42.3-24.4c-0.1,7.5-1.7,17.3-7.5,26.8c-9.9,16.3-29.1,27.7-57.3,33.7
			c-28.6,6.1-53.4,0-73.5-18.3c-28.2-25.7-43.4-73.2-40-123.1H79c-2.5,42.2,7.1,83,26.1,113c-17.4-13.9-30.8-32.1-40-54.6
			c-9.1-22.4-12-44.3-12.7-58.3H33.1c0.8,15.4,3.8,39.6,14,64.9c15.6,38.8,51.5,87.2,133.5,97.7L180.6,272.8z"/>
	</g>
</g>
</svg>
