<?xml version="1.0" encoding="utf-8"?>
<!-- Generator: Adobe Illustrator 26.4.1, SVG Export Plug-In . SVG Version: 6.00 Build 0)  -->
<svg version="1.1" id="Layer_1" xmlns="http://www.w3.org/2000/svg" xmlns:xlink="http://www.w3.org/1999/xlink" x="0px" y="0px"
	 viewBox="0 0 526 526" style="enable-background:new 0 0 526 526;" xml:space="preserve">
<style type="text/css">
	.st0{fill:url(#SVGID_1_);}
	.st1{fill:#3C4451;}
</style>
<linearGradient id="SVGID_1_" gradientUnits="userSpaceOnUse" x1="272.1049" y1="172.6224" x2="386.6092" y2="314.0235">
	<stop  offset="0" style="stop-color:#DCEFE4"/>
	<stop  offset="0.0889" style="stop-color:#C8EBE2"/>
	<stop  offset="0.2703" style="stop-color:#96E0DD"/>
	<stop  offset="0.4951" style="stop-color:#4FD1D6"/>
	<stop  offset="0.6514" style="stop-color:#86ABE1"/>
	<stop  offset="0.8106" style="stop-color:#B788EB"/>
	<stop  offset="0.932" style="stop-color:#D673F1"/>
	<stop  offset="1" style="stop-color:#E16BF3"/>
</linearGradient>
<path class="st0" d="M432.15,236.67c0,0-13.24,169.45-270.06,66.19c0,0,119.14-180.04,205.19-178.71
	c50.92,0.78,63.54,28.62,63.54,28.62s17.89-7.25,40.02-0.82C470.85,151.95,436.06,173.97,432.15,236.67z"/>
<g>
	<path class="st1" d="M484.81,150.73c-15.91-18.16-38.39-16.73-53.27-11.81c-30.29-32.41-70.32-36.91-113.64-12.44
		c-9.82,5.53-18.67,11.89-26.08,17.9v32.06c7.28-7.25,21.02-19.78,37.78-29.23c36.38-20.52,65.58-16.12,89.28,13.5l6.22,7.68
		l8.71-4.63c0.5-0.24,7.18-3.73,15.06-4.24c-13.32,9.82-27.32,26.26-27.32,52v3.04c0.08,19.43,0.16,51.95-19.54,81.41
		c-24.36,36.43-72.81,58.7-143.98,66.22c-7.47,0.79-13.58,6.22-15.2,13.56c-1.64,7.33,1.59,14.91,8.05,18.8
		c9.67,5.85,24.78,16.83,31.97,31.53c-34.76,0.5-68.89,5.08-99.59,13.34v24.69c32.06-9.35,68.66-14.3,105.9-14.3
		c36.24,0,71.83,4.72,103.26,13.58v-24.7c-7.63-1.97-15.47-3.72-23.46-5.25l23.46-15.1V390l-59.3,38.18
		c-8.14-0.82-16.38-1.39-24.66-1.75c-5.09-18.1-17.86-32.25-31.18-42.62c168.55-24.25,168.23-129.07,168.1-169.29v-2.99
		C445.39,181.23,484.81,150.73,484.81,150.73z"/>
	<circle class="st1" cx="377.87" cy="166.51" r="14.56"/>
	<path class="st1" d="M225.48,336.99c4.34,0.45,8.76,0.71,13.26,0.71c9.85,0,20.02-1.11,30.42-3.34c41.7-8.92,70.8-26.77,86.5-53.03
		c19.65-32.88,10.25-66.43,9.82-67.83l-4.24-14.61l-69.42,40.06v27.54l52.4-30.26c-0.13,9.29-2.09,21.39-9.21,33.17
		c-12.21,20.2-36.03,34.21-70.82,41.67c-35.48,7.6-66.06-0.05-90.92-22.69c-34.82-31.74-53.64-90.5-49.54-152.32H99.9
		c-3.12,52.16,8.76,102.62,32.27,139.69c-21.53-17.13-38.05-39.69-49.4-67.59c-11.31-27.72-14.8-54.75-15.81-72.09H43.06
		c0.95,19.04,4.71,48.95,17.32,80.25c19.3,47.95,63.6,107.84,165.08,120.86L225.48,336.99z"/>
</g>
</svg>
