<?xml version="1.0" encoding="utf-8"?>
<!-- Generator: Adobe Illustrator 26.4.1, SVG Export Plug-In . SVG Version: 6.00 Build 0)  -->
<svg version="1.1" id="Layer_1" xmlns="http://www.w3.org/2000/svg" xmlns:xlink="http://www.w3.org/1999/xlink" x="0px" y="0px"
	 viewBox="0 0 526 526" style="enable-background:new 0 0 526 526;" xml:space="preserve">
<style type="text/css">
	.st0{fill:url(#SVGID_1_);}
	.st1{fill:#FFFFFF;}
</style>
<linearGradient id="SVGID_1_" gradientUnits="userSpaceOnUse" x1="62.1351" y1="14.9524" x2="463.8649" y2="511.0476">
	<stop  offset="0" style="stop-color:#DCEFE4"/>
	<stop  offset="8.890000e-02" style="stop-color:#C8EBE2"/>
	<stop  offset="0.2703" style="stop-color:#96E0DD"/>
	<stop  offset="0.4951" style="stop-color:#4FD1D6"/>
	<stop  offset="0.6514" style="stop-color:#86ABE1"/>
	<stop  offset="0.8106" style="stop-color:#B788EB"/>
	<stop  offset="0.932" style="stop-color:#D673F1"/>
	<stop  offset="1" style="stop-color:#E16BF3"/>
</linearGradient>
<path class="st0" d="M440.1,510.2H85.9c-38.7,0-70.1-31.4-70.1-70.1V85.9c0-38.7,31.4-70.1,70.1-70.1h354.2
	c38.7,0,70.1,31.4,70.1,70.1v354.2C510.2,478.8,478.8,510.2,440.1,510.2z"/>
<g>
	<path class="st1" d="M488.1,124.6c-16.2-18.5-39.1-17-54.3-12C402.9,79.6,362.1,75,318,99.9c-10,5.6-19,12.1-26.6,18.2v32.7
		c7.4-7.4,21.4-20.2,38.5-29.8c37.1-20.9,66.8-16.4,91,13.8l6.3,7.8l8.9-4.7c0.5-0.2,7.3-3.8,15.3-4.3c-13.6,10-27.8,26.8-27.8,53
		v3.1c0.1,19.8,0.2,52.9-19.9,83c-24.8,37.1-74.2,59.8-146.7,67.5c-7.6,0.8-13.8,6.3-15.5,13.8c-1.7,7.5,1.6,15.2,8.2,19.2
		c9.9,6,25.3,17.2,32.6,32.1c-35.4,0.5-70.2,5.2-101.5,13.6V444c32.7-9.5,70-14.6,107.9-14.6c36.9,0,73.2,4.8,105.2,13.8v-25.2
		c-7.8-2-15.8-3.8-23.9-5.3l23.9-15.4v-28.9l-60.4,38.9c-8.3-0.8-16.7-1.4-25.1-1.8c-5.2-18.4-18.2-32.9-31.8-43.4
		C448.4,337.4,448,230.6,447.9,189.6v-3C447.9,155.7,488.1,124.6,488.1,124.6z"/>
	<circle class="st1" cx="379.1" cy="140.7" r="14.8"/>
	<path class="st1" d="M223.8,314.4c4.4,0.5,8.9,0.7,13.5,0.7c10,0,20.4-1.1,31-3.4c42.5-9.1,72.1-27.3,88.1-54
		c20-33.5,10.4-67.7,10-69.1l-4.3-14.9l-70.7,40.8v28.1l53.4-30.8c-0.1,9.5-2.1,21.8-9.4,33.8c-12.4,20.6-36.7,34.9-72.2,42.5
		c-36.2,7.7-67.3-0.1-92.7-23.1c-35.5-32.3-54.7-92.2-50.5-155.2H95.8c-3.2,53.2,8.9,104.6,32.9,142.3
		c-21.9-17.5-38.8-40.4-50.3-68.9c-11.5-28.2-15.1-55.8-16.1-73.5H37.9c1,19.4,4.8,49.9,17.6,81.8c19.7,48.9,64.8,109.9,168.2,123.2
		L223.8,314.4z"/>
</g>
</svg>
